%TF.GenerationSoftware,KiCad,Pcbnew,8.0.8*%
%TF.CreationDate,2025-02-03T05:11:34+01:00*%
%TF.ProjectId,WLEDController,574c4544-436f-46e7-9472-6f6c6c65722e,V1.0*%
%TF.SameCoordinates,Original*%
%TF.FileFunction,Soldermask,Top*%
%TF.FilePolarity,Negative*%
%FSLAX46Y46*%
G04 Gerber Fmt 4.6, Leading zero omitted, Abs format (unit mm)*
G04 Created by KiCad (PCBNEW 8.0.8) date 2025-02-03 05:11:34*
%MOMM*%
%LPD*%
G01*
G04 APERTURE LIST*
G04 Aperture macros list*
%AMRoundRect*
0 Rectangle with rounded corners*
0 $1 Rounding radius*
0 $2 $3 $4 $5 $6 $7 $8 $9 X,Y pos of 4 corners*
0 Add a 4 corners polygon primitive as box body*
4,1,4,$2,$3,$4,$5,$6,$7,$8,$9,$2,$3,0*
0 Add four circle primitives for the rounded corners*
1,1,$1+$1,$2,$3*
1,1,$1+$1,$4,$5*
1,1,$1+$1,$6,$7*
1,1,$1+$1,$8,$9*
0 Add four rect primitives between the rounded corners*
20,1,$1+$1,$2,$3,$4,$5,0*
20,1,$1+$1,$4,$5,$6,$7,0*
20,1,$1+$1,$6,$7,$8,$9,0*
20,1,$1+$1,$8,$9,$2,$3,0*%
G04 Aperture macros list end*
%ADD10C,2.700000*%
%ADD11C,3.000000*%
%ADD12C,2.500000*%
%ADD13RoundRect,0.250000X-0.650000X0.325000X-0.650000X-0.325000X0.650000X-0.325000X0.650000X0.325000X0*%
%ADD14RoundRect,0.375000X-0.375000X0.625000X-0.375000X-0.625000X0.375000X-0.625000X0.375000X0.625000X0*%
%ADD15RoundRect,0.500000X-1.400000X0.500000X-1.400000X-0.500000X1.400000X-0.500000X1.400000X0.500000X0*%
%ADD16R,2.000000X2.000000*%
%ADD17C,2.000000*%
%ADD18RoundRect,0.250000X0.600000X0.600000X-0.600000X0.600000X-0.600000X-0.600000X0.600000X-0.600000X0*%
%ADD19C,1.700000*%
%ADD20RoundRect,0.100000X-0.637500X-0.100000X0.637500X-0.100000X0.637500X0.100000X-0.637500X0.100000X0*%
%ADD21R,3.600000X2.700000*%
%ADD22C,1.600000*%
%ADD23O,1.600000X1.600000*%
%ADD24RoundRect,0.510205X0.739795X1.164795X-0.739795X1.164795X-0.739795X-1.164795X0.739795X-1.164795X0*%
%ADD25RoundRect,0.150000X0.150000X-0.825000X0.150000X0.825000X-0.150000X0.825000X-0.150000X-0.825000X0*%
%ADD26RoundRect,0.250000X0.625000X-0.312500X0.625000X0.312500X-0.625000X0.312500X-0.625000X-0.312500X0*%
%ADD27RoundRect,0.250000X0.850000X0.350000X-0.850000X0.350000X-0.850000X-0.350000X0.850000X-0.350000X0*%
%ADD28RoundRect,0.250000X2.950000X2.650000X-2.950000X2.650000X-2.950000X-2.650000X2.950000X-2.650000X0*%
%ADD29RoundRect,0.250000X0.650000X-0.325000X0.650000X0.325000X-0.650000X0.325000X-0.650000X-0.325000X0*%
%ADD30R,4.240000X3.810000*%
%ADD31R,1.800000X1.400000*%
%ADD32O,1.800000X1.400000*%
%ADD33RoundRect,0.250000X-0.625000X0.312500X-0.625000X-0.312500X0.625000X-0.312500X0.625000X0.312500X0*%
%ADD34RoundRect,0.250000X0.500000X-0.750000X0.500000X0.750000X-0.500000X0.750000X-0.500000X-0.750000X0*%
%ADD35RoundRect,0.250000X1.650000X-0.750000X1.650000X0.750000X-1.650000X0.750000X-1.650000X-0.750000X0*%
%ADD36RoundRect,0.250000X-0.312500X-0.625000X0.312500X-0.625000X0.312500X0.625000X-0.312500X0.625000X0*%
%ADD37RoundRect,0.250000X0.325000X0.650000X-0.325000X0.650000X-0.325000X-0.650000X0.325000X-0.650000X0*%
%ADD38RoundRect,0.250000X-0.325000X-0.650000X0.325000X-0.650000X0.325000X0.650000X-0.325000X0.650000X0*%
%ADD39C,1.900000*%
%ADD40RoundRect,0.250000X-0.500000X-1.100000X0.500000X-1.100000X0.500000X1.100000X-0.500000X1.100000X0*%
%ADD41R,3.810000X4.240000*%
G04 APERTURE END LIST*
D10*
%TO.C,J1*%
X101550000Y-68410000D03*
X101550000Y-64600000D03*
X101550000Y-60790000D03*
%TD*%
D11*
%TO.C,K1*%
X127580000Y-60990000D03*
D12*
X129530000Y-67040000D03*
D11*
X141730000Y-67040000D03*
X141780000Y-54990000D03*
D12*
X129530000Y-55040000D03*
%TD*%
D13*
%TO.C,C11*%
X141160000Y-83345000D03*
X141160000Y-86295000D03*
%TD*%
D14*
%TO.C,U1*%
X117040000Y-130695000D03*
X114740000Y-130695000D03*
D15*
X114740000Y-136995000D03*
D14*
X112440000Y-130695000D03*
%TD*%
D16*
%TO.C,C18*%
X152175000Y-101297323D03*
D17*
X152175000Y-106297323D03*
%TD*%
D13*
%TO.C,C14*%
X161065000Y-106205000D03*
X161065000Y-109155000D03*
%TD*%
D18*
%TO.C,J2*%
X107697500Y-134810000D03*
D19*
X105157500Y-134810000D03*
X107697500Y-132270000D03*
X105157500Y-132270000D03*
X107697500Y-129730000D03*
X105157500Y-129730000D03*
X107697500Y-127190000D03*
X105157500Y-127190000D03*
%TD*%
D20*
%TO.C,U4*%
X138297500Y-91125000D03*
X138297500Y-91775000D03*
X138297500Y-92425000D03*
X138297500Y-93075000D03*
X138297500Y-93725000D03*
X138297500Y-94375000D03*
X138297500Y-95025000D03*
X144022500Y-95025000D03*
X144022500Y-94375000D03*
X144022500Y-93725000D03*
X144022500Y-93075000D03*
X144022500Y-92425000D03*
X144022500Y-91775000D03*
X144022500Y-91125000D03*
%TD*%
D16*
%TO.C,C16*%
X152175000Y-63402323D03*
D17*
X152175000Y-68402323D03*
%TD*%
D21*
%TO.C,L2*%
X126555000Y-75590000D03*
X126555000Y-83890000D03*
%TD*%
D22*
%TO.C,R7*%
X148780000Y-74660000D03*
D23*
X158940000Y-74660000D03*
%TD*%
D22*
%TO.C,R10*%
X148780000Y-131810000D03*
D23*
X158940000Y-131810000D03*
%TD*%
D24*
%TO.C,R12*%
X178070000Y-82075000D03*
X173270000Y-82075000D03*
%TD*%
D25*
%TO.C,U7*%
X175035000Y-112695000D03*
X176305000Y-112695000D03*
X177575000Y-112695000D03*
X178845000Y-112695000D03*
X178845000Y-107745000D03*
X177575000Y-107745000D03*
X176305000Y-107745000D03*
X175035000Y-107745000D03*
%TD*%
D26*
%TO.C,R2*%
X142430000Y-121080500D03*
X142430000Y-118155500D03*
%TD*%
D27*
%TO.C,Q1*%
X118300000Y-77950000D03*
D28*
X112000000Y-75670000D03*
D27*
X118300000Y-73390000D03*
%TD*%
D16*
%TO.C,C17*%
X152175000Y-82247323D03*
D17*
X152175000Y-87247323D03*
%TD*%
D29*
%TO.C,C10*%
X115125000Y-84390000D03*
X115125000Y-81440000D03*
%TD*%
D10*
%TO.C,J6*%
X186650000Y-120380000D03*
X186650000Y-124190000D03*
X186650000Y-128000000D03*
%TD*%
D30*
%TO.C,F3*%
X161055000Y-82075000D03*
X167425000Y-82075000D03*
%TD*%
D10*
%TO.C,J3*%
X186650000Y-63230000D03*
X186650000Y-67040000D03*
X186650000Y-70850000D03*
%TD*%
D13*
%TO.C,C15*%
X161065000Y-125255000D03*
X161065000Y-128205000D03*
%TD*%
D31*
%TO.C,D1*%
X97980000Y-79740000D03*
D32*
X97980000Y-77200000D03*
%TD*%
D13*
%TO.C,C22*%
X171640000Y-108745000D03*
X171640000Y-111695000D03*
%TD*%
D33*
%TO.C,R6*%
X134810000Y-83357500D03*
X134810000Y-86282500D03*
%TD*%
D26*
%TO.C,R5*%
X137985000Y-86282500D03*
X137985000Y-83357500D03*
%TD*%
D21*
%TO.C,L1*%
X124900000Y-128425000D03*
X124900000Y-136725000D03*
%TD*%
D13*
%TO.C,C12*%
X161065000Y-68105000D03*
X161065000Y-71055000D03*
%TD*%
D30*
%TO.C,F5*%
X161055000Y-120380000D03*
X167425000Y-120380000D03*
%TD*%
D34*
%TO.C,Q2*%
X135050000Y-80350000D03*
D35*
X137350000Y-74050000D03*
D34*
X137350000Y-80350000D03*
X139650000Y-80350000D03*
%TD*%
D29*
%TO.C,C2*%
X118300000Y-57085000D03*
X118300000Y-54135000D03*
%TD*%
D30*
%TO.C,F4*%
X161055000Y-101125000D03*
X167425000Y-101125000D03*
%TD*%
D22*
%TO.C,R9*%
X148780000Y-112760000D03*
D23*
X158940000Y-112760000D03*
%TD*%
D29*
%TO.C,C9*%
X118300000Y-84390000D03*
X118300000Y-81440000D03*
%TD*%
D36*
%TO.C,R3*%
X123632500Y-124460000D03*
X126557500Y-124460000D03*
%TD*%
D29*
%TO.C,C5*%
X112835000Y-127700000D03*
X112835000Y-124750000D03*
%TD*%
D37*
%TO.C,C7*%
X130820000Y-140195000D03*
X127870000Y-140195000D03*
%TD*%
D23*
%TO.C,U2*%
X134425000Y-128765000D03*
X134425000Y-131305000D03*
X134425000Y-133845000D03*
X142045000Y-133845000D03*
X142045000Y-131305000D03*
X142045000Y-128765000D03*
%TD*%
D38*
%TO.C,C8*%
X134220000Y-140195000D03*
X137170000Y-140195000D03*
%TD*%
D26*
%TO.C,R4*%
X104965000Y-84377500D03*
X104965000Y-81452500D03*
%TD*%
D13*
%TO.C,C20*%
X171640000Y-70645000D03*
X171640000Y-73595000D03*
%TD*%
D29*
%TO.C,C3*%
X122110000Y-57085000D03*
X122110000Y-54135000D03*
%TD*%
D25*
%TO.C,U6*%
X175035000Y-93645000D03*
X176305000Y-93645000D03*
X177575000Y-93645000D03*
X178845000Y-93645000D03*
X178845000Y-88695000D03*
X177575000Y-88695000D03*
X176305000Y-88695000D03*
X175035000Y-88695000D03*
%TD*%
D13*
%TO.C,C13*%
X161065000Y-87155000D03*
X161065000Y-90105000D03*
%TD*%
D24*
%TO.C,R13*%
X178070000Y-101125000D03*
X173270000Y-101125000D03*
%TD*%
%TO.C,R11*%
X178070000Y-63230000D03*
X173270000Y-63230000D03*
%TD*%
D39*
%TO.C,U3*%
X125920000Y-90535000D03*
X125920000Y-93075000D03*
X123380000Y-90535000D03*
X123380000Y-93075000D03*
X120840000Y-90535000D03*
X120840000Y-93075000D03*
X118300000Y-90535000D03*
X118300000Y-93075000D03*
X115760000Y-90535000D03*
X115760000Y-93075000D03*
X113220000Y-90535000D03*
X113220000Y-93075000D03*
X110680000Y-90535000D03*
X110680000Y-93075000D03*
X108140000Y-90535000D03*
X108140000Y-93075000D03*
X105600000Y-90535000D03*
X105600000Y-93075000D03*
X103060000Y-90535000D03*
X103060000Y-93075000D03*
X125920000Y-115935000D03*
X125920000Y-118475000D03*
X123380000Y-115935000D03*
X123380000Y-118475000D03*
X120840000Y-115935000D03*
X120840000Y-118475000D03*
X118300000Y-115935000D03*
X118300000Y-118475000D03*
X115760000Y-115935000D03*
X115760000Y-118475000D03*
X113220000Y-115935000D03*
X113220000Y-118475000D03*
X110680000Y-115935000D03*
X110680000Y-118475000D03*
X108140000Y-115935000D03*
X108140000Y-118475000D03*
X105600000Y-115935000D03*
X105600000Y-118475000D03*
X103060000Y-115935000D03*
X103060000Y-118475000D03*
%TD*%
D22*
%TO.C,R8*%
X148780000Y-93710000D03*
D23*
X158940000Y-93710000D03*
%TD*%
D24*
%TO.C,R14*%
X178070000Y-120380000D03*
X173270000Y-120380000D03*
%TD*%
D16*
%TO.C,C6*%
X120332000Y-66232677D03*
D17*
X120332000Y-61232677D03*
%TD*%
D40*
%TO.C,D2*%
X127330000Y-71485000D03*
X132130000Y-71485000D03*
%TD*%
D38*
%TO.C,C1*%
X113265000Y-140195000D03*
X116215000Y-140195000D03*
%TD*%
D25*
%TO.C,U8*%
X175035000Y-131745000D03*
X176305000Y-131745000D03*
X177575000Y-131745000D03*
X178845000Y-131745000D03*
X178845000Y-126795000D03*
X177575000Y-126795000D03*
X176305000Y-126795000D03*
X175035000Y-126795000D03*
%TD*%
D13*
%TO.C,C23*%
X171640000Y-127795000D03*
X171640000Y-130745000D03*
%TD*%
D10*
%TO.C,J5*%
X186650000Y-101125000D03*
X186650000Y-104935000D03*
X186650000Y-108745000D03*
%TD*%
D13*
%TO.C,C21*%
X171640000Y-89695000D03*
X171640000Y-92645000D03*
%TD*%
D25*
%TO.C,U5*%
X175035000Y-74595000D03*
X176305000Y-74595000D03*
X177575000Y-74595000D03*
X178845000Y-74595000D03*
X178845000Y-69645000D03*
X177575000Y-69645000D03*
X176305000Y-69645000D03*
X175035000Y-69645000D03*
%TD*%
D29*
%TO.C,C4*%
X116645000Y-127700000D03*
X116645000Y-124750000D03*
%TD*%
D10*
%TO.C,J4*%
X186650000Y-82095000D03*
X186650000Y-85905000D03*
X186650000Y-89715000D03*
%TD*%
D16*
%TO.C,C19*%
X152175000Y-120552323D03*
D17*
X152175000Y-125552323D03*
%TD*%
D41*
%TO.C,F1*%
X111950000Y-61315000D03*
X111950000Y-67685000D03*
%TD*%
D33*
%TO.C,R1*%
X142430000Y-110789500D03*
X142430000Y-113714500D03*
%TD*%
D30*
%TO.C,F2*%
X161055000Y-63230000D03*
X167425000Y-63230000D03*
%TD*%
M02*
