%TF.GenerationSoftware,KiCad,Pcbnew,8.0.8*%
%TF.CreationDate,2025-02-03T05:11:34+01:00*%
%TF.ProjectId,WLEDController,574c4544-436f-46e7-9472-6f6c6c65722e,V1.0*%
%TF.SameCoordinates,Original*%
%TF.FileFunction,Copper,L1,Top*%
%TF.FilePolarity,Positive*%
%FSLAX46Y46*%
G04 Gerber Fmt 4.6, Leading zero omitted, Abs format (unit mm)*
G04 Created by KiCad (PCBNEW 8.0.8) date 2025-02-03 05:11:34*
%MOMM*%
%LPD*%
G01*
G04 APERTURE LIST*
G04 Aperture macros list*
%AMRoundRect*
0 Rectangle with rounded corners*
0 $1 Rounding radius*
0 $2 $3 $4 $5 $6 $7 $8 $9 X,Y pos of 4 corners*
0 Add a 4 corners polygon primitive as box body*
4,1,4,$2,$3,$4,$5,$6,$7,$8,$9,$2,$3,0*
0 Add four circle primitives for the rounded corners*
1,1,$1+$1,$2,$3*
1,1,$1+$1,$4,$5*
1,1,$1+$1,$6,$7*
1,1,$1+$1,$8,$9*
0 Add four rect primitives between the rounded corners*
20,1,$1+$1,$2,$3,$4,$5,0*
20,1,$1+$1,$4,$5,$6,$7,0*
20,1,$1+$1,$6,$7,$8,$9,0*
20,1,$1+$1,$8,$9,$2,$3,0*%
G04 Aperture macros list end*
%TA.AperFunction,ComponentPad*%
%ADD10C,2.700000*%
%TD*%
%TA.AperFunction,ComponentPad*%
%ADD11C,3.000000*%
%TD*%
%TA.AperFunction,ComponentPad*%
%ADD12C,2.500000*%
%TD*%
%TA.AperFunction,SMDPad,CuDef*%
%ADD13RoundRect,0.250000X-0.650000X0.325000X-0.650000X-0.325000X0.650000X-0.325000X0.650000X0.325000X0*%
%TD*%
%TA.AperFunction,SMDPad,CuDef*%
%ADD14RoundRect,0.375000X-0.375000X0.625000X-0.375000X-0.625000X0.375000X-0.625000X0.375000X0.625000X0*%
%TD*%
%TA.AperFunction,SMDPad,CuDef*%
%ADD15RoundRect,0.500000X-1.400000X0.500000X-1.400000X-0.500000X1.400000X-0.500000X1.400000X0.500000X0*%
%TD*%
%TA.AperFunction,ComponentPad*%
%ADD16R,2.000000X2.000000*%
%TD*%
%TA.AperFunction,ComponentPad*%
%ADD17C,2.000000*%
%TD*%
%TA.AperFunction,ComponentPad*%
%ADD18RoundRect,0.250000X0.600000X0.600000X-0.600000X0.600000X-0.600000X-0.600000X0.600000X-0.600000X0*%
%TD*%
%TA.AperFunction,ComponentPad*%
%ADD19C,1.700000*%
%TD*%
%TA.AperFunction,SMDPad,CuDef*%
%ADD20RoundRect,0.100000X-0.637500X-0.100000X0.637500X-0.100000X0.637500X0.100000X-0.637500X0.100000X0*%
%TD*%
%TA.AperFunction,SMDPad,CuDef*%
%ADD21R,3.600000X2.700000*%
%TD*%
%TA.AperFunction,ComponentPad*%
%ADD22C,1.600000*%
%TD*%
%TA.AperFunction,ComponentPad*%
%ADD23O,1.600000X1.600000*%
%TD*%
%TA.AperFunction,SMDPad,CuDef*%
%ADD24RoundRect,0.510205X0.739795X1.164795X-0.739795X1.164795X-0.739795X-1.164795X0.739795X-1.164795X0*%
%TD*%
%TA.AperFunction,SMDPad,CuDef*%
%ADD25RoundRect,0.150000X0.150000X-0.825000X0.150000X0.825000X-0.150000X0.825000X-0.150000X-0.825000X0*%
%TD*%
%TA.AperFunction,SMDPad,CuDef*%
%ADD26RoundRect,0.250000X0.625000X-0.312500X0.625000X0.312500X-0.625000X0.312500X-0.625000X-0.312500X0*%
%TD*%
%TA.AperFunction,SMDPad,CuDef*%
%ADD27RoundRect,0.250000X0.850000X0.350000X-0.850000X0.350000X-0.850000X-0.350000X0.850000X-0.350000X0*%
%TD*%
%TA.AperFunction,SMDPad,CuDef*%
%ADD28RoundRect,0.250000X2.950000X2.650000X-2.950000X2.650000X-2.950000X-2.650000X2.950000X-2.650000X0*%
%TD*%
%TA.AperFunction,SMDPad,CuDef*%
%ADD29RoundRect,0.250000X0.650000X-0.325000X0.650000X0.325000X-0.650000X0.325000X-0.650000X-0.325000X0*%
%TD*%
%TA.AperFunction,SMDPad,CuDef*%
%ADD30R,4.240000X3.810000*%
%TD*%
%TA.AperFunction,ComponentPad*%
%ADD31R,1.800000X1.400000*%
%TD*%
%TA.AperFunction,ComponentPad*%
%ADD32O,1.800000X1.400000*%
%TD*%
%TA.AperFunction,SMDPad,CuDef*%
%ADD33RoundRect,0.250000X-0.625000X0.312500X-0.625000X-0.312500X0.625000X-0.312500X0.625000X0.312500X0*%
%TD*%
%TA.AperFunction,SMDPad,CuDef*%
%ADD34RoundRect,0.250000X0.500000X-0.750000X0.500000X0.750000X-0.500000X0.750000X-0.500000X-0.750000X0*%
%TD*%
%TA.AperFunction,SMDPad,CuDef*%
%ADD35RoundRect,0.250000X1.650000X-0.750000X1.650000X0.750000X-1.650000X0.750000X-1.650000X-0.750000X0*%
%TD*%
%TA.AperFunction,SMDPad,CuDef*%
%ADD36RoundRect,0.250000X-0.312500X-0.625000X0.312500X-0.625000X0.312500X0.625000X-0.312500X0.625000X0*%
%TD*%
%TA.AperFunction,SMDPad,CuDef*%
%ADD37RoundRect,0.250000X0.325000X0.650000X-0.325000X0.650000X-0.325000X-0.650000X0.325000X-0.650000X0*%
%TD*%
%TA.AperFunction,SMDPad,CuDef*%
%ADD38RoundRect,0.250000X-0.325000X-0.650000X0.325000X-0.650000X0.325000X0.650000X-0.325000X0.650000X0*%
%TD*%
%TA.AperFunction,ComponentPad*%
%ADD39C,1.900000*%
%TD*%
%TA.AperFunction,SMDPad,CuDef*%
%ADD40RoundRect,0.250000X-0.500000X-1.100000X0.500000X-1.100000X0.500000X1.100000X-0.500000X1.100000X0*%
%TD*%
%TA.AperFunction,SMDPad,CuDef*%
%ADD41R,3.810000X4.240000*%
%TD*%
%TA.AperFunction,ViaPad*%
%ADD42C,0.600000*%
%TD*%
%TA.AperFunction,Conductor*%
%ADD43C,0.317500*%
%TD*%
%TA.AperFunction,Conductor*%
%ADD44C,0.635000*%
%TD*%
%TA.AperFunction,Conductor*%
%ADD45C,1.270000*%
%TD*%
%TA.AperFunction,Conductor*%
%ADD46C,0.158750*%
%TD*%
G04 APERTURE END LIST*
D10*
%TO.P,J1,1,Pin_1*%
%TO.N,GND*%
X101550000Y-68410000D03*
%TO.P,J1,2,Pin_2*%
%TO.N,unconnected-(J1-Pin_2-Pad2)*%
X101550000Y-64600000D03*
%TO.P,J1,3,Pin_3*%
%TO.N,Net-(J1-Pin_3)*%
X101550000Y-60790000D03*
%TD*%
D11*
%TO.P,K1,1*%
%TO.N,+5V*%
X127580000Y-60990000D03*
D12*
%TO.P,K1,2*%
%TO.N,Net-(D2-A)*%
X129530000Y-67040000D03*
D11*
%TO.P,K1,3*%
%TO.N,+5V_LED*%
X141730000Y-67040000D03*
%TO.P,K1,4*%
%TO.N,unconnected-(K1-Pad4)*%
X141780000Y-54990000D03*
D12*
%TO.P,K1,5*%
%TO.N,+5V*%
X129530000Y-55040000D03*
%TD*%
D13*
%TO.P,C11,1*%
%TO.N,GND*%
X141160000Y-83345000D03*
%TO.P,C11,2*%
%TO.N,+5V_D*%
X141160000Y-86295000D03*
%TD*%
D14*
%TO.P,U1,1,GND*%
%TO.N,GND*%
X117040000Y-130695000D03*
%TO.P,U1,2,VO*%
%TO.N,Net-(U1-VO)*%
X114740000Y-130695000D03*
D15*
X114740000Y-136995000D03*
D14*
%TO.P,U1,3,VI*%
%TO.N,+5V_D*%
X112440000Y-130695000D03*
%TD*%
D16*
%TO.P,C18,1*%
%TO.N,+5V_LED*%
X152175000Y-101297323D03*
D17*
%TO.P,C18,2*%
%TO.N,GND*%
X152175000Y-106297323D03*
%TD*%
D13*
%TO.P,C14,1*%
%TO.N,+5V_LED*%
X161065000Y-106205000D03*
%TO.P,C14,2*%
%TO.N,GND*%
X161065000Y-109155000D03*
%TD*%
D18*
%TO.P,J2,1,Pin_1*%
%TO.N,+5V_D*%
X107697500Y-134810000D03*
D19*
%TO.P,J2,2,Pin_2*%
%TO.N,GND*%
X105157500Y-134810000D03*
%TO.P,J2,3,Pin_3*%
%TO.N,DOUT*%
X107697500Y-132270000D03*
%TO.P,J2,4,Pin_4*%
%TO.N,GND*%
X105157500Y-132270000D03*
%TO.P,J2,5,Pin_5*%
%TO.N,BCK*%
X107697500Y-129730000D03*
%TO.P,J2,6,Pin_6*%
%TO.N,LRCK*%
X105157500Y-129730000D03*
%TO.P,J2,7,Pin_7*%
%TO.N,GND*%
X107697500Y-127190000D03*
%TO.P,J2,8,Pin_8*%
%TO.N,MCK*%
X105157500Y-127190000D03*
%TD*%
D20*
%TO.P,U4,1*%
%TO.N,GND*%
X138297500Y-91125000D03*
%TO.P,U4,2*%
%TO.N,DATA3*%
X138297500Y-91775000D03*
%TO.P,U4,3*%
%TO.N,Net-(R9-Pad1)*%
X138297500Y-92425000D03*
%TO.P,U4,4*%
%TO.N,GND*%
X138297500Y-93075000D03*
%TO.P,U4,5*%
%TO.N,DATA4*%
X138297500Y-93725000D03*
%TO.P,U4,6*%
%TO.N,Net-(R10-Pad1)*%
X138297500Y-94375000D03*
%TO.P,U4,7,GND*%
%TO.N,GND*%
X138297500Y-95025000D03*
%TO.P,U4,8*%
%TO.N,Net-(R8-Pad1)*%
X144022500Y-95025000D03*
%TO.P,U4,9*%
%TO.N,DATA2*%
X144022500Y-94375000D03*
%TO.P,U4,10*%
%TO.N,GND*%
X144022500Y-93725000D03*
%TO.P,U4,11*%
%TO.N,Net-(R7-Pad1)*%
X144022500Y-93075000D03*
%TO.P,U4,12*%
%TO.N,DATA1*%
X144022500Y-92425000D03*
%TO.P,U4,13*%
%TO.N,GND*%
X144022500Y-91775000D03*
%TO.P,U4,14,VCC*%
%TO.N,+5V_D*%
X144022500Y-91125000D03*
%TD*%
D16*
%TO.P,C16,1*%
%TO.N,+5V_LED*%
X152175000Y-63402323D03*
D17*
%TO.P,C16,2*%
%TO.N,GND*%
X152175000Y-68402323D03*
%TD*%
D21*
%TO.P,L2,1,1*%
%TO.N,+5V*%
X126555000Y-75590000D03*
%TO.P,L2,2,2*%
%TO.N,+5V_D*%
X126555000Y-83890000D03*
%TD*%
D22*
%TO.P,R7,1*%
%TO.N,Net-(R7-Pad1)*%
X148780000Y-74660000D03*
D23*
%TO.P,R7,2*%
%TO.N,LED_DATA1*%
X158940000Y-74660000D03*
%TD*%
D22*
%TO.P,R10,1*%
%TO.N,Net-(R10-Pad1)*%
X148780000Y-131810000D03*
D23*
%TO.P,R10,2*%
%TO.N,LED_DATA4*%
X158940000Y-131810000D03*
%TD*%
D24*
%TO.P,R12,1*%
%TO.N,Net-(J4-Pin_1)*%
X178070000Y-82075000D03*
%TO.P,R12,2*%
%TO.N,Net-(U6-IN+)*%
X173270000Y-82075000D03*
%TD*%
D25*
%TO.P,U7,1,A1*%
%TO.N,SDA*%
X175035000Y-112695000D03*
%TO.P,U7,2,A0*%
X176305000Y-112695000D03*
%TO.P,U7,3,SDA*%
X177575000Y-112695000D03*
%TO.P,U7,4,SCL*%
%TO.N,SCL*%
X178845000Y-112695000D03*
%TO.P,U7,5,VS*%
%TO.N,+3.3V_ESP*%
X178845000Y-107745000D03*
%TO.P,U7,6,GND*%
%TO.N,GND*%
X177575000Y-107745000D03*
%TO.P,U7,7,IN-*%
%TO.N,Net-(J5-Pin_1)*%
X176305000Y-107745000D03*
%TO.P,U7,8,IN+*%
%TO.N,Net-(U7-IN+)*%
X175035000Y-107745000D03*
%TD*%
D26*
%TO.P,R2,1*%
%TO.N,+3.3V_ESP*%
X142430000Y-121080500D03*
%TO.P,R2,2*%
%TO.N,SCL*%
X142430000Y-118155500D03*
%TD*%
D27*
%TO.P,Q1,1,G*%
%TO.N,GND*%
X118300000Y-77950000D03*
D28*
%TO.P,Q1,2,D*%
%TO.N,Net-(Q1-D)*%
X112000000Y-75670000D03*
D27*
%TO.P,Q1,3,S*%
%TO.N,+5V*%
X118300000Y-73390000D03*
%TD*%
D16*
%TO.P,C17,1*%
%TO.N,+5V_LED*%
X152175000Y-82247323D03*
D17*
%TO.P,C17,2*%
%TO.N,GND*%
X152175000Y-87247323D03*
%TD*%
D29*
%TO.P,C10,1*%
%TO.N,+5V_D*%
X115125000Y-84390000D03*
%TO.P,C10,2*%
%TO.N,GND*%
X115125000Y-81440000D03*
%TD*%
D10*
%TO.P,J6,1,Pin_1*%
%TO.N,Net-(J6-Pin_1)*%
X186650000Y-120380000D03*
%TO.P,J6,2,Pin_2*%
%TO.N,LED_DATA4*%
X186650000Y-124190000D03*
%TO.P,J6,3,Pin_3*%
%TO.N,GND*%
X186650000Y-128000000D03*
%TD*%
D30*
%TO.P,F3,1*%
%TO.N,+5V_LED*%
X161055000Y-82075000D03*
%TO.P,F3,2*%
%TO.N,Net-(U6-IN+)*%
X167425000Y-82075000D03*
%TD*%
D10*
%TO.P,J3,1,Pin_1*%
%TO.N,Net-(J3-Pin_1)*%
X186650000Y-63230000D03*
%TO.P,J3,2,Pin_2*%
%TO.N,LED_DATA1*%
X186650000Y-67040000D03*
%TO.P,J3,3,Pin_3*%
%TO.N,GND*%
X186650000Y-70850000D03*
%TD*%
D13*
%TO.P,C15,1*%
%TO.N,+5V_LED*%
X161065000Y-125255000D03*
%TO.P,C15,2*%
%TO.N,GND*%
X161065000Y-128205000D03*
%TD*%
D31*
%TO.P,D1,1,KA*%
%TO.N,Net-(D1-KA)*%
X97980000Y-79740000D03*
D32*
%TO.P,D1,2,AK*%
%TO.N,Net-(D1-AK)*%
X97980000Y-77200000D03*
%TD*%
D13*
%TO.P,C22,1*%
%TO.N,+3.3V_ESP*%
X171640000Y-108745000D03*
%TO.P,C22,2*%
%TO.N,GND*%
X171640000Y-111695000D03*
%TD*%
D33*
%TO.P,R6,1*%
%TO.N,Net-(Q2-G)*%
X134810000Y-83357500D03*
%TO.P,R6,2*%
%TO.N,RELAY_CTRL*%
X134810000Y-86282500D03*
%TD*%
D26*
%TO.P,R5,1*%
%TO.N,RELAY_CTRL*%
X137985000Y-86282500D03*
%TO.P,R5,2*%
%TO.N,GND*%
X137985000Y-83357500D03*
%TD*%
D21*
%TO.P,L1,1,1*%
%TO.N,Net-(U1-VO)*%
X124900000Y-128425000D03*
%TO.P,L1,2,2*%
%TO.N,+3.3V_D*%
X124900000Y-136725000D03*
%TD*%
D13*
%TO.P,C12,1*%
%TO.N,+5V_LED*%
X161065000Y-68105000D03*
%TO.P,C12,2*%
%TO.N,GND*%
X161065000Y-71055000D03*
%TD*%
D30*
%TO.P,F5,1*%
%TO.N,+5V_LED*%
X161055000Y-120380000D03*
%TO.P,F5,2*%
%TO.N,Net-(U8-IN+)*%
X167425000Y-120380000D03*
%TD*%
D34*
%TO.P,Q2,1,G*%
%TO.N,Net-(Q2-G)*%
X135050000Y-80350000D03*
D35*
%TO.P,Q2,2,D*%
%TO.N,Net-(D2-A)*%
X137350000Y-74050000D03*
D34*
X137350000Y-80350000D03*
%TO.P,Q2,3,S*%
%TO.N,GND*%
X139650000Y-80350000D03*
%TD*%
D29*
%TO.P,C2,1*%
%TO.N,+5V*%
X118300000Y-57085000D03*
%TO.P,C2,2*%
%TO.N,GND*%
X118300000Y-54135000D03*
%TD*%
D30*
%TO.P,F4,1*%
%TO.N,+5V_LED*%
X161055000Y-101125000D03*
%TO.P,F4,2*%
%TO.N,Net-(U7-IN+)*%
X167425000Y-101125000D03*
%TD*%
D22*
%TO.P,R9,1*%
%TO.N,Net-(R9-Pad1)*%
X148780000Y-112760000D03*
D23*
%TO.P,R9,2*%
%TO.N,LED_DATA3*%
X158940000Y-112760000D03*
%TD*%
D29*
%TO.P,C9,1*%
%TO.N,+5V_D*%
X118300000Y-84390000D03*
%TO.P,C9,2*%
%TO.N,GND*%
X118300000Y-81440000D03*
%TD*%
D36*
%TO.P,R3,1*%
%TO.N,Net-(U1-VO)*%
X123632500Y-124460000D03*
%TO.P,R3,2*%
%TO.N,GND*%
X126557500Y-124460000D03*
%TD*%
D29*
%TO.P,C5,1*%
%TO.N,Net-(U1-VO)*%
X112835000Y-127700000D03*
%TO.P,C5,2*%
%TO.N,GND*%
X112835000Y-124750000D03*
%TD*%
D37*
%TO.P,C7,1*%
%TO.N,+3.3V_D*%
X130820000Y-140195000D03*
%TO.P,C7,2*%
%TO.N,GND*%
X127870000Y-140195000D03*
%TD*%
D23*
%TO.P,U2,1,SD*%
%TO.N,MIC_SD*%
X134425000Y-128765000D03*
%TO.P,U2,2,VDD*%
%TO.N,+3.3V_D*%
X134425000Y-131305000D03*
%TO.P,U2,3,GND*%
%TO.N,GND*%
X134425000Y-133845000D03*
%TO.P,U2,4,L/R*%
X142045000Y-133845000D03*
%TO.P,U2,5,WS*%
%TO.N,MIC_WS*%
X142045000Y-131305000D03*
%TO.P,U2,6,SCK*%
%TO.N,MIC_SCK*%
X142045000Y-128765000D03*
%TD*%
D38*
%TO.P,C8,1*%
%TO.N,+3.3V_D*%
X134220000Y-140195000D03*
%TO.P,C8,2*%
%TO.N,GND*%
X137170000Y-140195000D03*
%TD*%
D26*
%TO.P,R4,1*%
%TO.N,Net-(U3-IO_13{slash}TCK)*%
X104965000Y-84377500D03*
%TO.P,R4,2*%
%TO.N,Net-(D1-KA)*%
X104965000Y-81452500D03*
%TD*%
D13*
%TO.P,C20,1*%
%TO.N,+3.3V_ESP*%
X171640000Y-70645000D03*
%TO.P,C20,2*%
%TO.N,GND*%
X171640000Y-73595000D03*
%TD*%
D29*
%TO.P,C3,1*%
%TO.N,+5V*%
X122110000Y-57085000D03*
%TO.P,C3,2*%
%TO.N,GND*%
X122110000Y-54135000D03*
%TD*%
D25*
%TO.P,U6,1,A1*%
%TO.N,GND*%
X175035000Y-93645000D03*
%TO.P,U6,2,A0*%
%TO.N,SDA*%
X176305000Y-93645000D03*
%TO.P,U6,3,SDA*%
X177575000Y-93645000D03*
%TO.P,U6,4,SCL*%
%TO.N,SCL*%
X178845000Y-93645000D03*
%TO.P,U6,5,VS*%
%TO.N,+3.3V_ESP*%
X178845000Y-88695000D03*
%TO.P,U6,6,GND*%
%TO.N,GND*%
X177575000Y-88695000D03*
%TO.P,U6,7,IN-*%
%TO.N,Net-(J4-Pin_1)*%
X176305000Y-88695000D03*
%TO.P,U6,8,IN+*%
%TO.N,Net-(U6-IN+)*%
X175035000Y-88695000D03*
%TD*%
D13*
%TO.P,C13,1*%
%TO.N,+5V_LED*%
X161065000Y-87155000D03*
%TO.P,C13,2*%
%TO.N,GND*%
X161065000Y-90105000D03*
%TD*%
D24*
%TO.P,R13,1*%
%TO.N,Net-(J5-Pin_1)*%
X178070000Y-101125000D03*
%TO.P,R13,2*%
%TO.N,Net-(U7-IN+)*%
X173270000Y-101125000D03*
%TD*%
%TO.P,R11,1*%
%TO.N,Net-(J3-Pin_1)*%
X178070000Y-63230000D03*
%TO.P,R11,2*%
%TO.N,Net-(U5-IN+)*%
X173270000Y-63230000D03*
%TD*%
D39*
%TO.P,U3,1,GND*%
%TO.N,GND*%
X125920000Y-90535000D03*
%TO.P,U3,2,RST*%
%TO.N,unconnected-(U3-RST-Pad2)*%
X125920000Y-93075000D03*
%TO.P,U3,3,NC*%
%TO.N,unconnected-(U3-NC-Pad3)*%
X123380000Y-90535000D03*
%TO.P,U3,4,IO_36/SVP/A0*%
%TO.N,unconnected-(U3-IO_36{slash}SVP{slash}A0-Pad4)*%
X123380000Y-93075000D03*
%TO.P,U3,5,IO_39/SVN*%
%TO.N,unconnected-(U3-IO_39{slash}SVN-Pad5)*%
X120840000Y-90535000D03*
%TO.P,U3,6,IO_26/D0*%
%TO.N,RELAY_CTRL*%
X120840000Y-93075000D03*
%TO.P,U3,7,IO_35*%
%TO.N,unconnected-(U3-IO_35-Pad7)*%
X118300000Y-90535000D03*
%TO.P,U3,8,IO_18/D5*%
%TO.N,DATA1*%
X118300000Y-93075000D03*
%TO.P,U3,9,IO_33*%
%TO.N,DATA2*%
X115760000Y-90535000D03*
%TO.P,U3,10,IO_19/D6*%
%TO.N,DATA3*%
X115760000Y-93075000D03*
%TO.P,U3,11,IO_34*%
%TO.N,unconnected-(U3-IO_34-Pad11)*%
X113220000Y-90535000D03*
%TO.P,U3,12,IO_23/D7*%
%TO.N,DATA4*%
X113220000Y-93075000D03*
%TO.P,U3,13,IO_14/TMS*%
%TO.N,Net-(D1-AK)*%
X110680000Y-90535000D03*
%TO.P,U3,14,IO_05/D8*%
%TO.N,unconnected-(U3-IO_05{slash}D8-Pad14)*%
X110680000Y-93075000D03*
%TO.P,U3,15,NC*%
%TO.N,unconnected-(U3-NC-Pad15)*%
X108140000Y-90535000D03*
%TO.P,U3,16,3V3*%
%TO.N,+3.3V_ESP*%
X108140000Y-93075000D03*
%TO.P,U3,17,IO_09/SD2*%
%TO.N,unconnected-(U3-IO_09{slash}SD2-Pad17)*%
X105600000Y-90535000D03*
%TO.P,U3,18,IO_13/TCK*%
%TO.N,Net-(U3-IO_13{slash}TCK)*%
X105600000Y-93075000D03*
%TO.P,U3,19,CMD*%
%TO.N,unconnected-(U3-CMD-Pad19)*%
X103060000Y-90535000D03*
%TO.P,U3,20,IO_10/SD3*%
%TO.N,unconnected-(U3-IO_10{slash}SD3-Pad20)*%
X103060000Y-93075000D03*
%TO.P,U3,21,TXD*%
%TO.N,unconnected-(U3-TXD-Pad21)*%
X125920000Y-115935000D03*
%TO.P,U3,22,GND*%
%TO.N,GND*%
X125920000Y-118475000D03*
%TO.P,U3,23,RXD*%
%TO.N,unconnected-(U3-RXD-Pad23)*%
X123380000Y-115935000D03*
%TO.P,U3,24,IO_27*%
%TO.N,MIC_SCK*%
X123380000Y-118475000D03*
%TO.P,U3,25,IO_22/D1/SCL*%
%TO.N,SCL*%
X120840000Y-115935000D03*
%TO.P,U3,26,IO_25*%
%TO.N,MIC_WS*%
X120840000Y-118475000D03*
%TO.P,U3,27,IO_21/D2/SDA*%
%TO.N,SDA*%
X118300000Y-115935000D03*
%TO.P,U3,28,IO_32*%
%TO.N,MIC_SD*%
X118300000Y-118475000D03*
%TO.P,U3,29,IO_17/D3*%
%TO.N,DOUT*%
X115760000Y-115935000D03*
%TO.P,U3,30,IO_12/TDI*%
%TO.N,unconnected-(U3-IO_12{slash}TDI-Pad30)*%
X115760000Y-118475000D03*
%TO.P,U3,31,IO_16/D4*%
%TO.N,LRCK*%
X113220000Y-115935000D03*
%TO.P,U3,32,IO_04*%
%TO.N,BCK*%
X113220000Y-118475000D03*
%TO.P,U3,33,GND*%
%TO.N,GND*%
X110680000Y-115935000D03*
%TO.P,U3,34,IO_00*%
%TO.N,MCK*%
X110680000Y-118475000D03*
%TO.P,U3,35,VCC_(USB)*%
%TO.N,+5V_D*%
X108140000Y-115935000D03*
%TO.P,U3,36,IO_02*%
%TO.N,unconnected-(U3-IO_02-Pad36)*%
X108140000Y-118475000D03*
%TO.P,U3,37,TD0*%
%TO.N,unconnected-(U3-TD0-Pad37)*%
X105600000Y-115935000D03*
%TO.P,U3,38,SD1*%
%TO.N,unconnected-(U3-SD1-Pad38)*%
X105600000Y-118475000D03*
%TO.P,U3,39,SD0*%
%TO.N,unconnected-(U3-SD0-Pad39)*%
X103060000Y-115935000D03*
%TO.P,U3,40,CLK*%
%TO.N,unconnected-(U3-CLK-Pad40)*%
X103060000Y-118475000D03*
%TD*%
D22*
%TO.P,R8,1*%
%TO.N,Net-(R8-Pad1)*%
X148780000Y-93710000D03*
D23*
%TO.P,R8,2*%
%TO.N,LED_DATA2*%
X158940000Y-93710000D03*
%TD*%
D24*
%TO.P,R14,1*%
%TO.N,Net-(J6-Pin_1)*%
X178070000Y-120380000D03*
%TO.P,R14,2*%
%TO.N,Net-(U8-IN+)*%
X173270000Y-120380000D03*
%TD*%
D16*
%TO.P,C6,1*%
%TO.N,+5V*%
X120332000Y-66232677D03*
D17*
%TO.P,C6,2*%
%TO.N,GND*%
X120332000Y-61232677D03*
%TD*%
D40*
%TO.P,D2,1,K*%
%TO.N,+5V*%
X127330000Y-71485000D03*
%TO.P,D2,2,A*%
%TO.N,Net-(D2-A)*%
X132130000Y-71485000D03*
%TD*%
D38*
%TO.P,C1,1*%
%TO.N,+5V_D*%
X113265000Y-140195000D03*
%TO.P,C1,2*%
%TO.N,GND*%
X116215000Y-140195000D03*
%TD*%
D25*
%TO.P,U8,1,A1*%
%TO.N,SCL*%
X175035000Y-131745000D03*
%TO.P,U8,2,A0*%
X176305000Y-131745000D03*
%TO.P,U8,3,SDA*%
%TO.N,SDA*%
X177575000Y-131745000D03*
%TO.P,U8,4,SCL*%
%TO.N,SCL*%
X178845000Y-131745000D03*
%TO.P,U8,5,VS*%
%TO.N,+3.3V_ESP*%
X178845000Y-126795000D03*
%TO.P,U8,6,GND*%
%TO.N,GND*%
X177575000Y-126795000D03*
%TO.P,U8,7,IN-*%
%TO.N,Net-(J6-Pin_1)*%
X176305000Y-126795000D03*
%TO.P,U8,8,IN+*%
%TO.N,Net-(U8-IN+)*%
X175035000Y-126795000D03*
%TD*%
D13*
%TO.P,C23,1*%
%TO.N,+3.3V_ESP*%
X171640000Y-127795000D03*
%TO.P,C23,2*%
%TO.N,GND*%
X171640000Y-130745000D03*
%TD*%
D10*
%TO.P,J5,1,Pin_1*%
%TO.N,Net-(J5-Pin_1)*%
X186650000Y-101125000D03*
%TO.P,J5,2,Pin_2*%
%TO.N,LED_DATA3*%
X186650000Y-104935000D03*
%TO.P,J5,3,Pin_3*%
%TO.N,GND*%
X186650000Y-108745000D03*
%TD*%
D13*
%TO.P,C21,1*%
%TO.N,+3.3V_ESP*%
X171640000Y-89695000D03*
%TO.P,C21,2*%
%TO.N,GND*%
X171640000Y-92645000D03*
%TD*%
D25*
%TO.P,U5,1,A1*%
%TO.N,GND*%
X175035000Y-74595000D03*
%TO.P,U5,2,A0*%
X176305000Y-74595000D03*
%TO.P,U5,3,SDA*%
%TO.N,SDA*%
X177575000Y-74595000D03*
%TO.P,U5,4,SCL*%
%TO.N,SCL*%
X178845000Y-74595000D03*
%TO.P,U5,5,VS*%
%TO.N,+3.3V_ESP*%
X178845000Y-69645000D03*
%TO.P,U5,6,GND*%
%TO.N,GND*%
X177575000Y-69645000D03*
%TO.P,U5,7,IN-*%
%TO.N,Net-(J3-Pin_1)*%
X176305000Y-69645000D03*
%TO.P,U5,8,IN+*%
%TO.N,Net-(U5-IN+)*%
X175035000Y-69645000D03*
%TD*%
D29*
%TO.P,C4,1*%
%TO.N,Net-(U1-VO)*%
X116645000Y-127700000D03*
%TO.P,C4,2*%
%TO.N,GND*%
X116645000Y-124750000D03*
%TD*%
D10*
%TO.P,J4,1,Pin_1*%
%TO.N,Net-(J4-Pin_1)*%
X186650000Y-82095000D03*
%TO.P,J4,2,Pin_2*%
%TO.N,LED_DATA2*%
X186650000Y-85905000D03*
%TO.P,J4,3,Pin_3*%
%TO.N,GND*%
X186650000Y-89715000D03*
%TD*%
D16*
%TO.P,C19,1*%
%TO.N,+5V_LED*%
X152175000Y-120552323D03*
D17*
%TO.P,C19,2*%
%TO.N,GND*%
X152175000Y-125552323D03*
%TD*%
D41*
%TO.P,F1,1*%
%TO.N,Net-(J1-Pin_3)*%
X111950000Y-61315000D03*
%TO.P,F1,2*%
%TO.N,Net-(Q1-D)*%
X111950000Y-67685000D03*
%TD*%
D33*
%TO.P,R1,1*%
%TO.N,+3.3V_ESP*%
X142430000Y-110789500D03*
%TO.P,R1,2*%
%TO.N,SDA*%
X142430000Y-113714500D03*
%TD*%
D30*
%TO.P,F2,1*%
%TO.N,+5V_LED*%
X161055000Y-63230000D03*
%TO.P,F2,2*%
%TO.N,Net-(U5-IN+)*%
X167425000Y-63230000D03*
%TD*%
D42*
%TO.N,GND*%
X163385000Y-90535000D03*
X145986000Y-94218000D03*
X114700000Y-123400000D03*
X180276000Y-124698000D03*
X117788000Y-139814000D03*
X179895000Y-105775000D03*
X128016000Y-124460000D03*
X163385000Y-128635000D03*
X143192000Y-83042000D03*
X171640000Y-75168000D03*
X163385000Y-109585000D03*
X177990000Y-67675000D03*
X171640000Y-113268000D03*
X124396000Y-53578000D03*
X128202000Y-141846000D03*
X171640000Y-94472000D03*
X171640000Y-132318000D03*
X118804000Y-130670000D03*
X163385000Y-71485000D03*
X121094000Y-77962000D03*
X136588000Y-90916000D03*
X136838000Y-141846000D03*
X112966000Y-81772000D03*
X136588000Y-92694000D03*
X180276000Y-86598000D03*
X136588000Y-94726000D03*
X141922000Y-79994000D03*
X145986000Y-91424000D03*
%TO.N,+5V_D*%
X136715000Y-87995000D03*
X132270000Y-86090000D03*
%TO.N,SCL*%
X178752000Y-76565000D03*
X168084000Y-114538000D03*
X178752000Y-133588000D03*
X144335000Y-116570000D03*
X178752000Y-114538000D03*
X178752000Y-95488000D03*
%TO.N,SDA*%
X177482000Y-114538000D03*
X177482000Y-95488000D03*
X167576000Y-113522000D03*
X144335000Y-115300000D03*
X177482000Y-133588000D03*
X177482000Y-76565000D03*
%TO.N,+3.3V_ESP*%
X169608000Y-71104000D03*
X171132000Y-107172000D03*
X171132000Y-126222000D03*
X139890000Y-112760000D03*
X171132000Y-88122000D03*
X143065000Y-122920000D03*
%TO.N,Net-(D1-AK)*%
X110045000Y-83550000D03*
%TO.N,Net-(U3-IO_13{slash}TCK)*%
X102425000Y-84820000D03*
%TD*%
D43*
%TO.N,SCL*%
X176720000Y-134350000D02*
X178498000Y-134350000D01*
%TO.N,GND*%
X171640000Y-130745000D02*
X171640000Y-132318000D01*
D44*
X116215000Y-140195000D02*
X117407000Y-140195000D01*
D43*
X171640000Y-73595000D02*
X171640000Y-75168000D01*
X162955000Y-109155000D02*
X163385000Y-109585000D01*
D44*
X118779000Y-130695000D02*
X118804000Y-130670000D01*
D43*
X177990000Y-86598000D02*
X180276000Y-86598000D01*
D44*
X114700000Y-124710000D02*
X114740000Y-124750000D01*
D43*
X162955000Y-90105000D02*
X163385000Y-90535000D01*
X161065000Y-71055000D02*
X162955000Y-71055000D01*
X162955000Y-71055000D02*
X163385000Y-71485000D01*
X136887000Y-95025000D02*
X136588000Y-94726000D01*
X177990000Y-124698000D02*
X180276000Y-124698000D01*
X177575000Y-87013000D02*
X177990000Y-86598000D01*
X173861000Y-93645000D02*
X175035000Y-93645000D01*
X171640000Y-92645000D02*
X171640000Y-94472000D01*
X171640000Y-111695000D02*
X171640000Y-113268000D01*
X138297500Y-91125000D02*
X136797000Y-91125000D01*
X138297500Y-93075000D02*
X136969000Y-93075000D01*
X177990000Y-105775000D02*
X179895000Y-105775000D01*
D44*
X115125000Y-81440000D02*
X118300000Y-81440000D01*
D43*
X176305000Y-74595000D02*
X175035000Y-74595000D01*
X177575000Y-69645000D02*
X177575000Y-68090000D01*
X177575000Y-125113000D02*
X177990000Y-124698000D01*
X161065000Y-109155000D02*
X162955000Y-109155000D01*
X162955000Y-128205000D02*
X163385000Y-128635000D01*
X161065000Y-128205000D02*
X162955000Y-128205000D01*
X177575000Y-106190000D02*
X177990000Y-105775000D01*
D44*
X137170000Y-141514000D02*
X136838000Y-141846000D01*
X123839000Y-54135000D02*
X124396000Y-53578000D01*
X117407000Y-140195000D02*
X117788000Y-139814000D01*
X122110000Y-54135000D02*
X123839000Y-54135000D01*
D43*
X172861000Y-92645000D02*
X173861000Y-93645000D01*
X171640000Y-92645000D02*
X172861000Y-92645000D01*
X136797000Y-91125000D02*
X136588000Y-90916000D01*
D44*
X118300000Y-77950000D02*
X121082000Y-77950000D01*
X115125000Y-81440000D02*
X113298000Y-81440000D01*
D43*
X145493000Y-93725000D02*
X145986000Y-94218000D01*
D44*
X139650000Y-80350000D02*
X141566000Y-80350000D01*
X141160000Y-83345000D02*
X142889000Y-83345000D01*
D43*
X138297500Y-95025000D02*
X136887000Y-95025000D01*
D44*
X112835000Y-124750000D02*
X114740000Y-124750000D01*
D43*
X177575000Y-126795000D02*
X177575000Y-125113000D01*
X177575000Y-68090000D02*
X177990000Y-67675000D01*
X144022500Y-93725000D02*
X145493000Y-93725000D01*
X136969000Y-93075000D02*
X136588000Y-92694000D01*
X172861000Y-73595000D02*
X173926000Y-74660000D01*
D44*
X113298000Y-81440000D02*
X112966000Y-81772000D01*
X118300000Y-54135000D02*
X122110000Y-54135000D01*
D43*
X173926000Y-74660000D02*
X174970000Y-74660000D01*
D44*
X127870000Y-140195000D02*
X127870000Y-141514000D01*
D43*
X161065000Y-90105000D02*
X162955000Y-90105000D01*
X145635000Y-91775000D02*
X145986000Y-91424000D01*
X174970000Y-74660000D02*
X175035000Y-74595000D01*
D44*
X141147500Y-83357500D02*
X141160000Y-83345000D01*
X114700000Y-123400000D02*
X114700000Y-124710000D01*
D43*
X177575000Y-107745000D02*
X177575000Y-106190000D01*
D44*
X142889000Y-83345000D02*
X143192000Y-83042000D01*
X121094000Y-77962000D02*
X121082000Y-77950000D01*
X127870000Y-141514000D02*
X128202000Y-141846000D01*
D43*
X171640000Y-73595000D02*
X172861000Y-73595000D01*
X144022500Y-91775000D02*
X145635000Y-91775000D01*
X177575000Y-88695000D02*
X177575000Y-87013000D01*
D44*
X114740000Y-124750000D02*
X116645000Y-124750000D01*
X141566000Y-80350000D02*
X141922000Y-79994000D01*
X117040000Y-130695000D02*
X118779000Y-130695000D01*
X137170000Y-140195000D02*
X137170000Y-141514000D01*
X137985000Y-83357500D02*
X141147500Y-83357500D01*
X126557500Y-124460000D02*
X128016000Y-124460000D01*
D45*
%TO.N,+5V_D*%
X107697500Y-136442500D02*
X107697500Y-135750000D01*
X99885000Y-105140000D02*
X99885000Y-112125000D01*
X101405000Y-137655000D02*
X106485000Y-137655000D01*
D43*
X141160000Y-88630000D02*
X141160000Y-89646000D01*
D45*
X115125000Y-84390000D02*
X115125000Y-86598000D01*
D44*
X111565000Y-134861000D02*
X111565000Y-133845000D01*
X111565000Y-138495000D02*
X111565000Y-134861000D01*
D43*
X142639000Y-91125000D02*
X144022500Y-91125000D01*
X137350000Y-88630000D02*
X136715000Y-87995000D01*
D45*
X108140000Y-115935000D02*
X108140000Y-113395000D01*
X106870000Y-112125000D02*
X99885000Y-112125000D01*
D43*
X130070000Y-83890000D02*
X126555000Y-83890000D01*
D45*
X101790000Y-86725000D02*
X114998000Y-86725000D01*
X118300000Y-84390000D02*
X118300000Y-86471000D01*
D43*
X141160000Y-89646000D02*
X142639000Y-91125000D01*
D44*
X111565000Y-133845000D02*
X112440000Y-132970000D01*
D45*
X106485000Y-137655000D02*
X107697500Y-136442500D01*
D43*
X141160000Y-88630000D02*
X137350000Y-88630000D01*
D44*
X111514000Y-134810000D02*
X111565000Y-134861000D01*
X113265000Y-140195000D02*
X111565000Y-138495000D01*
D45*
X99885000Y-112125000D02*
X99885000Y-136135000D01*
D44*
X107937500Y-135510000D02*
X107697500Y-135750000D01*
D43*
X141160000Y-86295000D02*
X141160000Y-88376000D01*
D45*
X108140000Y-113395000D02*
X106870000Y-112125000D01*
X118300000Y-86471000D02*
X118046000Y-86725000D01*
D44*
X107697500Y-134810000D02*
X111514000Y-134810000D01*
D45*
X114998000Y-86725000D02*
X116522000Y-86725000D01*
D43*
X132270000Y-86090000D02*
X130070000Y-83890000D01*
D44*
X112440000Y-132970000D02*
X112440000Y-130695000D01*
D45*
X99885000Y-88630000D02*
X101790000Y-86725000D01*
D43*
X141160000Y-88376000D02*
X141160000Y-88630000D01*
D45*
X116522000Y-86725000D02*
X118046000Y-86725000D01*
X99885000Y-136135000D02*
X101405000Y-137655000D01*
X126555000Y-86090000D02*
X126555000Y-83890000D01*
X107697500Y-135750000D02*
X107697500Y-134810000D01*
X118046000Y-86725000D02*
X125920000Y-86725000D01*
X125920000Y-86725000D02*
X126555000Y-86090000D01*
X115125000Y-86598000D02*
X114998000Y-86725000D01*
X99885000Y-105140000D02*
X99885000Y-88630000D01*
D43*
%TO.N,Net-(D1-KA)*%
X97980000Y-79740000D02*
X101155000Y-79740000D01*
X102867500Y-81452500D02*
X104965000Y-81452500D01*
X101155000Y-79740000D02*
X102867500Y-81452500D01*
D44*
%TO.N,Net-(J3-Pin_1)*%
X176305000Y-64795000D02*
X176305000Y-69645000D01*
X176305000Y-64795000D02*
X177970000Y-63130000D01*
%TO.N,Net-(J4-Pin_1)*%
X176305000Y-83640000D02*
X176305000Y-88695000D01*
X176305000Y-83640000D02*
X177970000Y-81975000D01*
%TO.N,LED_DATA1*%
X179260000Y-72120000D02*
X166560000Y-72120000D01*
X164020000Y-74660000D02*
X166052000Y-72628000D01*
X186650000Y-67040000D02*
X184340000Y-67040000D01*
X158940000Y-74660000D02*
X164020000Y-74660000D01*
X184340000Y-67040000D02*
X179260000Y-72120000D01*
X166560000Y-72120000D02*
X166052000Y-72628000D01*
%TO.N,LED_DATA2*%
X185033000Y-85905000D02*
X179768000Y-91170000D01*
X164020000Y-93710000D02*
X166433000Y-91297000D01*
X179768000Y-91170000D02*
X166560000Y-91170000D01*
X158940000Y-93710000D02*
X164020000Y-93710000D01*
X166560000Y-91170000D02*
X166433000Y-91297000D01*
X186650000Y-85905000D02*
X185033000Y-85905000D01*
%TO.N,LED_DATA3*%
X184545000Y-104935000D02*
X179260000Y-110220000D01*
X186650000Y-104935000D02*
X184545000Y-104935000D01*
X164020000Y-112760000D02*
X166560000Y-110220000D01*
X158940000Y-112760000D02*
X164020000Y-112760000D01*
X179260000Y-110220000D02*
X166560000Y-110220000D01*
%TO.N,LED_DATA4*%
X158940000Y-131810000D02*
X164020000Y-131810000D01*
X164020000Y-131810000D02*
X166433000Y-129397000D01*
X184340000Y-124190000D02*
X179260000Y-129270000D01*
X186650000Y-124190000D02*
X184340000Y-124190000D01*
X179260000Y-129270000D02*
X166560000Y-129270000D01*
X166560000Y-129270000D02*
X166433000Y-129397000D01*
D43*
%TO.N,RELAY_CTRL*%
X129476000Y-87614000D02*
X128460000Y-88630000D01*
X120840000Y-94345000D02*
X120840000Y-93075000D01*
X134810000Y-87360000D02*
X134556000Y-87614000D01*
D44*
X134810000Y-86282500D02*
X137985000Y-86282500D01*
D43*
X128460000Y-88630000D02*
X128460000Y-94345000D01*
X128460000Y-94345000D02*
X127825000Y-94980000D01*
X127825000Y-94980000D02*
X121475000Y-94980000D01*
X134556000Y-87614000D02*
X129476000Y-87614000D01*
X121475000Y-94980000D02*
X120840000Y-94345000D01*
X134810000Y-86282500D02*
X134810000Y-87360000D01*
%TO.N,DATA3*%
X131411000Y-91775000D02*
X130746000Y-92440000D01*
X128968000Y-97266000D02*
X116522000Y-97266000D01*
X138297500Y-91775000D02*
X131411000Y-91775000D01*
X130746000Y-95488000D02*
X128968000Y-97266000D01*
X116522000Y-97266000D02*
X115760000Y-96504000D01*
X115760000Y-96504000D02*
X115760000Y-93075000D01*
X130746000Y-92440000D02*
X130746000Y-95488000D01*
D46*
%TO.N,DATA2*%
X117030000Y-93710000D02*
X117030000Y-94472000D01*
D43*
X143283458Y-94375000D02*
X139062458Y-90154000D01*
D46*
X117030000Y-91805000D02*
X117030000Y-93710000D01*
D43*
X130492000Y-90154000D02*
X129984000Y-90662000D01*
X144022500Y-94375000D02*
X143283458Y-94375000D01*
D46*
X115760000Y-90535000D02*
X117030000Y-91805000D01*
D43*
X129984000Y-95234000D02*
X128714000Y-96504000D01*
X117538000Y-96504000D02*
X117030000Y-95996000D01*
X128714000Y-96504000D02*
X117538000Y-96504000D01*
X139062458Y-90154000D02*
X130492000Y-90154000D01*
X117030000Y-95996000D02*
X117030000Y-94472000D01*
X129984000Y-90662000D02*
X129984000Y-95234000D01*
%TO.N,DATA4*%
X132001000Y-93725000D02*
X131508000Y-94218000D01*
X114490000Y-98028000D02*
X113220000Y-96758000D01*
X131508000Y-94218000D02*
X131508000Y-95742000D01*
X131508000Y-95742000D02*
X129222000Y-98028000D01*
X113220000Y-96758000D02*
X113220000Y-93075000D01*
X138297500Y-93725000D02*
X132001000Y-93725000D01*
X129222000Y-98028000D02*
X114490000Y-98028000D01*
%TO.N,DATA1*%
X139636000Y-89392000D02*
X129730000Y-89392000D01*
X118300000Y-94980000D02*
X118300000Y-93075000D01*
X128206000Y-95742000D02*
X119062000Y-95742000D01*
X129222000Y-94726000D02*
X128206000Y-95742000D01*
X142669000Y-92425000D02*
X139636000Y-89392000D01*
X129730000Y-89392000D02*
X129222000Y-89900000D01*
X119062000Y-95742000D02*
X118300000Y-94980000D01*
X129222000Y-89900000D02*
X129222000Y-94726000D01*
X144022500Y-92425000D02*
X142669000Y-92425000D01*
D44*
%TO.N,Net-(U7-IN+)*%
X175035000Y-102890000D02*
X175035000Y-107745000D01*
X175035000Y-102890000D02*
X173270000Y-101125000D01*
D43*
%TO.N,SCL*%
X176305000Y-133935000D02*
X176720000Y-134350000D01*
X178845000Y-93645000D02*
X178817000Y-93645000D01*
X178244000Y-115554000D02*
X178752000Y-115046000D01*
X142430000Y-116570000D02*
X144335000Y-116570000D01*
X178817000Y-93645000D02*
X178752000Y-93710000D01*
X175035000Y-131745000D02*
X176305000Y-131745000D01*
X121348000Y-114030000D02*
X138620000Y-114030000D01*
X178845000Y-112695000D02*
X178817000Y-112695000D01*
X178752000Y-134096000D02*
X178752000Y-133588000D01*
X138620000Y-114030000D02*
X141160000Y-116570000D01*
X178817000Y-74595000D02*
X178752000Y-74660000D01*
X178752000Y-131810000D02*
X178752000Y-133588000D01*
X168084000Y-114538000D02*
X169100000Y-115554000D01*
X169100000Y-115554000D02*
X178244000Y-115554000D01*
X178752000Y-74660000D02*
X178752000Y-76565000D01*
X120840000Y-114538000D02*
X121348000Y-114030000D01*
X178845000Y-131745000D02*
X178817000Y-131745000D01*
X178752000Y-132572000D02*
X178752000Y-132318000D01*
X176305000Y-131745000D02*
X176305000Y-133935000D01*
X178845000Y-74595000D02*
X178817000Y-74595000D01*
X141160000Y-116570000D02*
X142430000Y-116570000D01*
X178817000Y-131745000D02*
X178752000Y-131810000D01*
X178752000Y-93710000D02*
X178752000Y-95488000D01*
X120840000Y-115935000D02*
X120840000Y-114538000D01*
X178498000Y-134350000D02*
X178752000Y-134096000D01*
X178752000Y-115046000D02*
X178752000Y-114538000D01*
X178817000Y-112695000D02*
X178752000Y-112760000D01*
X178752000Y-112760000D02*
X178752000Y-114538000D01*
X142430000Y-118155500D02*
X142430000Y-116570000D01*
%TO.N,SDA*%
X177547000Y-112695000D02*
X177482000Y-112760000D01*
X167576000Y-113522000D02*
X168338000Y-113522000D01*
X177575000Y-112695000D02*
X177547000Y-112695000D01*
X118300000Y-114284000D02*
X119316000Y-113268000D01*
X177547000Y-93645000D02*
X177482000Y-93710000D01*
X177482000Y-74660000D02*
X177547000Y-74595000D01*
X142430000Y-115300000D02*
X144335000Y-115300000D01*
X177482000Y-112760000D02*
X177482000Y-114538000D01*
X177482000Y-74660000D02*
X177482000Y-76565000D01*
X168338000Y-113522000D02*
X169354000Y-114538000D01*
X177575000Y-74595000D02*
X177547000Y-74595000D01*
X118300000Y-115935000D02*
X118300000Y-114284000D01*
X177575000Y-131745000D02*
X177547000Y-131745000D01*
X177547000Y-131745000D02*
X177482000Y-131810000D01*
X140906000Y-115300000D02*
X142430000Y-115300000D01*
X138874000Y-113268000D02*
X140906000Y-115300000D01*
X169354000Y-114538000D02*
X177482000Y-114538000D01*
X176305000Y-93645000D02*
X177575000Y-93645000D01*
X175035000Y-112695000D02*
X176305000Y-112695000D01*
X176305000Y-112695000D02*
X177575000Y-112695000D01*
X142430000Y-113714500D02*
X142430000Y-115300000D01*
X177575000Y-93645000D02*
X177547000Y-93645000D01*
X177482000Y-93710000D02*
X177482000Y-95488000D01*
X177482000Y-131810000D02*
X177482000Y-133588000D01*
X119316000Y-113268000D02*
X138874000Y-113268000D01*
D44*
%TO.N,Net-(U5-IN+)*%
X175035000Y-65095000D02*
X173070000Y-63130000D01*
X175035000Y-65095000D02*
X175035000Y-69645000D01*
%TO.N,Net-(U6-IN+)*%
X175035000Y-83940000D02*
X175035000Y-88695000D01*
X175035000Y-83940000D02*
X173070000Y-81975000D01*
%TO.N,+3.3V_D*%
X132520000Y-140195000D02*
X132520000Y-131305000D01*
X126805000Y-131305000D02*
X124900000Y-133210000D01*
X130820000Y-140195000D02*
X132520000Y-140195000D01*
X134425000Y-131305000D02*
X132520000Y-131305000D01*
X124900000Y-133210000D02*
X124900000Y-136725000D01*
X132520000Y-140195000D02*
X134220000Y-140195000D01*
X132520000Y-131305000D02*
X126805000Y-131305000D01*
%TO.N,Net-(J5-Pin_1)*%
X176305000Y-102890000D02*
X178070000Y-101125000D01*
X176305000Y-102890000D02*
X176305000Y-107745000D01*
D43*
%TO.N,Net-(R7-Pad1)*%
X144022500Y-93075000D02*
X146240000Y-93075000D01*
X146875000Y-92440000D02*
X146875000Y-75295000D01*
X146240000Y-93075000D02*
X146875000Y-92440000D01*
X147510000Y-74660000D02*
X148780000Y-74660000D01*
X146875000Y-75295000D02*
X147510000Y-74660000D01*
%TO.N,Net-(R8-Pad1)*%
X147465000Y-95025000D02*
X148780000Y-93710000D01*
X144022500Y-95025000D02*
X147465000Y-95025000D01*
%TO.N,Net-(R9-Pad1)*%
X143827000Y-96885000D02*
X144208000Y-96885000D01*
X146240000Y-97520000D02*
X145605000Y-96885000D01*
X139367000Y-92425000D02*
X143827000Y-96885000D01*
X148780000Y-112760000D02*
X146875000Y-112760000D01*
X146875000Y-112760000D02*
X146240000Y-112125000D01*
X145605000Y-96885000D02*
X144208000Y-96885000D01*
X146240000Y-112125000D02*
X146240000Y-97520000D01*
X138297500Y-92425000D02*
X139367000Y-92425000D01*
D44*
%TO.N,+3.3V_ESP*%
X170067000Y-70645000D02*
X169608000Y-71104000D01*
D43*
X178498000Y-90154000D02*
X173672000Y-90154000D01*
D44*
X171132000Y-126222000D02*
X171640000Y-126730000D01*
D43*
X178845000Y-88695000D02*
X178845000Y-89807000D01*
X178845000Y-107745000D02*
X178845000Y-108857000D01*
X173672000Y-90154000D02*
X173213000Y-89695000D01*
D44*
X139890000Y-111490000D02*
X110680000Y-111490000D01*
D43*
X178845000Y-127907000D02*
X178498000Y-128254000D01*
X142430000Y-121080500D02*
X142430000Y-121650000D01*
D44*
X171640000Y-70645000D02*
X170067000Y-70645000D01*
D43*
X178845000Y-70757000D02*
X178498000Y-71104000D01*
X178498000Y-128254000D02*
X173926000Y-128254000D01*
X173467000Y-127795000D02*
X171640000Y-127795000D01*
X173213000Y-70645000D02*
X171640000Y-70645000D01*
X178845000Y-108857000D02*
X178498000Y-109204000D01*
X173926000Y-109204000D02*
X173467000Y-108745000D01*
D44*
X141729500Y-111490000D02*
X142430000Y-110789500D01*
D43*
X142430000Y-122285000D02*
X143065000Y-122920000D01*
X173672000Y-71104000D02*
X173213000Y-70645000D01*
X171640000Y-107680000D02*
X171132000Y-107172000D01*
X173926000Y-128254000D02*
X173467000Y-127795000D01*
X173467000Y-108745000D02*
X171640000Y-108745000D01*
D44*
X108140000Y-108950000D02*
X108140000Y-93075000D01*
D43*
X178845000Y-69645000D02*
X178845000Y-70757000D01*
X171640000Y-88630000D02*
X171132000Y-88122000D01*
X178845000Y-89807000D02*
X178498000Y-90154000D01*
D44*
X110680000Y-111490000D02*
X108140000Y-108950000D01*
D43*
X171640000Y-108745000D02*
X171640000Y-107680000D01*
X142430000Y-121650000D02*
X142430000Y-122285000D01*
X171640000Y-89695000D02*
X171640000Y-88630000D01*
D44*
X139890000Y-111490000D02*
X139890000Y-112760000D01*
D43*
X178845000Y-126795000D02*
X178845000Y-127907000D01*
D44*
X139890000Y-111490000D02*
X141729500Y-111490000D01*
D43*
X178498000Y-109204000D02*
X173926000Y-109204000D01*
X178498000Y-71104000D02*
X173672000Y-71104000D01*
D44*
X171640000Y-126730000D02*
X171640000Y-127795000D01*
D43*
X173213000Y-89695000D02*
X171640000Y-89695000D01*
D45*
%TO.N,Net-(D2-A)*%
X137350000Y-80350000D02*
X137350000Y-74050000D01*
D44*
X132130000Y-73250000D02*
X132130000Y-71485000D01*
X131000000Y-67040000D02*
X132130000Y-68170000D01*
X137350000Y-74050000D02*
X132930000Y-74050000D01*
X132130000Y-68170000D02*
X132130000Y-71485000D01*
X132930000Y-74050000D02*
X132130000Y-73250000D01*
X129530000Y-67040000D02*
X131000000Y-67040000D01*
D43*
%TO.N,MIC_SCK*%
X124015000Y-120380000D02*
X134930000Y-120380000D01*
X123380000Y-119745000D02*
X124015000Y-120380000D01*
X142045000Y-127495000D02*
X142045000Y-128765000D01*
X123380000Y-118475000D02*
X123380000Y-119745000D01*
X134930000Y-120380000D02*
X142045000Y-127495000D01*
%TO.N,MIC_WS*%
X120840000Y-119745000D02*
X122110000Y-121015000D01*
X140140000Y-129400000D02*
X142045000Y-131305000D01*
X122110000Y-121015000D02*
X134295000Y-121015000D01*
X134295000Y-121015000D02*
X140140000Y-126860000D01*
X140140000Y-126860000D02*
X140140000Y-129400000D01*
X120840000Y-118475000D02*
X120840000Y-119745000D01*
%TO.N,MIC_SD*%
X133790000Y-121780000D02*
X119700000Y-121780000D01*
X119700000Y-121780000D02*
X118300000Y-120380000D01*
X134425000Y-122415000D02*
X133790000Y-121780000D01*
X134425000Y-128765000D02*
X134851250Y-128338750D01*
X118300000Y-120380000D02*
X118300000Y-118475000D01*
X134425000Y-128765000D02*
X134425000Y-122415000D01*
%TO.N,Net-(D1-AK)*%
X103695000Y-77200000D02*
X105600000Y-79105000D01*
X105600000Y-79105000D02*
X110045000Y-83550000D01*
X97980000Y-77200000D02*
X103695000Y-77200000D01*
D44*
%TO.N,Net-(U1-VO)*%
X119820000Y-127700000D02*
X124175000Y-127700000D01*
X124175000Y-127700000D02*
X124900000Y-128425000D01*
X114740000Y-127700000D02*
X116645000Y-127700000D01*
X123632500Y-124460000D02*
X123632500Y-127157500D01*
X112835000Y-127700000D02*
X114740000Y-127700000D01*
X123632500Y-127157500D02*
X124900000Y-128425000D01*
X114740000Y-130695000D02*
X114740000Y-127700000D01*
X114740000Y-130695000D02*
X114740000Y-136995000D01*
X116645000Y-127700000D02*
X119820000Y-127700000D01*
%TO.N,Net-(U8-IN+)*%
X175035000Y-122145000D02*
X175035000Y-126795000D01*
X175035000Y-122145000D02*
X173270000Y-120380000D01*
%TO.N,Net-(Q2-G)*%
X134810000Y-80590000D02*
X135050000Y-80350000D01*
X134810000Y-83357500D02*
X134810000Y-80590000D01*
D43*
%TO.N,Net-(R10-Pad1)*%
X145605000Y-131175000D02*
X146240000Y-131810000D01*
X142430000Y-97520000D02*
X144970000Y-97520000D01*
X138297500Y-94375000D02*
X139285000Y-94375000D01*
X145605000Y-98155000D02*
X145605000Y-131175000D01*
X146240000Y-131810000D02*
X148780000Y-131810000D01*
X144970000Y-97520000D02*
X145605000Y-98155000D01*
X139285000Y-94375000D02*
X142430000Y-97520000D01*
%TO.N,BCK*%
X109025000Y-124320000D02*
X113220000Y-120125000D01*
X113220000Y-120125000D02*
X113220000Y-118475000D01*
X109025000Y-128402500D02*
X109025000Y-124320000D01*
X107697500Y-129730000D02*
X109025000Y-128402500D01*
%TO.N,DOUT*%
X109660000Y-130307500D02*
X109660000Y-128130000D01*
D46*
X114449375Y-120165625D02*
X114449375Y-117245625D01*
X114105000Y-120510000D02*
X114449375Y-120165625D01*
X114449375Y-117245625D02*
X115760000Y-115935000D01*
D43*
X109660000Y-124955000D02*
X110930000Y-123685000D01*
X110930000Y-123685000D02*
X114105000Y-120510000D01*
X107697500Y-132270000D02*
X109660000Y-130307500D01*
X109660000Y-128130000D02*
X109660000Y-124955000D01*
D46*
%TO.N,LRCK*%
X111565000Y-120510000D02*
X111909375Y-120165625D01*
D43*
X106485000Y-128402500D02*
X106485000Y-126860000D01*
D46*
X111909375Y-120165625D02*
X111909375Y-117245625D01*
D43*
X106485000Y-126860000D02*
X106485000Y-125590000D01*
D46*
X111909375Y-117245625D02*
X113220000Y-115935000D01*
D43*
X106485000Y-125590000D02*
X108390000Y-123685000D01*
X105157500Y-129730000D02*
X106485000Y-128402500D01*
X108390000Y-123685000D02*
X111565000Y-120510000D01*
%TO.N,MCK*%
X110680000Y-120125000D02*
X110680000Y-118475000D01*
X105157500Y-125647500D02*
X110680000Y-120125000D01*
X105157500Y-127190000D02*
X105157500Y-125647500D01*
D44*
%TO.N,Net-(J6-Pin_1)*%
X176305000Y-122145000D02*
X178070000Y-120380000D01*
X176305000Y-122145000D02*
X176305000Y-126795000D01*
D43*
%TO.N,Net-(U3-IO_13{slash}TCK)*%
X104965000Y-84377500D02*
X102867500Y-84377500D01*
X102867500Y-84377500D02*
X102425000Y-84820000D01*
%TD*%
%TA.AperFunction,Conductor*%
%TO.N,Net-(Q1-D)*%
G36*
X115777183Y-64518907D02*
G01*
X115788996Y-64528996D01*
X116366004Y-65106004D01*
X116393781Y-65160521D01*
X116395000Y-65176008D01*
X116395000Y-70808992D01*
X116376093Y-70867183D01*
X116366004Y-70878996D01*
X115125000Y-72120000D01*
X115125000Y-79063992D01*
X115106093Y-79122183D01*
X115096004Y-79133996D01*
X114518996Y-79711004D01*
X114464479Y-79738781D01*
X114448992Y-79740000D01*
X107546008Y-79740000D01*
X107487817Y-79721093D01*
X107476004Y-79711004D01*
X106263996Y-78498996D01*
X106236219Y-78444479D01*
X106235000Y-78428992D01*
X106235000Y-71526007D01*
X106253907Y-71467816D01*
X106263990Y-71456009D01*
X107505000Y-70215000D01*
X107505000Y-65176008D01*
X107523907Y-65117817D01*
X107533996Y-65106004D01*
X108111004Y-64528996D01*
X108165521Y-64501219D01*
X108181008Y-64500000D01*
X115718992Y-64500000D01*
X115777183Y-64518907D01*
G37*
%TD.AperFunction*%
%TD*%
%TA.AperFunction,Conductor*%
%TO.N,Net-(U8-IN+)*%
G36*
X167597166Y-115177510D02*
G01*
X167709227Y-115247922D01*
X167714297Y-115251580D01*
X167715238Y-115252355D01*
X167715244Y-115252359D01*
X168094537Y-115482834D01*
X168103740Y-115490061D01*
X168679752Y-116066073D01*
X168787728Y-116138220D01*
X168787733Y-116138222D01*
X168907696Y-116187913D01*
X168907698Y-116187913D01*
X168907704Y-116187916D01*
X169035069Y-116213250D01*
X169035070Y-116213250D01*
X169035072Y-116213250D01*
X175361000Y-116213250D01*
X175395648Y-116227602D01*
X175410000Y-116262250D01*
X175410000Y-122349704D01*
X175395648Y-122384352D01*
X175024352Y-122755648D01*
X174989704Y-122770000D01*
X173310000Y-122770000D01*
X172910000Y-123169999D01*
X172910000Y-124849704D01*
X172895648Y-124884352D01*
X172524352Y-125255648D01*
X172489704Y-125270000D01*
X165230296Y-125270000D01*
X165195648Y-125255648D01*
X164824352Y-124884352D01*
X164810000Y-124849704D01*
X164810000Y-115590296D01*
X164824352Y-115555648D01*
X165195648Y-115184352D01*
X165230296Y-115170000D01*
X167571098Y-115170000D01*
X167597166Y-115177510D01*
G37*
%TD.AperFunction*%
%TD*%
%TA.AperFunction,Conductor*%
%TO.N,Net-(U5-IN+)*%
G36*
X175024352Y-58094352D02*
G01*
X175395648Y-58465648D01*
X175410000Y-58500296D01*
X175410000Y-65259704D01*
X175395648Y-65294352D01*
X175024352Y-65665648D01*
X174989704Y-65680000D01*
X173310000Y-65680000D01*
X172910000Y-66079999D01*
X172910000Y-67759704D01*
X172895648Y-67794352D01*
X172524352Y-68165648D01*
X172489704Y-68180000D01*
X165230296Y-68180000D01*
X165195648Y-68165648D01*
X164824352Y-67794352D01*
X164810000Y-67759704D01*
X164810000Y-58500296D01*
X164824352Y-58465648D01*
X165195648Y-58094352D01*
X165230296Y-58080000D01*
X174989704Y-58080000D01*
X175024352Y-58094352D01*
G37*
%TD.AperFunction*%
%TD*%
%TA.AperFunction,Conductor*%
%TO.N,Net-(J6-Pin_1)*%
G36*
X193017183Y-115218907D02*
G01*
X193028996Y-115228996D01*
X193371004Y-115571004D01*
X193398781Y-115625521D01*
X193400000Y-115641008D01*
X193400000Y-123558992D01*
X193381093Y-123617183D01*
X193371004Y-123628996D01*
X193028996Y-123971004D01*
X192974479Y-123998781D01*
X192958992Y-124000000D01*
X188582226Y-124000000D01*
X188524035Y-123981093D01*
X188488071Y-123931593D01*
X188485488Y-123922044D01*
X188479047Y-123892435D01*
X188430077Y-123667322D01*
X188337574Y-123419311D01*
X188210716Y-123186989D01*
X188210715Y-123186988D01*
X188210716Y-123186988D01*
X188052091Y-122975090D01*
X188052089Y-122975088D01*
X188052087Y-122975085D01*
X187864915Y-122787913D01*
X187864911Y-122787910D01*
X187864909Y-122787908D01*
X187653011Y-122629283D01*
X187420692Y-122502427D01*
X187420690Y-122502426D01*
X187172681Y-122409924D01*
X187172683Y-122409924D01*
X187114959Y-122397367D01*
X186914026Y-122353657D01*
X186914023Y-122353656D01*
X186914020Y-122353656D01*
X186650000Y-122334773D01*
X186385979Y-122353656D01*
X186127317Y-122409924D01*
X185879309Y-122502426D01*
X185879307Y-122502427D01*
X185646988Y-122629283D01*
X185435090Y-122787908D01*
X185247908Y-122975090D01*
X185089283Y-123186988D01*
X185089280Y-123186993D01*
X185016411Y-123320445D01*
X184971929Y-123362457D01*
X184929521Y-123372000D01*
X184259431Y-123372000D01*
X184101398Y-123403435D01*
X184101396Y-123403435D01*
X184026965Y-123434266D01*
X183952534Y-123465095D01*
X183818555Y-123554618D01*
X183818551Y-123554621D01*
X183402169Y-123971004D01*
X183347652Y-123998781D01*
X183332165Y-124000000D01*
X180698270Y-124000000D01*
X180645598Y-123984825D01*
X180625526Y-123972212D01*
X180625522Y-123972211D01*
X180455261Y-123912633D01*
X180455257Y-123912632D01*
X180276000Y-123892435D01*
X180096740Y-123912632D01*
X180055918Y-123926916D01*
X180035106Y-123931497D01*
X180035112Y-123931530D01*
X180034450Y-123931642D01*
X180032789Y-123932008D01*
X180031630Y-123932120D01*
X180031623Y-123932121D01*
X179765063Y-123997177D01*
X179741591Y-124000000D01*
X176441008Y-124000000D01*
X176382817Y-123981093D01*
X176371004Y-123971004D01*
X176028996Y-123628996D01*
X176001219Y-123574479D01*
X176000000Y-123558992D01*
X176000000Y-116312250D01*
X176018907Y-116254059D01*
X176068407Y-116218095D01*
X176099000Y-116213250D01*
X178308930Y-116213250D01*
X178308931Y-116213250D01*
X178436296Y-116187916D01*
X178556272Y-116138220D01*
X178664248Y-116066073D01*
X179264072Y-115466248D01*
X179276346Y-115447880D01*
X179310446Y-115396846D01*
X179336220Y-115358273D01*
X179376464Y-115261115D01*
X179416200Y-115214589D01*
X179467928Y-115200000D01*
X192958992Y-115200000D01*
X193017183Y-115218907D01*
G37*
%TD.AperFunction*%
%TD*%
%TA.AperFunction,Conductor*%
%TO.N,Net-(J3-Pin_1)*%
G36*
X189019424Y-58205182D02*
G01*
X189059959Y-58218839D01*
X189102330Y-58233116D01*
X189102338Y-58233117D01*
X189102339Y-58233118D01*
X189457148Y-58311217D01*
X189457149Y-58311217D01*
X189457153Y-58311218D01*
X189818341Y-58350500D01*
X190181659Y-58350500D01*
X190542847Y-58311218D01*
X190562710Y-58306846D01*
X190661121Y-58285184D01*
X190897670Y-58233116D01*
X190953749Y-58214220D01*
X190980576Y-58205182D01*
X191012186Y-58200000D01*
X192958992Y-58200000D01*
X193017183Y-58218907D01*
X193028996Y-58228996D01*
X193371004Y-58571004D01*
X193398781Y-58625521D01*
X193400000Y-58641008D01*
X193400000Y-66558992D01*
X193381093Y-66617183D01*
X193371004Y-66628996D01*
X193028996Y-66971004D01*
X192974479Y-66998781D01*
X192958992Y-67000000D01*
X188594538Y-67000000D01*
X188536347Y-66981093D01*
X188500383Y-66931593D01*
X188495790Y-66908062D01*
X188493027Y-66869435D01*
X188486343Y-66775974D01*
X188430077Y-66517322D01*
X188337574Y-66269311D01*
X188210716Y-66036989D01*
X188210715Y-66036988D01*
X188210716Y-66036988D01*
X188052091Y-65825090D01*
X188052089Y-65825088D01*
X188052087Y-65825085D01*
X187864915Y-65637913D01*
X187864911Y-65637910D01*
X187864909Y-65637908D01*
X187653011Y-65479283D01*
X187420692Y-65352427D01*
X187420690Y-65352426D01*
X187172681Y-65259924D01*
X187172683Y-65259924D01*
X187114959Y-65247367D01*
X186914026Y-65203657D01*
X186914023Y-65203656D01*
X186914020Y-65203656D01*
X186650000Y-65184773D01*
X186385979Y-65203656D01*
X186127317Y-65259924D01*
X185879309Y-65352426D01*
X185879307Y-65352427D01*
X185646988Y-65479283D01*
X185435090Y-65637908D01*
X185247908Y-65825090D01*
X185089283Y-66036988D01*
X185089280Y-66036993D01*
X185016411Y-66170445D01*
X184971929Y-66212457D01*
X184929521Y-66222000D01*
X184259431Y-66222000D01*
X184101398Y-66253435D01*
X184101396Y-66253435D01*
X184026965Y-66284266D01*
X183952534Y-66315095D01*
X183818555Y-66404618D01*
X183818551Y-66404621D01*
X183252169Y-66971004D01*
X183197652Y-66998781D01*
X183182165Y-67000000D01*
X178448874Y-67000000D01*
X178396202Y-66984825D01*
X178339526Y-66949212D01*
X178339522Y-66949211D01*
X178169261Y-66889633D01*
X178169257Y-66889632D01*
X177990000Y-66869435D01*
X177810742Y-66889632D01*
X177810738Y-66889633D01*
X177640477Y-66949211D01*
X177640473Y-66949212D01*
X177583798Y-66984825D01*
X177531126Y-67000000D01*
X176441008Y-67000000D01*
X176382817Y-66981093D01*
X176371004Y-66971004D01*
X176028996Y-66628996D01*
X176001219Y-66574479D01*
X176000000Y-66558992D01*
X176000000Y-58641008D01*
X176018907Y-58582817D01*
X176028996Y-58571004D01*
X176371004Y-58228996D01*
X176425521Y-58201219D01*
X176441008Y-58200000D01*
X188987814Y-58200000D01*
X189019424Y-58205182D01*
G37*
%TD.AperFunction*%
%TD*%
%TA.AperFunction,Conductor*%
%TO.N,Net-(J4-Pin_1)*%
G36*
X176813396Y-77018907D02*
G01*
X176839031Y-77046330D01*
X176852179Y-77067255D01*
X176852181Y-77067258D01*
X176852184Y-77067262D01*
X176979738Y-77194816D01*
X177132478Y-77290789D01*
X177200657Y-77314646D01*
X177302738Y-77350366D01*
X177302742Y-77350367D01*
X177302745Y-77350368D01*
X177482000Y-77370565D01*
X177661255Y-77350368D01*
X177831522Y-77290789D01*
X177984262Y-77194816D01*
X178046998Y-77132079D01*
X178101513Y-77104304D01*
X178161945Y-77113875D01*
X178187000Y-77132078D01*
X178249738Y-77194816D01*
X178402478Y-77290789D01*
X178470657Y-77314646D01*
X178572738Y-77350366D01*
X178572742Y-77350367D01*
X178572745Y-77350368D01*
X178752000Y-77370565D01*
X178931255Y-77350368D01*
X179101522Y-77290789D01*
X179254262Y-77194816D01*
X179381816Y-77067262D01*
X179387406Y-77058365D01*
X179394969Y-77046330D01*
X179441937Y-77007117D01*
X179478795Y-77000000D01*
X192958992Y-77000000D01*
X193017183Y-77018907D01*
X193028996Y-77028996D01*
X193371004Y-77371004D01*
X193398781Y-77425521D01*
X193400000Y-77441008D01*
X193400000Y-85358992D01*
X193381093Y-85417183D01*
X193371004Y-85428996D01*
X193028996Y-85771004D01*
X192974479Y-85798781D01*
X192958992Y-85800000D01*
X188589890Y-85800000D01*
X188531699Y-85781093D01*
X188495735Y-85731593D01*
X188491142Y-85708063D01*
X188486343Y-85640979D01*
X188486343Y-85640974D01*
X188430077Y-85382322D01*
X188337574Y-85134311D01*
X188210716Y-84901989D01*
X188210715Y-84901988D01*
X188210716Y-84901988D01*
X188052091Y-84690090D01*
X188052089Y-84690088D01*
X188052087Y-84690085D01*
X187864915Y-84502913D01*
X187864911Y-84502910D01*
X187864909Y-84502908D01*
X187653011Y-84344283D01*
X187420692Y-84217427D01*
X187420690Y-84217426D01*
X187172681Y-84124924D01*
X187172683Y-84124924D01*
X187114959Y-84112367D01*
X186914026Y-84068657D01*
X186914023Y-84068656D01*
X186914020Y-84068656D01*
X186650000Y-84049773D01*
X186385979Y-84068656D01*
X186127317Y-84124924D01*
X185879309Y-84217426D01*
X185879307Y-84217427D01*
X185646988Y-84344283D01*
X185435090Y-84502908D01*
X185247908Y-84690090D01*
X185089283Y-84901988D01*
X185014807Y-85038382D01*
X184970325Y-85080393D01*
X184947231Y-85088034D01*
X184794398Y-85118435D01*
X184794396Y-85118435D01*
X184689132Y-85162036D01*
X184689133Y-85162037D01*
X184645533Y-85180096D01*
X184511555Y-85269618D01*
X184511551Y-85269621D01*
X184010169Y-85771004D01*
X183955652Y-85798781D01*
X183940165Y-85800000D01*
X180348705Y-85800000D01*
X180337621Y-85799378D01*
X180332322Y-85798781D01*
X180276000Y-85792435D01*
X180219678Y-85798781D01*
X180214379Y-85799378D01*
X180203295Y-85800000D01*
X176441008Y-85800000D01*
X176382817Y-85781093D01*
X176371004Y-85771004D01*
X176028996Y-85428996D01*
X176001219Y-85374479D01*
X176000000Y-85358992D01*
X176000000Y-77441008D01*
X176018907Y-77382817D01*
X176028996Y-77371004D01*
X176371004Y-77028996D01*
X176425521Y-77001219D01*
X176441008Y-77000000D01*
X176755205Y-77000000D01*
X176813396Y-77018907D01*
G37*
%TD.AperFunction*%
%TD*%
%TA.AperFunction,Conductor*%
%TO.N,Net-(U6-IN+)*%
G36*
X175024352Y-76919352D02*
G01*
X175395648Y-77290648D01*
X175410000Y-77325296D01*
X175410000Y-84084704D01*
X175395648Y-84119352D01*
X175024352Y-84490648D01*
X174989704Y-84505000D01*
X173310000Y-84505000D01*
X172910000Y-84904999D01*
X172910000Y-86584704D01*
X172895648Y-86619352D01*
X172524352Y-86990648D01*
X172489704Y-87005000D01*
X165230296Y-87005000D01*
X165195648Y-86990648D01*
X164824352Y-86619352D01*
X164810000Y-86584704D01*
X164810000Y-77325296D01*
X164824352Y-77290648D01*
X165195648Y-76919352D01*
X165230296Y-76905000D01*
X174989704Y-76905000D01*
X175024352Y-76919352D01*
G37*
%TD.AperFunction*%
%TD*%
%TA.AperFunction,Conductor*%
%TO.N,+5V_LED*%
G36*
X162987183Y-57533907D02*
G01*
X162998996Y-57543996D01*
X164211004Y-58756004D01*
X164238781Y-58810521D01*
X164240000Y-58826008D01*
X164240000Y-70997478D01*
X164221093Y-71055669D01*
X164171593Y-71091633D01*
X164110407Y-71091633D01*
X164060907Y-71055669D01*
X164057175Y-71050150D01*
X164014820Y-70982743D01*
X164014817Y-70982740D01*
X164014816Y-70982738D01*
X163887262Y-70855184D01*
X163887259Y-70855182D01*
X163887258Y-70855181D01*
X163822450Y-70814460D01*
X163762479Y-70776777D01*
X163756703Y-70772609D01*
X163756645Y-70772692D01*
X163753764Y-70770647D01*
X163753761Y-70770644D01*
X163343343Y-70521255D01*
X163343341Y-70521254D01*
X163340451Y-70519498D01*
X163340511Y-70519397D01*
X163336401Y-70516971D01*
X163267271Y-70470779D01*
X163147294Y-70421083D01*
X163019933Y-70395750D01*
X163019931Y-70395750D01*
X163019930Y-70395750D01*
X162445868Y-70395750D01*
X162387677Y-70376843D01*
X162361607Y-70348722D01*
X162307714Y-70261347D01*
X162307713Y-70261346D01*
X162307712Y-70261344D01*
X162183656Y-70137288D01*
X162183653Y-70137286D01*
X162183652Y-70137285D01*
X162034336Y-70045187D01*
X162034335Y-70045186D01*
X162034334Y-70045186D01*
X161867797Y-69990001D01*
X161867794Y-69990000D01*
X161765016Y-69979500D01*
X160364983Y-69979500D01*
X160262211Y-69989999D01*
X160262199Y-69990002D01*
X160095663Y-70045187D01*
X159946347Y-70137285D01*
X159822285Y-70261347D01*
X159730187Y-70410663D01*
X159675000Y-70577205D01*
X159664500Y-70679983D01*
X159664500Y-71430016D01*
X159674999Y-71532788D01*
X159675002Y-71532800D01*
X159730187Y-71699336D01*
X159822285Y-71848652D01*
X159822286Y-71848653D01*
X159822288Y-71848656D01*
X159946344Y-71972712D01*
X160095666Y-72064814D01*
X160262203Y-72119999D01*
X160364991Y-72130500D01*
X161765008Y-72130499D01*
X161765016Y-72130499D01*
X161867788Y-72120000D01*
X161867788Y-72119999D01*
X161867797Y-72119999D01*
X162034334Y-72064814D01*
X162183656Y-71972712D01*
X162307712Y-71848656D01*
X162361607Y-71761278D01*
X162408248Y-71721676D01*
X162445868Y-71714250D01*
X162530184Y-71714250D01*
X162588375Y-71733157D01*
X162614788Y-71761839D01*
X162670644Y-71853761D01*
X162674799Y-71860382D01*
X162678405Y-71866128D01*
X162680395Y-71868805D01*
X162684761Y-71875185D01*
X162746042Y-71972714D01*
X162755184Y-71987262D01*
X162882738Y-72114816D01*
X162882740Y-72114817D01*
X162882741Y-72114818D01*
X162890986Y-72119999D01*
X163035478Y-72210789D01*
X163103657Y-72234646D01*
X163205738Y-72270366D01*
X163205742Y-72270367D01*
X163205745Y-72270368D01*
X163385000Y-72290565D01*
X163564255Y-72270368D01*
X163734522Y-72210789D01*
X163887262Y-72114816D01*
X164014816Y-71987262D01*
X164057174Y-71919850D01*
X164104143Y-71880638D01*
X164165190Y-71876522D01*
X164216997Y-71909074D01*
X164239776Y-71965861D01*
X164240000Y-71972521D01*
X164240000Y-73242165D01*
X164221093Y-73300356D01*
X164211004Y-73312169D01*
X163710169Y-73813004D01*
X163655652Y-73840781D01*
X163640165Y-73842000D01*
X160002193Y-73842000D01*
X159944002Y-73823093D01*
X159932195Y-73813009D01*
X159779139Y-73659953D01*
X159779135Y-73659950D01*
X159779132Y-73659947D01*
X159779130Y-73659946D01*
X159592737Y-73529434D01*
X159592736Y-73529433D01*
X159592734Y-73529432D01*
X159592731Y-73529430D01*
X159592723Y-73529426D01*
X159386499Y-73433262D01*
X159386500Y-73433262D01*
X159313228Y-73413629D01*
X159166692Y-73374365D01*
X159166691Y-73374364D01*
X159166684Y-73374363D01*
X158940003Y-73354532D01*
X158939997Y-73354532D01*
X158713315Y-73374363D01*
X158493499Y-73433262D01*
X158287276Y-73529426D01*
X158287262Y-73529434D01*
X158100869Y-73659946D01*
X158100867Y-73659947D01*
X157939947Y-73820867D01*
X157939946Y-73820869D01*
X157809434Y-74007262D01*
X157809426Y-74007276D01*
X157713262Y-74213499D01*
X157654363Y-74433315D01*
X157634532Y-74659996D01*
X157634532Y-74660003D01*
X157654363Y-74886684D01*
X157713262Y-75106500D01*
X157809426Y-75312723D01*
X157809434Y-75312737D01*
X157939946Y-75499130D01*
X157939947Y-75499132D01*
X157939950Y-75499135D01*
X157939953Y-75499139D01*
X158100861Y-75660047D01*
X158100864Y-75660049D01*
X158100867Y-75660052D01*
X158100869Y-75660053D01*
X158141058Y-75688193D01*
X158287266Y-75790568D01*
X158287272Y-75790571D01*
X158287276Y-75790573D01*
X158493500Y-75886737D01*
X158493504Y-75886739D01*
X158713308Y-75945635D01*
X158713312Y-75945635D01*
X158713315Y-75945636D01*
X158939997Y-75965468D01*
X158940000Y-75965468D01*
X158940003Y-75965468D01*
X159166684Y-75945636D01*
X159166685Y-75945635D01*
X159166692Y-75945635D01*
X159386496Y-75886739D01*
X159592734Y-75790568D01*
X159779139Y-75660047D01*
X159932191Y-75506994D01*
X159986706Y-75479219D01*
X160002193Y-75478000D01*
X164100565Y-75478000D01*
X164100566Y-75478000D01*
X164121685Y-75473799D01*
X164182447Y-75480991D01*
X164227377Y-75522523D01*
X164240000Y-75570897D01*
X164240000Y-90047478D01*
X164221093Y-90105669D01*
X164171593Y-90141633D01*
X164110407Y-90141633D01*
X164060907Y-90105669D01*
X164057175Y-90100150D01*
X164014820Y-90032743D01*
X164014817Y-90032740D01*
X164014816Y-90032738D01*
X163887262Y-89905184D01*
X163887259Y-89905182D01*
X163887258Y-89905181D01*
X163822450Y-89864460D01*
X163762479Y-89826777D01*
X163756703Y-89822609D01*
X163756645Y-89822692D01*
X163753764Y-89820647D01*
X163753761Y-89820644D01*
X163343343Y-89571255D01*
X163343341Y-89571254D01*
X163340451Y-89569498D01*
X163340511Y-89569397D01*
X163336401Y-89566971D01*
X163267271Y-89520779D01*
X163147294Y-89471083D01*
X163019933Y-89445750D01*
X163019931Y-89445750D01*
X163019930Y-89445750D01*
X162445868Y-89445750D01*
X162387677Y-89426843D01*
X162361607Y-89398722D01*
X162307714Y-89311347D01*
X162307713Y-89311346D01*
X162307712Y-89311344D01*
X162183656Y-89187288D01*
X162183653Y-89187286D01*
X162183652Y-89187285D01*
X162034336Y-89095187D01*
X162034335Y-89095186D01*
X162034334Y-89095186D01*
X161867797Y-89040001D01*
X161867794Y-89040000D01*
X161765016Y-89029500D01*
X160364983Y-89029500D01*
X160262211Y-89039999D01*
X160262199Y-89040002D01*
X160095663Y-89095187D01*
X159946347Y-89187285D01*
X159822285Y-89311347D01*
X159730187Y-89460663D01*
X159675000Y-89627205D01*
X159664500Y-89729983D01*
X159664500Y-90480016D01*
X159674999Y-90582788D01*
X159675000Y-90582795D01*
X159675001Y-90582797D01*
X159713245Y-90698211D01*
X159730187Y-90749336D01*
X159822285Y-90898652D01*
X159822286Y-90898653D01*
X159822288Y-90898656D01*
X159946344Y-91022712D01*
X160095666Y-91114814D01*
X160262203Y-91169999D01*
X160364991Y-91180500D01*
X161765008Y-91180499D01*
X161765016Y-91180499D01*
X161867788Y-91170000D01*
X161867788Y-91169999D01*
X161867797Y-91169999D01*
X162034334Y-91114814D01*
X162183656Y-91022712D01*
X162307712Y-90898656D01*
X162361607Y-90811278D01*
X162408248Y-90771676D01*
X162445868Y-90764250D01*
X162530184Y-90764250D01*
X162588375Y-90783157D01*
X162614788Y-90811839D01*
X162670644Y-90903761D01*
X162674266Y-90909532D01*
X162678405Y-90916128D01*
X162680395Y-90918805D01*
X162684761Y-90925185D01*
X162746042Y-91022714D01*
X162755184Y-91037262D01*
X162882738Y-91164816D01*
X162882740Y-91164817D01*
X162882741Y-91164818D01*
X162890986Y-91169999D01*
X163035478Y-91260789D01*
X163103657Y-91284646D01*
X163205738Y-91320366D01*
X163205742Y-91320367D01*
X163205745Y-91320368D01*
X163385000Y-91340565D01*
X163564255Y-91320368D01*
X163734522Y-91260789D01*
X163887262Y-91164816D01*
X164014816Y-91037262D01*
X164057174Y-90969850D01*
X164104143Y-90930638D01*
X164165190Y-90926522D01*
X164216997Y-90959074D01*
X164239776Y-91015861D01*
X164240000Y-91022521D01*
X164240000Y-92292165D01*
X164221093Y-92350356D01*
X164211004Y-92362169D01*
X163710169Y-92863004D01*
X163655652Y-92890781D01*
X163640165Y-92892000D01*
X160002193Y-92892000D01*
X159944002Y-92873093D01*
X159932195Y-92863009D01*
X159779139Y-92709953D01*
X159779135Y-92709950D01*
X159779132Y-92709947D01*
X159779130Y-92709946D01*
X159592737Y-92579434D01*
X159592736Y-92579433D01*
X159592734Y-92579432D01*
X159592731Y-92579430D01*
X159592723Y-92579426D01*
X159386499Y-92483262D01*
X159386500Y-92483262D01*
X159313228Y-92463629D01*
X159166692Y-92424365D01*
X159166691Y-92424364D01*
X159166684Y-92424363D01*
X158940003Y-92404532D01*
X158939997Y-92404532D01*
X158713315Y-92424363D01*
X158493499Y-92483262D01*
X158287276Y-92579426D01*
X158287262Y-92579434D01*
X158100869Y-92709946D01*
X158100867Y-92709947D01*
X157939947Y-92870867D01*
X157939946Y-92870869D01*
X157809434Y-93057262D01*
X157809426Y-93057276D01*
X157713262Y-93263499D01*
X157654363Y-93483315D01*
X157634532Y-93709996D01*
X157634532Y-93710003D01*
X157654363Y-93936684D01*
X157713262Y-94156500D01*
X157809426Y-94362723D01*
X157809434Y-94362737D01*
X157939946Y-94549130D01*
X157939947Y-94549132D01*
X157939950Y-94549135D01*
X157939953Y-94549139D01*
X158100861Y-94710047D01*
X158100864Y-94710049D01*
X158100867Y-94710052D01*
X158100869Y-94710053D01*
X158123644Y-94726000D01*
X158287266Y-94840568D01*
X158287272Y-94840571D01*
X158287276Y-94840573D01*
X158493500Y-94936737D01*
X158493504Y-94936739D01*
X158713308Y-94995635D01*
X158713312Y-94995635D01*
X158713315Y-94995636D01*
X158939997Y-95015468D01*
X158940000Y-95015468D01*
X158940003Y-95015468D01*
X159166684Y-94995636D01*
X159166685Y-94995635D01*
X159166692Y-94995635D01*
X159386496Y-94936739D01*
X159592734Y-94840568D01*
X159779139Y-94710047D01*
X159932191Y-94556994D01*
X159986706Y-94529219D01*
X160002193Y-94528000D01*
X164100565Y-94528000D01*
X164100566Y-94528000D01*
X164121685Y-94523799D01*
X164182447Y-94530991D01*
X164227377Y-94572523D01*
X164240000Y-94620897D01*
X164240000Y-109097478D01*
X164221093Y-109155669D01*
X164171593Y-109191633D01*
X164110407Y-109191633D01*
X164060907Y-109155669D01*
X164057175Y-109150150D01*
X164014820Y-109082743D01*
X164014817Y-109082740D01*
X164014816Y-109082738D01*
X163887262Y-108955184D01*
X163887259Y-108955182D01*
X163887258Y-108955181D01*
X163822450Y-108914460D01*
X163762479Y-108876777D01*
X163756703Y-108872609D01*
X163756645Y-108872692D01*
X163753764Y-108870647D01*
X163753761Y-108870644D01*
X163343343Y-108621255D01*
X163343341Y-108621254D01*
X163340451Y-108619498D01*
X163340511Y-108619397D01*
X163336401Y-108616971D01*
X163267271Y-108570779D01*
X163147294Y-108521083D01*
X163019933Y-108495750D01*
X163019931Y-108495750D01*
X163019930Y-108495750D01*
X162445868Y-108495750D01*
X162387677Y-108476843D01*
X162361607Y-108448722D01*
X162307714Y-108361347D01*
X162307713Y-108361346D01*
X162307712Y-108361344D01*
X162183656Y-108237288D01*
X162183653Y-108237286D01*
X162183652Y-108237285D01*
X162034336Y-108145187D01*
X162034335Y-108145186D01*
X162034334Y-108145186D01*
X161867797Y-108090001D01*
X161867794Y-108090000D01*
X161765016Y-108079500D01*
X160364983Y-108079500D01*
X160262211Y-108089999D01*
X160262199Y-108090002D01*
X160095663Y-108145187D01*
X159946347Y-108237285D01*
X159822285Y-108361347D01*
X159730187Y-108510663D01*
X159675000Y-108677205D01*
X159664500Y-108779983D01*
X159664500Y-109530016D01*
X159674999Y-109632788D01*
X159675000Y-109632795D01*
X159675001Y-109632797D01*
X159727817Y-109792186D01*
X159730187Y-109799336D01*
X159822285Y-109948652D01*
X159822286Y-109948653D01*
X159822288Y-109948656D01*
X159946344Y-110072712D01*
X160095666Y-110164814D01*
X160262203Y-110219999D01*
X160364991Y-110230500D01*
X161765008Y-110230499D01*
X161765016Y-110230499D01*
X161867788Y-110220000D01*
X161867788Y-110219999D01*
X161867797Y-110219999D01*
X162034334Y-110164814D01*
X162183656Y-110072712D01*
X162307712Y-109948656D01*
X162361607Y-109861278D01*
X162408248Y-109821676D01*
X162445868Y-109814250D01*
X162530184Y-109814250D01*
X162588375Y-109833157D01*
X162614788Y-109861839D01*
X162670644Y-109953761D01*
X162674799Y-109960382D01*
X162678405Y-109966128D01*
X162680395Y-109968805D01*
X162684761Y-109975185D01*
X162746042Y-110072714D01*
X162755184Y-110087262D01*
X162882738Y-110214816D01*
X162882740Y-110214817D01*
X162882741Y-110214818D01*
X162890986Y-110219999D01*
X163035478Y-110310789D01*
X163073813Y-110324203D01*
X163205738Y-110370366D01*
X163205742Y-110370367D01*
X163205745Y-110370368D01*
X163385000Y-110390565D01*
X163564255Y-110370368D01*
X163734522Y-110310789D01*
X163887262Y-110214816D01*
X164014816Y-110087262D01*
X164057174Y-110019850D01*
X164104143Y-109980638D01*
X164165190Y-109976522D01*
X164216997Y-110009074D01*
X164239776Y-110065861D01*
X164240000Y-110072521D01*
X164240000Y-111342165D01*
X164221093Y-111400356D01*
X164211004Y-111412169D01*
X163710169Y-111913004D01*
X163655652Y-111940781D01*
X163640165Y-111942000D01*
X160002193Y-111942000D01*
X159944002Y-111923093D01*
X159932195Y-111913009D01*
X159779139Y-111759953D01*
X159779135Y-111759950D01*
X159779132Y-111759947D01*
X159779130Y-111759946D01*
X159592737Y-111629434D01*
X159592736Y-111629433D01*
X159592734Y-111629432D01*
X159592731Y-111629430D01*
X159592723Y-111629426D01*
X159386499Y-111533262D01*
X159386500Y-111533262D01*
X159313228Y-111513629D01*
X159166692Y-111474365D01*
X159166691Y-111474364D01*
X159166684Y-111474363D01*
X158940003Y-111454532D01*
X158939997Y-111454532D01*
X158713315Y-111474363D01*
X158493499Y-111533262D01*
X158287276Y-111629426D01*
X158287262Y-111629434D01*
X158100869Y-111759946D01*
X158100867Y-111759947D01*
X157939947Y-111920867D01*
X157939946Y-111920869D01*
X157809434Y-112107262D01*
X157809426Y-112107276D01*
X157713262Y-112313499D01*
X157654363Y-112533315D01*
X157634532Y-112759996D01*
X157634532Y-112760003D01*
X157654363Y-112986684D01*
X157713262Y-113206500D01*
X157809426Y-113412723D01*
X157809434Y-113412737D01*
X157939946Y-113599130D01*
X157939947Y-113599132D01*
X157939950Y-113599135D01*
X157939953Y-113599139D01*
X158100861Y-113760047D01*
X158100864Y-113760049D01*
X158100867Y-113760052D01*
X158100869Y-113760053D01*
X158129461Y-113780073D01*
X158287266Y-113890568D01*
X158287272Y-113890571D01*
X158287276Y-113890573D01*
X158493500Y-113986737D01*
X158493504Y-113986739D01*
X158713308Y-114045635D01*
X158713312Y-114045635D01*
X158713315Y-114045636D01*
X158939997Y-114065468D01*
X158940000Y-114065468D01*
X158940003Y-114065468D01*
X159166684Y-114045636D01*
X159166685Y-114045635D01*
X159166692Y-114045635D01*
X159386496Y-113986739D01*
X159592734Y-113890568D01*
X159779139Y-113760047D01*
X159932191Y-113606994D01*
X159986706Y-113579219D01*
X160002193Y-113578000D01*
X164100565Y-113578000D01*
X164100566Y-113578000D01*
X164121685Y-113573799D01*
X164182447Y-113580991D01*
X164227377Y-113622523D01*
X164240000Y-113670897D01*
X164240000Y-125418992D01*
X164221093Y-125477183D01*
X164211004Y-125488996D01*
X162970000Y-126730000D01*
X162368187Y-127331812D01*
X162313670Y-127359589D01*
X162253238Y-127350018D01*
X162228182Y-127331814D01*
X162183656Y-127287288D01*
X162183653Y-127287286D01*
X162183652Y-127287285D01*
X162034336Y-127195187D01*
X162034335Y-127195186D01*
X162034334Y-127195186D01*
X161867797Y-127140001D01*
X161867794Y-127140000D01*
X161765016Y-127129500D01*
X160364983Y-127129500D01*
X160262211Y-127139999D01*
X160262199Y-127140002D01*
X160095663Y-127195187D01*
X159946347Y-127287285D01*
X159822285Y-127411347D01*
X159730187Y-127560663D01*
X159675000Y-127727205D01*
X159664500Y-127829983D01*
X159664500Y-127901000D01*
X159645593Y-127959191D01*
X159596093Y-127995155D01*
X159565500Y-128000000D01*
X150311008Y-128000000D01*
X150252817Y-127981093D01*
X150241004Y-127971004D01*
X147822323Y-125552323D01*
X150669357Y-125552323D01*
X150689891Y-125800142D01*
X150689892Y-125800144D01*
X150750937Y-126041204D01*
X150850827Y-126268930D01*
X150986836Y-126477108D01*
X151155256Y-126660061D01*
X151351491Y-126812797D01*
X151570190Y-126931151D01*
X151805386Y-127011894D01*
X152050665Y-127052823D01*
X152299335Y-127052823D01*
X152544614Y-127011894D01*
X152779810Y-126931151D01*
X152998509Y-126812797D01*
X153194744Y-126660061D01*
X153363164Y-126477108D01*
X153499173Y-126268930D01*
X153599063Y-126041204D01*
X153660108Y-125800144D01*
X153680643Y-125552323D01*
X153660108Y-125304502D01*
X153599063Y-125063442D01*
X153499173Y-124835716D01*
X153363164Y-124627538D01*
X153194744Y-124444585D01*
X152998509Y-124291849D01*
X152779813Y-124173496D01*
X152544611Y-124092751D01*
X152299335Y-124051823D01*
X152050665Y-124051823D01*
X151805388Y-124092751D01*
X151570186Y-124173496D01*
X151351490Y-124291849D01*
X151351487Y-124291851D01*
X151155259Y-124444582D01*
X150986835Y-124627539D01*
X150850826Y-124835718D01*
X150750937Y-125063443D01*
X150689891Y-125304503D01*
X150669357Y-125552323D01*
X147822323Y-125552323D01*
X147758996Y-125488996D01*
X147731219Y-125434479D01*
X147730000Y-125418992D01*
X147730000Y-113788193D01*
X147748907Y-113730002D01*
X147798407Y-113694038D01*
X147859593Y-113694038D01*
X147899001Y-113718187D01*
X147940861Y-113760047D01*
X147940864Y-113760049D01*
X147940867Y-113760052D01*
X147940869Y-113760053D01*
X147969461Y-113780073D01*
X148127266Y-113890568D01*
X148127272Y-113890571D01*
X148127276Y-113890573D01*
X148333500Y-113986737D01*
X148333504Y-113986739D01*
X148553308Y-114045635D01*
X148553312Y-114045635D01*
X148553315Y-114045636D01*
X148779997Y-114065468D01*
X148780000Y-114065468D01*
X148780003Y-114065468D01*
X149006684Y-114045636D01*
X149006685Y-114045635D01*
X149006692Y-114045635D01*
X149226496Y-113986739D01*
X149432734Y-113890568D01*
X149619139Y-113760047D01*
X149780047Y-113599139D01*
X149910568Y-113412734D01*
X150006739Y-113206496D01*
X150065635Y-112986692D01*
X150070303Y-112933344D01*
X150085468Y-112760003D01*
X150085468Y-112759996D01*
X150065636Y-112533315D01*
X150065635Y-112533312D01*
X150065635Y-112533308D01*
X150006739Y-112313504D01*
X150006737Y-112313499D01*
X149910573Y-112107276D01*
X149910571Y-112107272D01*
X149910568Y-112107266D01*
X149780053Y-111920869D01*
X149780052Y-111920867D01*
X149780049Y-111920864D01*
X149780047Y-111920861D01*
X149619139Y-111759953D01*
X149619135Y-111759950D01*
X149619132Y-111759947D01*
X149619130Y-111759946D01*
X149432737Y-111629434D01*
X149432736Y-111629433D01*
X149432734Y-111629432D01*
X149432731Y-111629430D01*
X149432723Y-111629426D01*
X149226499Y-111533262D01*
X149226500Y-111533262D01*
X149153228Y-111513629D01*
X149006692Y-111474365D01*
X149006691Y-111474364D01*
X149006684Y-111474363D01*
X148780003Y-111454532D01*
X148779997Y-111454532D01*
X148553315Y-111474363D01*
X148333499Y-111533262D01*
X148127276Y-111629426D01*
X148127262Y-111629434D01*
X147940869Y-111759946D01*
X147940867Y-111759947D01*
X147940861Y-111759952D01*
X147940861Y-111759953D01*
X147899001Y-111801812D01*
X147844487Y-111829588D01*
X147784055Y-111820017D01*
X147740790Y-111776752D01*
X147730000Y-111731807D01*
X147730000Y-106297323D01*
X150669357Y-106297323D01*
X150689891Y-106545142D01*
X150689892Y-106545144D01*
X150750937Y-106786204D01*
X150850827Y-107013930D01*
X150986836Y-107222108D01*
X151155256Y-107405061D01*
X151351491Y-107557797D01*
X151570190Y-107676151D01*
X151805386Y-107756894D01*
X152050665Y-107797823D01*
X152299335Y-107797823D01*
X152544614Y-107756894D01*
X152779810Y-107676151D01*
X152998509Y-107557797D01*
X153194744Y-107405061D01*
X153363164Y-107222108D01*
X153499173Y-107013930D01*
X153599063Y-106786204D01*
X153660108Y-106545144D01*
X153680643Y-106297323D01*
X153660108Y-106049502D01*
X153599063Y-105808442D01*
X153499173Y-105580716D01*
X153363164Y-105372538D01*
X153194744Y-105189585D01*
X152998509Y-105036849D01*
X152779813Y-104918496D01*
X152544611Y-104837751D01*
X152299335Y-104796823D01*
X152050665Y-104796823D01*
X151805388Y-104837751D01*
X151570186Y-104918496D01*
X151351490Y-105036849D01*
X151351487Y-105036851D01*
X151155259Y-105189582D01*
X150986835Y-105372539D01*
X150850826Y-105580718D01*
X150750937Y-105808443D01*
X150689891Y-106049503D01*
X150669357Y-106297323D01*
X147730000Y-106297323D01*
X147730000Y-95693722D01*
X147748907Y-95635531D01*
X147773999Y-95611406D01*
X147777268Y-95609221D01*
X147777272Y-95609220D01*
X147885248Y-95537073D01*
X148413027Y-95009292D01*
X148467544Y-94981515D01*
X148508650Y-94983668D01*
X148553308Y-94995635D01*
X148553315Y-94995635D01*
X148553317Y-94995636D01*
X148779997Y-95015468D01*
X148780000Y-95015468D01*
X148780003Y-95015468D01*
X149006684Y-94995636D01*
X149006685Y-94995635D01*
X149006692Y-94995635D01*
X149226496Y-94936739D01*
X149432734Y-94840568D01*
X149619139Y-94710047D01*
X149780047Y-94549139D01*
X149910568Y-94362734D01*
X150006739Y-94156496D01*
X150065635Y-93936692D01*
X150080640Y-93765192D01*
X150085468Y-93710003D01*
X150085468Y-93709996D01*
X150065636Y-93483315D01*
X150065635Y-93483312D01*
X150065635Y-93483308D01*
X150006739Y-93263504D01*
X150006737Y-93263499D01*
X149910573Y-93057276D01*
X149910571Y-93057272D01*
X149910568Y-93057266D01*
X149793995Y-92890781D01*
X149780053Y-92870869D01*
X149780052Y-92870867D01*
X149780049Y-92870864D01*
X149780047Y-92870861D01*
X149619139Y-92709953D01*
X149619135Y-92709950D01*
X149619132Y-92709947D01*
X149619130Y-92709946D01*
X149432737Y-92579434D01*
X149432736Y-92579433D01*
X149432734Y-92579432D01*
X149432731Y-92579430D01*
X149432723Y-92579426D01*
X149226499Y-92483262D01*
X149226500Y-92483262D01*
X149153228Y-92463629D01*
X149006692Y-92424365D01*
X149006691Y-92424364D01*
X149006684Y-92424363D01*
X148780003Y-92404532D01*
X148779997Y-92404532D01*
X148553315Y-92424363D01*
X148333499Y-92483262D01*
X148127276Y-92579426D01*
X148127262Y-92579434D01*
X147940869Y-92709946D01*
X147940867Y-92709947D01*
X147940861Y-92709952D01*
X147940861Y-92709953D01*
X147899001Y-92751812D01*
X147844487Y-92779588D01*
X147784055Y-92770017D01*
X147740790Y-92726752D01*
X147730000Y-92681807D01*
X147730000Y-87247323D01*
X150669357Y-87247323D01*
X150689891Y-87495142D01*
X150719272Y-87611161D01*
X150750937Y-87736204D01*
X150850827Y-87963930D01*
X150986836Y-88172108D01*
X151155256Y-88355061D01*
X151351491Y-88507797D01*
X151570190Y-88626151D01*
X151805386Y-88706894D01*
X152050665Y-88747823D01*
X152299335Y-88747823D01*
X152544614Y-88706894D01*
X152779810Y-88626151D01*
X152998509Y-88507797D01*
X153194744Y-88355061D01*
X153363164Y-88172108D01*
X153499173Y-87963930D01*
X153599063Y-87736204D01*
X153660108Y-87495144D01*
X153680643Y-87247323D01*
X153660108Y-86999502D01*
X153599063Y-86758442D01*
X153499173Y-86530716D01*
X153363164Y-86322538D01*
X153194744Y-86139585D01*
X152998509Y-85986849D01*
X152779813Y-85868496D01*
X152544611Y-85787751D01*
X152299335Y-85746823D01*
X152050665Y-85746823D01*
X151805388Y-85787751D01*
X151570186Y-85868496D01*
X151351490Y-85986849D01*
X151351487Y-85986851D01*
X151155259Y-86139582D01*
X151155256Y-86139584D01*
X151155256Y-86139585D01*
X150986836Y-86322538D01*
X150850827Y-86530716D01*
X150755607Y-86747797D01*
X150750937Y-86758443D01*
X150689891Y-86999503D01*
X150669357Y-87247323D01*
X147730000Y-87247323D01*
X147730000Y-75688193D01*
X147748907Y-75630002D01*
X147798407Y-75594038D01*
X147859593Y-75594038D01*
X147899001Y-75618187D01*
X147940861Y-75660047D01*
X147940864Y-75660049D01*
X147940867Y-75660052D01*
X147940869Y-75660053D01*
X147981058Y-75688193D01*
X148127266Y-75790568D01*
X148127272Y-75790571D01*
X148127276Y-75790573D01*
X148333500Y-75886737D01*
X148333504Y-75886739D01*
X148553308Y-75945635D01*
X148553312Y-75945635D01*
X148553315Y-75945636D01*
X148779997Y-75965468D01*
X148780000Y-75965468D01*
X148780003Y-75965468D01*
X149006684Y-75945636D01*
X149006685Y-75945635D01*
X149006692Y-75945635D01*
X149226496Y-75886739D01*
X149432734Y-75790568D01*
X149619139Y-75660047D01*
X149780047Y-75499139D01*
X149910568Y-75312734D01*
X150006739Y-75106496D01*
X150065635Y-74886692D01*
X150067271Y-74868000D01*
X150085468Y-74660003D01*
X150085468Y-74659996D01*
X150065636Y-74433315D01*
X150065635Y-74433312D01*
X150065635Y-74433308D01*
X150006739Y-74213504D01*
X149910568Y-74007266D01*
X149780053Y-73820869D01*
X149780052Y-73820867D01*
X149780049Y-73820864D01*
X149780047Y-73820861D01*
X149619139Y-73659953D01*
X149619135Y-73659950D01*
X149619132Y-73659947D01*
X149619130Y-73659946D01*
X149432737Y-73529434D01*
X149432736Y-73529433D01*
X149432734Y-73529432D01*
X149432731Y-73529430D01*
X149432723Y-73529426D01*
X149226499Y-73433262D01*
X149226500Y-73433262D01*
X149153228Y-73413629D01*
X149006692Y-73374365D01*
X149006691Y-73374364D01*
X149006684Y-73374363D01*
X148780003Y-73354532D01*
X148779997Y-73354532D01*
X148553315Y-73374363D01*
X148333499Y-73433262D01*
X148127276Y-73529426D01*
X148127262Y-73529434D01*
X147940869Y-73659946D01*
X147940867Y-73659947D01*
X147940861Y-73659952D01*
X147940861Y-73659953D01*
X147899001Y-73701812D01*
X147844487Y-73729588D01*
X147784055Y-73720017D01*
X147740790Y-73676752D01*
X147730000Y-73631807D01*
X147730000Y-73390001D01*
X147730000Y-73390000D01*
X146460000Y-72120000D01*
X146459999Y-72120000D01*
X137611008Y-72120000D01*
X137552817Y-72101093D01*
X137541004Y-72091004D01*
X135058996Y-69608996D01*
X135031219Y-69554479D01*
X135030000Y-69538992D01*
X135030000Y-68402323D01*
X150669357Y-68402323D01*
X150689891Y-68650142D01*
X150689892Y-68650144D01*
X150750937Y-68891204D01*
X150850827Y-69118930D01*
X150986836Y-69327108D01*
X151155256Y-69510061D01*
X151351491Y-69662797D01*
X151570190Y-69781151D01*
X151805386Y-69861894D01*
X152050665Y-69902823D01*
X152299335Y-69902823D01*
X152544614Y-69861894D01*
X152779810Y-69781151D01*
X152998509Y-69662797D01*
X153194744Y-69510061D01*
X153363164Y-69327108D01*
X153499173Y-69118930D01*
X153599063Y-68891204D01*
X153660108Y-68650144D01*
X153680643Y-68402323D01*
X153660108Y-68154502D01*
X153599063Y-67913442D01*
X153499173Y-67685716D01*
X153363164Y-67477538D01*
X153194744Y-67294585D01*
X152998509Y-67141849D01*
X152779813Y-67023496D01*
X152544611Y-66942751D01*
X152299335Y-66901823D01*
X152050665Y-66901823D01*
X151805388Y-66942751D01*
X151570186Y-67023496D01*
X151351490Y-67141849D01*
X151351487Y-67141851D01*
X151155259Y-67294582D01*
X150986835Y-67477539D01*
X150850826Y-67685718D01*
X150750937Y-67913443D01*
X150689891Y-68154503D01*
X150669357Y-68402323D01*
X135030000Y-68402323D01*
X135030000Y-60096008D01*
X135048907Y-60037817D01*
X135058996Y-60026004D01*
X137541004Y-57543996D01*
X137595521Y-57516219D01*
X137611008Y-57515000D01*
X162928992Y-57515000D01*
X162987183Y-57533907D01*
G37*
%TD.AperFunction*%
%TD*%
%TA.AperFunction,Conductor*%
%TO.N,Net-(J1-Pin_3)*%
G36*
X113237183Y-53723907D02*
G01*
X113248996Y-53733996D01*
X114461004Y-54946004D01*
X114488781Y-55000521D01*
X114490000Y-55016008D01*
X114490000Y-63188992D01*
X114471093Y-63247183D01*
X114461004Y-63258996D01*
X113883996Y-63836004D01*
X113829479Y-63863781D01*
X113813992Y-63865000D01*
X108140000Y-63865000D01*
X106870000Y-65135000D01*
X106870000Y-65135001D01*
X106870000Y-70173992D01*
X106851093Y-70232183D01*
X106841004Y-70243996D01*
X105628996Y-71456004D01*
X105574479Y-71483781D01*
X105558992Y-71485000D01*
X96116008Y-71485000D01*
X96057817Y-71466093D01*
X96046004Y-71456004D01*
X94833996Y-70243996D01*
X94806219Y-70189479D01*
X94805000Y-70173992D01*
X94805000Y-68409997D01*
X99794592Y-68409997D01*
X99794592Y-68410002D01*
X99814197Y-68671625D01*
X99814198Y-68671631D01*
X99872580Y-68927419D01*
X99968429Y-69171636D01*
X99968438Y-69171655D01*
X100099610Y-69398851D01*
X100099620Y-69398865D01*
X100263185Y-69603970D01*
X100263196Y-69603982D01*
X100455514Y-69782427D01*
X100455516Y-69782428D01*
X100455521Y-69782433D01*
X100672296Y-69930228D01*
X100779810Y-69982004D01*
X100908674Y-70044062D01*
X100908676Y-70044062D01*
X100908677Y-70044063D01*
X101159385Y-70121396D01*
X101418818Y-70160500D01*
X101418823Y-70160500D01*
X101681177Y-70160500D01*
X101681182Y-70160500D01*
X101940615Y-70121396D01*
X102191323Y-70044063D01*
X102427704Y-69930228D01*
X102644479Y-69782433D01*
X102836805Y-69603981D01*
X103000386Y-69398857D01*
X103131568Y-69171643D01*
X103227420Y-68927416D01*
X103285802Y-68671630D01*
X103305408Y-68410000D01*
X103285802Y-68148370D01*
X103227420Y-67892584D01*
X103227419Y-67892583D01*
X103227419Y-67892580D01*
X103152305Y-67701194D01*
X103131568Y-67648357D01*
X103131563Y-67648348D01*
X103131561Y-67648344D01*
X103000389Y-67421148D01*
X103000388Y-67421147D01*
X103000386Y-67421143D01*
X102993352Y-67412323D01*
X102836814Y-67216029D01*
X102836803Y-67216017D01*
X102644485Y-67037572D01*
X102644482Y-67037570D01*
X102644479Y-67037567D01*
X102427704Y-66889772D01*
X102427696Y-66889768D01*
X102191325Y-66775937D01*
X101940619Y-66698605D01*
X101940616Y-66698604D01*
X101940615Y-66698604D01*
X101940610Y-66698603D01*
X101940609Y-66698603D01*
X101681185Y-66659500D01*
X101681182Y-66659500D01*
X101418818Y-66659500D01*
X101418814Y-66659500D01*
X101159390Y-66698603D01*
X101159380Y-66698605D01*
X100908674Y-66775937D01*
X100672303Y-66889768D01*
X100672299Y-66889770D01*
X100672296Y-66889772D01*
X100455521Y-67037567D01*
X100455514Y-67037572D01*
X100263196Y-67216017D01*
X100263185Y-67216029D01*
X100099620Y-67421134D01*
X100099610Y-67421148D01*
X99968438Y-67648344D01*
X99968429Y-67648363D01*
X99872580Y-67892580D01*
X99814198Y-68148368D01*
X99814197Y-68148374D01*
X99794592Y-68409997D01*
X94805000Y-68409997D01*
X94805000Y-64599997D01*
X99794592Y-64599997D01*
X99794592Y-64600002D01*
X99814197Y-64861625D01*
X99814198Y-64861631D01*
X99872580Y-65117419D01*
X99968429Y-65361636D01*
X99968438Y-65361655D01*
X100099610Y-65588851D01*
X100099620Y-65588865D01*
X100263185Y-65793970D01*
X100263196Y-65793982D01*
X100455514Y-65972427D01*
X100455516Y-65972428D01*
X100455521Y-65972433D01*
X100672296Y-66120228D01*
X100779810Y-66172004D01*
X100908674Y-66234062D01*
X100908676Y-66234062D01*
X100908677Y-66234063D01*
X101159385Y-66311396D01*
X101418818Y-66350500D01*
X101418823Y-66350500D01*
X101681177Y-66350500D01*
X101681182Y-66350500D01*
X101940615Y-66311396D01*
X102191323Y-66234063D01*
X102427704Y-66120228D01*
X102644479Y-65972433D01*
X102836805Y-65793981D01*
X102839064Y-65791149D01*
X102880750Y-65738874D01*
X103000386Y-65588857D01*
X103131568Y-65361643D01*
X103209029Y-65164273D01*
X103227419Y-65117419D01*
X103227420Y-65117416D01*
X103285802Y-64861630D01*
X103305408Y-64600000D01*
X103285802Y-64338370D01*
X103227420Y-64082584D01*
X103227419Y-64082583D01*
X103227419Y-64082580D01*
X103168348Y-63932072D01*
X103131568Y-63838357D01*
X103131563Y-63838348D01*
X103131561Y-63838344D01*
X103000389Y-63611148D01*
X103000388Y-63611147D01*
X103000386Y-63611143D01*
X103000379Y-63611134D01*
X102836814Y-63406029D01*
X102836803Y-63406017D01*
X102644485Y-63227572D01*
X102644482Y-63227570D01*
X102644479Y-63227567D01*
X102427704Y-63079772D01*
X102427696Y-63079768D01*
X102191325Y-62965937D01*
X101940619Y-62888605D01*
X101940616Y-62888604D01*
X101940615Y-62888604D01*
X101940610Y-62888603D01*
X101940609Y-62888603D01*
X101681185Y-62849500D01*
X101681182Y-62849500D01*
X101418818Y-62849500D01*
X101418814Y-62849500D01*
X101159390Y-62888603D01*
X101159380Y-62888605D01*
X100908674Y-62965937D01*
X100672303Y-63079768D01*
X100672299Y-63079770D01*
X100672296Y-63079772D01*
X100455521Y-63227567D01*
X100455514Y-63227572D01*
X100263196Y-63406017D01*
X100263185Y-63406029D01*
X100099620Y-63611134D01*
X100099610Y-63611148D01*
X99968438Y-63838344D01*
X99968429Y-63838363D01*
X99872580Y-64082580D01*
X99814198Y-64338368D01*
X99814197Y-64338374D01*
X99794592Y-64599997D01*
X94805000Y-64599997D01*
X94805000Y-58191008D01*
X94823907Y-58132817D01*
X94833996Y-58121004D01*
X95378538Y-57576462D01*
X95962601Y-56992398D01*
X96017116Y-56964623D01*
X96077548Y-56974194D01*
X96102603Y-56992397D01*
X96172748Y-57062542D01*
X96434682Y-57267754D01*
X96719443Y-57439898D01*
X97022877Y-57576463D01*
X97340559Y-57675456D01*
X97558758Y-57715442D01*
X97667857Y-57735436D01*
X97667855Y-57735436D01*
X97999994Y-57755527D01*
X98000000Y-57755527D01*
X98000006Y-57755527D01*
X98332143Y-57735436D01*
X98397601Y-57723440D01*
X98659441Y-57675456D01*
X98977123Y-57576463D01*
X99280557Y-57439898D01*
X99565318Y-57267754D01*
X99827252Y-57062542D01*
X100062542Y-56827252D01*
X100267754Y-56565318D01*
X100439898Y-56280557D01*
X100576463Y-55977123D01*
X100675456Y-55659441D01*
X100715869Y-55438913D01*
X100743240Y-55386759D01*
X102396004Y-53733996D01*
X102450521Y-53706219D01*
X102466008Y-53705000D01*
X113178992Y-53705000D01*
X113237183Y-53723907D01*
G37*
%TD.AperFunction*%
%TD*%
%TA.AperFunction,Conductor*%
%TO.N,+5V*%
G36*
X131017183Y-51818907D02*
G01*
X131028996Y-51828996D01*
X132241004Y-53041004D01*
X132268781Y-53095521D01*
X132270000Y-53111008D01*
X132270000Y-67055587D01*
X132251093Y-67113778D01*
X132201593Y-67149742D01*
X132140407Y-67149742D01*
X132100996Y-67125591D01*
X131457697Y-66482292D01*
X131340098Y-66403714D01*
X131263557Y-66372011D01*
X131263556Y-66372010D01*
X131209433Y-66349592D01*
X131065947Y-66321051D01*
X131066226Y-66319647D01*
X131015804Y-66297593D01*
X130997154Y-66275316D01*
X130869417Y-66066867D01*
X130869407Y-66066854D01*
X130700697Y-65869320D01*
X130700694Y-65869317D01*
X130700689Y-65869311D01*
X130700682Y-65869305D01*
X130700679Y-65869302D01*
X130503145Y-65700592D01*
X130503132Y-65700582D01*
X130281637Y-65564850D01*
X130281625Y-65564844D01*
X130041611Y-65465427D01*
X130041612Y-65465427D01*
X129788992Y-65404778D01*
X129530000Y-65384396D01*
X129271007Y-65404778D01*
X129018388Y-65465427D01*
X128778374Y-65564844D01*
X128778362Y-65564850D01*
X128556867Y-65700582D01*
X128556854Y-65700592D01*
X128359320Y-65869302D01*
X128359302Y-65869320D01*
X128190592Y-66066854D01*
X128190582Y-66066867D01*
X128054850Y-66288362D01*
X128054844Y-66288374D01*
X127955427Y-66528388D01*
X127894778Y-66781007D01*
X127874396Y-67040000D01*
X127894778Y-67298992D01*
X127955427Y-67551611D01*
X128054844Y-67791625D01*
X128054850Y-67791637D01*
X128190582Y-68013132D01*
X128190587Y-68013139D01*
X128190588Y-68013140D01*
X128359311Y-68210689D01*
X128556860Y-68379412D01*
X128556862Y-68379413D01*
X128556867Y-68379417D01*
X128778362Y-68515149D01*
X128778374Y-68515155D01*
X129018388Y-68614572D01*
X129018390Y-68614573D01*
X129271006Y-68675221D01*
X129530000Y-68695604D01*
X129788994Y-68675221D01*
X130041610Y-68614573D01*
X130281628Y-68515154D01*
X130281632Y-68515151D01*
X130281637Y-68515149D01*
X130503132Y-68379417D01*
X130503132Y-68379416D01*
X130503140Y-68379412D01*
X130700689Y-68210689D01*
X130840543Y-68046940D01*
X130892712Y-68014971D01*
X130953709Y-68019772D01*
X130985827Y-68041232D01*
X131383004Y-68438409D01*
X131410781Y-68492926D01*
X131412000Y-68508413D01*
X131412000Y-69701713D01*
X131393093Y-69759904D01*
X131363395Y-69786926D01*
X131228138Y-69866916D01*
X131111918Y-69983136D01*
X131028256Y-70124602D01*
X130982403Y-70282427D01*
X130982401Y-70282434D01*
X130979500Y-70319311D01*
X130979500Y-72650688D01*
X130982401Y-72687565D01*
X130982401Y-72687568D01*
X130982402Y-72687569D01*
X131028256Y-72845398D01*
X131111919Y-72986865D01*
X131228135Y-73103081D01*
X131363397Y-73183074D01*
X131403857Y-73228968D01*
X131412000Y-73268286D01*
X131412000Y-73320719D01*
X131439592Y-73459432D01*
X131439592Y-73459434D01*
X131462011Y-73513558D01*
X131493714Y-73590098D01*
X131572292Y-73707697D01*
X132241004Y-74376409D01*
X132268781Y-74430926D01*
X132270000Y-74446413D01*
X132270000Y-75888992D01*
X132251093Y-75947183D01*
X132241004Y-75958996D01*
X131028996Y-77171004D01*
X130974479Y-77198781D01*
X130958992Y-77200000D01*
X123409697Y-77200000D01*
X123355206Y-77183654D01*
X122614000Y-76695000D01*
X116809308Y-76695000D01*
X116751117Y-76676093D01*
X116743970Y-76670377D01*
X115793662Y-75835570D01*
X115762423Y-75782961D01*
X115760000Y-75761193D01*
X115760000Y-72796007D01*
X115778907Y-72737816D01*
X115788990Y-72726009D01*
X117030000Y-71485000D01*
X117030000Y-64500000D01*
X115153996Y-62623996D01*
X115126219Y-62569479D01*
X115125000Y-62553992D01*
X115125000Y-61232677D01*
X118926700Y-61232677D01*
X118945865Y-61463980D01*
X118945866Y-61463982D01*
X119002843Y-61688977D01*
X119096076Y-61901526D01*
X119223021Y-62095830D01*
X119380216Y-62266590D01*
X119563374Y-62409147D01*
X119767497Y-62519613D01*
X119987019Y-62594975D01*
X120215951Y-62633177D01*
X120448049Y-62633177D01*
X120676981Y-62594975D01*
X120896503Y-62519613D01*
X121100626Y-62409147D01*
X121283784Y-62266590D01*
X121440979Y-62095830D01*
X121567924Y-61901526D01*
X121661157Y-61688977D01*
X121718134Y-61463982D01*
X121737300Y-61232677D01*
X121718134Y-61001372D01*
X121661157Y-60776377D01*
X121567924Y-60563828D01*
X121440979Y-60369524D01*
X121283784Y-60198764D01*
X121100626Y-60056207D01*
X120896506Y-59945742D01*
X120880221Y-59940151D01*
X120676981Y-59870379D01*
X120676978Y-59870378D01*
X120676977Y-59870378D01*
X120448049Y-59832177D01*
X120215951Y-59832177D01*
X119987022Y-59870378D01*
X119767493Y-59945742D01*
X119563373Y-60056207D01*
X119563370Y-60056209D01*
X119380219Y-60198761D01*
X119223020Y-60369525D01*
X119096075Y-60563830D01*
X119002843Y-60776378D01*
X118945865Y-61001373D01*
X118926700Y-61232677D01*
X115125000Y-61232677D01*
X115125000Y-53744311D01*
X116999500Y-53744311D01*
X116999500Y-54525688D01*
X117002401Y-54562565D01*
X117002401Y-54562568D01*
X117002402Y-54562569D01*
X117048256Y-54720398D01*
X117131919Y-54861865D01*
X117248135Y-54978081D01*
X117389602Y-55061744D01*
X117547431Y-55107598D01*
X117584306Y-55110500D01*
X117584311Y-55110500D01*
X119015689Y-55110500D01*
X119015694Y-55110500D01*
X119052569Y-55107598D01*
X119210398Y-55061744D01*
X119351865Y-54978081D01*
X119447951Y-54881994D01*
X119502466Y-54854219D01*
X119517953Y-54853000D01*
X120892047Y-54853000D01*
X120950238Y-54871907D01*
X120962044Y-54881990D01*
X121058135Y-54978081D01*
X121199602Y-55061744D01*
X121357431Y-55107598D01*
X121394306Y-55110500D01*
X121394311Y-55110500D01*
X122825689Y-55110500D01*
X122825694Y-55110500D01*
X122862569Y-55107598D01*
X123020398Y-55061744D01*
X123161865Y-54978081D01*
X123257951Y-54881994D01*
X123312466Y-54854219D01*
X123327953Y-54853000D01*
X123909716Y-54853000D01*
X123909717Y-54853000D01*
X124048433Y-54825408D01*
X124102557Y-54802988D01*
X124179101Y-54771284D01*
X124296698Y-54692707D01*
X124953707Y-54035698D01*
X125032284Y-53918101D01*
X125086407Y-53787433D01*
X125114000Y-53648717D01*
X125114000Y-53507283D01*
X125086407Y-53368567D01*
X125032284Y-53237899D01*
X124953707Y-53120302D01*
X124853698Y-53020293D01*
X124842759Y-53012984D01*
X124736102Y-52941717D01*
X124736103Y-52941717D01*
X124736101Y-52941716D01*
X124605433Y-52887593D01*
X124605431Y-52887592D01*
X124605430Y-52887592D01*
X124466717Y-52860000D01*
X124325283Y-52860000D01*
X124325282Y-52860000D01*
X124186569Y-52887592D01*
X124055897Y-52941717D01*
X123938302Y-53020292D01*
X123570591Y-53388004D01*
X123516074Y-53415781D01*
X123500587Y-53417000D01*
X123327953Y-53417000D01*
X123269762Y-53398093D01*
X123257955Y-53388009D01*
X123161865Y-53291919D01*
X123020398Y-53208256D01*
X122862569Y-53162402D01*
X122862568Y-53162401D01*
X122862565Y-53162401D01*
X122839140Y-53160558D01*
X122825694Y-53159500D01*
X121394306Y-53159500D01*
X121381773Y-53160486D01*
X121357434Y-53162401D01*
X121357427Y-53162403D01*
X121199602Y-53208256D01*
X121058136Y-53291918D01*
X121058135Y-53291918D01*
X121058135Y-53291919D01*
X120962048Y-53388005D01*
X120907534Y-53415781D01*
X120892047Y-53417000D01*
X119517953Y-53417000D01*
X119459762Y-53398093D01*
X119447955Y-53388009D01*
X119351865Y-53291919D01*
X119210398Y-53208256D01*
X119052569Y-53162402D01*
X119052568Y-53162401D01*
X119052565Y-53162401D01*
X119029140Y-53160558D01*
X119015694Y-53159500D01*
X117584306Y-53159500D01*
X117571773Y-53160486D01*
X117547434Y-53162401D01*
X117547427Y-53162403D01*
X117389602Y-53208256D01*
X117248136Y-53291918D01*
X117131918Y-53408136D01*
X117048256Y-53549602D01*
X117002403Y-53707427D01*
X117002401Y-53707434D01*
X116999500Y-53744311D01*
X115125000Y-53744311D01*
X115125000Y-53111008D01*
X115143907Y-53052817D01*
X115153996Y-53041004D01*
X116366004Y-51828996D01*
X116420521Y-51801219D01*
X116436008Y-51800000D01*
X130958992Y-51800000D01*
X131017183Y-51818907D01*
G37*
%TD.AperFunction*%
%TD*%
%TA.AperFunction,Conductor*%
%TO.N,Net-(J5-Pin_1)*%
G36*
X176879105Y-96018907D02*
G01*
X176890917Y-96028996D01*
X176940310Y-96078388D01*
X176979738Y-96117816D01*
X177132478Y-96213789D01*
X177200657Y-96237646D01*
X177302738Y-96273366D01*
X177302742Y-96273367D01*
X177302745Y-96273368D01*
X177482000Y-96293565D01*
X177661255Y-96273368D01*
X177831522Y-96213789D01*
X177984262Y-96117816D01*
X178046998Y-96055079D01*
X178101513Y-96027304D01*
X178161945Y-96036875D01*
X178187000Y-96055078D01*
X178249738Y-96117816D01*
X178402478Y-96213789D01*
X178470657Y-96237646D01*
X178572738Y-96273366D01*
X178572742Y-96273367D01*
X178572745Y-96273368D01*
X178752000Y-96293565D01*
X178931255Y-96273368D01*
X179101522Y-96213789D01*
X179254262Y-96117816D01*
X179316997Y-96055081D01*
X179343083Y-96028996D01*
X179397600Y-96001219D01*
X179413086Y-96000000D01*
X192958992Y-96000000D01*
X193017183Y-96018907D01*
X193028996Y-96028996D01*
X193371004Y-96371004D01*
X193398781Y-96425521D01*
X193400000Y-96441008D01*
X193400000Y-104358992D01*
X193381093Y-104417183D01*
X193371004Y-104428996D01*
X193028996Y-104771004D01*
X192974479Y-104798781D01*
X192958992Y-104800000D01*
X188587744Y-104800000D01*
X188529553Y-104781093D01*
X188493589Y-104731593D01*
X188488996Y-104708063D01*
X188486343Y-104670979D01*
X188486343Y-104670974D01*
X188430077Y-104412322D01*
X188337574Y-104164311D01*
X188210716Y-103931989D01*
X188210715Y-103931988D01*
X188210716Y-103931988D01*
X188052091Y-103720090D01*
X188052089Y-103720088D01*
X188052087Y-103720085D01*
X187864915Y-103532913D01*
X187864911Y-103532910D01*
X187864909Y-103532908D01*
X187653011Y-103374283D01*
X187420692Y-103247427D01*
X187420690Y-103247426D01*
X187172681Y-103154924D01*
X187172683Y-103154924D01*
X187114959Y-103142367D01*
X186914026Y-103098657D01*
X186914023Y-103098656D01*
X186914020Y-103098656D01*
X186650000Y-103079773D01*
X186385979Y-103098656D01*
X186127317Y-103154924D01*
X185879309Y-103247426D01*
X185879307Y-103247427D01*
X185646988Y-103374283D01*
X185435090Y-103532908D01*
X185247908Y-103720090D01*
X185089283Y-103931988D01*
X185089280Y-103931993D01*
X185016411Y-104065445D01*
X184971929Y-104107457D01*
X184929521Y-104117000D01*
X184464431Y-104117000D01*
X184326764Y-104144384D01*
X184306398Y-104148435D01*
X184306396Y-104148435D01*
X184157534Y-104210095D01*
X184157533Y-104210095D01*
X184077220Y-104263760D01*
X184077219Y-104263761D01*
X184023555Y-104299617D01*
X183909617Y-104413554D01*
X183909618Y-104413555D01*
X183552169Y-104771004D01*
X183497652Y-104798781D01*
X183482165Y-104800000D01*
X176441008Y-104800000D01*
X176382817Y-104781093D01*
X176371004Y-104771004D01*
X176028996Y-104428996D01*
X176001219Y-104374479D01*
X176000000Y-104358992D01*
X176000000Y-96441008D01*
X176018907Y-96382817D01*
X176028996Y-96371004D01*
X176371004Y-96028996D01*
X176425521Y-96001219D01*
X176441008Y-96000000D01*
X176820914Y-96000000D01*
X176879105Y-96018907D01*
G37*
%TD.AperFunction*%
%TD*%
%TA.AperFunction,Conductor*%
%TO.N,Net-(U7-IN+)*%
G36*
X175024352Y-95949352D02*
G01*
X175395648Y-96320648D01*
X175410000Y-96355296D01*
X175410000Y-103114704D01*
X175395648Y-103149352D01*
X175024352Y-103520648D01*
X174989704Y-103535000D01*
X173310000Y-103535000D01*
X172910000Y-103934999D01*
X172910000Y-105614704D01*
X172895648Y-105649352D01*
X172524352Y-106020648D01*
X172489704Y-106035000D01*
X165230296Y-106035000D01*
X165195648Y-106020648D01*
X164824352Y-105649352D01*
X164810000Y-105614704D01*
X164810000Y-96355296D01*
X164824352Y-96320648D01*
X165195648Y-95949352D01*
X165230296Y-95935000D01*
X174989704Y-95935000D01*
X175024352Y-95949352D01*
G37*
%TD.AperFunction*%
%TD*%
%TA.AperFunction,NonConductor*%
G36*
X147000000Y-138000000D02*
G01*
X146011500Y-138000000D01*
X146003368Y-137996632D01*
X146000000Y-137988500D01*
X146000000Y-137011500D01*
X146003368Y-137003368D01*
X146011500Y-137000000D01*
X147000000Y-137000000D01*
X147000000Y-138000000D01*
G37*
%TD.AperFunction*%
%TA.AperFunction,NonConductor*%
G36*
X147996632Y-137003368D02*
G01*
X148000000Y-137011500D01*
X148000000Y-137988500D01*
X147996632Y-137996632D01*
X147988500Y-138000000D01*
X147000000Y-138000000D01*
X147000000Y-137000000D01*
X147988500Y-137000000D01*
X147996632Y-137003368D01*
G37*
%TD.AperFunction*%
%TA.AperFunction,NonConductor*%
G36*
X145996632Y-138003368D02*
G01*
X146000000Y-138011500D01*
X146000000Y-139000000D01*
X145000000Y-139000000D01*
X145000000Y-138011500D01*
X145003368Y-138003368D01*
X145011500Y-138000000D01*
X145988500Y-138000000D01*
X145996632Y-138003368D01*
G37*
%TD.AperFunction*%
%TA.AperFunction,NonConductor*%
G36*
X146000000Y-139988500D02*
G01*
X145996632Y-139996632D01*
X145988500Y-140000000D01*
X145000000Y-140000000D01*
X145000000Y-139000000D01*
X146000000Y-139000000D01*
X146000000Y-139988500D01*
G37*
%TD.AperFunction*%
%TA.AperFunction,NonConductor*%
G36*
X145000000Y-140000000D02*
G01*
X144000000Y-140000000D01*
X144000000Y-139011500D01*
X144003368Y-139003368D01*
X144011500Y-139000000D01*
X144999999Y-139000000D01*
X145000000Y-139000000D01*
X145000000Y-140000000D01*
G37*
%TD.AperFunction*%
%TA.AperFunction,NonConductor*%
G36*
X145000000Y-140000001D02*
G01*
X145000000Y-140988500D01*
X144996632Y-140996632D01*
X144988500Y-141000000D01*
X144011500Y-141000000D01*
X144003368Y-140996632D01*
X144000000Y-140988500D01*
X144000000Y-140000000D01*
X145000000Y-140000000D01*
X145000000Y-140000001D01*
G37*
%TD.AperFunction*%
%TA.AperFunction,NonConductor*%
G36*
X143996632Y-141003368D02*
G01*
X144000000Y-141011500D01*
X144000000Y-141988500D01*
X143996632Y-141996632D01*
X143988500Y-142000000D01*
X143000000Y-142000000D01*
X143000000Y-141000000D01*
X143988500Y-141000000D01*
X143996632Y-141003368D01*
G37*
%TD.AperFunction*%
%TA.AperFunction,NonConductor*%
G36*
X143000000Y-142000000D02*
G01*
X142011500Y-142000000D01*
X142003368Y-141996632D01*
X142000000Y-141988500D01*
X142000000Y-141011500D01*
X142003368Y-141003368D01*
X142011500Y-141000000D01*
X143000000Y-141000000D01*
X143000000Y-142000000D01*
G37*
%TD.AperFunction*%
%TA.AperFunction,Conductor*%
%TO.N,GND*%
G36*
X171797835Y-131721427D02*
G01*
X171800928Y-131726926D01*
X171914792Y-132193479D01*
X171913425Y-132202329D01*
X171907937Y-132207049D01*
X171644511Y-132317115D01*
X171635556Y-132317142D01*
X171635489Y-132317115D01*
X171372062Y-132207049D01*
X171365750Y-132200697D01*
X171365207Y-132193479D01*
X171479072Y-131726926D01*
X171484362Y-131719701D01*
X171490438Y-131718000D01*
X171789562Y-131718000D01*
X171797835Y-131721427D01*
G37*
%TD.AperFunction*%
%TD*%
%TA.AperFunction,Conductor*%
%TO.N,GND*%
G36*
X171797835Y-74571427D02*
G01*
X171800928Y-74576926D01*
X171914792Y-75043479D01*
X171913425Y-75052329D01*
X171907937Y-75057049D01*
X171644511Y-75167115D01*
X171635556Y-75167142D01*
X171635489Y-75167115D01*
X171372062Y-75057049D01*
X171365750Y-75050697D01*
X171365207Y-75043479D01*
X171479072Y-74576926D01*
X171484362Y-74569701D01*
X171490438Y-74568000D01*
X171789562Y-74568000D01*
X171797835Y-74571427D01*
G37*
%TD.AperFunction*%
%TD*%
%TA.AperFunction,Conductor*%
%TO.N,GND*%
G36*
X163080841Y-109053254D02*
G01*
X163491259Y-109302643D01*
X163496549Y-109309868D01*
X163496006Y-109317086D01*
X163387563Y-109581184D01*
X163381251Y-109587536D01*
X163381184Y-109587563D01*
X163117086Y-109696006D01*
X163108131Y-109695979D01*
X163102643Y-109691259D01*
X162853254Y-109280841D01*
X162851887Y-109271991D01*
X162854978Y-109266494D01*
X163066493Y-109054979D01*
X163074765Y-109051553D01*
X163080841Y-109053254D01*
G37*
%TD.AperFunction*%
%TD*%
%TA.AperFunction,Conductor*%
%TO.N,GND*%
G36*
X180160329Y-86324574D02*
G01*
X180165049Y-86330062D01*
X180275115Y-86593489D01*
X180275142Y-86602444D01*
X180275115Y-86602511D01*
X180165049Y-86865937D01*
X180158697Y-86872249D01*
X180151479Y-86872792D01*
X179684926Y-86758928D01*
X179677701Y-86753638D01*
X179676000Y-86747562D01*
X179676000Y-86448437D01*
X179679427Y-86440164D01*
X179684924Y-86437072D01*
X180151479Y-86323207D01*
X180160329Y-86324574D01*
G37*
%TD.AperFunction*%
%TD*%
%TA.AperFunction,Conductor*%
%TO.N,GND*%
G36*
X163080841Y-90003254D02*
G01*
X163491259Y-90252643D01*
X163496549Y-90259868D01*
X163496006Y-90267086D01*
X163387563Y-90531184D01*
X163381251Y-90537536D01*
X163381184Y-90537563D01*
X163117086Y-90646006D01*
X163108131Y-90645979D01*
X163102643Y-90641259D01*
X162853254Y-90230841D01*
X162851887Y-90221991D01*
X162854978Y-90216494D01*
X163066493Y-90004979D01*
X163074765Y-90001553D01*
X163080841Y-90003254D01*
G37*
%TD.AperFunction*%
%TD*%
%TA.AperFunction,Conductor*%
%TO.N,GND*%
G36*
X163080841Y-70953254D02*
G01*
X163491259Y-71202643D01*
X163496549Y-71209868D01*
X163496006Y-71217086D01*
X163387563Y-71481184D01*
X163381251Y-71487536D01*
X163381184Y-71487563D01*
X163117086Y-71596006D01*
X163108131Y-71595979D01*
X163102643Y-71591259D01*
X162853254Y-71180841D01*
X162851887Y-71171991D01*
X162854978Y-71166494D01*
X163066493Y-70954979D01*
X163074765Y-70951553D01*
X163080841Y-70953254D01*
G37*
%TD.AperFunction*%
%TD*%
%TA.AperFunction,Conductor*%
%TO.N,GND*%
G36*
X136807135Y-94523405D02*
G01*
X136808205Y-94524644D01*
X136951451Y-94715832D01*
X137061814Y-94863131D01*
X137064151Y-94870145D01*
X137064151Y-95167940D01*
X137060724Y-95176213D01*
X137052451Y-95179640D01*
X137049032Y-95179129D01*
X136485476Y-95006917D01*
X136478565Y-95001222D01*
X136477706Y-94992309D01*
X136478065Y-94991302D01*
X136586104Y-94728181D01*
X136588669Y-94724338D01*
X136790590Y-94523365D01*
X136798870Y-94519959D01*
X136807135Y-94523405D01*
G37*
%TD.AperFunction*%
%TD*%
%TA.AperFunction,Conductor*%
%TO.N,GND*%
G36*
X180160329Y-124424574D02*
G01*
X180165049Y-124430062D01*
X180275115Y-124693489D01*
X180275142Y-124702444D01*
X180275115Y-124702511D01*
X180165049Y-124965937D01*
X180158697Y-124972249D01*
X180151479Y-124972792D01*
X179684926Y-124858928D01*
X179677701Y-124853638D01*
X179676000Y-124847562D01*
X179676000Y-124548437D01*
X179679427Y-124540164D01*
X179684924Y-124537072D01*
X180151479Y-124423207D01*
X180160329Y-124424574D01*
G37*
%TD.AperFunction*%
%TD*%
%TA.AperFunction,Conductor*%
%TO.N,GND*%
G36*
X171797835Y-93875427D02*
G01*
X171800928Y-93880926D01*
X171914792Y-94347479D01*
X171913425Y-94356329D01*
X171907937Y-94361049D01*
X171644511Y-94471115D01*
X171635556Y-94471142D01*
X171635489Y-94471115D01*
X171372062Y-94361049D01*
X171365750Y-94354697D01*
X171365207Y-94347479D01*
X171479072Y-93880926D01*
X171484362Y-93873701D01*
X171490438Y-93872000D01*
X171789562Y-93872000D01*
X171797835Y-93875427D01*
G37*
%TD.AperFunction*%
%TD*%
%TA.AperFunction,Conductor*%
%TO.N,GND*%
G36*
X171797835Y-112671427D02*
G01*
X171800928Y-112676926D01*
X171914792Y-113143479D01*
X171913425Y-113152329D01*
X171907937Y-113157049D01*
X171644511Y-113267115D01*
X171635556Y-113267142D01*
X171635489Y-113267115D01*
X171372062Y-113157049D01*
X171365750Y-113150697D01*
X171365207Y-113143479D01*
X171479072Y-112676926D01*
X171484362Y-112669701D01*
X171490438Y-112668000D01*
X171789562Y-112668000D01*
X171797835Y-112671427D01*
G37*
%TD.AperFunction*%
%TD*%
%TA.AperFunction,Conductor*%
%TO.N,GND*%
G36*
X136808345Y-90711001D02*
G01*
X137098197Y-90962751D01*
X137102196Y-90970763D01*
X137102225Y-90971584D01*
X137102225Y-91270407D01*
X137098798Y-91278680D01*
X137090525Y-91282107D01*
X137088997Y-91282007D01*
X136598137Y-91217335D01*
X136590382Y-91212857D01*
X136587965Y-91205776D01*
X136587016Y-90920884D01*
X136590414Y-90912601D01*
X136792423Y-90711540D01*
X136800701Y-90708135D01*
X136808345Y-90711001D01*
G37*
%TD.AperFunction*%
%TD*%
%TA.AperFunction,Conductor*%
%TO.N,GND*%
G36*
X179779329Y-105501574D02*
G01*
X179784049Y-105507062D01*
X179894115Y-105770489D01*
X179894142Y-105779444D01*
X179894115Y-105779511D01*
X179784049Y-106042937D01*
X179777697Y-106049249D01*
X179770479Y-106049792D01*
X179303926Y-105935928D01*
X179296701Y-105930638D01*
X179295000Y-105924562D01*
X179295000Y-105625437D01*
X179298427Y-105617164D01*
X179303924Y-105614072D01*
X179770479Y-105500207D01*
X179779329Y-105501574D01*
G37*
%TD.AperFunction*%
%TD*%
%TA.AperFunction,Conductor*%
%TO.N,GND*%
G36*
X163080841Y-128103254D02*
G01*
X163491259Y-128352643D01*
X163496549Y-128359868D01*
X163496006Y-128367086D01*
X163387563Y-128631184D01*
X163381251Y-128637536D01*
X163381184Y-128637563D01*
X163117086Y-128746006D01*
X163108131Y-128745979D01*
X163102643Y-128741259D01*
X162853254Y-128330841D01*
X162851887Y-128321991D01*
X162854978Y-128316494D01*
X163066493Y-128104979D01*
X163074765Y-128101553D01*
X163080841Y-128103254D01*
G37*
%TD.AperFunction*%
%TD*%
%TA.AperFunction,Conductor*%
%TO.N,GND*%
G36*
X145681841Y-93686254D02*
G01*
X146092259Y-93935643D01*
X146097549Y-93942868D01*
X146097006Y-93950086D01*
X145988563Y-94214184D01*
X145982251Y-94220536D01*
X145982184Y-94220563D01*
X145718086Y-94329006D01*
X145709131Y-94328979D01*
X145703643Y-94324259D01*
X145454254Y-93913841D01*
X145452887Y-93904991D01*
X145455978Y-93899494D01*
X145667493Y-93687979D01*
X145675765Y-93684553D01*
X145681841Y-93686254D01*
G37*
%TD.AperFunction*%
%TD*%
%TA.AperFunction,Conductor*%
%TO.N,GND*%
G36*
X177722523Y-67564172D02*
G01*
X177985490Y-67672148D01*
X177991839Y-67678457D01*
X177991860Y-67678506D01*
X178100318Y-67941292D01*
X178100307Y-67950247D01*
X178093967Y-67956571D01*
X178093912Y-67956594D01*
X177735869Y-68102240D01*
X177731460Y-68103102D01*
X177435974Y-68103102D01*
X177427701Y-68099675D01*
X177424274Y-68091402D01*
X177425706Y-68085793D01*
X177515456Y-67921501D01*
X177707814Y-67569386D01*
X177714788Y-67563769D01*
X177722523Y-67564172D01*
G37*
%TD.AperFunction*%
%TD*%
%TA.AperFunction,Conductor*%
%TO.N,GND*%
G36*
X136863973Y-92583393D02*
G01*
X136869990Y-92589052D01*
X137028993Y-92913815D01*
X137030185Y-92918960D01*
X137030185Y-93215299D01*
X137026758Y-93223572D01*
X137018485Y-93226999D01*
X137013496Y-93225882D01*
X136483252Y-92975905D01*
X136477230Y-92969277D01*
X136477418Y-92960878D01*
X136494630Y-92918960D01*
X136585148Y-92698507D01*
X136591456Y-92692160D01*
X136855019Y-92583382D01*
X136863973Y-92583393D01*
G37*
%TD.AperFunction*%
%TD*%
%TA.AperFunction,Conductor*%
%TO.N,GND*%
G36*
X145718302Y-91313101D02*
G01*
X145982494Y-91422140D01*
X145988833Y-91428463D01*
X145988852Y-91428510D01*
X146096352Y-91690321D01*
X146096325Y-91699276D01*
X146089973Y-91705588D01*
X146089953Y-91705596D01*
X145547513Y-91927163D01*
X145538558Y-91927119D01*
X145532258Y-91920756D01*
X145531389Y-91916332D01*
X145531389Y-91619387D01*
X145532959Y-91613533D01*
X145703712Y-91318061D01*
X145710816Y-91312614D01*
X145718302Y-91313101D01*
G37*
%TD.AperFunction*%
%TD*%
%TA.AperFunction,Conductor*%
%TO.N,+5V_D*%
G36*
X136991868Y-87884020D02*
G01*
X136997356Y-87888740D01*
X137246745Y-88299158D01*
X137248112Y-88308008D01*
X137245019Y-88313507D01*
X137033507Y-88525019D01*
X137025234Y-88528446D01*
X137019158Y-88526745D01*
X136608740Y-88277356D01*
X136603450Y-88270131D01*
X136603992Y-88262914D01*
X136712436Y-87998814D01*
X136718746Y-87992464D01*
X136982914Y-87883993D01*
X136991868Y-87884020D01*
G37*
%TD.AperFunction*%
%TD*%
%TA.AperFunction,Conductor*%
%TO.N,+5V_D*%
G36*
X131965841Y-85558254D02*
G01*
X132376259Y-85807643D01*
X132381549Y-85814868D01*
X132381006Y-85822086D01*
X132272563Y-86086184D01*
X132266251Y-86092536D01*
X132266184Y-86092563D01*
X132002086Y-86201006D01*
X131993131Y-86200979D01*
X131987643Y-86196259D01*
X131738254Y-85785841D01*
X131736887Y-85776991D01*
X131739978Y-85771494D01*
X131951493Y-85559979D01*
X131959765Y-85556553D01*
X131965841Y-85558254D01*
G37*
%TD.AperFunction*%
%TD*%
%TA.AperFunction,Conductor*%
%TO.N,SCL*%
G36*
X144219329Y-116296574D02*
G01*
X144224049Y-116302062D01*
X144334115Y-116565489D01*
X144334142Y-116574444D01*
X144334115Y-116574511D01*
X144224049Y-116837937D01*
X144217697Y-116844249D01*
X144210479Y-116844792D01*
X143743926Y-116730928D01*
X143736701Y-116725638D01*
X143735000Y-116719562D01*
X143735000Y-116420437D01*
X143738427Y-116412164D01*
X143743924Y-116409072D01*
X144210479Y-116295207D01*
X144219329Y-116296574D01*
G37*
%TD.AperFunction*%
%TD*%
%TA.AperFunction,Conductor*%
%TO.N,SCL*%
G36*
X179018503Y-133698350D02*
G01*
X179024815Y-133704702D01*
X179024844Y-133713520D01*
X178805813Y-134256897D01*
X178799541Y-134263289D01*
X178790587Y-134263375D01*
X178786688Y-134260796D01*
X178576824Y-134050932D01*
X178573857Y-134045905D01*
X178477732Y-133712840D01*
X178478730Y-133703943D01*
X178484479Y-133698796D01*
X178748206Y-133589163D01*
X178757159Y-133589153D01*
X179018503Y-133698350D01*
G37*
%TD.AperFunction*%
%TD*%
%TA.AperFunction,Conductor*%
%TO.N,SCL*%
G36*
X178909835Y-132991427D02*
G01*
X178912928Y-132996926D01*
X179026792Y-133463479D01*
X179025425Y-133472329D01*
X179019937Y-133477049D01*
X178756511Y-133587115D01*
X178747556Y-133587142D01*
X178747489Y-133587115D01*
X178484062Y-133477049D01*
X178477750Y-133470697D01*
X178477207Y-133463479D01*
X178591072Y-132996926D01*
X178596362Y-132989701D01*
X178602438Y-132988000D01*
X178901562Y-132988000D01*
X178909835Y-132991427D01*
G37*
%TD.AperFunction*%
%TD*%
%TA.AperFunction,Conductor*%
%TO.N,SCL*%
G36*
X168360868Y-114427020D02*
G01*
X168366356Y-114431740D01*
X168615745Y-114842158D01*
X168617112Y-114851008D01*
X168614019Y-114856507D01*
X168402507Y-115068019D01*
X168394234Y-115071446D01*
X168388158Y-115069745D01*
X167977740Y-114820356D01*
X167972450Y-114813131D01*
X167972992Y-114805914D01*
X168081436Y-114541814D01*
X168087746Y-114535464D01*
X168351914Y-114426993D01*
X168360868Y-114427020D01*
G37*
%TD.AperFunction*%
%TD*%
%TA.AperFunction,Conductor*%
%TO.N,SCL*%
G36*
X178909835Y-75968427D02*
G01*
X178912928Y-75973926D01*
X179026792Y-76440479D01*
X179025425Y-76449329D01*
X179019937Y-76454049D01*
X178756511Y-76564115D01*
X178747556Y-76564142D01*
X178747489Y-76564115D01*
X178484062Y-76454049D01*
X178477750Y-76447697D01*
X178477207Y-76440479D01*
X178591072Y-75973926D01*
X178596362Y-75966701D01*
X178602438Y-75965000D01*
X178901562Y-75965000D01*
X178909835Y-75968427D01*
G37*
%TD.AperFunction*%
%TD*%
%TA.AperFunction,Conductor*%
%TO.N,SCL*%
G36*
X178909835Y-94891427D02*
G01*
X178912928Y-94896926D01*
X179026792Y-95363479D01*
X179025425Y-95372329D01*
X179019937Y-95377049D01*
X178756511Y-95487115D01*
X178747556Y-95487142D01*
X178747489Y-95487115D01*
X178484062Y-95377049D01*
X178477750Y-95370697D01*
X178477207Y-95363479D01*
X178591072Y-94896926D01*
X178596362Y-94889701D01*
X178602438Y-94888000D01*
X178901562Y-94888000D01*
X178909835Y-94891427D01*
G37*
%TD.AperFunction*%
%TD*%
%TA.AperFunction,Conductor*%
%TO.N,SCL*%
G36*
X179018503Y-114648350D02*
G01*
X179024815Y-114654702D01*
X179024844Y-114663520D01*
X178805813Y-115206897D01*
X178799541Y-115213289D01*
X178790587Y-115213375D01*
X178786688Y-115210796D01*
X178576824Y-115000932D01*
X178573857Y-114995905D01*
X178477732Y-114662840D01*
X178478730Y-114653943D01*
X178484479Y-114648796D01*
X178748206Y-114539163D01*
X178757159Y-114539153D01*
X179018503Y-114648350D01*
G37*
%TD.AperFunction*%
%TD*%
%TA.AperFunction,Conductor*%
%TO.N,SCL*%
G36*
X178909835Y-113941427D02*
G01*
X178912928Y-113946926D01*
X179026792Y-114413479D01*
X179025425Y-114422329D01*
X179019937Y-114427049D01*
X178756511Y-114537115D01*
X178747556Y-114537142D01*
X178747489Y-114537115D01*
X178484062Y-114427049D01*
X178477750Y-114420697D01*
X178477207Y-114413479D01*
X178591072Y-113946926D01*
X178596362Y-113939701D01*
X178602438Y-113938000D01*
X178901562Y-113938000D01*
X178909835Y-113941427D01*
G37*
%TD.AperFunction*%
%TD*%
%TA.AperFunction,Conductor*%
%TO.N,SDA*%
G36*
X168167075Y-113361071D02*
G01*
X168174299Y-113366361D01*
X168176000Y-113372437D01*
X168176000Y-113671562D01*
X168172573Y-113679835D01*
X168167074Y-113682928D01*
X167700520Y-113796792D01*
X167691670Y-113795425D01*
X167686950Y-113789937D01*
X167637490Y-113671562D01*
X167576883Y-113526509D01*
X167576857Y-113517556D01*
X167576862Y-113517542D01*
X167686950Y-113254061D01*
X167693302Y-113247750D01*
X167700520Y-113247207D01*
X168167075Y-113361071D01*
G37*
%TD.AperFunction*%
%TD*%
%TA.AperFunction,Conductor*%
%TO.N,SDA*%
G36*
X144219329Y-115026574D02*
G01*
X144224049Y-115032062D01*
X144334115Y-115295489D01*
X144334142Y-115304444D01*
X144334115Y-115304511D01*
X144224049Y-115567937D01*
X144217697Y-115574249D01*
X144210479Y-115574792D01*
X143743926Y-115460928D01*
X143736701Y-115455638D01*
X143735000Y-115449562D01*
X143735000Y-115150437D01*
X143738427Y-115142164D01*
X143743924Y-115139072D01*
X144210479Y-115025207D01*
X144219329Y-115026574D01*
G37*
%TD.AperFunction*%
%TD*%
%TA.AperFunction,Conductor*%
%TO.N,SDA*%
G36*
X177639835Y-113941427D02*
G01*
X177642928Y-113946926D01*
X177756792Y-114413479D01*
X177755425Y-114422329D01*
X177749937Y-114427049D01*
X177486511Y-114537115D01*
X177477556Y-114537142D01*
X177477489Y-114537115D01*
X177214062Y-114427049D01*
X177207750Y-114420697D01*
X177207207Y-114413479D01*
X177321072Y-113946926D01*
X177326362Y-113939701D01*
X177332438Y-113938000D01*
X177631562Y-113938000D01*
X177639835Y-113941427D01*
G37*
%TD.AperFunction*%
%TD*%
%TA.AperFunction,Conductor*%
%TO.N,SDA*%
G36*
X177639835Y-75968427D02*
G01*
X177642928Y-75973926D01*
X177756792Y-76440479D01*
X177755425Y-76449329D01*
X177749937Y-76454049D01*
X177486511Y-76564115D01*
X177477556Y-76564142D01*
X177477489Y-76564115D01*
X177214062Y-76454049D01*
X177207750Y-76447697D01*
X177207207Y-76440479D01*
X177321072Y-75973926D01*
X177326362Y-75966701D01*
X177332438Y-75965000D01*
X177631562Y-75965000D01*
X177639835Y-75968427D01*
G37*
%TD.AperFunction*%
%TD*%
%TA.AperFunction,Conductor*%
%TO.N,SDA*%
G36*
X177366329Y-114264574D02*
G01*
X177371049Y-114270062D01*
X177481115Y-114533489D01*
X177481142Y-114542444D01*
X177481115Y-114542511D01*
X177371049Y-114805937D01*
X177364697Y-114812249D01*
X177357479Y-114812792D01*
X176890926Y-114698928D01*
X176883701Y-114693638D01*
X176882000Y-114687562D01*
X176882000Y-114388437D01*
X176885427Y-114380164D01*
X176890924Y-114377072D01*
X177357479Y-114263207D01*
X177366329Y-114264574D01*
G37*
%TD.AperFunction*%
%TD*%
%TA.AperFunction,Conductor*%
%TO.N,SDA*%
G36*
X177639835Y-94891427D02*
G01*
X177642928Y-94896926D01*
X177756792Y-95363479D01*
X177755425Y-95372329D01*
X177749937Y-95377049D01*
X177486511Y-95487115D01*
X177477556Y-95487142D01*
X177477489Y-95487115D01*
X177214062Y-95377049D01*
X177207750Y-95370697D01*
X177207207Y-95363479D01*
X177321072Y-94896926D01*
X177326362Y-94889701D01*
X177332438Y-94888000D01*
X177631562Y-94888000D01*
X177639835Y-94891427D01*
G37*
%TD.AperFunction*%
%TD*%
%TA.AperFunction,Conductor*%
%TO.N,SDA*%
G36*
X177639835Y-132991427D02*
G01*
X177642928Y-132996926D01*
X177756792Y-133463479D01*
X177755425Y-133472329D01*
X177749937Y-133477049D01*
X177486511Y-133587115D01*
X177477556Y-133587142D01*
X177477489Y-133587115D01*
X177214062Y-133477049D01*
X177207750Y-133470697D01*
X177207207Y-133463479D01*
X177321072Y-132996926D01*
X177326362Y-132989701D01*
X177332438Y-132988000D01*
X177631562Y-132988000D01*
X177639835Y-132991427D01*
G37*
%TD.AperFunction*%
%TD*%
%TA.AperFunction,Conductor*%
%TO.N,+3.3V_ESP*%
G36*
X142760841Y-122388254D02*
G01*
X143171259Y-122637643D01*
X143176549Y-122644868D01*
X143176006Y-122652086D01*
X143067563Y-122916184D01*
X143061251Y-122922536D01*
X143061184Y-122922563D01*
X142797086Y-123031006D01*
X142788131Y-123030979D01*
X142782643Y-123026259D01*
X142533254Y-122615841D01*
X142531887Y-122606991D01*
X142534978Y-122601494D01*
X142746493Y-122389979D01*
X142754765Y-122386553D01*
X142760841Y-122388254D01*
G37*
%TD.AperFunction*%
%TD*%
%TA.AperFunction,Conductor*%
%TO.N,+3.3V_ESP*%
G36*
X171408868Y-107061020D02*
G01*
X171414356Y-107065740D01*
X171663745Y-107476158D01*
X171665112Y-107485008D01*
X171662019Y-107490507D01*
X171450507Y-107702019D01*
X171442234Y-107705446D01*
X171436158Y-107703745D01*
X171025740Y-107454356D01*
X171020450Y-107447131D01*
X171020992Y-107439914D01*
X171129436Y-107175814D01*
X171135746Y-107169464D01*
X171399914Y-107060993D01*
X171408868Y-107061020D01*
G37*
%TD.AperFunction*%
%TD*%
%TA.AperFunction,Conductor*%
%TO.N,+3.3V_ESP*%
G36*
X171408868Y-88011020D02*
G01*
X171414356Y-88015740D01*
X171663745Y-88426158D01*
X171665112Y-88435008D01*
X171662019Y-88440507D01*
X171450507Y-88652019D01*
X171442234Y-88655446D01*
X171436158Y-88653745D01*
X171025740Y-88404356D01*
X171020450Y-88397131D01*
X171020992Y-88389914D01*
X171129436Y-88125814D01*
X171135746Y-88119464D01*
X171399914Y-88010993D01*
X171408868Y-88011020D01*
G37*
%TD.AperFunction*%
%TD*%
%TA.AperFunction,Conductor*%
%TO.N,Net-(U3-IO_13{slash}TCK)*%
G36*
X102743507Y-84289980D02*
G01*
X102955019Y-84501492D01*
X102958446Y-84509765D01*
X102956745Y-84515841D01*
X102707356Y-84926259D01*
X102700131Y-84931549D01*
X102692913Y-84931006D01*
X102428815Y-84822563D01*
X102422463Y-84816251D01*
X102422436Y-84816184D01*
X102313993Y-84552086D01*
X102314020Y-84543131D01*
X102318738Y-84537644D01*
X102729158Y-84288253D01*
X102738008Y-84286887D01*
X102743507Y-84289980D01*
G37*
%TD.AperFunction*%
%TD*%
M02*
