M48
; DRILL file {KiCad 8.0.8} date 2025-02-03T05:11:11+0100
; FORMAT={-:-/ absolute / metric / decimal}
; #@! TF.CreationDate,2025-02-03T05:11:11+01:00
; #@! TF.GenerationSoftware,Kicad,Pcbnew,8.0.8
; #@! TF.FileFunction,Plated,1,2,PTH
FMAT,2
METRIC
; #@! TA.AperFunction,Plated,PTH,ViaDrill
T1C0.300
; #@! TA.AperFunction,Plated,PTH,ComponentDrill
T2C0.800
; #@! TA.AperFunction,Plated,PTH,ComponentDrill
T3C1.000
; #@! TA.AperFunction,Plated,PTH,ComponentDrill
T4C1.300
; #@! TA.AperFunction,Plated,PTH,ComponentDrill
T5C1.400
%
G90
G05
T1
X102.425Y-84.82
X110.045Y-83.55
X112.966Y-81.772
X114.7Y-123.4
X117.788Y-139.814
X118.804Y-130.67
X121.094Y-77.962
X124.396Y-53.578
X128.016Y-124.46
X128.202Y-141.846
X132.27Y-86.09
X136.588Y-90.916
X136.588Y-92.694
X136.588Y-94.726
X136.715Y-87.995
X136.838Y-141.846
X139.89Y-112.76
X141.922Y-79.994
X143.065Y-122.92
X143.192Y-83.042
X144.335Y-115.3
X144.335Y-116.57
X145.986Y-91.424
X145.986Y-94.218
X163.385Y-71.485
X163.385Y-90.535
X163.385Y-109.585
X163.385Y-128.635
X167.576Y-113.522
X168.084Y-114.538
X169.608Y-71.104
X171.132Y-88.122
X171.132Y-107.172
X171.132Y-126.222
X171.64Y-75.168
X171.64Y-94.472
X171.64Y-113.268
X171.64Y-132.318
X177.482Y-76.565
X177.482Y-95.488
X177.482Y-114.538
X177.482Y-133.588
X177.99Y-67.675
X178.752Y-76.565
X178.752Y-95.488
X178.752Y-114.538
X178.752Y-133.588
X179.895Y-105.775
X180.276Y-86.598
X180.276Y-124.698
T2
X97.98Y-77.2
X97.98Y-79.74
X134.425Y-128.765
X134.425Y-131.305
X134.425Y-133.845
X142.045Y-128.765
X142.045Y-131.305
X142.045Y-133.845
X148.78Y-74.66
X148.78Y-93.71
X148.78Y-112.76
X148.78Y-131.81
X158.94Y-74.66
X158.94Y-93.71
X158.94Y-112.76
X158.94Y-131.81
T3
X103.06Y-90.535
X103.06Y-93.075
X103.06Y-115.935
X103.06Y-118.475
X105.157Y-127.19
X105.157Y-129.73
X105.157Y-132.27
X105.157Y-134.81
X105.6Y-90.535
X105.6Y-93.075
X105.6Y-115.935
X105.6Y-118.475
X107.697Y-127.19
X107.697Y-129.73
X107.697Y-132.27
X107.697Y-134.81
X108.14Y-90.535
X108.14Y-93.075
X108.14Y-115.935
X108.14Y-118.475
X110.68Y-90.535
X110.68Y-93.075
X110.68Y-115.935
X110.68Y-118.475
X113.22Y-90.535
X113.22Y-93.075
X113.22Y-115.935
X113.22Y-118.475
X115.76Y-90.535
X115.76Y-93.075
X115.76Y-115.935
X115.76Y-118.475
X118.3Y-90.535
X118.3Y-93.075
X118.3Y-115.935
X118.3Y-118.475
X120.332Y-61.233
X120.332Y-66.233
X120.84Y-90.535
X120.84Y-93.075
X120.84Y-115.935
X120.84Y-118.475
X123.38Y-90.535
X123.38Y-93.075
X123.38Y-115.935
X123.38Y-118.475
X125.92Y-90.535
X125.92Y-93.075
X125.92Y-115.935
X125.92Y-118.475
X129.53Y-55.04
X129.53Y-67.04
X152.175Y-63.402
X152.175Y-68.402
X152.175Y-82.247
X152.175Y-87.247
X152.175Y-101.297
X152.175Y-106.297
X152.175Y-120.552
X152.175Y-125.552
T4
X127.58Y-60.99
X141.73Y-67.04
X141.78Y-54.99
T5
X101.55Y-60.79
X101.55Y-64.6
X101.55Y-68.41
X186.65Y-63.23
X186.65Y-67.04
X186.65Y-70.85
X186.65Y-82.095
X186.65Y-85.905
X186.65Y-89.715
X186.65Y-101.125
X186.65Y-104.935
X186.65Y-108.745
X186.65Y-120.38
X186.65Y-124.19
X186.65Y-128.0
M30
