%TF.GenerationSoftware,KiCad,Pcbnew,8.0.8*%
%TF.CreationDate,2025-02-03T17:34:09+01:00*%
%TF.ProjectId,WLEDController,574c4544-436f-46e7-9472-6f6c6c65722e,V1.0*%
%TF.SameCoordinates,Original*%
%TF.FileFunction,Legend,Bot*%
%TF.FilePolarity,Positive*%
%FSLAX46Y46*%
G04 Gerber Fmt 4.6, Leading zero omitted, Abs format (unit mm)*
G04 Created by KiCad (PCBNEW 8.0.8) date 2025-02-03 17:34:09*
%MOMM*%
%LPD*%
G01*
G04 APERTURE LIST*
%ADD10C,0.300000*%
%ADD11C,0.250000*%
%ADD12C,0.000000*%
G04 APERTURE END LIST*
D10*
X167929000Y-135822000D02*
X167929000Y-144458000D01*
X182407000Y-144458000D02*
X182407000Y-135822000D01*
X167929000Y-144458000D02*
X182407000Y-144458000D01*
X182407000Y-135822000D02*
X167929000Y-135822000D01*
G36*
X172520633Y-136798962D02*
G01*
X172588328Y-136866658D01*
X172630916Y-137037007D01*
X172630916Y-137400077D01*
X172588328Y-137570426D01*
X172520633Y-137638122D01*
X172459792Y-137668542D01*
X172302039Y-137668542D01*
X172241199Y-137638122D01*
X172173503Y-137570426D01*
X172130916Y-137400078D01*
X172130916Y-137037006D01*
X172173502Y-136866659D01*
X172241198Y-136798963D01*
X172302041Y-136768542D01*
X172459792Y-136768542D01*
X172520633Y-136798962D01*
G37*
G36*
X176234919Y-136798962D02*
G01*
X176302614Y-136866658D01*
X176345202Y-137037007D01*
X176345202Y-137400077D01*
X176302614Y-137570426D01*
X176234919Y-137638122D01*
X176174078Y-137668542D01*
X176016325Y-137668542D01*
X175955485Y-137638122D01*
X175887789Y-137570426D01*
X175845202Y-137400078D01*
X175845202Y-137037006D01*
X175887788Y-136866659D01*
X175955484Y-136798963D01*
X176016327Y-136768542D01*
X176174078Y-136768542D01*
X176234919Y-136798962D01*
G37*
G36*
X177488059Y-137097114D02*
G01*
X177216327Y-137097114D01*
X177155484Y-137066692D01*
X177132766Y-137043974D01*
X177102345Y-136983132D01*
X177102345Y-136882524D01*
X177132766Y-136821682D01*
X177155484Y-136798963D01*
X177216327Y-136768542D01*
X177488059Y-136768542D01*
X177488059Y-137097114D01*
G37*
G36*
X175030916Y-137097114D02*
G01*
X174759184Y-137097114D01*
X174698341Y-137066692D01*
X174675623Y-137043974D01*
X174645202Y-136983132D01*
X174645202Y-136882524D01*
X174675623Y-136821682D01*
X174698341Y-136798963D01*
X174759184Y-136768542D01*
X175030916Y-136768542D01*
X175030916Y-137097114D01*
G37*
G36*
X181080917Y-138118542D02*
G01*
X169340941Y-138118542D01*
X169340941Y-136589278D01*
X169490941Y-136589278D01*
X169490941Y-136647806D01*
X169513339Y-136701878D01*
X169554723Y-136743262D01*
X169608795Y-136765660D01*
X169638059Y-136768542D01*
X170059487Y-136768542D01*
X170059487Y-137039971D01*
X169809487Y-137039971D01*
X169780223Y-137042853D01*
X169726151Y-137065251D01*
X169684767Y-137106635D01*
X169662369Y-137160707D01*
X169662369Y-137219235D01*
X169684767Y-137273307D01*
X169726151Y-137314691D01*
X169780223Y-137337089D01*
X169809487Y-137339971D01*
X170059487Y-137339971D01*
X170059487Y-137668542D01*
X169638059Y-137668542D01*
X169608795Y-137671424D01*
X169554723Y-137693822D01*
X169513339Y-137735206D01*
X169490941Y-137789278D01*
X169490941Y-137847806D01*
X169513339Y-137901878D01*
X169554723Y-137943262D01*
X169608795Y-137965660D01*
X169638059Y-137968542D01*
X170209487Y-137968542D01*
X170238751Y-137965660D01*
X170292823Y-137943262D01*
X170334207Y-137901878D01*
X170356605Y-137847806D01*
X170359487Y-137818542D01*
X170359487Y-136618542D01*
X170630916Y-136618542D01*
X170630916Y-137818542D01*
X170631657Y-137826067D01*
X170631282Y-137829019D01*
X170632324Y-137832839D01*
X170633798Y-137847806D01*
X170641433Y-137866238D01*
X170646682Y-137885483D01*
X170652536Y-137893042D01*
X170656196Y-137901878D01*
X170670303Y-137915985D01*
X170682517Y-137931757D01*
X170690819Y-137936501D01*
X170697580Y-137943262D01*
X170716010Y-137950896D01*
X170733333Y-137960795D01*
X170742818Y-137962000D01*
X170751652Y-137965660D01*
X170771602Y-137965660D01*
X170791393Y-137968176D01*
X170800618Y-137965660D01*
X170810180Y-137965660D01*
X170828612Y-137958024D01*
X170847857Y-137952776D01*
X170855416Y-137946921D01*
X170864252Y-137943262D01*
X170878359Y-137929154D01*
X170894131Y-137916941D01*
X170902836Y-137904677D01*
X170905636Y-137901878D01*
X170906774Y-137899130D01*
X170911152Y-137892963D01*
X171316630Y-137183376D01*
X171316630Y-137818542D01*
X171319512Y-137847806D01*
X171341910Y-137901878D01*
X171383294Y-137943262D01*
X171437366Y-137965660D01*
X171495894Y-137965660D01*
X171549966Y-137943262D01*
X171591350Y-137901878D01*
X171613748Y-137847806D01*
X171616630Y-137818542D01*
X171616630Y-137018542D01*
X171830916Y-137018542D01*
X171830916Y-137418542D01*
X171831418Y-137423645D01*
X171831093Y-137425833D01*
X171832712Y-137436783D01*
X171833798Y-137447806D01*
X171834645Y-137449850D01*
X171835395Y-137454922D01*
X171892538Y-137683495D01*
X171902431Y-137711186D01*
X171909070Y-137720147D01*
X171913338Y-137730449D01*
X171931993Y-137753180D01*
X172046279Y-137867466D01*
X172057783Y-137876907D01*
X172060378Y-137879899D01*
X172064887Y-137882737D01*
X172069010Y-137886121D01*
X172072671Y-137887637D01*
X172085263Y-137895564D01*
X172199548Y-137952706D01*
X172227012Y-137963216D01*
X172232387Y-137963597D01*
X172237366Y-137965660D01*
X172266630Y-137968542D01*
X172495202Y-137968542D01*
X172524466Y-137965660D01*
X172529444Y-137963597D01*
X172534820Y-137963216D01*
X172562283Y-137952707D01*
X172676569Y-137895565D01*
X172689163Y-137887637D01*
X172692824Y-137886121D01*
X172696944Y-137882739D01*
X172701455Y-137879900D01*
X172704050Y-137876906D01*
X172715554Y-137867466D01*
X172829839Y-137753180D01*
X172848494Y-137730449D01*
X172852760Y-137720147D01*
X172859401Y-137711186D01*
X172869294Y-137683494D01*
X172926437Y-137454922D01*
X172927186Y-137449850D01*
X172928034Y-137447806D01*
X172929119Y-137436783D01*
X172930739Y-137425833D01*
X172930413Y-137423645D01*
X172930916Y-137418542D01*
X172930916Y-137018542D01*
X172930413Y-137013438D01*
X172930739Y-137011251D01*
X172929119Y-137000300D01*
X172928034Y-136989278D01*
X172927186Y-136987233D01*
X172926437Y-136982162D01*
X172869294Y-136753591D01*
X172859401Y-136725899D01*
X172852760Y-136716937D01*
X172848494Y-136706636D01*
X172829839Y-136683905D01*
X172764477Y-136618542D01*
X173145202Y-136618542D01*
X173145202Y-137818542D01*
X173148084Y-137847806D01*
X173170482Y-137901878D01*
X173211866Y-137943262D01*
X173265938Y-137965660D01*
X173324466Y-137965660D01*
X173378538Y-137943262D01*
X173419922Y-137901878D01*
X173442320Y-137847806D01*
X173445202Y-137818542D01*
X173445202Y-137339971D01*
X173830916Y-137339971D01*
X173830916Y-137818542D01*
X173833798Y-137847806D01*
X173856196Y-137901878D01*
X173897580Y-137943262D01*
X173951652Y-137965660D01*
X174010180Y-137965660D01*
X174064252Y-137943262D01*
X174105636Y-137901878D01*
X174128034Y-137847806D01*
X174130916Y-137818542D01*
X174130916Y-136847114D01*
X174345202Y-136847114D01*
X174345202Y-137018542D01*
X174348084Y-137047806D01*
X174350145Y-137052783D01*
X174350528Y-137058161D01*
X174361038Y-137085624D01*
X174418181Y-137199910D01*
X174426108Y-137212503D01*
X174427624Y-137216163D01*
X174431005Y-137220282D01*
X174433846Y-137224796D01*
X174436840Y-137227392D01*
X174446279Y-137238894D01*
X174503422Y-137296037D01*
X174514924Y-137305477D01*
X174517520Y-137308470D01*
X174522030Y-137311309D01*
X174526152Y-137314692D01*
X174529812Y-137316208D01*
X174542405Y-137324135D01*
X174656691Y-137381278D01*
X174684154Y-137391788D01*
X174689531Y-137392170D01*
X174694509Y-137394232D01*
X174723773Y-137397114D01*
X175030916Y-137397114D01*
X175030916Y-137818542D01*
X175033798Y-137847806D01*
X175056196Y-137901878D01*
X175097580Y-137943262D01*
X175151652Y-137965660D01*
X175210180Y-137965660D01*
X175264252Y-137943262D01*
X175305636Y-137901878D01*
X175328034Y-137847806D01*
X175330916Y-137818542D01*
X175330916Y-137018542D01*
X175545202Y-137018542D01*
X175545202Y-137418542D01*
X175545704Y-137423645D01*
X175545379Y-137425833D01*
X175546998Y-137436783D01*
X175548084Y-137447806D01*
X175548931Y-137449850D01*
X175549681Y-137454922D01*
X175606824Y-137683495D01*
X175616717Y-137711186D01*
X175623356Y-137720147D01*
X175627624Y-137730449D01*
X175646279Y-137753180D01*
X175760565Y-137867466D01*
X175772069Y-137876907D01*
X175774664Y-137879899D01*
X175779173Y-137882737D01*
X175783296Y-137886121D01*
X175786957Y-137887637D01*
X175799549Y-137895564D01*
X175913834Y-137952706D01*
X175941298Y-137963216D01*
X175946673Y-137963597D01*
X175951652Y-137965660D01*
X175980916Y-137968542D01*
X176209488Y-137968542D01*
X176238752Y-137965660D01*
X176243730Y-137963597D01*
X176249106Y-137963216D01*
X176276569Y-137952707D01*
X176390855Y-137895565D01*
X176403449Y-137887637D01*
X176407110Y-137886121D01*
X176411230Y-137882739D01*
X176415741Y-137879900D01*
X176418336Y-137876906D01*
X176429840Y-137867466D01*
X176544125Y-137753180D01*
X176562780Y-137730449D01*
X176567046Y-137720147D01*
X176573687Y-137711186D01*
X176583580Y-137683494D01*
X176640723Y-137454922D01*
X176641472Y-137449850D01*
X176642320Y-137447806D01*
X176643405Y-137436783D01*
X176645025Y-137425833D01*
X176644699Y-137423645D01*
X176645202Y-137418542D01*
X176645202Y-137018542D01*
X176644699Y-137013438D01*
X176645025Y-137011251D01*
X176643405Y-137000300D01*
X176642320Y-136989278D01*
X176641472Y-136987233D01*
X176640723Y-136982162D01*
X176606961Y-136847114D01*
X176802345Y-136847114D01*
X176802345Y-137018542D01*
X176805227Y-137047806D01*
X176807288Y-137052783D01*
X176807671Y-137058161D01*
X176818181Y-137085624D01*
X176875324Y-137199910D01*
X176883251Y-137212503D01*
X176884767Y-137216163D01*
X176888148Y-137220282D01*
X176890989Y-137224796D01*
X176893983Y-137227392D01*
X176903422Y-137238894D01*
X176960565Y-137296037D01*
X176972067Y-137305477D01*
X176974663Y-137308470D01*
X176979173Y-137311309D01*
X176983295Y-137314692D01*
X176986955Y-137316208D01*
X176999548Y-137324135D01*
X177085313Y-137367017D01*
X176829460Y-137732523D01*
X176815039Y-137758149D01*
X176802380Y-137815291D01*
X176812551Y-137872926D01*
X176844004Y-137922284D01*
X176891952Y-137955848D01*
X176949094Y-137968507D01*
X177006729Y-137958336D01*
X177056087Y-137926883D01*
X177075230Y-137904561D01*
X177430443Y-137397114D01*
X177488059Y-137397114D01*
X177488059Y-137818542D01*
X177490941Y-137847806D01*
X177513339Y-137901878D01*
X177554723Y-137943262D01*
X177608795Y-137965660D01*
X177667323Y-137965660D01*
X177721395Y-137943262D01*
X177762779Y-137901878D01*
X177785177Y-137847806D01*
X177788059Y-137818542D01*
X177788059Y-136703565D01*
X178005227Y-136703565D01*
X178005227Y-136762091D01*
X178027624Y-136816163D01*
X178069010Y-136857549D01*
X178123082Y-136879946D01*
X178181608Y-136879946D01*
X178235680Y-136857549D01*
X178258411Y-136838894D01*
X178290516Y-136806788D01*
X178405256Y-136768542D01*
X178470862Y-136768542D01*
X178585602Y-136806788D01*
X178657637Y-136878824D01*
X178696532Y-136956613D01*
X178745202Y-137151293D01*
X178745202Y-137285792D01*
X178696532Y-137480472D01*
X178657637Y-137558260D01*
X178585603Y-137630294D01*
X178470860Y-137668542D01*
X178405259Y-137668542D01*
X178290514Y-137630294D01*
X178258411Y-137598191D01*
X178235680Y-137579536D01*
X178181608Y-137557139D01*
X178123082Y-137557139D01*
X178069010Y-137579536D01*
X178027624Y-137620922D01*
X178005227Y-137674994D01*
X178005227Y-137733520D01*
X178027624Y-137787592D01*
X178046279Y-137810323D01*
X178103422Y-137867466D01*
X178126152Y-137886121D01*
X178131131Y-137888183D01*
X178135203Y-137891715D01*
X178162054Y-137903703D01*
X178333483Y-137960845D01*
X178347993Y-137964144D01*
X178351652Y-137965660D01*
X178356954Y-137966182D01*
X178362156Y-137967365D01*
X178366110Y-137967083D01*
X178380916Y-137968542D01*
X178495202Y-137968542D01*
X178510007Y-137967083D01*
X178513962Y-137967365D01*
X178519163Y-137966182D01*
X178524466Y-137965660D01*
X178528124Y-137964144D01*
X178542635Y-137960845D01*
X178714065Y-137903703D01*
X178740916Y-137891715D01*
X178744987Y-137888183D01*
X178749967Y-137886121D01*
X178772697Y-137867466D01*
X178886982Y-137753180D01*
X178896421Y-137741678D01*
X178899415Y-137739082D01*
X178902255Y-137734568D01*
X178905637Y-137730449D01*
X178907152Y-137726789D01*
X178915080Y-137714196D01*
X178972223Y-137599910D01*
X178973041Y-137597771D01*
X178973687Y-137596900D01*
X178978071Y-137584626D01*
X178982733Y-137572446D01*
X178982809Y-137571363D01*
X178983580Y-137569208D01*
X179040723Y-137340637D01*
X179041472Y-137335565D01*
X179042320Y-137333521D01*
X179043405Y-137322498D01*
X179045025Y-137311548D01*
X179044699Y-137309360D01*
X179045202Y-137304257D01*
X179045202Y-137132828D01*
X179044699Y-137127724D01*
X179045025Y-137125537D01*
X179043405Y-137114586D01*
X179042320Y-137103564D01*
X179041472Y-137101519D01*
X179040723Y-137096448D01*
X178983580Y-136867877D01*
X178982809Y-136865721D01*
X178982733Y-136864639D01*
X178978071Y-136852458D01*
X178973687Y-136840185D01*
X178973041Y-136839313D01*
X178972223Y-136837175D01*
X178915080Y-136722889D01*
X178907152Y-136710295D01*
X178905637Y-136706636D01*
X178902255Y-136702516D01*
X178899415Y-136698003D01*
X178896421Y-136695406D01*
X178886982Y-136683905D01*
X178821620Y-136618542D01*
X179259488Y-136618542D01*
X179259488Y-137818542D01*
X179262370Y-137847806D01*
X179284768Y-137901878D01*
X179326152Y-137943262D01*
X179380224Y-137965660D01*
X179438752Y-137965660D01*
X179492824Y-137943262D01*
X179534208Y-137901878D01*
X179556606Y-137847806D01*
X179559488Y-137818542D01*
X179559488Y-136618542D01*
X179830917Y-136618542D01*
X179830917Y-137818542D01*
X179833799Y-137847806D01*
X179856197Y-137901878D01*
X179897581Y-137943262D01*
X179951653Y-137965660D01*
X180010181Y-137965660D01*
X180064253Y-137943262D01*
X180105637Y-137901878D01*
X180128035Y-137847806D01*
X180130917Y-137818542D01*
X180130917Y-137294675D01*
X180244990Y-137539118D01*
X180251336Y-137549831D01*
X180252657Y-137553463D01*
X180255008Y-137556031D01*
X180259977Y-137564418D01*
X180276782Y-137579808D01*
X180292184Y-137596626D01*
X180298227Y-137599446D01*
X180303140Y-137603945D01*
X180324557Y-137611733D01*
X180345221Y-137621376D01*
X180351879Y-137621668D01*
X180358142Y-137623946D01*
X180380917Y-137622944D01*
X180403692Y-137623946D01*
X180409954Y-137621668D01*
X180416613Y-137621376D01*
X180437274Y-137611734D01*
X180458695Y-137603945D01*
X180463608Y-137599445D01*
X180469650Y-137596626D01*
X180485045Y-137579813D01*
X180501858Y-137564418D01*
X180506826Y-137556029D01*
X180509177Y-137553463D01*
X180510496Y-137549833D01*
X180516844Y-137539118D01*
X180630917Y-137294676D01*
X180630917Y-137818542D01*
X180633799Y-137847806D01*
X180656197Y-137901878D01*
X180697581Y-137943262D01*
X180751653Y-137965660D01*
X180810181Y-137965660D01*
X180864253Y-137943262D01*
X180905637Y-137901878D01*
X180928035Y-137847806D01*
X180930917Y-137818542D01*
X180930917Y-136618542D01*
X180929022Y-136599304D01*
X180929178Y-136595766D01*
X180928486Y-136593865D01*
X180928035Y-136589278D01*
X180918074Y-136565232D01*
X180909177Y-136540764D01*
X180906917Y-136538296D01*
X180905637Y-136535206D01*
X180887239Y-136516808D01*
X180869650Y-136497601D01*
X180866616Y-136496185D01*
X180864253Y-136493822D01*
X180840212Y-136483863D01*
X180816613Y-136472851D01*
X180813271Y-136472704D01*
X180810181Y-136471424D01*
X180784147Y-136471424D01*
X180758142Y-136470281D01*
X180754999Y-136471424D01*
X180751653Y-136471424D01*
X180727600Y-136481387D01*
X180703140Y-136490282D01*
X180700672Y-136492541D01*
X180697581Y-136493822D01*
X180679172Y-136512230D01*
X180659977Y-136529809D01*
X180657627Y-136533775D01*
X180656197Y-136535206D01*
X180654841Y-136538478D01*
X180644990Y-136555109D01*
X180380917Y-137120979D01*
X180116844Y-136555109D01*
X180106990Y-136538474D01*
X180105637Y-136535206D01*
X180104208Y-136533777D01*
X180101858Y-136529809D01*
X180082650Y-136512219D01*
X180064253Y-136493822D01*
X180061162Y-136492541D01*
X180058695Y-136490282D01*
X180034229Y-136481385D01*
X180010181Y-136471424D01*
X180006835Y-136471424D01*
X180003692Y-136470281D01*
X179977687Y-136471424D01*
X179951653Y-136471424D01*
X179948562Y-136472704D01*
X179945221Y-136472851D01*
X179921621Y-136483863D01*
X179897581Y-136493822D01*
X179895217Y-136496185D01*
X179892184Y-136497601D01*
X179874594Y-136516808D01*
X179856197Y-136535206D01*
X179854916Y-136538296D01*
X179852657Y-136540764D01*
X179843760Y-136565229D01*
X179833799Y-136589278D01*
X179833347Y-136593866D01*
X179832656Y-136595767D01*
X179832811Y-136599305D01*
X179830917Y-136618542D01*
X179559488Y-136618542D01*
X179556606Y-136589278D01*
X179534208Y-136535206D01*
X179492824Y-136493822D01*
X179438752Y-136471424D01*
X179380224Y-136471424D01*
X179326152Y-136493822D01*
X179284768Y-136535206D01*
X179262370Y-136589278D01*
X179259488Y-136618542D01*
X178821620Y-136618542D01*
X178772697Y-136569619D01*
X178749967Y-136550964D01*
X178744985Y-136548900D01*
X178740916Y-136545371D01*
X178714065Y-136533382D01*
X178542636Y-136476240D01*
X178528128Y-136472941D01*
X178524466Y-136471424D01*
X178519157Y-136470901D01*
X178513963Y-136469720D01*
X178510013Y-136470000D01*
X178495202Y-136468542D01*
X178380916Y-136468542D01*
X178366104Y-136470000D01*
X178362155Y-136469720D01*
X178356960Y-136470901D01*
X178351652Y-136471424D01*
X178347989Y-136472941D01*
X178333482Y-136476240D01*
X178162054Y-136533383D01*
X178135203Y-136545371D01*
X178131133Y-136548900D01*
X178126152Y-136550964D01*
X178103422Y-136569619D01*
X178046279Y-136626762D01*
X178027624Y-136649493D01*
X178005227Y-136703565D01*
X177788059Y-136703565D01*
X177788059Y-136618542D01*
X177785177Y-136589278D01*
X177762779Y-136535206D01*
X177721395Y-136493822D01*
X177667323Y-136471424D01*
X177638059Y-136468542D01*
X177180916Y-136468542D01*
X177151652Y-136471424D01*
X177146674Y-136473485D01*
X177141297Y-136473868D01*
X177113834Y-136484378D01*
X176999548Y-136541521D01*
X176986955Y-136549447D01*
X176983295Y-136550964D01*
X176979173Y-136554346D01*
X176974663Y-136557186D01*
X176972067Y-136560178D01*
X176960565Y-136569619D01*
X176903422Y-136626762D01*
X176893983Y-136638263D01*
X176890989Y-136640860D01*
X176888148Y-136645373D01*
X176884767Y-136649493D01*
X176883251Y-136653152D01*
X176875324Y-136665746D01*
X176818181Y-136780032D01*
X176807671Y-136807495D01*
X176807288Y-136812872D01*
X176805227Y-136817850D01*
X176802345Y-136847114D01*
X176606961Y-136847114D01*
X176583580Y-136753591D01*
X176573687Y-136725899D01*
X176567046Y-136716937D01*
X176562780Y-136706636D01*
X176544125Y-136683905D01*
X176429840Y-136569619D01*
X176418337Y-136560178D01*
X176415742Y-136557186D01*
X176411232Y-136554347D01*
X176407110Y-136550964D01*
X176403447Y-136549446D01*
X176390856Y-136541521D01*
X176276570Y-136484378D01*
X176249107Y-136473868D01*
X176243729Y-136473485D01*
X176238752Y-136471424D01*
X176209488Y-136468542D01*
X175980916Y-136468542D01*
X175951652Y-136471424D01*
X175946674Y-136473485D01*
X175941297Y-136473868D01*
X175913834Y-136484378D01*
X175799548Y-136541521D01*
X175786954Y-136549448D01*
X175783296Y-136550964D01*
X175779176Y-136554344D01*
X175774663Y-136557186D01*
X175772066Y-136560180D01*
X175760565Y-136569619D01*
X175646279Y-136683905D01*
X175627624Y-136706636D01*
X175623356Y-136716937D01*
X175616717Y-136725899D01*
X175606824Y-136753590D01*
X175549681Y-136982162D01*
X175548931Y-136987233D01*
X175548084Y-136989278D01*
X175546998Y-137000300D01*
X175545379Y-137011251D01*
X175545704Y-137013438D01*
X175545202Y-137018542D01*
X175330916Y-137018542D01*
X175330916Y-136618542D01*
X175328034Y-136589278D01*
X175305636Y-136535206D01*
X175264252Y-136493822D01*
X175210180Y-136471424D01*
X175180916Y-136468542D01*
X174723773Y-136468542D01*
X174694509Y-136471424D01*
X174689531Y-136473485D01*
X174684154Y-136473868D01*
X174656691Y-136484378D01*
X174542405Y-136541521D01*
X174529812Y-136549447D01*
X174526152Y-136550964D01*
X174522030Y-136554346D01*
X174517520Y-136557186D01*
X174514924Y-136560178D01*
X174503422Y-136569619D01*
X174446279Y-136626762D01*
X174436840Y-136638263D01*
X174433846Y-136640860D01*
X174431005Y-136645373D01*
X174427624Y-136649493D01*
X174426108Y-136653152D01*
X174418181Y-136665746D01*
X174361038Y-136780032D01*
X174350528Y-136807495D01*
X174350145Y-136812872D01*
X174348084Y-136817850D01*
X174345202Y-136847114D01*
X174130916Y-136847114D01*
X174130916Y-136618542D01*
X174128034Y-136589278D01*
X174105636Y-136535206D01*
X174064252Y-136493822D01*
X174010180Y-136471424D01*
X173951652Y-136471424D01*
X173897580Y-136493822D01*
X173856196Y-136535206D01*
X173833798Y-136589278D01*
X173830916Y-136618542D01*
X173830916Y-137039971D01*
X173445202Y-137039971D01*
X173445202Y-136618542D01*
X173442320Y-136589278D01*
X173419922Y-136535206D01*
X173378538Y-136493822D01*
X173324466Y-136471424D01*
X173265938Y-136471424D01*
X173211866Y-136493822D01*
X173170482Y-136535206D01*
X173148084Y-136589278D01*
X173145202Y-136618542D01*
X172764477Y-136618542D01*
X172715554Y-136569619D01*
X172704051Y-136560178D01*
X172701456Y-136557186D01*
X172696946Y-136554347D01*
X172692824Y-136550964D01*
X172689161Y-136549446D01*
X172676570Y-136541521D01*
X172562284Y-136484378D01*
X172534821Y-136473868D01*
X172529443Y-136473485D01*
X172524466Y-136471424D01*
X172495202Y-136468542D01*
X172266630Y-136468542D01*
X172237366Y-136471424D01*
X172232388Y-136473485D01*
X172227011Y-136473868D01*
X172199548Y-136484378D01*
X172085262Y-136541521D01*
X172072668Y-136549448D01*
X172069010Y-136550964D01*
X172064890Y-136554344D01*
X172060377Y-136557186D01*
X172057780Y-136560180D01*
X172046279Y-136569619D01*
X171931993Y-136683905D01*
X171913338Y-136706636D01*
X171909070Y-136716937D01*
X171902431Y-136725899D01*
X171892538Y-136753590D01*
X171835395Y-136982162D01*
X171834645Y-136987233D01*
X171833798Y-136989278D01*
X171832712Y-137000300D01*
X171831093Y-137011251D01*
X171831418Y-137013438D01*
X171830916Y-137018542D01*
X171616630Y-137018542D01*
X171616630Y-136618542D01*
X171615888Y-136611011D01*
X171616263Y-136608065D01*
X171615222Y-136604249D01*
X171613748Y-136589278D01*
X171606111Y-136570842D01*
X171600864Y-136551601D01*
X171595009Y-136544041D01*
X171591350Y-136535206D01*
X171577242Y-136521098D01*
X171565029Y-136505327D01*
X171556726Y-136500582D01*
X171549966Y-136493822D01*
X171531535Y-136486187D01*
X171514213Y-136476289D01*
X171504728Y-136475083D01*
X171495894Y-136471424D01*
X171475938Y-136471424D01*
X171456152Y-136468909D01*
X171446930Y-136471424D01*
X171437366Y-136471424D01*
X171418931Y-136479060D01*
X171399689Y-136484308D01*
X171392129Y-136490162D01*
X171383294Y-136493822D01*
X171369186Y-136507929D01*
X171353415Y-136520143D01*
X171344708Y-136532407D01*
X171341910Y-136535206D01*
X171340772Y-136537951D01*
X171336393Y-136544121D01*
X170930916Y-137253707D01*
X170930916Y-136618542D01*
X170928034Y-136589278D01*
X170905636Y-136535206D01*
X170864252Y-136493822D01*
X170810180Y-136471424D01*
X170751652Y-136471424D01*
X170697580Y-136493822D01*
X170656196Y-136535206D01*
X170633798Y-136589278D01*
X170630916Y-136618542D01*
X170359487Y-136618542D01*
X170356605Y-136589278D01*
X170334207Y-136535206D01*
X170292823Y-136493822D01*
X170238751Y-136471424D01*
X170209487Y-136468542D01*
X169638059Y-136468542D01*
X169608795Y-136471424D01*
X169554723Y-136493822D01*
X169513339Y-136535206D01*
X169490941Y-136589278D01*
X169340941Y-136589278D01*
X169340941Y-136318542D01*
X181080917Y-136318542D01*
X181080917Y-138118542D01*
G37*
D11*
G36*
X172128996Y-142839967D02*
G01*
X172182052Y-142869950D01*
X172224235Y-142924867D01*
X172250229Y-142989152D01*
X172264536Y-143052397D01*
X172272697Y-143125913D01*
X172274574Y-143187660D01*
X172273736Y-143231255D01*
X172267167Y-143310255D01*
X172254363Y-143378257D01*
X172230126Y-143447648D01*
X172197380Y-143499516D01*
X172147816Y-143538365D01*
X172088168Y-143551387D01*
X172037773Y-143542338D01*
X171986386Y-143507771D01*
X171951953Y-143459429D01*
X171925893Y-143393528D01*
X171911542Y-143328290D01*
X171903352Y-143252030D01*
X171901468Y-143187660D01*
X171902309Y-143145872D01*
X171908903Y-143069822D01*
X171921747Y-143003988D01*
X171946049Y-142936393D01*
X171978863Y-142885521D01*
X172028492Y-142847146D01*
X172088168Y-142834192D01*
X172128996Y-142839967D01*
G37*
G36*
X174230959Y-143183264D02*
G01*
X174104930Y-143183264D01*
X174046316Y-143178907D01*
X173989431Y-143162307D01*
X173936103Y-143121255D01*
X173910238Y-143067995D01*
X173903283Y-143009754D01*
X173905137Y-142979721D01*
X173927906Y-142917012D01*
X173975840Y-142877339D01*
X174037671Y-142859297D01*
X174104930Y-142854709D01*
X174230959Y-142854709D01*
X174230959Y-143183264D01*
G37*
G36*
X172128996Y-140823967D02*
G01*
X172182052Y-140853950D01*
X172224235Y-140908867D01*
X172250229Y-140973152D01*
X172264536Y-141036397D01*
X172272697Y-141109913D01*
X172274574Y-141171660D01*
X172273736Y-141215255D01*
X172267167Y-141294255D01*
X172254363Y-141362257D01*
X172230126Y-141431648D01*
X172197380Y-141483516D01*
X172147816Y-141522365D01*
X172088168Y-141535387D01*
X172037773Y-141526338D01*
X171986386Y-141491771D01*
X171951953Y-141443429D01*
X171925893Y-141377528D01*
X171911542Y-141312290D01*
X171903352Y-141236030D01*
X171901468Y-141171660D01*
X171902309Y-141129872D01*
X171908903Y-141053822D01*
X171921747Y-140987988D01*
X171946049Y-140920393D01*
X171978863Y-140869521D01*
X172028492Y-140831146D01*
X172088168Y-140818192D01*
X172128996Y-140823967D01*
G37*
G36*
X174230959Y-141167264D02*
G01*
X174104930Y-141167264D01*
X174046316Y-141162907D01*
X173989431Y-141146307D01*
X173936103Y-141105255D01*
X173910238Y-141051995D01*
X173903283Y-140993754D01*
X173905137Y-140963721D01*
X173927906Y-140901012D01*
X173975840Y-140861339D01*
X174037671Y-140843297D01*
X174104930Y-140838709D01*
X174230959Y-140838709D01*
X174230959Y-141167264D01*
G37*
G36*
X172128996Y-138807967D02*
G01*
X172182052Y-138837950D01*
X172224235Y-138892867D01*
X172250229Y-138957152D01*
X172264536Y-139020397D01*
X172272697Y-139093913D01*
X172274574Y-139155660D01*
X172273736Y-139199255D01*
X172267167Y-139278255D01*
X172254363Y-139346257D01*
X172230126Y-139415648D01*
X172197380Y-139467516D01*
X172147816Y-139506365D01*
X172088168Y-139519387D01*
X172037773Y-139510338D01*
X171986386Y-139475771D01*
X171951953Y-139427429D01*
X171925893Y-139361528D01*
X171911542Y-139296290D01*
X171903352Y-139220030D01*
X171901468Y-139155660D01*
X171902309Y-139113872D01*
X171908903Y-139037822D01*
X171921747Y-138971988D01*
X171946049Y-138904393D01*
X171978863Y-138853521D01*
X172028492Y-138815146D01*
X172088168Y-138802192D01*
X172128996Y-138807967D01*
G37*
G36*
X174230959Y-139151264D02*
G01*
X174104930Y-139151264D01*
X174046316Y-139146907D01*
X173989431Y-139130307D01*
X173936103Y-139089255D01*
X173910238Y-139035995D01*
X173903283Y-138977754D01*
X173905137Y-138947721D01*
X173927906Y-138885012D01*
X173975840Y-138845339D01*
X174037671Y-138827297D01*
X174104930Y-138822709D01*
X174230959Y-138822709D01*
X174230959Y-139151264D01*
G37*
G36*
X180273039Y-139514111D02*
G01*
X180232592Y-139514111D01*
X180185955Y-139511680D01*
X180115502Y-139496045D01*
X180055353Y-139464341D01*
X180006904Y-139414739D01*
X179977505Y-139360939D01*
X179957202Y-139293573D01*
X179948372Y-139233583D01*
X179945362Y-139165039D01*
X179946708Y-139118537D01*
X179953631Y-139056347D01*
X179971549Y-138986779D01*
X179998740Y-138931399D01*
X180044683Y-138880348D01*
X180102603Y-138847361D01*
X180171107Y-138830157D01*
X180232592Y-138826226D01*
X180273039Y-138826226D01*
X180273039Y-139514111D01*
G37*
G36*
X181771884Y-143898090D02*
G01*
X168535630Y-143898090D01*
X168535630Y-142828037D01*
X168668963Y-142828037D01*
X168693661Y-142855865D01*
X168739191Y-142910006D01*
X168779816Y-142962514D01*
X168815842Y-143013852D01*
X168861918Y-143089681D01*
X168899348Y-143165487D01*
X168929155Y-143242835D01*
X168952363Y-143323289D01*
X168969994Y-143408415D01*
X168979155Y-143468534D01*
X168986595Y-143531888D01*
X168992617Y-143598941D01*
X168997525Y-143670157D01*
X169001622Y-143746000D01*
X169250163Y-143746000D01*
X169248113Y-143712920D01*
X169243026Y-143648985D01*
X169236504Y-143587778D01*
X169229197Y-143537905D01*
X169681594Y-143537905D01*
X169681594Y-143746000D01*
X170482906Y-143746000D01*
X170482906Y-143605023D01*
X170454545Y-143581118D01*
X170399666Y-143534602D01*
X170347374Y-143489757D01*
X170297821Y-143446511D01*
X170251161Y-143404798D01*
X170207546Y-143364548D01*
X170148171Y-143306765D01*
X170096511Y-143251889D01*
X170053083Y-143199686D01*
X170045010Y-143187660D01*
X171647944Y-143187660D01*
X171648468Y-143222658D01*
X171652600Y-143289462D01*
X171660727Y-143351990D01*
X171680088Y-143437709D01*
X171707622Y-143513662D01*
X171742840Y-143579767D01*
X171785254Y-143635935D01*
X171834375Y-143682083D01*
X171889715Y-143718125D01*
X171950786Y-143743975D01*
X172017100Y-143759547D01*
X172088168Y-143764757D01*
X172136002Y-143762440D01*
X172203905Y-143750312D01*
X172266752Y-143727878D01*
X172324050Y-143695224D01*
X172375307Y-143652436D01*
X172420030Y-143599598D01*
X172457726Y-143536796D01*
X172487903Y-143464116D01*
X172510068Y-143381643D01*
X172520150Y-143321263D01*
X172526306Y-143256593D01*
X172528391Y-143187660D01*
X172527867Y-143153439D01*
X172523728Y-143088068D01*
X172515591Y-143026821D01*
X172496206Y-142942755D01*
X172468645Y-142868156D01*
X172467710Y-142866432D01*
X172714211Y-142866432D01*
X172969787Y-142866432D01*
X172969787Y-143537905D01*
X172714211Y-143537905D01*
X172714211Y-143746000D01*
X173473611Y-143746000D01*
X173473611Y-143537905D01*
X173218328Y-143537905D01*
X173218328Y-143009754D01*
X173661482Y-143009754D01*
X173662053Y-143033328D01*
X173670373Y-143099122D01*
X173687988Y-143157631D01*
X173724559Y-143224543D01*
X173774353Y-143279061D01*
X173835487Y-143321506D01*
X173906073Y-143352197D01*
X173964083Y-143367693D01*
X174025553Y-143376892D01*
X174089689Y-143379928D01*
X174230959Y-143379928D01*
X174230959Y-143746000D01*
X174478035Y-143746000D01*
X174478035Y-143126990D01*
X174690819Y-143126990D01*
X174690819Y-143632280D01*
X174737910Y-143670082D01*
X174794900Y-143704465D01*
X174848666Y-143728840D01*
X174907034Y-143747904D01*
X174968971Y-143760322D01*
X175033443Y-143764757D01*
X175085356Y-143762498D01*
X175160104Y-143750677D01*
X175230392Y-143728812D01*
X175295416Y-143696991D01*
X175354376Y-143655297D01*
X175406467Y-143603816D01*
X175432403Y-143568093D01*
X177928600Y-143568093D01*
X177934216Y-143618066D01*
X177959667Y-143679134D01*
X178003273Y-143726412D01*
X178062420Y-143756127D01*
X178123506Y-143764757D01*
X178174928Y-143758719D01*
X178203847Y-143746000D01*
X178635244Y-143746000D01*
X178909284Y-143746000D01*
X179142878Y-143283794D01*
X179268907Y-143449098D01*
X179268907Y-143746000D01*
X179519207Y-143746000D01*
X179519207Y-143603557D01*
X179681580Y-143603557D01*
X179698676Y-143622804D01*
X179744766Y-143665703D01*
X179795496Y-143701059D01*
X179850686Y-143728756D01*
X179910155Y-143748681D01*
X179973721Y-143760719D01*
X180041203Y-143764757D01*
X180091723Y-143762497D01*
X180165257Y-143750666D01*
X180235221Y-143728767D01*
X180300633Y-143696872D01*
X180360511Y-143655051D01*
X180413872Y-143603377D01*
X180459734Y-143541919D01*
X180497115Y-143470749D01*
X180513302Y-143423892D01*
X180719417Y-143423892D01*
X180726522Y-143491132D01*
X180747572Y-143554432D01*
X180782168Y-143612244D01*
X180829912Y-143663018D01*
X180890406Y-143705205D01*
X180943903Y-143730279D01*
X181004180Y-143748998D01*
X181071068Y-143760709D01*
X181144399Y-143764757D01*
X181172180Y-143764130D01*
X181241608Y-143757091D01*
X181310325Y-143742300D01*
X181377485Y-143719828D01*
X181442244Y-143689751D01*
X181503756Y-143652142D01*
X181561175Y-143607074D01*
X181418440Y-143435909D01*
X181402765Y-143448411D01*
X181353145Y-143482639D01*
X181300155Y-143511116D01*
X181244468Y-143532778D01*
X181186757Y-143546557D01*
X181127693Y-143551387D01*
X181108522Y-143550916D01*
X181044985Y-143540230D01*
X180994208Y-143509870D01*
X180973234Y-143454667D01*
X180985077Y-143405533D01*
X181030580Y-143362968D01*
X181088528Y-143334723D01*
X181142934Y-143311931D01*
X181283911Y-143250675D01*
X181306724Y-143241466D01*
X181361626Y-143213231D01*
X181411660Y-143177238D01*
X181454546Y-143133099D01*
X181488002Y-143080425D01*
X181509749Y-143018825D01*
X181517505Y-142947912D01*
X181515597Y-142914096D01*
X181500743Y-142849785D01*
X181472074Y-142790940D01*
X181430677Y-142738802D01*
X181377636Y-142694615D01*
X181314037Y-142659623D01*
X181240965Y-142635069D01*
X181180597Y-142624251D01*
X181115969Y-142620528D01*
X181091083Y-142621118D01*
X181029192Y-142627695D01*
X180968380Y-142641440D01*
X180909420Y-142662200D01*
X180853083Y-142689820D01*
X180800141Y-142724146D01*
X180751364Y-142765023D01*
X180877393Y-142922413D01*
X180891503Y-142912197D01*
X180947696Y-142877146D01*
X181006684Y-142851993D01*
X181063941Y-142838731D01*
X181129452Y-142834192D01*
X181137093Y-142834296D01*
X181197896Y-142844394D01*
X181248723Y-142878272D01*
X181267205Y-142934429D01*
X181246777Y-142986247D01*
X181197676Y-143020680D01*
X181143144Y-143044286D01*
X181087247Y-143065148D01*
X180954476Y-143123180D01*
X180928024Y-143133777D01*
X180867777Y-143164251D01*
X180816604Y-143200965D01*
X180775342Y-143244602D01*
X180744832Y-143295846D01*
X180725910Y-143355381D01*
X180719417Y-143423892D01*
X180513302Y-143423892D01*
X180525032Y-143389938D01*
X180537900Y-143330743D01*
X180545835Y-143267316D01*
X180548545Y-143199677D01*
X180547876Y-143165705D01*
X180542616Y-143100532D01*
X180532333Y-143039125D01*
X180508025Y-142954254D01*
X180473794Y-142878321D01*
X180430469Y-142811605D01*
X180378879Y-142754386D01*
X180319853Y-142706943D01*
X180254220Y-142669556D01*
X180182807Y-142642505D01*
X180106445Y-142626069D01*
X180025963Y-142620528D01*
X179974869Y-142623566D01*
X179914620Y-142635130D01*
X179858698Y-142653985D01*
X179797766Y-142684213D01*
X179744106Y-142720391D01*
X179698286Y-142760040D01*
X179834574Y-142913913D01*
X179849362Y-142900975D01*
X179902264Y-142864731D01*
X179962777Y-142841465D01*
X180025963Y-142834192D01*
X180054483Y-142835754D01*
X180120903Y-142852984D01*
X180179008Y-142888412D01*
X180227119Y-142940992D01*
X180257287Y-142994702D01*
X180279127Y-143058183D01*
X180291782Y-143130901D01*
X180294727Y-143191177D01*
X180293407Y-143232752D01*
X180283120Y-143308985D01*
X180263257Y-143375634D01*
X180234561Y-143432262D01*
X180197772Y-143478433D01*
X180141537Y-143520777D01*
X180075266Y-143545250D01*
X180015997Y-143551387D01*
X179972922Y-143547397D01*
X179913553Y-143527593D01*
X179860201Y-143493396D01*
X179817575Y-143452908D01*
X179681580Y-143603557D01*
X179519207Y-143603557D01*
X179519207Y-142658044D01*
X179268907Y-142658044D01*
X179268907Y-143103836D01*
X179263632Y-143103836D01*
X178939473Y-142658044D01*
X178665725Y-142658044D01*
X178994867Y-143090354D01*
X178635244Y-143746000D01*
X178203847Y-143746000D01*
X178236052Y-143731836D01*
X178282080Y-143686882D01*
X178310346Y-143627648D01*
X178318412Y-143568386D01*
X178312778Y-143518298D01*
X178287268Y-143456789D01*
X178243613Y-143408943D01*
X178184483Y-143378756D01*
X178123506Y-143369963D01*
X178071986Y-143376117D01*
X178010832Y-143403441D01*
X177964846Y-143448963D01*
X177936641Y-143508669D01*
X177928600Y-143568093D01*
X175432403Y-143568093D01*
X175450887Y-143542635D01*
X175486833Y-143471838D01*
X175513503Y-143391511D01*
X175525733Y-143332707D01*
X175533245Y-143269731D01*
X175535802Y-143202608D01*
X175535158Y-143168060D01*
X175530091Y-143101901D01*
X175520180Y-143039712D01*
X175516236Y-143025288D01*
X177928600Y-143025288D01*
X177934216Y-143075163D01*
X177959667Y-143136200D01*
X178003273Y-143183521D01*
X178062420Y-143213297D01*
X178123506Y-143221952D01*
X178174928Y-143215895D01*
X178236052Y-143188938D01*
X178282080Y-143143889D01*
X178310346Y-143084577D01*
X178318412Y-143025288D01*
X178312778Y-142975297D01*
X178287268Y-142913819D01*
X178243613Y-142865931D01*
X178184483Y-142835682D01*
X178123506Y-142826865D01*
X178071986Y-142833037D01*
X178010832Y-142860435D01*
X177964846Y-142906051D01*
X177936641Y-142965836D01*
X177928600Y-143025288D01*
X175516236Y-143025288D01*
X175496743Y-142954007D01*
X175463719Y-142877587D01*
X175421895Y-142810666D01*
X175372059Y-142753456D01*
X175314996Y-142706170D01*
X175251494Y-142669021D01*
X175182339Y-142642223D01*
X175108319Y-142625988D01*
X175030219Y-142620528D01*
X174989785Y-142622296D01*
X174927564Y-142632435D01*
X174871525Y-142650216D01*
X174811986Y-142679450D01*
X174760330Y-142714758D01*
X174709284Y-142760040D01*
X174845279Y-142915085D01*
X174863191Y-142897725D01*
X174911886Y-142862100D01*
X174971111Y-142840031D01*
X175030219Y-142834192D01*
X175056552Y-142835774D01*
X175118083Y-142853215D01*
X175172141Y-142889045D01*
X175217071Y-142942173D01*
X175245329Y-142996394D01*
X175265836Y-143060425D01*
X175277743Y-143133706D01*
X175280519Y-143194401D01*
X175280264Y-143215256D01*
X175274128Y-143293038D01*
X175259826Y-143361474D01*
X175237373Y-143420121D01*
X175197874Y-143478987D01*
X175145702Y-143520999D01*
X175080889Y-143545292D01*
X175019961Y-143551387D01*
X174966498Y-143544778D01*
X174912690Y-143517681D01*
X174912690Y-143328637D01*
X175072131Y-143328637D01*
X175072131Y-143126990D01*
X174690819Y-143126990D01*
X174478035Y-143126990D01*
X174478035Y-142658044D01*
X174089689Y-142658044D01*
X174067625Y-142658304D01*
X174003297Y-142662325D01*
X173942327Y-142671554D01*
X173885436Y-142686428D01*
X173817174Y-142715802D01*
X173759159Y-142757034D01*
X173713099Y-142811165D01*
X173680706Y-142879235D01*
X173666409Y-142940062D01*
X173661482Y-143009754D01*
X173218328Y-143009754D01*
X173218328Y-142866432D01*
X173473611Y-142866432D01*
X173473611Y-142658044D01*
X172714211Y-142658044D01*
X172714211Y-142866432D01*
X172467710Y-142866432D01*
X172433400Y-142803137D01*
X172390965Y-142747811D01*
X172341831Y-142702291D01*
X172286492Y-142666689D01*
X172225440Y-142641120D01*
X172159168Y-142625695D01*
X172088168Y-142620528D01*
X172040285Y-142622828D01*
X171972333Y-142634845D01*
X171909460Y-142657046D01*
X171852155Y-142689316D01*
X171800907Y-142731542D01*
X171756203Y-142783613D01*
X171718532Y-142845413D01*
X171688382Y-142916831D01*
X171666242Y-142997754D01*
X171656173Y-143056927D01*
X171650026Y-143120240D01*
X171647944Y-143187660D01*
X170045010Y-143187660D01*
X170008881Y-143133841D01*
X169981460Y-143071788D01*
X169972048Y-143012978D01*
X169972792Y-142993969D01*
X169986838Y-142936360D01*
X170023641Y-142888132D01*
X170081075Y-142859585D01*
X170147023Y-142851484D01*
X170208206Y-142860529D01*
X170263893Y-142884714D01*
X170314855Y-142919615D01*
X170361859Y-142960808D01*
X170494630Y-142827744D01*
X170463549Y-142797552D01*
X170411474Y-142753748D01*
X170357789Y-142718122D01*
X170301032Y-142690715D01*
X170239740Y-142671568D01*
X170172450Y-142660720D01*
X170113318Y-142658044D01*
X170092563Y-142658436D01*
X170032941Y-142664225D01*
X169960173Y-142682270D01*
X169895970Y-142711429D01*
X169841292Y-142750954D01*
X169797097Y-142800096D01*
X169764342Y-142858107D01*
X169743986Y-142924236D01*
X169736988Y-142997737D01*
X169741723Y-143048649D01*
X169761793Y-143117327D01*
X169795837Y-143186674D01*
X169829395Y-143238967D01*
X169868937Y-143291380D01*
X169913659Y-143343803D01*
X169962757Y-143396125D01*
X170015427Y-143448236D01*
X170070864Y-143500027D01*
X170128265Y-143551387D01*
X170122556Y-143550755D01*
X170061559Y-143544709D01*
X169998453Y-143540020D01*
X169935118Y-143537905D01*
X169681594Y-143537905D01*
X169229197Y-143537905D01*
X169223712Y-143500462D01*
X169206870Y-143417690D01*
X169185487Y-143338507D01*
X169159068Y-143261954D01*
X169127122Y-143187076D01*
X169089156Y-143112918D01*
X169044678Y-143038521D01*
X169011163Y-142988319D01*
X168974390Y-142937303D01*
X168934211Y-142885190D01*
X169470275Y-142885190D01*
X169470275Y-142676802D01*
X168668963Y-142676802D01*
X168668963Y-142828037D01*
X168535630Y-142828037D01*
X168535630Y-141378876D01*
X168680687Y-141378876D01*
X168681262Y-141400515D01*
X168689630Y-141461920D01*
X168707285Y-141517913D01*
X168743767Y-141583822D01*
X168793147Y-141639326D01*
X168853361Y-141683979D01*
X168922344Y-141717333D01*
X168978595Y-141734665D01*
X169037747Y-141745203D01*
X169098928Y-141748757D01*
X169149406Y-141747072D01*
X169212050Y-141739863D01*
X169269586Y-141727481D01*
X169334684Y-141705563D01*
X169392633Y-141677484D01*
X169443896Y-141644311D01*
X169497240Y-141599281D01*
X169441594Y-141521905D01*
X169681594Y-141521905D01*
X169681594Y-141730000D01*
X170482906Y-141730000D01*
X170482906Y-141589023D01*
X170454545Y-141565118D01*
X170399666Y-141518602D01*
X170347374Y-141473757D01*
X170297821Y-141430511D01*
X170251161Y-141388798D01*
X170207546Y-141348548D01*
X170148171Y-141290765D01*
X170096511Y-141235889D01*
X170053083Y-141183686D01*
X170045010Y-141171660D01*
X171647944Y-141171660D01*
X171648468Y-141206658D01*
X171652600Y-141273462D01*
X171660727Y-141335990D01*
X171680088Y-141421709D01*
X171707622Y-141497662D01*
X171742840Y-141563767D01*
X171785254Y-141619935D01*
X171834375Y-141666083D01*
X171889715Y-141702125D01*
X171950786Y-141727975D01*
X172017100Y-141743547D01*
X172088168Y-141748757D01*
X172136002Y-141746440D01*
X172203905Y-141734312D01*
X172266752Y-141711878D01*
X172324050Y-141679224D01*
X172375307Y-141636436D01*
X172420030Y-141583598D01*
X172457726Y-141520796D01*
X172487903Y-141448116D01*
X172510068Y-141365643D01*
X172520150Y-141305263D01*
X172526306Y-141240593D01*
X172528391Y-141171660D01*
X172527867Y-141137439D01*
X172523728Y-141072068D01*
X172515591Y-141010821D01*
X172496206Y-140926755D01*
X172468645Y-140852156D01*
X172467710Y-140850432D01*
X172714211Y-140850432D01*
X172969787Y-140850432D01*
X172969787Y-141521905D01*
X172714211Y-141521905D01*
X172714211Y-141730000D01*
X173473611Y-141730000D01*
X173473611Y-141521905D01*
X173218328Y-141521905D01*
X173218328Y-140993754D01*
X173661482Y-140993754D01*
X173662053Y-141017328D01*
X173670373Y-141083122D01*
X173687988Y-141141631D01*
X173724559Y-141208543D01*
X173774353Y-141263061D01*
X173835487Y-141305506D01*
X173906073Y-141336197D01*
X173964083Y-141351693D01*
X174025553Y-141360892D01*
X174089689Y-141363928D01*
X174230959Y-141363928D01*
X174230959Y-141730000D01*
X174478035Y-141730000D01*
X174478035Y-141110990D01*
X174690819Y-141110990D01*
X174690819Y-141616280D01*
X174737910Y-141654082D01*
X174794900Y-141688465D01*
X174848666Y-141712840D01*
X174907034Y-141731904D01*
X174968971Y-141744322D01*
X175033443Y-141748757D01*
X175085356Y-141746498D01*
X175160104Y-141734677D01*
X175230392Y-141712812D01*
X175295416Y-141680991D01*
X175354376Y-141639297D01*
X175406467Y-141587816D01*
X175432403Y-141552093D01*
X178934490Y-141552093D01*
X178940106Y-141602066D01*
X178965557Y-141663134D01*
X179009163Y-141710412D01*
X179068310Y-141740127D01*
X179129396Y-141748757D01*
X179180818Y-141742719D01*
X179241941Y-141715836D01*
X179287970Y-141670882D01*
X179316236Y-141611648D01*
X179324302Y-141552386D01*
X179318668Y-141502298D01*
X179293158Y-141440789D01*
X179263143Y-141407892D01*
X179713527Y-141407892D01*
X179720632Y-141475132D01*
X179741682Y-141538432D01*
X179776278Y-141596244D01*
X179824023Y-141647018D01*
X179884516Y-141689205D01*
X179938014Y-141714279D01*
X179998290Y-141732998D01*
X180065178Y-141744709D01*
X180138510Y-141748757D01*
X180166290Y-141748130D01*
X180235718Y-141741091D01*
X180304435Y-141726300D01*
X180371595Y-141703828D01*
X180436354Y-141673751D01*
X180497866Y-141636142D01*
X180555286Y-141591074D01*
X180412550Y-141419909D01*
X180396875Y-141432411D01*
X180347255Y-141466639D01*
X180294265Y-141495116D01*
X180238579Y-141516778D01*
X180180867Y-141530557D01*
X180121803Y-141535387D01*
X180102632Y-141534916D01*
X180039095Y-141524230D01*
X179988318Y-141493870D01*
X179967344Y-141438667D01*
X179979187Y-141389533D01*
X180024690Y-141346968D01*
X180082638Y-141318723D01*
X180137044Y-141295931D01*
X180278021Y-141234675D01*
X180300834Y-141225466D01*
X180355736Y-141197231D01*
X180405770Y-141161238D01*
X180448656Y-141117099D01*
X180482113Y-141064425D01*
X180503859Y-141002825D01*
X180511615Y-140931912D01*
X180509707Y-140898096D01*
X180494853Y-140833785D01*
X180466184Y-140774940D01*
X180424787Y-140722802D01*
X180371746Y-140678615D01*
X180308147Y-140643623D01*
X180303448Y-140642044D01*
X180643799Y-140642044D01*
X180778328Y-141730000D01*
X181043576Y-141730000D01*
X181107470Y-141392065D01*
X181112506Y-141366346D01*
X181123213Y-141307505D01*
X181131943Y-141248816D01*
X181137658Y-141186022D01*
X181142934Y-141186022D01*
X181145454Y-141210683D01*
X181152820Y-141274764D01*
X181161105Y-141333747D01*
X181171364Y-141392065D01*
X181235258Y-141730000D01*
X181492299Y-141730000D01*
X181638551Y-140642044D01*
X181381510Y-140642044D01*
X181347805Y-141220900D01*
X181347310Y-141246820D01*
X181346165Y-141305634D01*
X181344889Y-141371885D01*
X181343823Y-141431037D01*
X181342822Y-141493182D01*
X181336081Y-141493182D01*
X181330145Y-141457127D01*
X181318872Y-141396576D01*
X181306833Y-141338003D01*
X181294452Y-141279935D01*
X181282152Y-141220900D01*
X181208293Y-140915792D01*
X181050317Y-140915792D01*
X180981441Y-141220900D01*
X180974520Y-141254262D01*
X180962470Y-141311951D01*
X180950594Y-141370019D01*
X180939002Y-141429938D01*
X180927805Y-141493182D01*
X180921064Y-141493182D01*
X180920734Y-141474687D01*
X180919547Y-141412544D01*
X180918243Y-141353304D01*
X180916489Y-141287267D01*
X180914323Y-141220900D01*
X180884134Y-140642044D01*
X180643799Y-140642044D01*
X180303448Y-140642044D01*
X180235075Y-140619069D01*
X180174707Y-140608251D01*
X180110080Y-140604528D01*
X180085194Y-140605118D01*
X180023302Y-140611695D01*
X179962490Y-140625440D01*
X179903530Y-140646200D01*
X179847193Y-140673820D01*
X179794251Y-140708146D01*
X179745474Y-140749023D01*
X179871503Y-140906413D01*
X179885614Y-140896197D01*
X179941806Y-140861146D01*
X180000795Y-140835993D01*
X180058051Y-140822731D01*
X180123562Y-140818192D01*
X180131203Y-140818296D01*
X180192006Y-140828394D01*
X180242833Y-140862272D01*
X180261315Y-140918429D01*
X180240888Y-140970247D01*
X180191786Y-141004680D01*
X180137254Y-141028286D01*
X180081357Y-141049148D01*
X179948586Y-141107180D01*
X179922135Y-141117777D01*
X179861887Y-141148251D01*
X179810714Y-141184965D01*
X179769452Y-141228602D01*
X179738942Y-141279846D01*
X179720021Y-141339381D01*
X179713527Y-141407892D01*
X179263143Y-141407892D01*
X179249503Y-141392943D01*
X179190373Y-141362756D01*
X179129396Y-141353963D01*
X179077876Y-141360117D01*
X179016722Y-141387441D01*
X178970735Y-141432963D01*
X178942531Y-141492669D01*
X178934490Y-141552093D01*
X175432403Y-141552093D01*
X175450887Y-141526635D01*
X175486833Y-141455838D01*
X175513503Y-141375511D01*
X175525733Y-141316707D01*
X175533245Y-141253731D01*
X175535802Y-141186608D01*
X175535158Y-141152060D01*
X175530091Y-141085901D01*
X175520180Y-141023712D01*
X175516236Y-141009288D01*
X178934490Y-141009288D01*
X178940106Y-141059163D01*
X178965557Y-141120200D01*
X179009163Y-141167521D01*
X179068310Y-141197297D01*
X179129396Y-141205952D01*
X179180818Y-141199895D01*
X179241941Y-141172938D01*
X179287970Y-141127889D01*
X179316236Y-141068577D01*
X179324302Y-141009288D01*
X179318668Y-140959297D01*
X179293158Y-140897819D01*
X179249503Y-140849931D01*
X179190373Y-140819682D01*
X179129396Y-140810865D01*
X179077876Y-140817037D01*
X179016722Y-140844435D01*
X178970735Y-140890051D01*
X178942531Y-140949836D01*
X178934490Y-141009288D01*
X175516236Y-141009288D01*
X175496743Y-140938007D01*
X175463719Y-140861587D01*
X175421895Y-140794666D01*
X175372059Y-140737456D01*
X175314996Y-140690170D01*
X175251494Y-140653021D01*
X175182339Y-140626223D01*
X175108319Y-140609988D01*
X175030219Y-140604528D01*
X174989785Y-140606296D01*
X174927564Y-140616435D01*
X174871525Y-140634216D01*
X174811986Y-140663450D01*
X174760330Y-140698758D01*
X174709284Y-140744040D01*
X174845279Y-140899085D01*
X174863191Y-140881725D01*
X174911886Y-140846100D01*
X174971111Y-140824031D01*
X175030219Y-140818192D01*
X175056552Y-140819774D01*
X175118083Y-140837215D01*
X175172141Y-140873045D01*
X175217071Y-140926173D01*
X175245329Y-140980394D01*
X175265836Y-141044425D01*
X175277743Y-141117706D01*
X175280519Y-141178401D01*
X175280264Y-141199256D01*
X175274128Y-141277038D01*
X175259826Y-141345474D01*
X175237373Y-141404121D01*
X175197874Y-141462987D01*
X175145702Y-141504999D01*
X175080889Y-141529292D01*
X175019961Y-141535387D01*
X174966498Y-141528778D01*
X174912690Y-141501681D01*
X174912690Y-141312637D01*
X175072131Y-141312637D01*
X175072131Y-141110990D01*
X174690819Y-141110990D01*
X174478035Y-141110990D01*
X174478035Y-140642044D01*
X174089689Y-140642044D01*
X174067625Y-140642304D01*
X174003297Y-140646325D01*
X173942327Y-140655554D01*
X173885436Y-140670428D01*
X173817174Y-140699802D01*
X173759159Y-140741034D01*
X173713099Y-140795165D01*
X173680706Y-140863235D01*
X173666409Y-140924062D01*
X173661482Y-140993754D01*
X173218328Y-140993754D01*
X173218328Y-140850432D01*
X173473611Y-140850432D01*
X173473611Y-140642044D01*
X172714211Y-140642044D01*
X172714211Y-140850432D01*
X172467710Y-140850432D01*
X172433400Y-140787137D01*
X172390965Y-140731811D01*
X172341831Y-140686291D01*
X172286492Y-140650689D01*
X172225440Y-140625120D01*
X172159168Y-140609695D01*
X172088168Y-140604528D01*
X172040285Y-140606828D01*
X171972333Y-140618845D01*
X171909460Y-140641046D01*
X171852155Y-140673316D01*
X171800907Y-140715542D01*
X171756203Y-140767613D01*
X171718532Y-140829413D01*
X171688382Y-140900831D01*
X171666242Y-140981754D01*
X171656173Y-141040927D01*
X171650026Y-141104240D01*
X171647944Y-141171660D01*
X170045010Y-141171660D01*
X170008881Y-141117841D01*
X169981460Y-141055788D01*
X169972048Y-140996978D01*
X169972792Y-140977969D01*
X169986838Y-140920360D01*
X170023641Y-140872132D01*
X170081075Y-140843585D01*
X170147023Y-140835484D01*
X170208206Y-140844529D01*
X170263893Y-140868714D01*
X170314855Y-140903615D01*
X170361859Y-140944808D01*
X170494630Y-140811744D01*
X170463549Y-140781552D01*
X170411474Y-140737748D01*
X170357789Y-140702122D01*
X170301032Y-140674715D01*
X170239740Y-140655568D01*
X170172450Y-140644720D01*
X170113318Y-140642044D01*
X170092563Y-140642436D01*
X170032941Y-140648225D01*
X169960173Y-140666270D01*
X169895970Y-140695429D01*
X169841292Y-140734954D01*
X169797097Y-140784096D01*
X169764342Y-140842107D01*
X169743986Y-140908236D01*
X169736988Y-140981737D01*
X169741723Y-141032649D01*
X169761793Y-141101327D01*
X169795837Y-141170674D01*
X169829395Y-141222967D01*
X169868937Y-141275380D01*
X169913659Y-141327803D01*
X169962757Y-141380125D01*
X170015427Y-141432236D01*
X170070864Y-141484027D01*
X170128265Y-141535387D01*
X170122556Y-141534755D01*
X170061559Y-141528709D01*
X169998453Y-141524020D01*
X169935118Y-141521905D01*
X169681594Y-141521905D01*
X169441594Y-141521905D01*
X169386158Y-141444822D01*
X169359279Y-141465954D01*
X169309577Y-141499026D01*
X169255945Y-141525293D01*
X169197759Y-141542619D01*
X169134392Y-141548869D01*
X169090760Y-141546254D01*
X169032830Y-141532612D01*
X168979015Y-141502175D01*
X168939524Y-141448602D01*
X168927763Y-141385617D01*
X168931509Y-141348275D01*
X168954759Y-141294337D01*
X169003759Y-141250948D01*
X169062623Y-141229428D01*
X169122376Y-141223538D01*
X169128901Y-141223577D01*
X169191268Y-141229890D01*
X169248129Y-141249112D01*
X169302334Y-141276587D01*
X169411364Y-141206831D01*
X169382934Y-140660802D01*
X168729340Y-140660802D01*
X168729340Y-140869190D01*
X169169563Y-140869190D01*
X169188028Y-141075819D01*
X169165857Y-141068004D01*
X169106689Y-141054285D01*
X169047051Y-141050614D01*
X169028697Y-141050919D01*
X168957384Y-141058296D01*
X168890690Y-141075663D01*
X168830287Y-141103210D01*
X168777848Y-141141125D01*
X168735046Y-141189598D01*
X168703554Y-141248817D01*
X168685044Y-141318971D01*
X168680687Y-141378876D01*
X168535630Y-141378876D01*
X168535630Y-139505905D01*
X168675704Y-139505905D01*
X168675704Y-139714000D01*
X169477016Y-139714000D01*
X169477016Y-139573023D01*
X169448655Y-139549118D01*
X169393777Y-139502602D01*
X169341484Y-139457757D01*
X169299261Y-139420908D01*
X169688335Y-139420908D01*
X169693418Y-139474653D01*
X169714986Y-139538976D01*
X169751618Y-139594637D01*
X169801309Y-139641333D01*
X169862052Y-139678763D01*
X169931843Y-139706623D01*
X169988916Y-139721057D01*
X170049103Y-139729811D01*
X170111559Y-139732757D01*
X170161750Y-139731190D01*
X170224536Y-139724406D01*
X170282595Y-139712580D01*
X170348524Y-139691248D01*
X170407067Y-139663283D01*
X170458227Y-139629375D01*
X170509870Y-139581815D01*
X170395565Y-139424425D01*
X170368092Y-139447093D01*
X170315701Y-139481914D01*
X170258702Y-139509020D01*
X170198127Y-139526606D01*
X170135006Y-139532869D01*
X170124247Y-139532735D01*
X170064125Y-139526410D01*
X170005626Y-139507449D01*
X169953912Y-139465709D01*
X169935118Y-139405667D01*
X169935333Y-139396844D01*
X169954645Y-139334366D01*
X170002602Y-139292717D01*
X170058470Y-139271255D01*
X170117987Y-139259465D01*
X170192019Y-139252750D01*
X170257812Y-139251208D01*
X170257812Y-139155660D01*
X171647944Y-139155660D01*
X171648468Y-139190658D01*
X171652600Y-139257462D01*
X171660727Y-139319990D01*
X171680088Y-139405709D01*
X171707622Y-139481662D01*
X171742840Y-139547767D01*
X171785254Y-139603935D01*
X171834375Y-139650083D01*
X171889715Y-139686125D01*
X171950786Y-139711975D01*
X172017100Y-139727547D01*
X172088168Y-139732757D01*
X172136002Y-139730440D01*
X172203905Y-139718312D01*
X172266752Y-139695878D01*
X172324050Y-139663224D01*
X172375307Y-139620436D01*
X172420030Y-139567598D01*
X172457726Y-139504796D01*
X172487903Y-139432116D01*
X172510068Y-139349643D01*
X172520150Y-139289263D01*
X172526306Y-139224593D01*
X172528391Y-139155660D01*
X172527867Y-139121439D01*
X172523728Y-139056068D01*
X172515591Y-138994821D01*
X172496206Y-138910755D01*
X172468645Y-138836156D01*
X172467710Y-138834432D01*
X172714211Y-138834432D01*
X172969787Y-138834432D01*
X172969787Y-139505905D01*
X172714211Y-139505905D01*
X172714211Y-139714000D01*
X173473611Y-139714000D01*
X173473611Y-139505905D01*
X173218328Y-139505905D01*
X173218328Y-138977754D01*
X173661482Y-138977754D01*
X173662053Y-139001328D01*
X173670373Y-139067122D01*
X173687988Y-139125631D01*
X173724559Y-139192543D01*
X173774353Y-139247061D01*
X173835487Y-139289506D01*
X173906073Y-139320197D01*
X173964083Y-139335693D01*
X174025553Y-139344892D01*
X174089689Y-139347928D01*
X174230959Y-139347928D01*
X174230959Y-139714000D01*
X174478035Y-139714000D01*
X174478035Y-139094990D01*
X174690819Y-139094990D01*
X174690819Y-139600280D01*
X174737910Y-139638082D01*
X174794900Y-139672465D01*
X174848666Y-139696840D01*
X174907034Y-139715904D01*
X174968971Y-139728322D01*
X175033443Y-139732757D01*
X175085356Y-139730498D01*
X175160104Y-139718677D01*
X175230392Y-139696812D01*
X175295416Y-139664991D01*
X175354376Y-139623297D01*
X175406467Y-139571816D01*
X175432403Y-139536093D01*
X178934490Y-139536093D01*
X178940106Y-139586066D01*
X178965557Y-139647134D01*
X179009163Y-139694412D01*
X179068310Y-139724127D01*
X179129396Y-139732757D01*
X179180818Y-139726719D01*
X179241941Y-139699836D01*
X179287970Y-139654882D01*
X179316236Y-139595648D01*
X179324302Y-139536386D01*
X179318668Y-139486298D01*
X179293158Y-139424789D01*
X179249503Y-139376943D01*
X179190373Y-139346756D01*
X179129396Y-139337963D01*
X179077876Y-139344117D01*
X179016722Y-139371441D01*
X178970735Y-139416963D01*
X178942531Y-139476669D01*
X178934490Y-139536093D01*
X175432403Y-139536093D01*
X175450887Y-139510635D01*
X175486833Y-139439838D01*
X175513503Y-139359511D01*
X175525733Y-139300707D01*
X175533245Y-139237731D01*
X175535802Y-139170608D01*
X175535158Y-139136060D01*
X175530091Y-139069901D01*
X175520180Y-139007712D01*
X175516236Y-138993288D01*
X178934490Y-138993288D01*
X178940106Y-139043163D01*
X178965557Y-139104200D01*
X179009163Y-139151521D01*
X179068310Y-139181297D01*
X179129396Y-139189952D01*
X179180818Y-139183895D01*
X179223573Y-139165039D01*
X179691545Y-139165039D01*
X179692152Y-139199415D01*
X179696947Y-139264724D01*
X179706379Y-139325469D01*
X179728859Y-139408094D01*
X179760846Y-139480619D01*
X179801781Y-139543145D01*
X179851109Y-139595773D01*
X179908273Y-139638605D01*
X179972716Y-139671742D01*
X180043883Y-139695286D01*
X180121218Y-139709338D01*
X180204162Y-139714000D01*
X180521580Y-139714000D01*
X180521580Y-139391892D01*
X180719417Y-139391892D01*
X180726522Y-139459132D01*
X180747572Y-139522432D01*
X180782168Y-139580244D01*
X180829912Y-139631018D01*
X180890406Y-139673205D01*
X180943903Y-139698279D01*
X181004180Y-139716998D01*
X181071068Y-139728709D01*
X181144399Y-139732757D01*
X181172180Y-139732130D01*
X181241608Y-139725091D01*
X181310325Y-139710300D01*
X181377485Y-139687828D01*
X181442244Y-139657751D01*
X181503756Y-139620142D01*
X181561175Y-139575074D01*
X181418440Y-139403909D01*
X181402765Y-139416411D01*
X181353145Y-139450639D01*
X181300155Y-139479116D01*
X181244468Y-139500778D01*
X181186757Y-139514557D01*
X181127693Y-139519387D01*
X181108522Y-139518916D01*
X181044985Y-139508230D01*
X180994208Y-139477870D01*
X180973234Y-139422667D01*
X180985077Y-139373533D01*
X181030580Y-139330968D01*
X181088528Y-139302723D01*
X181142934Y-139279931D01*
X181283911Y-139218675D01*
X181306724Y-139209466D01*
X181361626Y-139181231D01*
X181411660Y-139145238D01*
X181454546Y-139101099D01*
X181488002Y-139048425D01*
X181509749Y-138986825D01*
X181517505Y-138915912D01*
X181515597Y-138882096D01*
X181500743Y-138817785D01*
X181472074Y-138758940D01*
X181430677Y-138706802D01*
X181377636Y-138662615D01*
X181314037Y-138627623D01*
X181240965Y-138603069D01*
X181180597Y-138592251D01*
X181115969Y-138588528D01*
X181091083Y-138589118D01*
X181029192Y-138595695D01*
X180968380Y-138609440D01*
X180909420Y-138630200D01*
X180853083Y-138657820D01*
X180800141Y-138692146D01*
X180751364Y-138733023D01*
X180877393Y-138890413D01*
X180891503Y-138880197D01*
X180947696Y-138845146D01*
X181006684Y-138819993D01*
X181063941Y-138806731D01*
X181129452Y-138802192D01*
X181137093Y-138802296D01*
X181197896Y-138812394D01*
X181248723Y-138846272D01*
X181267205Y-138902429D01*
X181246777Y-138954247D01*
X181197676Y-138988680D01*
X181143144Y-139012286D01*
X181087247Y-139033148D01*
X180954476Y-139091180D01*
X180928024Y-139101777D01*
X180867777Y-139132251D01*
X180816604Y-139168965D01*
X180775342Y-139212602D01*
X180744832Y-139263846D01*
X180725910Y-139323381D01*
X180719417Y-139391892D01*
X180521580Y-139391892D01*
X180521580Y-138626044D01*
X180219110Y-138626044D01*
X180160586Y-138628005D01*
X180077982Y-138638388D01*
X180002025Y-138657877D01*
X179933197Y-138686666D01*
X179871980Y-138724951D01*
X179818858Y-138772928D01*
X179774312Y-138830793D01*
X179738825Y-138898741D01*
X179712880Y-138976968D01*
X179701123Y-139034926D01*
X179693963Y-139097597D01*
X179691545Y-139165039D01*
X179223573Y-139165039D01*
X179241941Y-139156938D01*
X179287970Y-139111889D01*
X179316236Y-139052577D01*
X179324302Y-138993288D01*
X179318668Y-138943297D01*
X179293158Y-138881819D01*
X179249503Y-138833931D01*
X179190373Y-138803682D01*
X179129396Y-138794865D01*
X179077876Y-138801037D01*
X179016722Y-138828435D01*
X178970735Y-138874051D01*
X178942531Y-138933836D01*
X178934490Y-138993288D01*
X175516236Y-138993288D01*
X175496743Y-138922007D01*
X175463719Y-138845587D01*
X175421895Y-138778666D01*
X175372059Y-138721456D01*
X175314996Y-138674170D01*
X175251494Y-138637021D01*
X175182339Y-138610223D01*
X175108319Y-138593988D01*
X175030219Y-138588528D01*
X174989785Y-138590296D01*
X174927564Y-138600435D01*
X174871525Y-138618216D01*
X174811986Y-138647450D01*
X174760330Y-138682758D01*
X174709284Y-138728040D01*
X174845279Y-138883085D01*
X174863191Y-138865725D01*
X174911886Y-138830100D01*
X174971111Y-138808031D01*
X175030219Y-138802192D01*
X175056552Y-138803774D01*
X175118083Y-138821215D01*
X175172141Y-138857045D01*
X175217071Y-138910173D01*
X175245329Y-138964394D01*
X175265836Y-139028425D01*
X175277743Y-139101706D01*
X175280519Y-139162401D01*
X175280264Y-139183256D01*
X175274128Y-139261038D01*
X175259826Y-139329474D01*
X175237373Y-139388121D01*
X175197874Y-139446987D01*
X175145702Y-139488999D01*
X175080889Y-139513292D01*
X175019961Y-139519387D01*
X174966498Y-139512778D01*
X174912690Y-139485681D01*
X174912690Y-139296637D01*
X175072131Y-139296637D01*
X175072131Y-139094990D01*
X174690819Y-139094990D01*
X174478035Y-139094990D01*
X174478035Y-138626044D01*
X174089689Y-138626044D01*
X174067625Y-138626304D01*
X174003297Y-138630325D01*
X173942327Y-138639554D01*
X173885436Y-138654428D01*
X173817174Y-138683802D01*
X173759159Y-138725034D01*
X173713099Y-138779165D01*
X173680706Y-138847235D01*
X173666409Y-138908062D01*
X173661482Y-138977754D01*
X173218328Y-138977754D01*
X173218328Y-138834432D01*
X173473611Y-138834432D01*
X173473611Y-138626044D01*
X172714211Y-138626044D01*
X172714211Y-138834432D01*
X172467710Y-138834432D01*
X172433400Y-138771137D01*
X172390965Y-138715811D01*
X172341831Y-138670291D01*
X172286492Y-138634689D01*
X172225440Y-138609120D01*
X172159168Y-138593695D01*
X172088168Y-138588528D01*
X172040285Y-138590828D01*
X171972333Y-138602845D01*
X171909460Y-138625046D01*
X171852155Y-138657316D01*
X171800907Y-138699542D01*
X171756203Y-138751613D01*
X171718532Y-138813413D01*
X171688382Y-138884831D01*
X171666242Y-138965754D01*
X171656173Y-139024927D01*
X171650026Y-139088240D01*
X171647944Y-139155660D01*
X170257812Y-139155660D01*
X170257812Y-139076233D01*
X170238499Y-139076069D01*
X170168838Y-139072218D01*
X170098074Y-139060605D01*
X170035392Y-139037545D01*
X169985910Y-138993141D01*
X169970582Y-138935549D01*
X169976796Y-138897738D01*
X170012934Y-138850149D01*
X170069955Y-138825531D01*
X170128265Y-138819484D01*
X170136107Y-138819586D01*
X170196073Y-138827500D01*
X170252455Y-138847257D01*
X170307152Y-138877758D01*
X170355118Y-138912394D01*
X170479682Y-138762332D01*
X170459922Y-138746939D01*
X170408810Y-138711928D01*
X170355251Y-138682244D01*
X170299244Y-138658351D01*
X170240791Y-138640711D01*
X170179890Y-138629788D01*
X170116542Y-138626044D01*
X170095017Y-138626354D01*
X170033091Y-138630964D01*
X169957324Y-138645512D01*
X169890302Y-138669367D01*
X169833086Y-138702211D01*
X169786737Y-138743724D01*
X169752316Y-138793587D01*
X169730886Y-138851480D01*
X169723506Y-138917084D01*
X169723727Y-138927264D01*
X169737318Y-138993169D01*
X169770937Y-139049943D01*
X169814577Y-139091592D01*
X169870922Y-139126985D01*
X169926912Y-139151850D01*
X169926912Y-139158591D01*
X169866364Y-139179034D01*
X169811966Y-139207105D01*
X169765400Y-139242792D01*
X169722231Y-139295649D01*
X169695675Y-139359430D01*
X169688335Y-139420908D01*
X169299261Y-139420908D01*
X169291931Y-139414511D01*
X169245271Y-139372798D01*
X169201656Y-139332548D01*
X169142281Y-139274765D01*
X169090621Y-139219889D01*
X169047194Y-139167686D01*
X169002991Y-139101841D01*
X168975571Y-139039788D01*
X168966158Y-138980978D01*
X168966903Y-138961969D01*
X168980949Y-138904360D01*
X169017751Y-138856132D01*
X169075185Y-138827585D01*
X169141133Y-138819484D01*
X169202316Y-138828529D01*
X169258004Y-138852714D01*
X169308965Y-138887615D01*
X169355969Y-138928808D01*
X169488740Y-138795744D01*
X169457659Y-138765552D01*
X169405584Y-138721748D01*
X169351899Y-138686122D01*
X169295142Y-138658715D01*
X169233850Y-138639568D01*
X169166560Y-138628720D01*
X169107428Y-138626044D01*
X169086673Y-138626436D01*
X169027052Y-138632225D01*
X168954283Y-138650270D01*
X168890081Y-138679429D01*
X168835403Y-138718954D01*
X168791207Y-138768096D01*
X168758452Y-138826107D01*
X168738097Y-138892236D01*
X168731099Y-138965737D01*
X168735833Y-139016649D01*
X168755903Y-139085327D01*
X168789947Y-139154674D01*
X168823505Y-139206967D01*
X168863047Y-139259380D01*
X168907769Y-139311803D01*
X168956867Y-139364125D01*
X169009537Y-139416236D01*
X169064975Y-139468027D01*
X169122376Y-139519387D01*
X169116667Y-139518755D01*
X169055669Y-139512709D01*
X168992563Y-139508020D01*
X168929228Y-139505905D01*
X168675704Y-139505905D01*
X168535630Y-139505905D01*
X168535630Y-138455195D01*
X181771884Y-138455195D01*
X181771884Y-143898090D01*
G37*
D12*
%TO.C,G\u002A\u002A\u002A*%
G36*
X99418983Y-103432994D02*
G01*
X99430266Y-103438249D01*
X99484110Y-103475450D01*
X99516730Y-103525822D01*
X99531388Y-103594039D01*
X99531551Y-103596045D01*
X99524731Y-103665394D01*
X99493304Y-103724314D01*
X99437952Y-103771510D01*
X99394086Y-103790520D01*
X99329410Y-103797447D01*
X99265747Y-103784025D01*
X99210218Y-103752065D01*
X99169943Y-103703377D01*
X99153769Y-103665443D01*
X99144120Y-103599419D01*
X99155959Y-103538208D01*
X99185901Y-103485486D01*
X99230559Y-103444927D01*
X99286550Y-103420209D01*
X99350486Y-103415006D01*
X99418983Y-103432994D01*
G37*
G36*
X99047534Y-105709651D02*
G01*
X99259424Y-105709756D01*
X99493697Y-105709949D01*
X99751481Y-105710221D01*
X100033904Y-105710565D01*
X100342091Y-105710972D01*
X102890159Y-105714423D01*
X102893656Y-106329590D01*
X102897153Y-106944757D01*
X100328780Y-106944757D01*
X97760408Y-106944757D01*
X97760408Y-106348968D01*
X97760425Y-106298615D01*
X97760724Y-106155457D01*
X97761434Y-106036697D01*
X97762607Y-105940440D01*
X97764294Y-105864790D01*
X97766547Y-105807852D01*
X97769417Y-105767730D01*
X97772956Y-105742528D01*
X97777215Y-105730350D01*
X97777796Y-105729647D01*
X97781633Y-105726946D01*
X97788690Y-105724479D01*
X97800095Y-105722236D01*
X97816975Y-105720209D01*
X97840458Y-105718390D01*
X97871669Y-105716770D01*
X97911738Y-105715340D01*
X97961790Y-105714093D01*
X98022954Y-105713019D01*
X98096356Y-105712109D01*
X98183124Y-105711357D01*
X98284384Y-105710752D01*
X98401265Y-105710287D01*
X98534893Y-105709953D01*
X98686396Y-105709741D01*
X98856900Y-105709644D01*
X99047534Y-105709651D01*
G37*
G36*
X101444320Y-98953732D02*
G01*
X101470186Y-98988952D01*
X101513446Y-99021573D01*
X101578355Y-99056507D01*
X101646091Y-99095277D01*
X101724751Y-99155153D01*
X101790494Y-99222051D01*
X101836582Y-99289882D01*
X101853717Y-99321570D01*
X101872348Y-99344645D01*
X101877274Y-99346853D01*
X101896674Y-99355548D01*
X101936185Y-99361062D01*
X102002705Y-99367785D01*
X102012211Y-99472641D01*
X102013424Y-99486945D01*
X102015704Y-99558475D01*
X102008973Y-99607049D01*
X101992627Y-99634915D01*
X101966061Y-99644321D01*
X101946328Y-99644906D01*
X101904038Y-99646181D01*
X101854796Y-99647683D01*
X101774119Y-99650156D01*
X101764978Y-99797889D01*
X101762085Y-99848972D01*
X101759845Y-99900030D01*
X101759069Y-99935487D01*
X101759944Y-99949728D01*
X101763526Y-99946670D01*
X101783373Y-99926670D01*
X101819385Y-99889280D01*
X101870209Y-99835935D01*
X101934491Y-99768071D01*
X102010875Y-99687124D01*
X102098009Y-99594531D01*
X102194538Y-99491726D01*
X102299109Y-99380146D01*
X102410366Y-99261227D01*
X102526955Y-99136405D01*
X102593431Y-99065211D01*
X102708044Y-98942622D01*
X102816973Y-98826311D01*
X102918814Y-98717766D01*
X103012162Y-98618477D01*
X103095612Y-98529933D01*
X103167759Y-98453625D01*
X103227200Y-98391040D01*
X103272529Y-98343670D01*
X103302342Y-98313003D01*
X103315235Y-98300528D01*
X103315766Y-98300142D01*
X103327507Y-98293171D01*
X103334812Y-98295844D01*
X103338732Y-98312472D01*
X103340314Y-98347368D01*
X103340609Y-98404844D01*
X103340609Y-98527608D01*
X102559211Y-99363953D01*
X102477337Y-99451631D01*
X102362092Y-99575213D01*
X102252855Y-99692544D01*
X102151002Y-99802137D01*
X102057908Y-99902505D01*
X101974947Y-99992163D01*
X101903494Y-100069624D01*
X101844924Y-100133401D01*
X101800611Y-100182009D01*
X101771932Y-100213960D01*
X101760259Y-100227768D01*
X101758364Y-100232489D01*
X101754477Y-100252849D01*
X101750357Y-100288876D01*
X101745935Y-100341816D01*
X101741140Y-100412915D01*
X101739559Y-100440230D01*
X101735903Y-100503418D01*
X101730154Y-100614572D01*
X101723823Y-100747621D01*
X101716840Y-100903812D01*
X101709135Y-101084390D01*
X101700638Y-101290601D01*
X101693792Y-101458979D01*
X101687016Y-101625371D01*
X101680485Y-101785529D01*
X101674303Y-101936874D01*
X101668577Y-102076827D01*
X101663412Y-102202807D01*
X101658914Y-102312235D01*
X101655188Y-102402532D01*
X101652340Y-102471118D01*
X101650476Y-102515413D01*
X101649686Y-102535223D01*
X101647787Y-102605650D01*
X101647460Y-102667453D01*
X101648680Y-102714557D01*
X101651421Y-102740886D01*
X101652956Y-102746213D01*
X101657041Y-102756159D01*
X101663976Y-102768329D01*
X101674899Y-102783943D01*
X101690945Y-102804218D01*
X101713250Y-102830372D01*
X101718432Y-102836173D01*
X101742950Y-102863622D01*
X101781181Y-102905186D01*
X101829079Y-102956281D01*
X101887780Y-103018126D01*
X101958421Y-103091937D01*
X102042136Y-103178934D01*
X102140063Y-103280332D01*
X102253337Y-103397350D01*
X102383094Y-103531207D01*
X102530471Y-103683118D01*
X102625365Y-103781108D01*
X102731437Y-103891131D01*
X102830585Y-103994495D01*
X102921324Y-104089627D01*
X103002173Y-104174954D01*
X103071649Y-104248904D01*
X103128266Y-104309905D01*
X103170544Y-104356383D01*
X103196998Y-104386767D01*
X103206146Y-104399485D01*
X103203903Y-104407922D01*
X103187507Y-104434263D01*
X103160429Y-104465265D01*
X103145255Y-104479575D01*
X103116587Y-104502101D01*
X103097602Y-104510982D01*
X103096709Y-104510982D01*
X103092901Y-104510664D01*
X103088142Y-104508877D01*
X103081165Y-104504346D01*
X103070702Y-104495794D01*
X103055487Y-104481947D01*
X103034251Y-104461527D01*
X103005728Y-104433258D01*
X102968650Y-104395865D01*
X102921750Y-104348071D01*
X102863761Y-104288601D01*
X102793415Y-104216178D01*
X102709444Y-104129526D01*
X102610583Y-104027369D01*
X102495562Y-103908432D01*
X102363115Y-103771438D01*
X102346501Y-103754254D01*
X102207566Y-103610671D01*
X102086194Y-103485480D01*
X101981462Y-103377747D01*
X101892445Y-103286538D01*
X101818218Y-103210919D01*
X101757856Y-103149954D01*
X101710436Y-103102710D01*
X101675032Y-103068253D01*
X101650720Y-103045647D01*
X101636576Y-103033959D01*
X101631675Y-103032253D01*
X101630778Y-103046536D01*
X101628857Y-103084180D01*
X101626083Y-103141600D01*
X101622627Y-103215231D01*
X101618658Y-103301508D01*
X101614345Y-103396866D01*
X101610330Y-103481721D01*
X101604559Y-103585728D01*
X101598859Y-103665562D01*
X101593086Y-103722844D01*
X101587096Y-103759194D01*
X101580746Y-103776235D01*
X101572886Y-103782927D01*
X101547879Y-103791999D01*
X101505128Y-103797822D01*
X101440082Y-103801203D01*
X101316945Y-103805053D01*
X101313179Y-103976881D01*
X101309413Y-104148708D01*
X101131655Y-104144959D01*
X100953896Y-104141210D01*
X100947173Y-103973132D01*
X100940450Y-103805053D01*
X100449661Y-103801306D01*
X100339369Y-103800656D01*
X100233281Y-103800414D01*
X100137937Y-103800585D01*
X100056566Y-103801144D01*
X99992397Y-103802070D01*
X99948660Y-103803340D01*
X99928584Y-103804932D01*
X99917128Y-103810218D01*
X99888397Y-103838113D01*
X99857391Y-103884784D01*
X99833098Y-103925448D01*
X99769025Y-104010680D01*
X99695460Y-104077091D01*
X99606538Y-104130424D01*
X99571801Y-104147157D01*
X99527637Y-104165433D01*
X99486614Y-104176404D01*
X99438722Y-104182462D01*
X99373949Y-104185999D01*
X99277680Y-104184595D01*
X99154940Y-104163911D01*
X99047095Y-104120976D01*
X98953471Y-104055395D01*
X98873393Y-103966775D01*
X98806186Y-103854721D01*
X98805017Y-103852340D01*
X98783282Y-103803810D01*
X98769797Y-103760071D01*
X98762131Y-103710567D01*
X98757856Y-103644743D01*
X98757147Y-103623227D01*
X98757269Y-103592602D01*
X99062040Y-103592602D01*
X99069384Y-103669586D01*
X99097734Y-103741770D01*
X99146585Y-103804574D01*
X99215430Y-103853424D01*
X99261175Y-103870009D01*
X99334394Y-103879095D01*
X99410163Y-103872764D01*
X99477326Y-103851116D01*
X99535656Y-103811254D01*
X99585507Y-103750454D01*
X99616765Y-103678319D01*
X99627957Y-103600376D01*
X99617615Y-103522151D01*
X99584268Y-103449172D01*
X99532396Y-103389076D01*
X99464335Y-103343722D01*
X99388722Y-103319921D01*
X99310259Y-103318390D01*
X99233650Y-103339846D01*
X99163597Y-103385008D01*
X99112400Y-103442534D01*
X99076210Y-103515392D01*
X99062040Y-103592602D01*
X98757269Y-103592602D01*
X98757390Y-103562044D01*
X98760606Y-103508400D01*
X98766323Y-103471935D01*
X98769045Y-103461728D01*
X98775318Y-103433267D01*
X98775562Y-103421835D01*
X98771784Y-103425249D01*
X98751916Y-103445499D01*
X98716745Y-103482202D01*
X98668176Y-103533344D01*
X98608114Y-103596912D01*
X98538465Y-103670892D01*
X98461133Y-103753269D01*
X98378025Y-103842030D01*
X98363879Y-103857157D01*
X98242907Y-103986389D01*
X98138753Y-104097372D01*
X98050100Y-104191443D01*
X97975633Y-104269939D01*
X97914036Y-104334195D01*
X97863994Y-104385549D01*
X97824192Y-104425335D01*
X97793314Y-104454891D01*
X97770044Y-104475553D01*
X97753067Y-104488656D01*
X97741068Y-104495539D01*
X97732730Y-104497536D01*
X97726275Y-104496858D01*
X97695571Y-104483236D01*
X97662753Y-104457969D01*
X97636612Y-104428801D01*
X97625945Y-104403479D01*
X97627929Y-104399545D01*
X97645149Y-104377431D01*
X97679028Y-104337794D01*
X97728318Y-104282005D01*
X97791772Y-104211431D01*
X97868142Y-104127442D01*
X97956178Y-104031408D01*
X98054635Y-103924697D01*
X98162262Y-103808679D01*
X98277814Y-103684723D01*
X98400041Y-103554198D01*
X98474062Y-103475254D01*
X98589168Y-103352211D01*
X98698277Y-103235237D01*
X98800008Y-103125831D01*
X98865308Y-103055356D01*
X99127390Y-103055356D01*
X99144078Y-103053919D01*
X99182350Y-103038739D01*
X99192408Y-103034054D01*
X99218698Y-103013560D01*
X99226051Y-102985007D01*
X99225548Y-102970443D01*
X99219048Y-102957621D01*
X99200093Y-102964161D01*
X99198052Y-102965324D01*
X99171944Y-102987203D01*
X99145393Y-103018419D01*
X99130072Y-103041833D01*
X99127390Y-103055356D01*
X98865308Y-103055356D01*
X98892976Y-103025495D01*
X98975799Y-102935728D01*
X99046697Y-102858464D01*
X99387456Y-102858464D01*
X99388613Y-102890867D01*
X99400524Y-102948618D01*
X99423227Y-102985007D01*
X99428311Y-102993156D01*
X99475644Y-103029168D01*
X99546188Y-103061342D01*
X99603541Y-103085744D01*
X99660682Y-103114215D01*
X99704740Y-103140389D01*
X99712986Y-103146219D01*
X99789595Y-103217741D01*
X99851409Y-103308680D01*
X99896166Y-103414946D01*
X99921603Y-103532447D01*
X99929984Y-103600376D01*
X99932011Y-103616805D01*
X100680035Y-103620279D01*
X101428058Y-103623753D01*
X101436113Y-103526155D01*
X101436768Y-103517640D01*
X101439730Y-103468638D01*
X101443066Y-103399897D01*
X101446532Y-103317129D01*
X101449886Y-103226047D01*
X101452884Y-103132365D01*
X101461599Y-102836173D01*
X101187578Y-102553438D01*
X101137967Y-102502222D01*
X101042204Y-102403246D01*
X100939278Y-102296748D01*
X100835662Y-102189430D01*
X100737833Y-102087998D01*
X100652264Y-101999154D01*
X100643534Y-101990094D01*
X100575399Y-101920233D01*
X100512815Y-101857507D01*
X100458365Y-101804399D01*
X100414633Y-101763390D01*
X100384202Y-101736965D01*
X100369656Y-101727605D01*
X100368195Y-101727908D01*
X100350098Y-101740594D01*
X100317658Y-101769745D01*
X100273972Y-101812357D01*
X100222138Y-101865422D01*
X100165254Y-101925937D01*
X100117106Y-101977949D01*
X100045268Y-102055229D01*
X99963789Y-102142610D01*
X99877526Y-102234894D01*
X99791334Y-102326879D01*
X99710071Y-102413364D01*
X99693537Y-102430956D01*
X99624065Y-102505420D01*
X99560220Y-102574702D01*
X99504583Y-102635941D01*
X99459736Y-102686277D01*
X99428262Y-102722850D01*
X99412742Y-102742798D01*
X99395258Y-102785612D01*
X99387456Y-102858464D01*
X99046697Y-102858464D01*
X99047093Y-102858032D01*
X99105476Y-102793906D01*
X99149565Y-102744850D01*
X99177977Y-102712365D01*
X99189328Y-102697952D01*
X99192694Y-102687762D01*
X99195959Y-102661351D01*
X99196643Y-102619793D01*
X99194686Y-102560188D01*
X99190027Y-102479637D01*
X99182606Y-102375242D01*
X99180903Y-102352554D01*
X99174998Y-102273471D01*
X99167509Y-102172715D01*
X99158715Y-102054055D01*
X99148894Y-101921263D01*
X99138325Y-101778112D01*
X99127287Y-101628373D01*
X99116059Y-101475817D01*
X99104920Y-101324217D01*
X99097476Y-101223992D01*
X99087084Y-101087885D01*
X99077070Y-100961003D01*
X99067651Y-100845861D01*
X99059043Y-100744973D01*
X99051462Y-100660853D01*
X99045123Y-100596016D01*
X99040244Y-100552977D01*
X99037040Y-100534249D01*
X99033090Y-100525456D01*
X99030153Y-100522001D01*
X99217457Y-100522001D01*
X99217972Y-100533034D01*
X99220303Y-100568887D01*
X99224338Y-100627537D01*
X99229925Y-100706872D01*
X99236914Y-100804781D01*
X99245151Y-100919152D01*
X99254487Y-101047873D01*
X99264769Y-101188832D01*
X99275846Y-101339918D01*
X99287566Y-101499018D01*
X99298018Y-101640256D01*
X99309407Y-101793408D01*
X99320150Y-101937084D01*
X99330081Y-102069116D01*
X99339037Y-102187337D01*
X99346850Y-102289578D01*
X99353357Y-102373671D01*
X99358393Y-102437447D01*
X99361792Y-102478739D01*
X99363390Y-102495379D01*
X99364825Y-102496083D01*
X99380778Y-102484969D01*
X99413626Y-102455059D01*
X99462524Y-102407204D01*
X99526626Y-102342258D01*
X99605086Y-102261074D01*
X99697059Y-102164503D01*
X99801698Y-102053400D01*
X99828298Y-102024991D01*
X99931353Y-101914228D01*
X100020480Y-101817252D01*
X100094870Y-101734973D01*
X100153718Y-101668303D01*
X100196215Y-101618155D01*
X100221554Y-101585439D01*
X100228927Y-101571067D01*
X100222680Y-101563529D01*
X100511689Y-101563529D01*
X100511897Y-101571067D01*
X100512193Y-101581834D01*
X100530058Y-101610175D01*
X100567261Y-101651733D01*
X100585804Y-101670917D01*
X100623868Y-101710259D01*
X100675823Y-101763933D01*
X100738978Y-101829162D01*
X100810646Y-101903170D01*
X100888137Y-101983178D01*
X100968763Y-102066409D01*
X100972621Y-102070390D01*
X101079019Y-102179680D01*
X101175251Y-102277510D01*
X101260131Y-102362724D01*
X101332476Y-102434163D01*
X101391101Y-102490672D01*
X101434823Y-102531093D01*
X101462457Y-102554268D01*
X101472819Y-102559040D01*
X101473326Y-102552223D01*
X101474906Y-102521295D01*
X101477382Y-102467724D01*
X101480652Y-102393985D01*
X101484615Y-102302555D01*
X101489168Y-102195908D01*
X101494211Y-102076521D01*
X101499642Y-101946868D01*
X101505360Y-101809427D01*
X101511264Y-101666671D01*
X101517251Y-101521077D01*
X101523221Y-101375120D01*
X101529071Y-101231276D01*
X101534701Y-101092021D01*
X101540010Y-100959829D01*
X101544895Y-100837177D01*
X101549255Y-100726541D01*
X101552989Y-100630395D01*
X101555996Y-100551215D01*
X101558173Y-100491477D01*
X101559420Y-100453657D01*
X101559635Y-100440230D01*
X101558265Y-100441196D01*
X101542797Y-100456469D01*
X101511747Y-100488597D01*
X101467095Y-100535457D01*
X101410823Y-100594928D01*
X101344911Y-100664885D01*
X101271340Y-100743208D01*
X101192090Y-100827772D01*
X101109143Y-100916456D01*
X101024478Y-101007136D01*
X100940078Y-101097690D01*
X100857921Y-101185996D01*
X100779990Y-101269930D01*
X100708265Y-101347370D01*
X100644727Y-101416194D01*
X100591356Y-101474279D01*
X100550133Y-101519501D01*
X100523039Y-101549739D01*
X100512055Y-101562870D01*
X100511689Y-101563529D01*
X100222680Y-101563529D01*
X100220069Y-101560379D01*
X100194581Y-101532524D01*
X100154562Y-101489787D01*
X100102082Y-101434314D01*
X100039209Y-101368250D01*
X99968012Y-101293741D01*
X99890561Y-101212934D01*
X99808923Y-101127972D01*
X99725167Y-101041004D01*
X99641364Y-100954174D01*
X99559581Y-100869627D01*
X99481887Y-100789511D01*
X99410351Y-100715970D01*
X99347043Y-100651150D01*
X99294030Y-100597198D01*
X99253383Y-100556258D01*
X99227169Y-100530478D01*
X99217457Y-100522001D01*
X99030153Y-100522001D01*
X99026384Y-100517567D01*
X99014050Y-100511896D01*
X98992545Y-100508076D01*
X98958323Y-100505741D01*
X98907841Y-100504527D01*
X98837555Y-100504067D01*
X98743920Y-100503994D01*
X98728523Y-100503988D01*
X98634309Y-100503559D01*
X98563307Y-100502303D01*
X98512298Y-100500014D01*
X98478062Y-100496484D01*
X98457381Y-100491505D01*
X98447035Y-100484871D01*
X98446565Y-100484257D01*
X98440890Y-100466356D01*
X98437007Y-100429832D01*
X98434837Y-100372627D01*
X98434296Y-100292684D01*
X98435304Y-100187947D01*
X98435668Y-100163960D01*
X98437241Y-100075975D01*
X98438255Y-100040098D01*
X98587353Y-100040098D01*
X98587353Y-100172308D01*
X98587579Y-100214376D01*
X98589296Y-100262538D01*
X98593531Y-100293030D01*
X98601260Y-100311496D01*
X98613454Y-100323579D01*
X98635014Y-100332867D01*
X98683320Y-100340235D01*
X98756355Y-100342639D01*
X98767869Y-100342608D01*
X98831158Y-100340260D01*
X98871978Y-100332468D01*
X98894067Y-100316839D01*
X98901158Y-100290978D01*
X98896989Y-100252489D01*
X98896518Y-100250018D01*
X98878215Y-100187688D01*
X98846615Y-100135004D01*
X98795884Y-100082140D01*
X98768126Y-100058175D01*
X98740258Y-100041140D01*
X98709497Y-100035165D01*
X98663913Y-100036088D01*
X98587353Y-100040098D01*
X98438255Y-100040098D01*
X98439094Y-100010395D01*
X98441598Y-99963578D01*
X98445124Y-99931880D01*
X98450043Y-99911660D01*
X98456726Y-99899275D01*
X98465545Y-99891082D01*
X98497121Y-99877653D01*
X98536806Y-99872020D01*
X98553073Y-99871557D01*
X98572415Y-99866354D01*
X98571213Y-99853577D01*
X98562664Y-99843599D01*
X98536881Y-99815787D01*
X98495889Y-99772428D01*
X98441610Y-99715505D01*
X98375968Y-99647004D01*
X98300884Y-99568906D01*
X98218280Y-99483198D01*
X98130079Y-99391861D01*
X98038203Y-99296880D01*
X97944574Y-99200240D01*
X97851115Y-99103923D01*
X97759747Y-99009914D01*
X97672394Y-98920197D01*
X97590977Y-98836755D01*
X97517418Y-98761572D01*
X97453640Y-98696633D01*
X97401564Y-98643921D01*
X97363114Y-98605419D01*
X97340212Y-98583112D01*
X97276342Y-98523387D01*
X97276342Y-98404374D01*
X97276622Y-98379406D01*
X97279031Y-98331149D01*
X97283383Y-98297805D01*
X97289038Y-98285360D01*
X97289962Y-98285382D01*
X97294584Y-98286305D01*
X97300908Y-98289486D01*
X97310146Y-98296148D01*
X97323509Y-98307510D01*
X97342210Y-98324795D01*
X97367459Y-98349225D01*
X97400468Y-98382020D01*
X97442450Y-98424403D01*
X97494616Y-98477595D01*
X97558178Y-98542817D01*
X97634347Y-98621291D01*
X97724335Y-98714238D01*
X97829353Y-98822880D01*
X97950615Y-98948439D01*
X98089330Y-99092136D01*
X98108450Y-99111938D01*
X98222850Y-99230091D01*
X98332264Y-99342557D01*
X98435179Y-99447813D01*
X98530080Y-99544334D01*
X98615453Y-99630593D01*
X98689785Y-99705067D01*
X98751560Y-99766230D01*
X98799266Y-99812557D01*
X98831386Y-99842524D01*
X98846408Y-99854606D01*
X98848291Y-99855409D01*
X98888618Y-99866499D01*
X98933594Y-99871413D01*
X98984018Y-99872020D01*
X98984018Y-99778658D01*
X98983999Y-99771006D01*
X98981673Y-99720408D01*
X98972630Y-99685262D01*
X98952841Y-99662779D01*
X98918282Y-99650173D01*
X98864925Y-99644653D01*
X98788744Y-99643433D01*
X98778889Y-99643408D01*
X98774977Y-99643290D01*
X99158819Y-99643290D01*
X99159580Y-99713955D01*
X99160119Y-99733764D01*
X99162519Y-99784464D01*
X99166462Y-99851736D01*
X99171563Y-99929184D01*
X99177438Y-100010414D01*
X99194534Y-100236209D01*
X99253895Y-100290978D01*
X99307778Y-100340693D01*
X99312239Y-100344808D01*
X99383189Y-100410170D01*
X99437031Y-100459334D01*
X99476254Y-100494266D01*
X99503345Y-100516930D01*
X99520793Y-100529292D01*
X99531086Y-100533317D01*
X99536711Y-100530969D01*
X99540158Y-100524214D01*
X99543232Y-100520181D01*
X99552477Y-100515881D01*
X99569867Y-100512458D01*
X99597746Y-100509841D01*
X99638457Y-100507962D01*
X99694343Y-100506751D01*
X99767748Y-100506140D01*
X99861013Y-100506058D01*
X99976483Y-100506438D01*
X100116500Y-100507210D01*
X100684971Y-100510718D01*
X100688746Y-100675434D01*
X100688836Y-100679406D01*
X100689948Y-100742224D01*
X100690303Y-100793946D01*
X100689903Y-100829308D01*
X100688746Y-100843051D01*
X100682451Y-100843607D01*
X100652625Y-100844736D01*
X100601173Y-100846145D01*
X100531270Y-100847760D01*
X100446088Y-100849512D01*
X100348802Y-100851328D01*
X100242585Y-100853136D01*
X99800199Y-100860321D01*
X100073465Y-101142692D01*
X100091821Y-101161632D01*
X100160746Y-101232235D01*
X100223469Y-101295699D01*
X100277510Y-101349569D01*
X100320387Y-101391389D01*
X100349621Y-101418703D01*
X100362730Y-101429055D01*
X100363573Y-101429052D01*
X100379500Y-101418515D01*
X100410165Y-101391499D01*
X100452504Y-101350927D01*
X100503457Y-101299722D01*
X100559960Y-101240807D01*
X100589489Y-101209475D01*
X100715165Y-101075926D01*
X100837256Y-100945873D01*
X100954408Y-100820774D01*
X101065268Y-100702090D01*
X101168484Y-100591280D01*
X101262703Y-100489803D01*
X101346571Y-100399118D01*
X101418736Y-100320684D01*
X101477844Y-100255961D01*
X101522542Y-100206408D01*
X101551478Y-100173485D01*
X101563299Y-100158650D01*
X101567179Y-100141690D01*
X101571547Y-100101234D01*
X101575532Y-100042944D01*
X101578810Y-99971651D01*
X101581060Y-99892189D01*
X101585871Y-99650156D01*
X100372345Y-99646723D01*
X99158819Y-99643290D01*
X98774977Y-99643290D01*
X98708070Y-99641272D01*
X98660172Y-99635834D01*
X98637104Y-99627298D01*
X98632081Y-99619013D01*
X98624112Y-99587599D01*
X98620969Y-99545832D01*
X98619006Y-99509542D01*
X98606948Y-99469503D01*
X98579076Y-99428371D01*
X98572111Y-99419300D01*
X98539025Y-99355803D01*
X98536516Y-99339482D01*
X98981427Y-99339482D01*
X98981500Y-99343572D01*
X98985930Y-99347112D01*
X98996451Y-99350141D01*
X99014796Y-99352698D01*
X99042699Y-99354823D01*
X99081893Y-99356556D01*
X99134112Y-99357936D01*
X99201088Y-99359003D01*
X99284556Y-99359798D01*
X99386250Y-99360359D01*
X99507902Y-99360726D01*
X99651245Y-99360939D01*
X99818015Y-99361038D01*
X100009943Y-99361062D01*
X100045148Y-99361057D01*
X100208571Y-99360897D01*
X100363733Y-99360526D01*
X100508565Y-99359963D01*
X100640996Y-99359224D01*
X100758955Y-99358327D01*
X100860373Y-99357291D01*
X100943179Y-99356132D01*
X101005303Y-99354868D01*
X101044675Y-99353517D01*
X101059225Y-99352098D01*
X101061486Y-99346995D01*
X101065222Y-99320004D01*
X101067386Y-99277088D01*
X101067999Y-99228669D01*
X101433638Y-99228669D01*
X101433831Y-99281826D01*
X101437962Y-99354339D01*
X101542170Y-99358266D01*
X101599397Y-99358886D01*
X101634856Y-99355176D01*
X101646379Y-99346853D01*
X101637415Y-99328183D01*
X101609526Y-99297713D01*
X101566816Y-99260648D01*
X101513483Y-99220962D01*
X101494267Y-99208352D01*
X101461548Y-99193695D01*
X101442108Y-99199880D01*
X101434606Y-99225379D01*
X101433638Y-99228669D01*
X101067999Y-99228669D01*
X101068041Y-99225379D01*
X101067249Y-99172007D01*
X101065071Y-99124106D01*
X101061570Y-99088808D01*
X101056807Y-99073243D01*
X101054587Y-99072231D01*
X101030557Y-99066929D01*
X100987620Y-99060690D01*
X100931474Y-99054037D01*
X100867822Y-99047493D01*
X100802362Y-99041580D01*
X100740797Y-99036822D01*
X100688826Y-99033740D01*
X100652151Y-99032858D01*
X100636470Y-99034698D01*
X100635513Y-99035867D01*
X100627632Y-99057656D01*
X100622060Y-99092136D01*
X100617739Y-99139198D01*
X100180736Y-99139198D01*
X99743732Y-99139198D01*
X99739436Y-99101787D01*
X99735090Y-99079566D01*
X99722181Y-99069047D01*
X99692374Y-99071315D01*
X99680304Y-99073279D01*
X99638754Y-99080066D01*
X99583246Y-99089153D01*
X99522394Y-99099130D01*
X99488136Y-99105115D01*
X99368447Y-99131890D01*
X99258284Y-99165493D01*
X99161118Y-99204390D01*
X99080420Y-99247050D01*
X99019661Y-99291941D01*
X98982310Y-99337531D01*
X98981427Y-99339482D01*
X98536516Y-99339482D01*
X98529095Y-99291201D01*
X98541476Y-99230329D01*
X98575319Y-99178020D01*
X98629776Y-99139110D01*
X98633702Y-99137313D01*
X98697989Y-99122478D01*
X98765002Y-99130009D01*
X98824917Y-99158908D01*
X98863383Y-99187347D01*
X98949297Y-99126039D01*
X98999898Y-99092037D01*
X99120076Y-99027038D01*
X99252129Y-98977056D01*
X99400324Y-98940645D01*
X99568931Y-98916361D01*
X99619951Y-98910764D01*
X99672559Y-98904247D01*
X99710180Y-98898704D01*
X99717017Y-98897165D01*
X99891641Y-98897165D01*
X99891641Y-98944227D01*
X99891641Y-98991289D01*
X100184097Y-98994913D01*
X100476554Y-98998537D01*
X100476554Y-98944227D01*
X100476554Y-98889918D01*
X100184097Y-98893542D01*
X99891641Y-98897165D01*
X99717017Y-98897165D01*
X99726924Y-98894935D01*
X99729659Y-98891058D01*
X99734920Y-98866869D01*
X99737009Y-98829614D01*
X99737857Y-98805307D01*
X99745485Y-98773623D01*
X99763382Y-98756258D01*
X99771575Y-98753855D01*
X99807641Y-98749951D01*
X99869563Y-98747167D01*
X99956670Y-98745520D01*
X100068289Y-98745025D01*
X100203747Y-98745700D01*
X100617739Y-98749256D01*
X100624463Y-98803042D01*
X100631186Y-98856827D01*
X100800658Y-98865046D01*
X100869962Y-98868930D01*
X100934305Y-98873487D01*
X100986116Y-98878129D01*
X101018225Y-98882287D01*
X101022680Y-98883114D01*
X101052437Y-98886415D01*
X101065553Y-98878228D01*
X101070616Y-98853899D01*
X101074913Y-98816488D01*
X101249714Y-98816488D01*
X101424516Y-98816488D01*
X101428730Y-98883719D01*
X101431595Y-98911000D01*
X101441490Y-98944227D01*
X101444320Y-98953732D01*
G37*
G36*
X112957708Y-101890693D02*
G01*
X113105812Y-102135591D01*
X113254210Y-102381073D01*
X113402002Y-102625652D01*
X113548289Y-102867838D01*
X113692170Y-103106143D01*
X113832745Y-103339079D01*
X113969114Y-103565156D01*
X114100378Y-103782887D01*
X114225636Y-103990782D01*
X114343989Y-104187354D01*
X114454536Y-104371113D01*
X114532150Y-104500257D01*
X114556378Y-104540571D01*
X114648614Y-104694239D01*
X114730344Y-104830629D01*
X114800670Y-104948253D01*
X114858689Y-105045621D01*
X114903503Y-105121245D01*
X114934212Y-105173637D01*
X114949916Y-105201308D01*
X114960511Y-105225369D01*
X114978384Y-105298864D01*
X114986052Y-105386894D01*
X114983555Y-105478912D01*
X114970936Y-105564368D01*
X114948234Y-105632715D01*
X114915220Y-105688820D01*
X114837351Y-105778056D01*
X114740539Y-105849778D01*
X114631969Y-105897959D01*
X114622425Y-105898706D01*
X114583028Y-105899769D01*
X114514706Y-105900781D01*
X114418852Y-105901737D01*
X114296860Y-105902635D01*
X114150123Y-105903470D01*
X113980037Y-105904239D01*
X113787994Y-105904938D01*
X113575387Y-105905565D01*
X113343611Y-105906114D01*
X113094060Y-105906584D01*
X112828127Y-105906969D01*
X112547205Y-105907268D01*
X112252689Y-105907475D01*
X111945972Y-105907588D01*
X111628448Y-105907603D01*
X111301511Y-105907516D01*
X110966553Y-105907324D01*
X107340215Y-105904693D01*
X107262061Y-105863265D01*
X107180742Y-105810483D01*
X107094518Y-105727650D01*
X107031766Y-105632715D01*
X107020975Y-105606684D01*
X107002516Y-105529843D01*
X106994156Y-105440337D01*
X106995936Y-105348713D01*
X107007898Y-105265521D01*
X107030083Y-105201308D01*
X107037595Y-105187859D01*
X107062359Y-105145260D01*
X107101592Y-105078829D01*
X107154393Y-104990053D01*
X107219862Y-104880422D01*
X107297100Y-104751423D01*
X107385206Y-104604546D01*
X107434461Y-104522550D01*
X110601820Y-104522550D01*
X110612969Y-104620324D01*
X110649447Y-104713448D01*
X110710822Y-104797102D01*
X110796661Y-104866466D01*
X110871210Y-104898333D01*
X110960002Y-104913905D01*
X111047421Y-104910045D01*
X111086938Y-104901140D01*
X111184910Y-104859241D01*
X111264127Y-104794717D01*
X111321911Y-104711055D01*
X111355581Y-104611739D01*
X111362459Y-104500257D01*
X111360597Y-104479023D01*
X111334633Y-104374180D01*
X111283885Y-104285703D01*
X111211393Y-104216650D01*
X111120197Y-104170080D01*
X111013338Y-104149052D01*
X110965606Y-104147533D01*
X110882412Y-104156535D01*
X110810878Y-104184767D01*
X110740055Y-104235701D01*
X110724674Y-104249520D01*
X110657240Y-104332328D01*
X110616433Y-104424945D01*
X110601820Y-104522550D01*
X107434461Y-104522550D01*
X107483281Y-104441278D01*
X107590424Y-104263109D01*
X107705736Y-104071527D01*
X107828317Y-103868021D01*
X107957267Y-103654079D01*
X108091685Y-103431190D01*
X108230672Y-103200842D01*
X108373327Y-102964523D01*
X108518752Y-102723724D01*
X108666045Y-102479931D01*
X108814307Y-102234634D01*
X108962638Y-101989321D01*
X109110138Y-101745481D01*
X109173618Y-101640582D01*
X110631058Y-101640582D01*
X110632606Y-101790646D01*
X110636926Y-101964841D01*
X110644017Y-102161750D01*
X110653875Y-102379954D01*
X110658691Y-102480998D01*
X110665516Y-102633818D01*
X110672165Y-102792815D01*
X110678264Y-102948642D01*
X110683437Y-103091949D01*
X110687309Y-103213389D01*
X110690084Y-103304284D01*
X110694485Y-103415973D01*
X110700046Y-103502840D01*
X110707703Y-103568737D01*
X110718394Y-103617515D01*
X110733057Y-103653024D01*
X110752628Y-103679117D01*
X110778045Y-103699643D01*
X110810246Y-103718453D01*
X110892805Y-103750314D01*
X110987824Y-103763214D01*
X111081470Y-103754606D01*
X111165967Y-103725270D01*
X111233543Y-103675986D01*
X111279044Y-103628494D01*
X111290255Y-103266039D01*
X111290503Y-103258080D01*
X111294389Y-103143315D01*
X111299494Y-103006113D01*
X111305488Y-102854605D01*
X111312041Y-102696925D01*
X111318825Y-102541208D01*
X111325509Y-102395585D01*
X111331922Y-102254180D01*
X111340741Y-102028948D01*
X111346434Y-101833551D01*
X111349001Y-101668198D01*
X111348442Y-101533104D01*
X111344756Y-101428479D01*
X111337944Y-101354534D01*
X111328003Y-101311483D01*
X111311487Y-101281410D01*
X111262778Y-101225971D01*
X111199426Y-101178361D01*
X111131891Y-101147334D01*
X111104200Y-101140486D01*
X111018432Y-101130772D01*
X110927375Y-101133055D01*
X110848108Y-101147334D01*
X110811797Y-101161478D01*
X110745218Y-101202537D01*
X110688464Y-101255457D01*
X110651996Y-101311483D01*
X110643075Y-101349362D01*
X110636290Y-101418522D01*
X110632285Y-101516068D01*
X110631058Y-101640582D01*
X109173618Y-101640582D01*
X109255907Y-101504603D01*
X109399044Y-101268174D01*
X109538651Y-101037683D01*
X109673827Y-100814620D01*
X109803671Y-100600472D01*
X109927285Y-100396729D01*
X110043768Y-100204878D01*
X110152220Y-100026409D01*
X110251741Y-99862809D01*
X110341431Y-99715568D01*
X110420391Y-99586174D01*
X110487720Y-99476115D01*
X110542518Y-99386881D01*
X110583885Y-99319960D01*
X110610921Y-99276840D01*
X110622727Y-99259009D01*
X110643470Y-99236868D01*
X110701986Y-99188867D01*
X110766951Y-99149594D01*
X110818333Y-99126655D01*
X110864633Y-99113187D01*
X110917805Y-99106876D01*
X110990000Y-99105308D01*
X111061987Y-99106864D01*
X111115203Y-99113155D01*
X111161506Y-99126594D01*
X111213048Y-99149594D01*
X111243383Y-99166203D01*
X111307305Y-99211088D01*
X111357272Y-99259009D01*
X111362432Y-99266520D01*
X111383432Y-99299617D01*
X111419127Y-99357116D01*
X111468615Y-99437528D01*
X111530997Y-99539365D01*
X111605373Y-99661138D01*
X111690842Y-99801358D01*
X111786506Y-99958538D01*
X111891464Y-100131188D01*
X112004815Y-100317819D01*
X112125660Y-100516944D01*
X112253100Y-100727074D01*
X112386233Y-100946720D01*
X112524161Y-101174393D01*
X112665982Y-101408606D01*
X112810798Y-101647868D01*
X112823098Y-101668198D01*
X112957708Y-101890693D01*
G37*
G36*
X124716240Y-100464954D02*
G01*
X124851280Y-100661925D01*
X124974317Y-100869506D01*
X125082952Y-101083173D01*
X125174784Y-101298403D01*
X125247413Y-101510675D01*
X125284236Y-101643821D01*
X125342846Y-101917104D01*
X125379279Y-102190838D01*
X125393814Y-102463905D01*
X125393029Y-102493974D01*
X125386731Y-102735185D01*
X125358311Y-103003556D01*
X125308835Y-103267900D01*
X125238581Y-103527096D01*
X125147832Y-103780025D01*
X125036866Y-104025565D01*
X124905965Y-104262598D01*
X124755408Y-104490002D01*
X124585476Y-104706659D01*
X124396448Y-104911448D01*
X124201618Y-105092491D01*
X123993066Y-105257947D01*
X123772436Y-105405433D01*
X123537039Y-105536907D01*
X123365013Y-105619213D01*
X123150911Y-105706269D01*
X122933255Y-105777207D01*
X122708011Y-105833153D01*
X122471145Y-105875230D01*
X122218623Y-105904564D01*
X122210244Y-105905219D01*
X122160493Y-105907152D01*
X122093813Y-105907613D01*
X122014996Y-105906759D01*
X121928835Y-105904748D01*
X121840123Y-105901737D01*
X121753652Y-105897882D01*
X121674216Y-105893340D01*
X121606606Y-105888270D01*
X121555617Y-105882828D01*
X121541426Y-105880874D01*
X121262027Y-105830705D01*
X120991236Y-105759600D01*
X120729703Y-105667880D01*
X120478081Y-105555868D01*
X120237022Y-105423883D01*
X120007178Y-105272248D01*
X119789202Y-105101284D01*
X119583745Y-104911312D01*
X119549850Y-104877008D01*
X119439265Y-104759052D01*
X119343428Y-104646234D01*
X120275830Y-104646234D01*
X120279458Y-104649053D01*
X120298224Y-104663063D01*
X120328795Y-104685629D01*
X120366778Y-104713501D01*
X120444163Y-104768108D01*
X120656535Y-104898850D01*
X120879928Y-105009995D01*
X121112853Y-105100934D01*
X121353821Y-105171055D01*
X121601342Y-105219747D01*
X121622405Y-105222562D01*
X121681937Y-105228404D01*
X121755436Y-105233627D01*
X121837652Y-105238041D01*
X121923336Y-105241456D01*
X122007238Y-105243681D01*
X122084109Y-105244525D01*
X122148700Y-105243798D01*
X122195761Y-105241310D01*
X122365220Y-105221021D01*
X122613479Y-105174107D01*
X122851015Y-105107489D01*
X123079005Y-105020759D01*
X123298626Y-104913509D01*
X123511057Y-104785331D01*
X123534593Y-104769506D01*
X123691842Y-104653208D01*
X123845166Y-104522211D01*
X123988294Y-104382191D01*
X124114952Y-104238825D01*
X124156760Y-104185952D01*
X124294408Y-103988997D01*
X124415509Y-103778200D01*
X124518958Y-103556127D01*
X124603654Y-103325347D01*
X124668493Y-103088427D01*
X124712373Y-102847934D01*
X124718871Y-102785247D01*
X124723950Y-102698098D01*
X124726684Y-102599086D01*
X124727117Y-102493974D01*
X124725295Y-102388524D01*
X124721263Y-102288499D01*
X124715066Y-102199660D01*
X124706749Y-102127772D01*
X124690299Y-102030291D01*
X124632782Y-101780629D01*
X124554672Y-101540524D01*
X124456140Y-101310399D01*
X124337359Y-101090676D01*
X124198502Y-100881777D01*
X124183623Y-100861475D01*
X124158127Y-100826817D01*
X124139638Y-100801861D01*
X124131393Y-100790988D01*
X124130768Y-100791074D01*
X124118668Y-100800757D01*
X124092953Y-100824243D01*
X124055685Y-100859559D01*
X124008930Y-100904731D01*
X123954752Y-100957787D01*
X123895214Y-101016753D01*
X123663391Y-101247574D01*
X123929801Y-101247574D01*
X124196211Y-101247574D01*
X124196211Y-102112398D01*
X124196211Y-102453716D01*
X124196211Y-103659857D01*
X123821841Y-103656843D01*
X123447471Y-103653829D01*
X123444453Y-103290891D01*
X123441434Y-102927952D01*
X123170105Y-102927884D01*
X123072068Y-102927227D01*
X122952953Y-102923946D01*
X122850736Y-102917423D01*
X122762012Y-102907117D01*
X122683383Y-102892487D01*
X122611444Y-102872992D01*
X122542796Y-102848092D01*
X122474035Y-102817246D01*
X122425645Y-102790641D01*
X122369489Y-102754457D01*
X122321359Y-102718402D01*
X122250488Y-102659320D01*
X122171054Y-102739338D01*
X122034720Y-102876675D01*
X121818952Y-103094030D01*
X121815885Y-103373930D01*
X121812818Y-103653829D01*
X121532511Y-103656881D01*
X121252204Y-103659933D01*
X120761410Y-104150827D01*
X120756501Y-104155737D01*
X120669425Y-104243003D01*
X120587562Y-104325347D01*
X120512284Y-104401368D01*
X120444965Y-104469664D01*
X120386979Y-104528835D01*
X120339699Y-104577478D01*
X120304498Y-104614193D01*
X120282751Y-104637579D01*
X120275830Y-104646234D01*
X119343428Y-104646234D01*
X119339712Y-104641860D01*
X119245081Y-104517954D01*
X119149258Y-104379860D01*
X119018599Y-104166681D01*
X118895706Y-103925321D01*
X118793077Y-103675612D01*
X118710873Y-103419020D01*
X118649257Y-103157010D01*
X118608390Y-102891049D01*
X118588435Y-102622603D01*
X118589061Y-102471962D01*
X119252441Y-102471962D01*
X119253087Y-102587165D01*
X119256753Y-102698011D01*
X119263438Y-102798399D01*
X119273143Y-102882227D01*
X119308188Y-103071264D01*
X119373508Y-103317537D01*
X119459516Y-103554624D01*
X119565923Y-103781854D01*
X119692441Y-103998553D01*
X119838782Y-104204049D01*
X119854204Y-104223575D01*
X119880892Y-104256358D01*
X119900503Y-104279091D01*
X119909613Y-104287732D01*
X119909788Y-104287683D01*
X119920196Y-104278690D01*
X119944762Y-104255416D01*
X119981672Y-104219637D01*
X120029116Y-104173128D01*
X120085282Y-104117665D01*
X120148357Y-104055022D01*
X120216532Y-103986975D01*
X120517653Y-103685692D01*
X120472342Y-103678447D01*
X120469031Y-103677883D01*
X120415711Y-103662171D01*
X120353135Y-103634258D01*
X120287828Y-103597763D01*
X120226312Y-103556306D01*
X120175113Y-103513507D01*
X120119708Y-103454601D01*
X120039637Y-103343174D01*
X119976873Y-103217487D01*
X119931690Y-103078273D01*
X119904360Y-102926266D01*
X119895157Y-102762200D01*
X119895767Y-102748930D01*
X120576967Y-102748930D01*
X120577307Y-102824694D01*
X120581076Y-102896695D01*
X120588275Y-102958653D01*
X120598903Y-103004287D01*
X120600621Y-103009124D01*
X120635707Y-103082662D01*
X120681014Y-103139575D01*
X120734405Y-103177138D01*
X120770700Y-103191821D01*
X120846405Y-103207160D01*
X120920084Y-103203104D01*
X120988057Y-103180610D01*
X121046646Y-103140632D01*
X121092172Y-103084128D01*
X121117698Y-103031040D01*
X121140560Y-102950087D01*
X121152011Y-102853651D01*
X121152470Y-102739338D01*
X121148194Y-102676453D01*
X121131397Y-102575614D01*
X121102796Y-102494016D01*
X121062102Y-102431271D01*
X121009026Y-102386991D01*
X120943278Y-102360785D01*
X120864570Y-102352265D01*
X120813797Y-102355878D01*
X120742151Y-102376690D01*
X120682860Y-102416407D01*
X120635313Y-102475492D01*
X120598903Y-102554407D01*
X120596522Y-102561862D01*
X120586574Y-102611234D01*
X120580056Y-102675684D01*
X120576967Y-102748930D01*
X119895767Y-102748930D01*
X119902096Y-102611342D01*
X119925001Y-102462607D01*
X119963603Y-102328731D01*
X120017581Y-102210277D01*
X120086619Y-102107808D01*
X120170398Y-102021887D01*
X120268601Y-101953076D01*
X120380910Y-101901940D01*
X120397633Y-101896513D01*
X120469297Y-101880231D01*
X120552457Y-101869506D01*
X120638854Y-101864864D01*
X120720230Y-101866832D01*
X120788325Y-101875939D01*
X120887390Y-101907603D01*
X120983299Y-101958437D01*
X121066082Y-102024135D01*
X121132665Y-102088885D01*
X121132665Y-101668059D01*
X121132665Y-101247234D01*
X121472741Y-101250262D01*
X121812818Y-101253289D01*
X121818533Y-101816494D01*
X121824249Y-102379699D01*
X121938022Y-102265491D01*
X121960629Y-102242774D01*
X121998802Y-102203809D01*
X122024352Y-102175728D01*
X122028443Y-102170178D01*
X122770740Y-102170178D01*
X122772848Y-102184082D01*
X122789144Y-102222883D01*
X122824533Y-102266049D01*
X122872427Y-102302484D01*
X122927354Y-102327121D01*
X122942666Y-102331141D01*
X122985326Y-102338555D01*
X123043461Y-102344522D01*
X123119530Y-102349263D01*
X123215991Y-102352997D01*
X123441756Y-102359940D01*
X123441756Y-102112398D01*
X123441756Y-101864856D01*
X123244397Y-101864856D01*
X123047038Y-101864856D01*
X122905949Y-102006284D01*
X122859956Y-102052570D01*
X122821772Y-102091907D01*
X122795871Y-102120514D01*
X122780139Y-102141215D01*
X122772466Y-102156829D01*
X122770740Y-102170178D01*
X122028443Y-102170178D01*
X122039694Y-102154914D01*
X122047245Y-102137749D01*
X122049420Y-102120616D01*
X122048636Y-102099899D01*
X122048087Y-102085286D01*
X122051655Y-102016889D01*
X122063342Y-101937893D01*
X122081729Y-101856292D01*
X122105397Y-101780081D01*
X122116243Y-101751922D01*
X122176006Y-101633745D01*
X122252972Y-101529891D01*
X122346054Y-101441121D01*
X122454167Y-101368199D01*
X122576225Y-101311885D01*
X122711141Y-101272942D01*
X122857830Y-101252131D01*
X122959141Y-101244483D01*
X123368739Y-100834766D01*
X123431055Y-100772381D01*
X123513829Y-100689256D01*
X123582314Y-100620035D01*
X123637712Y-100563416D01*
X123681223Y-100518096D01*
X123714049Y-100482772D01*
X123737391Y-100456142D01*
X123752450Y-100436903D01*
X123760427Y-100423751D01*
X123762523Y-100415385D01*
X123759940Y-100410502D01*
X123651618Y-100326647D01*
X123554331Y-100255639D01*
X123462968Y-100194208D01*
X123372399Y-100139064D01*
X123277494Y-100086922D01*
X123173124Y-100034494D01*
X123005569Y-99959897D01*
X122802914Y-99887182D01*
X122591900Y-99830482D01*
X122367228Y-99788177D01*
X122333787Y-99783649D01*
X122242151Y-99775222D01*
X122136561Y-99769819D01*
X122023117Y-99767437D01*
X121907918Y-99768079D01*
X121797061Y-99771743D01*
X121696647Y-99778431D01*
X121612773Y-99788143D01*
X121592105Y-99791367D01*
X121340409Y-99842580D01*
X121098139Y-99914258D01*
X120865990Y-100006052D01*
X120644654Y-100117618D01*
X120434827Y-100248608D01*
X120237203Y-100398676D01*
X120052475Y-100567474D01*
X120038190Y-100581863D01*
X119870888Y-100767655D01*
X119722345Y-100966289D01*
X119592907Y-101177068D01*
X119482921Y-101399301D01*
X119392734Y-101632291D01*
X119322693Y-101875347D01*
X119273143Y-102127772D01*
X119268620Y-102161230D01*
X119260208Y-102252893D01*
X119254815Y-102358504D01*
X119252441Y-102471962D01*
X118589061Y-102471962D01*
X118589554Y-102353137D01*
X118611909Y-102084118D01*
X118655663Y-101817011D01*
X118720976Y-101553282D01*
X118808012Y-101294398D01*
X118875176Y-101131404D01*
X118997894Y-100881768D01*
X119139733Y-100644259D01*
X119300106Y-100419611D01*
X119478426Y-100208554D01*
X119674106Y-100011822D01*
X119886558Y-99830145D01*
X120115197Y-99664258D01*
X120239579Y-99585248D01*
X120478492Y-99453933D01*
X120726296Y-99343033D01*
X120981670Y-99252761D01*
X121243291Y-99183333D01*
X121509838Y-99134963D01*
X121779989Y-99107866D01*
X122052422Y-99102258D01*
X122325816Y-99118352D01*
X122598849Y-99156364D01*
X122870198Y-99216509D01*
X122925926Y-99231760D01*
X123182586Y-99316173D01*
X123433543Y-99422029D01*
X123676914Y-99548372D01*
X123910819Y-99694245D01*
X124133375Y-99858690D01*
X124155503Y-99876760D01*
X124235384Y-99946202D01*
X124322293Y-100027126D01*
X124411176Y-100114477D01*
X124496982Y-100203202D01*
X124574656Y-100288248D01*
X124639147Y-100364559D01*
X124678176Y-100415385D01*
X124716240Y-100464954D01*
G37*
G36*
X130702043Y-109540625D02*
G01*
X130809699Y-109569045D01*
X130907853Y-109625002D01*
X130959019Y-109664028D01*
X130963920Y-109604793D01*
X130968820Y-109545559D01*
X131095031Y-109545559D01*
X131221243Y-109545559D01*
X131225368Y-110172670D01*
X131229493Y-110799782D01*
X131095213Y-110799782D01*
X130960932Y-110799782D01*
X130960908Y-110385652D01*
X130960826Y-110302841D01*
X130960268Y-110192586D01*
X130958978Y-110107398D01*
X130956721Y-110043276D01*
X130953260Y-109996218D01*
X130948361Y-109962225D01*
X130941785Y-109937294D01*
X130933299Y-109917425D01*
X130908296Y-109878481D01*
X130848400Y-109825491D01*
X130775237Y-109796370D01*
X130695688Y-109793273D01*
X130616632Y-109818350D01*
X130554859Y-109850548D01*
X130463769Y-109739824D01*
X130461802Y-109737431D01*
X130418979Y-109683413D01*
X130395154Y-109647798D01*
X130387868Y-109626103D01*
X130394663Y-109613848D01*
X130482766Y-109566931D01*
X130591019Y-109539876D01*
X130702043Y-109540625D01*
G37*
G36*
X130480634Y-107584808D02*
G01*
X130573858Y-107637011D01*
X130643594Y-107690242D01*
X130648443Y-107631875D01*
X130653292Y-107573509D01*
X130783448Y-107568927D01*
X130913603Y-107564345D01*
X130913603Y-108196677D01*
X130913603Y-108829008D01*
X130783448Y-108824426D01*
X130653292Y-108819844D01*
X130645404Y-108385993D01*
X130644177Y-108319233D01*
X130641609Y-108197949D01*
X130638509Y-108102678D01*
X130634137Y-108029649D01*
X130627753Y-107975093D01*
X130618619Y-107935238D01*
X130605994Y-107906315D01*
X130589139Y-107884553D01*
X130567315Y-107866181D01*
X130539782Y-107847430D01*
X130497902Y-107829170D01*
X130429487Y-107818947D01*
X130357086Y-107823779D01*
X130294155Y-107843863D01*
X130244225Y-107869683D01*
X130183628Y-107800478D01*
X130158963Y-107771816D01*
X130120375Y-107725256D01*
X130092245Y-107689242D01*
X130061458Y-107647212D01*
X130114180Y-107614628D01*
X130166395Y-107587761D01*
X130269636Y-107559830D01*
X130376804Y-107558963D01*
X130480634Y-107584808D01*
G37*
G36*
X136277578Y-110168063D02*
G01*
X136277578Y-110799782D01*
X136151367Y-110799782D01*
X136025156Y-110799782D01*
X136025156Y-110392939D01*
X136025142Y-110338015D01*
X136024889Y-110225496D01*
X136024073Y-110138550D01*
X136022377Y-110072943D01*
X136019486Y-110024444D01*
X136015084Y-109988819D01*
X136008856Y-109961837D01*
X136000486Y-109939265D01*
X135989659Y-109916870D01*
X135954020Y-109865666D01*
X135891676Y-109817367D01*
X135818244Y-109792409D01*
X135740922Y-109792931D01*
X135666909Y-109821067D01*
X135616302Y-109851924D01*
X135528865Y-109746585D01*
X135512491Y-109726626D01*
X135476141Y-109680403D01*
X135450889Y-109645466D01*
X135441429Y-109628173D01*
X135449560Y-109618756D01*
X135479630Y-109599389D01*
X135524255Y-109576540D01*
X135558923Y-109562243D01*
X135665296Y-109538561D01*
X135772265Y-109542047D01*
X135873143Y-109571922D01*
X135961241Y-109627408D01*
X136023299Y-109680527D01*
X136028171Y-109613043D01*
X136033044Y-109545559D01*
X136155311Y-109540951D01*
X136277578Y-109536343D01*
X136277578Y-110168063D01*
G37*
G36*
X132053448Y-107568927D02*
G01*
X132183603Y-107573509D01*
X132183521Y-108038913D01*
X132183518Y-108055132D01*
X132183390Y-108185641D01*
X132182899Y-108288980D01*
X132181782Y-108369097D01*
X132179776Y-108429939D01*
X132176617Y-108475455D01*
X132172041Y-108509590D01*
X132165785Y-108536295D01*
X132157586Y-108559515D01*
X132147179Y-108583198D01*
X132124061Y-108627490D01*
X132052764Y-108719024D01*
X131961523Y-108786639D01*
X131852299Y-108828706D01*
X131777402Y-108839321D01*
X131668608Y-108829500D01*
X131563950Y-108791641D01*
X131469721Y-108727411D01*
X131434224Y-108696021D01*
X131434224Y-108761877D01*
X131434224Y-108827732D01*
X131308013Y-108827732D01*
X131181802Y-108827732D01*
X131181802Y-108196677D01*
X131181802Y-107565621D01*
X131307072Y-107565621D01*
X131432342Y-107565621D01*
X131437227Y-107987639D01*
X131437539Y-108014094D01*
X131439501Y-108146894D01*
X131442326Y-108252534D01*
X131446765Y-108334749D01*
X131453570Y-108397276D01*
X131463492Y-108443848D01*
X131477281Y-108478203D01*
X131495690Y-108504074D01*
X131519469Y-108525199D01*
X131549369Y-108545311D01*
X131577426Y-108558904D01*
X131644432Y-108573248D01*
X131718050Y-108572266D01*
X131786511Y-108556693D01*
X131838046Y-108527266D01*
X131858934Y-108506889D01*
X131878966Y-108482305D01*
X131894361Y-108453613D01*
X131905726Y-108416895D01*
X131913666Y-108368229D01*
X131918786Y-108303694D01*
X131921694Y-108219371D01*
X131922994Y-108111338D01*
X131923292Y-107975676D01*
X131923292Y-107564345D01*
X132053448Y-107568927D01*
G37*
G36*
X135778948Y-107561569D02*
G01*
X135869799Y-107578082D01*
X135949830Y-107608975D01*
X136009752Y-107652788D01*
X136033238Y-107675906D01*
X136057208Y-107689018D01*
X136069207Y-107673707D01*
X136072485Y-107628726D01*
X136072485Y-107565621D01*
X136198696Y-107565621D01*
X136324907Y-107565621D01*
X136324907Y-108196677D01*
X136324907Y-108827732D01*
X136200032Y-108827732D01*
X136075156Y-108827732D01*
X136069876Y-108405714D01*
X136068694Y-108314070D01*
X136067033Y-108207193D01*
X136065088Y-108125003D01*
X136062504Y-108063462D01*
X136058925Y-108018531D01*
X136053998Y-107986173D01*
X136047367Y-107962349D01*
X136038679Y-107943021D01*
X136027577Y-107924151D01*
X136005936Y-107893321D01*
X135953614Y-107846697D01*
X135887690Y-107823620D01*
X135801973Y-107821265D01*
X135720057Y-107837287D01*
X135658052Y-107874366D01*
X135609577Y-107936366D01*
X135609015Y-107937439D01*
X135602334Y-107967868D01*
X135596404Y-108029263D01*
X135591253Y-108121087D01*
X135586914Y-108242806D01*
X135583417Y-108393881D01*
X135575528Y-108819844D01*
X135444314Y-108824443D01*
X135313099Y-108829043D01*
X135318103Y-108359040D01*
X135318299Y-108340658D01*
X135319806Y-108209759D01*
X135321401Y-108105966D01*
X135323387Y-108025326D01*
X135326067Y-107963887D01*
X135329744Y-107917696D01*
X135334721Y-107882799D01*
X135341303Y-107855243D01*
X135349791Y-107831075D01*
X135360489Y-107806343D01*
X135369676Y-107787552D01*
X135426310Y-107704959D01*
X135500073Y-107634308D01*
X135581215Y-107585360D01*
X135601945Y-107577534D01*
X135686567Y-107560900D01*
X135778948Y-107561569D01*
G37*
G36*
X129645437Y-107568566D02*
G01*
X129759597Y-107606191D01*
X129863426Y-107665206D01*
X129950908Y-107743076D01*
X130016024Y-107837267D01*
X130047329Y-107912225D01*
X130077909Y-108038114D01*
X130090030Y-108174507D01*
X130083699Y-108312423D01*
X130058919Y-108442879D01*
X130015694Y-108556896D01*
X129952387Y-108649178D01*
X129864510Y-108729011D01*
X129759418Y-108789967D01*
X129643603Y-108827330D01*
X129558417Y-108839528D01*
X129467329Y-108836708D01*
X129371301Y-108814351D01*
X129342814Y-108804554D01*
X129253749Y-108763441D01*
X129171508Y-108711333D01*
X129108340Y-108655626D01*
X129108301Y-108655582D01*
X129091747Y-108635141D01*
X129089264Y-108618418D01*
X129103525Y-108596663D01*
X129137203Y-108561126D01*
X129159509Y-108539347D01*
X129200782Y-108503513D01*
X129232934Y-108480910D01*
X129251079Y-108472589D01*
X129275784Y-108473201D01*
X129304057Y-108496074D01*
X129341208Y-108525857D01*
X129419272Y-108560909D01*
X129508355Y-108575456D01*
X129599482Y-108568484D01*
X129683678Y-108538979D01*
X129711734Y-108521204D01*
X129769346Y-108460232D01*
X129810284Y-108378410D01*
X129833137Y-108280765D01*
X129836489Y-108172318D01*
X129818930Y-108058095D01*
X129805602Y-108012577D01*
X129762875Y-107925993D01*
X129702714Y-107865365D01*
X129623916Y-107829710D01*
X129525280Y-107818043D01*
X129461190Y-107822826D01*
X129371960Y-107850814D01*
X129301855Y-107903534D01*
X129263224Y-107945195D01*
X129169438Y-107859623D01*
X129075653Y-107774052D01*
X129114184Y-107732640D01*
X129125303Y-107721263D01*
X129200121Y-107661954D01*
X129292078Y-107610235D01*
X129389042Y-107573147D01*
X129410192Y-107567623D01*
X129526963Y-107554865D01*
X129645437Y-107568566D01*
G37*
G36*
X137564422Y-108101962D02*
G01*
X137568879Y-108235396D01*
X137555406Y-108366858D01*
X137523969Y-108490373D01*
X137474537Y-108599966D01*
X137407074Y-108689664D01*
X137382501Y-108713498D01*
X137324823Y-108758365D01*
X137258943Y-108791706D01*
X137173202Y-108820020D01*
X137168541Y-108821301D01*
X137056828Y-108837551D01*
X136938209Y-108831035D01*
X136821377Y-108803751D01*
X136715029Y-108757694D01*
X136627862Y-108694858D01*
X136559196Y-108629981D01*
X136650759Y-108555792D01*
X136670938Y-108539542D01*
X136711344Y-108508942D01*
X136737369Y-108494934D01*
X136755995Y-108494658D01*
X136774205Y-108505258D01*
X136808450Y-108528576D01*
X136902638Y-108573353D01*
X136996206Y-108592693D01*
X137084955Y-108587815D01*
X137164681Y-108559937D01*
X137231185Y-108510279D01*
X137280263Y-108440059D01*
X137307715Y-108350496D01*
X137316837Y-108291335D01*
X136923419Y-108291335D01*
X136530000Y-108291335D01*
X136530000Y-108183798D01*
X136530001Y-108182807D01*
X136538803Y-108041394D01*
X136798199Y-108041394D01*
X136798199Y-108086242D01*
X137058115Y-108086242D01*
X137318031Y-108086242D01*
X137308774Y-108034968D01*
X137291387Y-107970818D01*
X137250455Y-107893182D01*
X137194220Y-107837972D01*
X137153662Y-107817970D01*
X137077629Y-107802695D01*
X136997091Y-107807118D01*
X136924557Y-107831537D01*
X136886605Y-107860516D01*
X136842512Y-107915990D01*
X136810533Y-107980452D01*
X136798199Y-108041394D01*
X136538803Y-108041394D01*
X136538842Y-108040764D01*
X136564373Y-107915642D01*
X136605459Y-107813013D01*
X136614695Y-107796758D01*
X136685661Y-107705836D01*
X136774653Y-107635927D01*
X136876570Y-107587763D01*
X136986312Y-107562077D01*
X137098780Y-107559600D01*
X137208873Y-107581065D01*
X137311491Y-107627202D01*
X137401534Y-107698746D01*
X137443806Y-107749576D01*
X137501852Y-107853078D01*
X137542068Y-107972531D01*
X137561707Y-108086242D01*
X137564422Y-108101962D01*
G37*
G36*
X129000274Y-108080503D02*
G01*
X129008138Y-108202899D01*
X129004193Y-108321328D01*
X128987565Y-108426194D01*
X128955286Y-108525811D01*
X128894008Y-108636706D01*
X128811808Y-108724226D01*
X128709171Y-108787884D01*
X128586584Y-108827195D01*
X128566769Y-108830864D01*
X128433905Y-108838245D01*
X128301155Y-108817959D01*
X128178048Y-108771308D01*
X128156466Y-108759559D01*
X128103304Y-108725939D01*
X128056590Y-108690601D01*
X128023384Y-108659198D01*
X128010746Y-108637380D01*
X128010830Y-108636824D01*
X128023724Y-108620538D01*
X128054296Y-108590685D01*
X128096410Y-108553287D01*
X128182074Y-108480102D01*
X128239174Y-108518850D01*
X128303238Y-108555847D01*
X128395299Y-108584619D01*
X128498574Y-108588122D01*
X128575320Y-108575351D01*
X128640728Y-108544522D01*
X128662595Y-108525916D01*
X128707047Y-108468350D01*
X128739233Y-108400050D01*
X128751890Y-108334720D01*
X128752236Y-108291335D01*
X128364012Y-108291335D01*
X127975788Y-108291335D01*
X127982093Y-108113850D01*
X127982472Y-108103539D01*
X127983426Y-108086242D01*
X128229108Y-108086242D01*
X128490672Y-108086242D01*
X128752236Y-108086242D01*
X128752236Y-108043894D01*
X128746651Y-108005885D01*
X128722864Y-107943886D01*
X128686901Y-107884823D01*
X128645899Y-107842228D01*
X128645375Y-107841851D01*
X128589349Y-107817510D01*
X128508085Y-107805349D01*
X128489856Y-107804368D01*
X128435990Y-107805079D01*
X128396404Y-107814900D01*
X128357827Y-107836590D01*
X128319477Y-107869537D01*
X128270538Y-107942299D01*
X128239663Y-108034968D01*
X128229108Y-108086242D01*
X127983426Y-108086242D01*
X127987221Y-108017437D01*
X127994794Y-107953434D01*
X128006593Y-107902969D01*
X128024016Y-107857484D01*
X128088272Y-107751807D01*
X128175369Y-107665697D01*
X128281100Y-107602748D01*
X128401499Y-107566024D01*
X128434779Y-107561131D01*
X128557367Y-107561176D01*
X128672924Y-107588673D01*
X128776894Y-107641486D01*
X128864719Y-107717480D01*
X128931843Y-107814520D01*
X128952615Y-107862204D01*
X128981475Y-107963740D01*
X128994380Y-108043894D01*
X129000274Y-108080503D01*
G37*
G36*
X130363313Y-110090475D02*
G01*
X130364003Y-110176337D01*
X130362625Y-110241985D01*
X130353381Y-110354852D01*
X130333950Y-110448203D01*
X130302479Y-110529489D01*
X130257116Y-110606161D01*
X130205093Y-110668972D01*
X130111300Y-110741487D01*
X129994059Y-110793576D01*
X129951794Y-110804110D01*
X129857028Y-110813044D01*
X129752640Y-110808414D01*
X129650520Y-110791091D01*
X129562558Y-110761948D01*
X129532259Y-110746640D01*
X129482093Y-110715815D01*
X129434510Y-110681229D01*
X129395644Y-110647854D01*
X129371628Y-110620667D01*
X129368594Y-110604639D01*
X129368872Y-110604386D01*
X129384746Y-110590663D01*
X129417553Y-110562650D01*
X129460569Y-110526086D01*
X129545734Y-110453832D01*
X129591773Y-110492572D01*
X129646123Y-110526589D01*
X129722453Y-110555471D01*
X129802559Y-110571562D01*
X129872575Y-110570988D01*
X129956152Y-110543511D01*
X130027324Y-110492963D01*
X130078528Y-110424980D01*
X130104351Y-110344845D01*
X130113161Y-110279161D01*
X129722859Y-110279161D01*
X129332558Y-110279161D01*
X129338205Y-110101344D01*
X129338759Y-110084400D01*
X129339946Y-110058291D01*
X129589174Y-110058291D01*
X129851168Y-110058291D01*
X130113161Y-110058291D01*
X130104351Y-109992608D01*
X130094160Y-109947116D01*
X130056160Y-109873770D01*
X129997974Y-109819240D01*
X129924750Y-109786396D01*
X129841636Y-109778106D01*
X129753781Y-109797240D01*
X129738107Y-109804053D01*
X129674902Y-109851224D01*
X129626876Y-109920929D01*
X129598579Y-110007018D01*
X129589174Y-110058291D01*
X129339946Y-110058291D01*
X129342204Y-110008631D01*
X129347781Y-109953332D01*
X129357404Y-109909147D01*
X129372988Y-109866719D01*
X129396447Y-109816691D01*
X129452752Y-109724601D01*
X129536273Y-109638811D01*
X129636991Y-109579281D01*
X129754087Y-109546471D01*
X129886744Y-109540842D01*
X130000078Y-109558169D01*
X130107743Y-109601522D01*
X130197497Y-109670653D01*
X130269811Y-109765935D01*
X130325154Y-109887740D01*
X130334003Y-109913999D01*
X130349764Y-109970084D01*
X130359050Y-110025317D01*
X130361207Y-110058291D01*
X130363313Y-110090475D01*
G37*
G36*
X139979964Y-108335496D02*
G01*
X139963599Y-108450358D01*
X139934399Y-108545137D01*
X139890826Y-108624810D01*
X139831344Y-108694353D01*
X139795373Y-108726399D01*
X139691248Y-108791835D01*
X139576100Y-108828309D01*
X139474894Y-108837556D01*
X139352045Y-108824415D01*
X139238696Y-108785573D01*
X139139100Y-108723177D01*
X139057510Y-108639378D01*
X138998180Y-108536324D01*
X138989881Y-108513086D01*
X138972818Y-108435412D01*
X138961838Y-108338423D01*
X138956941Y-108230499D01*
X138957304Y-108196677D01*
X139219876Y-108196677D01*
X139219876Y-108197140D01*
X139221693Y-108303239D01*
X139228297Y-108383178D01*
X139241457Y-108442187D01*
X139262942Y-108485494D01*
X139294518Y-108518327D01*
X139337953Y-108545917D01*
X139384309Y-108564292D01*
X139463145Y-108575595D01*
X139541553Y-108567323D01*
X139607156Y-108539760D01*
X139639022Y-108516307D01*
X139675306Y-108479437D01*
X139699981Y-108434983D01*
X139715083Y-108377002D01*
X139722651Y-108299548D01*
X139724721Y-108196677D01*
X139723840Y-108124565D01*
X139718306Y-108039402D01*
X139705908Y-107975668D01*
X139684609Y-107927419D01*
X139652370Y-107888709D01*
X139607156Y-107853593D01*
X139600909Y-107849556D01*
X139528781Y-107821544D01*
X139449181Y-107817460D01*
X139370697Y-107835452D01*
X139301917Y-107873670D01*
X139251429Y-107930262D01*
X139246638Y-107938728D01*
X139234997Y-107965348D01*
X139227253Y-107998102D01*
X139222653Y-108043340D01*
X139220445Y-108107414D01*
X139219876Y-108196677D01*
X138957304Y-108196677D01*
X138958127Y-108120018D01*
X138965395Y-108015360D01*
X138978746Y-107924904D01*
X138998180Y-107857029D01*
X139006274Y-107839654D01*
X139036600Y-107787032D01*
X139072115Y-107736492D01*
X139099334Y-107705243D01*
X139188459Y-107633001D01*
X139291766Y-107584209D01*
X139403866Y-107559120D01*
X139519368Y-107557986D01*
X139632883Y-107581061D01*
X139739022Y-107628597D01*
X139832396Y-107700847D01*
X139837136Y-107705611D01*
X139894751Y-107775358D01*
X139936708Y-107854012D01*
X139964648Y-107946899D01*
X139980209Y-108059345D01*
X139985031Y-108196677D01*
X139979964Y-108335496D01*
G37*
G36*
X133426024Y-108266038D02*
G01*
X133417277Y-108376442D01*
X133401181Y-108473423D01*
X133377812Y-108548331D01*
X133324770Y-108638772D01*
X133242351Y-108724373D01*
X133140733Y-108788411D01*
X133024560Y-108827217D01*
X132974785Y-108833863D01*
X132878309Y-108833397D01*
X132780253Y-108819536D01*
X132696336Y-108793877D01*
X132639304Y-108761919D01*
X132568098Y-108705863D01*
X132504811Y-108640299D01*
X132460332Y-108575310D01*
X132452235Y-108558484D01*
X132421072Y-108463405D01*
X132402645Y-108343535D01*
X132396584Y-108196677D01*
X132656895Y-108196677D01*
X132657776Y-108268788D01*
X132663310Y-108353951D01*
X132675707Y-108417685D01*
X132697007Y-108465934D01*
X132729245Y-108504644D01*
X132774460Y-108539760D01*
X132815385Y-108559831D01*
X132890265Y-108574600D01*
X132970394Y-108570670D01*
X133043417Y-108547677D01*
X133045777Y-108546483D01*
X133094434Y-108512414D01*
X133129621Y-108464644D01*
X133152865Y-108398927D01*
X133165691Y-108311020D01*
X133169628Y-108196677D01*
X133169048Y-108122581D01*
X133166319Y-108060750D01*
X133160327Y-108015741D01*
X133149966Y-107979712D01*
X133134131Y-107944820D01*
X133123878Y-107926470D01*
X133070542Y-107865606D01*
X132999126Y-107829777D01*
X132907952Y-107818043D01*
X132906146Y-107818048D01*
X132818620Y-107832543D01*
X132746147Y-107874739D01*
X132689301Y-107944308D01*
X132687783Y-107946919D01*
X132674333Y-107974636D01*
X132665393Y-108006664D01*
X132660089Y-108049809D01*
X132657548Y-108110878D01*
X132656895Y-108196677D01*
X132396584Y-108196677D01*
X132397170Y-108143248D01*
X132405108Y-108018561D01*
X132423755Y-107916771D01*
X132454923Y-107832366D01*
X132500427Y-107759833D01*
X132562079Y-107693661D01*
X132643351Y-107630223D01*
X132747154Y-107580441D01*
X132865553Y-107555695D01*
X132911445Y-107553070D01*
X133030874Y-107566270D01*
X133142949Y-107606393D01*
X133242571Y-107670459D01*
X133324639Y-107755489D01*
X133384052Y-107858504D01*
X133385945Y-107863168D01*
X133407381Y-107940775D01*
X133421154Y-108039555D01*
X133427342Y-108150859D01*
X133426818Y-108196677D01*
X133426024Y-108266038D01*
G37*
G36*
X135425348Y-110254163D02*
G01*
X135423517Y-110348613D01*
X135418639Y-110429182D01*
X135410497Y-110489152D01*
X135382460Y-110574865D01*
X135324011Y-110667815D01*
X135243002Y-110742335D01*
X135143491Y-110793793D01*
X135118935Y-110801285D01*
X135035346Y-110812717D01*
X134946026Y-110808143D01*
X134859958Y-110789276D01*
X134786123Y-110757831D01*
X134733503Y-110715523D01*
X134727788Y-110708906D01*
X134703307Y-110691009D01*
X134688887Y-110702824D01*
X134684162Y-110744565D01*
X134684162Y-110799782D01*
X134557951Y-110799782D01*
X134431740Y-110799782D01*
X134431740Y-110169176D01*
X134692050Y-110169176D01*
X134692153Y-110193730D01*
X134696201Y-110301955D01*
X134707069Y-110384335D01*
X134726025Y-110445269D01*
X134754335Y-110489158D01*
X134793269Y-110520401D01*
X134854858Y-110545745D01*
X134940151Y-110555504D01*
X135022750Y-110540203D01*
X135047638Y-110529647D01*
X135097135Y-110495364D01*
X135132863Y-110445606D01*
X135156332Y-110376593D01*
X135169054Y-110284545D01*
X135172540Y-110165684D01*
X135169311Y-110076303D01*
X135154570Y-109973548D01*
X135126613Y-109896379D01*
X135084002Y-109842408D01*
X135025300Y-109809249D01*
X134949071Y-109794515D01*
X134920551Y-109793447D01*
X134837603Y-109806096D01*
X134772738Y-109844204D01*
X134724686Y-109908416D01*
X134710616Y-109939922D01*
X134701163Y-109974745D01*
X134695509Y-110019836D01*
X134692767Y-110082284D01*
X134692050Y-110169176D01*
X134431740Y-110169176D01*
X134431740Y-109916304D01*
X134431740Y-109032826D01*
X134557951Y-109032826D01*
X134684162Y-109032826D01*
X134684162Y-109348354D01*
X134684188Y-109367878D01*
X134685093Y-109461845D01*
X134687135Y-109543152D01*
X134690106Y-109607076D01*
X134693799Y-109648893D01*
X134698007Y-109663881D01*
X134710236Y-109658895D01*
X134733503Y-109637706D01*
X134741787Y-109628555D01*
X134799853Y-109587784D01*
X134877798Y-109558498D01*
X134967071Y-109542385D01*
X135059122Y-109541131D01*
X135145398Y-109556425D01*
X135163326Y-109562882D01*
X135228271Y-109599951D01*
X135293763Y-109654116D01*
X135350083Y-109716478D01*
X135387513Y-109778138D01*
X135396389Y-109808760D01*
X135406539Y-109871872D01*
X135414726Y-109954685D01*
X135420735Y-110050482D01*
X135424348Y-110152547D01*
X135424477Y-110165684D01*
X135425348Y-110254163D01*
G37*
G36*
X134169261Y-107557732D02*
G01*
X134237446Y-107571100D01*
X134352910Y-107611321D01*
X134442745Y-107669807D01*
X134506863Y-107746470D01*
X134545178Y-107841221D01*
X134557604Y-107953973D01*
X134556775Y-107972971D01*
X134546433Y-108037586D01*
X134528133Y-108094130D01*
X134516223Y-108117847D01*
X134471083Y-108180825D01*
X134410476Y-108229478D01*
X134330559Y-108265720D01*
X134227489Y-108291465D01*
X134097421Y-108308627D01*
X134056812Y-108312709D01*
X133969373Y-108324977D01*
X133907691Y-108340917D01*
X133867570Y-108362471D01*
X133844817Y-108391587D01*
X133835235Y-108430209D01*
X133835362Y-108465952D01*
X133856602Y-108520711D01*
X133905214Y-108559814D01*
X133981210Y-108583270D01*
X134084602Y-108591086D01*
X134196465Y-108581830D01*
X134296508Y-108550866D01*
X134392173Y-108494824D01*
X134461506Y-108445033D01*
X134521561Y-108492657D01*
X134537976Y-108506007D01*
X134581075Y-108543701D01*
X134613168Y-108575270D01*
X134644721Y-108610258D01*
X134589504Y-108657637D01*
X134559132Y-108680969D01*
X134483266Y-108727259D01*
X134394569Y-108770673D01*
X134305032Y-108805627D01*
X134226646Y-108826541D01*
X134220656Y-108827565D01*
X134092588Y-108838112D01*
X133969932Y-108827843D01*
X133856800Y-108798648D01*
X133757308Y-108752416D01*
X133675568Y-108691036D01*
X133615696Y-108616398D01*
X133581805Y-108530391D01*
X133578477Y-108512784D01*
X133574874Y-108409640D01*
X133595795Y-108308840D01*
X133639232Y-108221203D01*
X133642045Y-108217221D01*
X133685474Y-108167827D01*
X133738925Y-108130532D01*
X133807732Y-108103169D01*
X133897233Y-108083574D01*
X134012764Y-108069580D01*
X134036675Y-108067311D01*
X134134786Y-108055328D01*
X134206146Y-108040680D01*
X134254725Y-108021940D01*
X134284491Y-107997678D01*
X134299414Y-107966468D01*
X134302463Y-107920952D01*
X134282682Y-107873032D01*
X134240678Y-107836457D01*
X134180838Y-107812268D01*
X134107548Y-107801502D01*
X134025191Y-107805201D01*
X133938155Y-107824402D01*
X133850825Y-107860146D01*
X133754660Y-107909743D01*
X133683013Y-107825880D01*
X133681411Y-107824001D01*
X133646079Y-107780717D01*
X133620987Y-107746552D01*
X133611475Y-107728757D01*
X133612726Y-107724390D01*
X133633271Y-107702786D01*
X133673737Y-107674157D01*
X133727251Y-107643005D01*
X133786941Y-107613830D01*
X133844468Y-107593783D01*
X133927826Y-107574395D01*
X134017778Y-107560745D01*
X134102273Y-107554602D01*
X134169261Y-107557732D01*
G37*
G36*
X137557570Y-110491421D02*
G01*
X137529249Y-110588458D01*
X137473868Y-110673134D01*
X137393227Y-110742543D01*
X137289125Y-110793778D01*
X137246185Y-110803885D01*
X137183783Y-110811643D01*
X137117165Y-110814866D01*
X137007221Y-110806740D01*
X136918805Y-110779859D01*
X136849688Y-110733174D01*
X136813976Y-110699624D01*
X136813976Y-110749703D01*
X136813976Y-110799782D01*
X136679876Y-110799782D01*
X136545777Y-110799782D01*
X136545896Y-110385652D01*
X136546311Y-110292922D01*
X136546531Y-110276716D01*
X136813976Y-110276716D01*
X136813976Y-110363966D01*
X136819994Y-110444270D01*
X136840375Y-110505202D01*
X136876133Y-110543107D01*
X136887674Y-110548449D01*
X136933028Y-110559290D01*
X136995456Y-110566971D01*
X137064822Y-110570800D01*
X137130990Y-110570085D01*
X137183825Y-110564133D01*
X137246373Y-110539776D01*
X137291709Y-110497720D01*
X137314290Y-110444795D01*
X137311515Y-110387245D01*
X137280783Y-110331314D01*
X137275174Y-110324835D01*
X137259469Y-110308979D01*
X137241365Y-110298124D01*
X137215030Y-110291128D01*
X137174637Y-110286850D01*
X137114357Y-110284149D01*
X137028361Y-110281883D01*
X136813976Y-110276716D01*
X136546531Y-110276716D01*
X136547865Y-110178621D01*
X136550403Y-110073478D01*
X136553750Y-109983090D01*
X136557729Y-109913056D01*
X136562165Y-109868975D01*
X136575616Y-109806135D01*
X136612961Y-109718296D01*
X136671833Y-109649441D01*
X136755993Y-109594242D01*
X136790001Y-109577732D01*
X136832232Y-109561650D01*
X136877872Y-109551423D01*
X136936303Y-109545131D01*
X137016904Y-109540857D01*
X137088061Y-109539287D01*
X137197017Y-109544908D01*
X137285523Y-109562710D01*
X137359716Y-109594195D01*
X137425735Y-109640864D01*
X137452800Y-109665090D01*
X137481302Y-109693925D01*
X137492361Y-109710113D01*
X137492005Y-109711458D01*
X137476804Y-109729060D01*
X137443662Y-109759084D01*
X137398754Y-109795875D01*
X137305146Y-109869416D01*
X137264430Y-109831682D01*
X137257207Y-109825469D01*
X137198485Y-109794336D01*
X137123516Y-109776951D01*
X137041321Y-109773117D01*
X136960919Y-109782637D01*
X136891334Y-109805313D01*
X136841584Y-109840946D01*
X136832332Y-109854057D01*
X136818313Y-109897879D01*
X136813976Y-109965381D01*
X136813976Y-110058291D01*
X137016205Y-110058291D01*
X137021635Y-110058296D01*
X137145590Y-110061569D01*
X137243965Y-110071755D01*
X137322015Y-110090073D01*
X137384999Y-110117739D01*
X137438172Y-110155969D01*
X137486554Y-110205812D01*
X137528573Y-110276752D01*
X137553946Y-110366147D01*
X137557029Y-110384931D01*
X137557333Y-110444795D01*
X137557570Y-110491421D01*
G37*
G36*
X132496949Y-110505634D02*
G01*
X132466766Y-110593041D01*
X132414182Y-110672207D01*
X132339486Y-110738501D01*
X132242968Y-110787294D01*
X132241713Y-110787740D01*
X132165310Y-110805603D01*
X132073741Y-110813790D01*
X131981746Y-110811789D01*
X131904062Y-110799088D01*
X131900326Y-110797998D01*
X131846386Y-110774588D01*
X131797571Y-110742556D01*
X131749752Y-110702319D01*
X131749752Y-110751051D01*
X131749752Y-110799782D01*
X131623541Y-110799782D01*
X131497330Y-110799782D01*
X131497676Y-110314658D01*
X131497691Y-110295316D01*
X131497731Y-110279161D01*
X131749752Y-110279161D01*
X131749752Y-110357016D01*
X131749753Y-110358038D01*
X131756661Y-110440635D01*
X131778221Y-110499055D01*
X131816098Y-110537834D01*
X131821021Y-110540631D01*
X131861325Y-110553738D01*
X131919586Y-110564487D01*
X131984487Y-110571567D01*
X132044712Y-110573665D01*
X132088945Y-110569469D01*
X132108382Y-110564935D01*
X132152364Y-110555244D01*
X132203798Y-110530900D01*
X132240719Y-110484378D01*
X132254095Y-110424478D01*
X132253799Y-110412269D01*
X132246547Y-110364133D01*
X132226840Y-110328767D01*
X132190905Y-110304377D01*
X132134967Y-110289174D01*
X132055255Y-110281366D01*
X131947994Y-110279161D01*
X131749752Y-110279161D01*
X131497731Y-110279161D01*
X131498047Y-110150355D01*
X131499301Y-110032856D01*
X131502141Y-109939168D01*
X131507256Y-109865638D01*
X131515336Y-109808612D01*
X131527069Y-109764439D01*
X131543144Y-109729466D01*
X131564250Y-109700040D01*
X131591076Y-109672508D01*
X131624311Y-109643218D01*
X131631747Y-109636934D01*
X131680041Y-109601307D01*
X131730021Y-109576219D01*
X131789143Y-109559453D01*
X131864862Y-109548793D01*
X131964633Y-109542021D01*
X132031500Y-109540111D01*
X132141413Y-109545724D01*
X132231065Y-109564957D01*
X132306552Y-109599429D01*
X132373970Y-109650758D01*
X132443588Y-109714929D01*
X132345148Y-109790230D01*
X132303028Y-109822149D01*
X132268905Y-109845466D01*
X132247246Y-109853857D01*
X132231156Y-109849687D01*
X132213738Y-109835323D01*
X132211979Y-109833741D01*
X132158531Y-109802018D01*
X132089098Y-109782409D01*
X132011323Y-109774585D01*
X131932852Y-109778214D01*
X131861329Y-109792967D01*
X131804398Y-109818512D01*
X131769705Y-109854520D01*
X131763553Y-109870693D01*
X131753895Y-109918652D01*
X131749985Y-109974018D01*
X131749752Y-110055398D01*
X131982454Y-110061061D01*
X132008285Y-110061723D01*
X132098245Y-110064946D01*
X132164602Y-110069524D01*
X132213766Y-110076270D01*
X132252145Y-110085993D01*
X132286150Y-110099506D01*
X132301651Y-110107038D01*
X132387841Y-110166198D01*
X132450175Y-110240268D01*
X132488944Y-110324617D01*
X132504438Y-110414616D01*
X132503627Y-110424478D01*
X132496949Y-110505634D01*
G37*
G36*
X132667742Y-109537922D02*
G01*
X132721735Y-109541493D01*
X132764524Y-109548064D01*
X132786340Y-109557391D01*
X132792953Y-109573429D01*
X132806965Y-109616681D01*
X132826658Y-109682407D01*
X132850781Y-109766315D01*
X132878079Y-109864116D01*
X132907300Y-109971521D01*
X132932679Y-110065680D01*
X132959743Y-110165399D01*
X132983444Y-110251989D01*
X133002586Y-110321111D01*
X133015975Y-110368426D01*
X133022417Y-110389596D01*
X133023485Y-110390163D01*
X133033043Y-110374048D01*
X133050641Y-110332368D01*
X133074985Y-110268592D01*
X133104779Y-110186193D01*
X133138726Y-110088642D01*
X133175531Y-109979409D01*
X133319504Y-109545559D01*
X133399787Y-109540878D01*
X133412018Y-109540314D01*
X133467465Y-109543373D01*
X133496488Y-109556655D01*
X133502898Y-109569965D01*
X133518461Y-109610544D01*
X133540874Y-109673523D01*
X133568638Y-109754579D01*
X133600253Y-109849392D01*
X133634220Y-109953639D01*
X133659827Y-110032913D01*
X133692350Y-110132987D01*
X133721348Y-110221534D01*
X133745296Y-110293924D01*
X133762668Y-110345528D01*
X133771940Y-110371713D01*
X133777221Y-110380635D01*
X133784005Y-110379825D01*
X133792907Y-110365500D01*
X133804909Y-110334828D01*
X133820994Y-110284973D01*
X133842143Y-110213101D01*
X133869340Y-110116380D01*
X133903566Y-109991973D01*
X133906200Y-109982351D01*
X133936541Y-109872258D01*
X133964491Y-109772215D01*
X133988880Y-109686304D01*
X134008539Y-109618606D01*
X134022298Y-109573204D01*
X134028989Y-109554178D01*
X134044362Y-109546657D01*
X134082267Y-109540745D01*
X134133234Y-109537832D01*
X134188364Y-109537879D01*
X134238759Y-109540843D01*
X134275521Y-109546686D01*
X134289752Y-109555366D01*
X134286231Y-109568807D01*
X134274264Y-109609005D01*
X134255004Y-109671951D01*
X134229683Y-109753739D01*
X134199532Y-109850469D01*
X134165782Y-109958234D01*
X134129664Y-110073134D01*
X134092409Y-110191264D01*
X134055249Y-110308722D01*
X134019415Y-110421603D01*
X133986138Y-110526005D01*
X133956649Y-110618025D01*
X133932180Y-110693759D01*
X133913961Y-110749304D01*
X133903224Y-110780757D01*
X133902830Y-110781714D01*
X133886441Y-110792501D01*
X133847394Y-110797257D01*
X133781436Y-110796534D01*
X133667074Y-110791894D01*
X133541235Y-110371000D01*
X133536652Y-110355697D01*
X133503949Y-110247969D01*
X133473959Y-110151660D01*
X133447914Y-110070543D01*
X133427045Y-110008389D01*
X133412584Y-109968970D01*
X133405764Y-109956060D01*
X133405457Y-109956375D01*
X133397821Y-109975309D01*
X133382714Y-110020209D01*
X133361370Y-110087148D01*
X133335025Y-110172195D01*
X133304912Y-110271421D01*
X133272266Y-110380898D01*
X133148401Y-110799782D01*
X133033479Y-110799782D01*
X132918557Y-110799782D01*
X132824046Y-110503975D01*
X132795404Y-110414323D01*
X132753763Y-110283964D01*
X132709270Y-110144665D01*
X132665679Y-110008178D01*
X132626744Y-109886253D01*
X132615567Y-109851017D01*
X132586962Y-109758492D01*
X132563033Y-109677655D01*
X132545068Y-109613079D01*
X132534358Y-109569338D01*
X132532193Y-109551004D01*
X132536245Y-109547668D01*
X132565227Y-109540764D01*
X132612316Y-109537597D01*
X132667742Y-109537922D01*
G37*
G36*
X138738696Y-109182701D02*
G01*
X138738696Y-110799782D01*
X138613426Y-110799782D01*
X138488156Y-110799782D01*
X138483271Y-110377763D01*
X138482676Y-110327948D01*
X138480698Y-110200563D01*
X138477737Y-110099726D01*
X138472959Y-110021698D01*
X138465528Y-109962740D01*
X138454609Y-109919112D01*
X138439365Y-109887076D01*
X138418962Y-109862894D01*
X138392564Y-109842825D01*
X138359336Y-109823132D01*
X138312705Y-109802720D01*
X138231762Y-109790841D01*
X138153681Y-109805679D01*
X138085235Y-109845461D01*
X138033200Y-109908416D01*
X138027088Y-109919552D01*
X138017700Y-109939548D01*
X138010554Y-109962230D01*
X138005342Y-109991721D01*
X138001753Y-110032146D01*
X137999480Y-110087627D01*
X137998213Y-110162289D01*
X137997645Y-110260256D01*
X137997465Y-110385652D01*
X137997205Y-110799782D01*
X137863106Y-110799782D01*
X137729007Y-110799782D01*
X137729098Y-110401428D01*
X137729125Y-110370644D01*
X137730131Y-110217216D01*
X137733087Y-110090955D01*
X137738667Y-109988163D01*
X137747547Y-109905141D01*
X137760404Y-109838191D01*
X137777913Y-109783613D01*
X137800750Y-109737710D01*
X137829590Y-109696782D01*
X137865111Y-109657131D01*
X137891438Y-109631564D01*
X137957747Y-109583164D01*
X138031933Y-109554685D01*
X138125003Y-109541219D01*
X138218388Y-109541460D01*
X138315718Y-109562592D01*
X138399504Y-109607790D01*
X138404717Y-109611592D01*
X138441109Y-109637336D01*
X138466553Y-109654098D01*
X138468640Y-109654669D01*
X138473989Y-109647339D01*
X138478208Y-109624459D01*
X138481410Y-109583361D01*
X138483705Y-109521380D01*
X138485207Y-109435849D01*
X138486026Y-109324102D01*
X138486274Y-109183471D01*
X138486274Y-108701199D01*
X138403448Y-108755865D01*
X138380239Y-108770311D01*
X138275285Y-108816141D01*
X138168818Y-108834190D01*
X138065224Y-108825837D01*
X137968886Y-108792459D01*
X137884190Y-108735434D01*
X137815519Y-108656141D01*
X137767259Y-108555956D01*
X137762997Y-108540850D01*
X137752439Y-108477894D01*
X137744971Y-108393418D01*
X137740606Y-108294808D01*
X137739445Y-108196677D01*
X138005094Y-108196677D01*
X138006175Y-108282437D01*
X138011615Y-108371037D01*
X138022931Y-108436984D01*
X138041547Y-108485226D01*
X138068890Y-108520713D01*
X138106385Y-108548395D01*
X138114894Y-108552791D01*
X138167568Y-108567612D01*
X138234129Y-108574132D01*
X138300891Y-108571726D01*
X138354169Y-108559763D01*
X138358408Y-108557947D01*
X138406897Y-108519294D01*
X138444349Y-108454089D01*
X138469842Y-108365448D01*
X138482454Y-108256487D01*
X138481263Y-108130321D01*
X138476840Y-108078318D01*
X138458420Y-107978285D01*
X138427039Y-107904650D01*
X138380813Y-107855009D01*
X138317857Y-107826960D01*
X138236286Y-107818102D01*
X138220497Y-107818368D01*
X138138258Y-107832186D01*
X138076742Y-107868120D01*
X138032957Y-107927785D01*
X138023237Y-107950978D01*
X138014332Y-107986912D01*
X138008769Y-108035689D01*
X138005905Y-108103535D01*
X138005094Y-108196677D01*
X137739445Y-108196677D01*
X137739359Y-108189452D01*
X137741245Y-108084737D01*
X137746279Y-107988050D01*
X137754476Y-107906779D01*
X137765850Y-107848309D01*
X137771514Y-107830492D01*
X137819582Y-107734946D01*
X137890135Y-107654679D01*
X137977054Y-107596972D01*
X138069060Y-107568097D01*
X138172546Y-107560984D01*
X138276532Y-107575396D01*
X138372162Y-107610085D01*
X138450580Y-107663800D01*
X138486274Y-107697332D01*
X138486274Y-107631476D01*
X138486274Y-107565621D01*
X138612485Y-107565621D01*
X138738696Y-107565621D01*
X138738696Y-108256487D01*
X138738696Y-109182701D01*
G37*
G36*
X134134664Y-98194633D02*
G01*
X134272914Y-98195327D01*
X134384141Y-98196598D01*
X134470706Y-98198518D01*
X134534970Y-98201161D01*
X134579294Y-98204601D01*
X134606041Y-98208910D01*
X134617570Y-98214161D01*
X134618621Y-98216145D01*
X134626249Y-98242564D01*
X134638618Y-98295725D01*
X134655015Y-98372159D01*
X134674726Y-98468399D01*
X134697038Y-98580976D01*
X134721237Y-98706424D01*
X134746609Y-98841273D01*
X134752758Y-98874228D01*
X134778076Y-99007219D01*
X134802237Y-99130014D01*
X134824504Y-99239137D01*
X134844138Y-99331112D01*
X134860404Y-99402461D01*
X134872562Y-99449709D01*
X134879876Y-99469378D01*
X134884779Y-99473070D01*
X134916272Y-99489853D01*
X134970794Y-99515189D01*
X135043627Y-99547169D01*
X135130056Y-99583885D01*
X135225364Y-99623431D01*
X135324834Y-99663899D01*
X135423751Y-99703381D01*
X135517397Y-99739970D01*
X135601056Y-99771759D01*
X135670013Y-99796839D01*
X135719550Y-99813304D01*
X135744951Y-99819246D01*
X135762596Y-99814469D01*
X135799628Y-99796186D01*
X135855586Y-99763427D01*
X135931780Y-99715362D01*
X136029520Y-99651162D01*
X136150113Y-99569998D01*
X136294870Y-99471042D01*
X136396041Y-99401693D01*
X136515805Y-99320386D01*
X136613304Y-99255356D01*
X136690497Y-99205372D01*
X136749343Y-99169202D01*
X136791800Y-99145615D01*
X136819828Y-99133379D01*
X136835385Y-99131264D01*
X136849599Y-99139836D01*
X136884632Y-99168702D01*
X136935687Y-99214835D01*
X136999782Y-99275222D01*
X137073937Y-99346851D01*
X137155173Y-99426709D01*
X137240510Y-99511785D01*
X137326967Y-99599065D01*
X137411565Y-99685536D01*
X137491324Y-99768187D01*
X137563264Y-99844005D01*
X137624404Y-99909977D01*
X137671765Y-99963091D01*
X137702367Y-100000335D01*
X137713230Y-100018695D01*
X137713079Y-100019882D01*
X137702205Y-100042935D01*
X137675535Y-100088440D01*
X137635034Y-100153344D01*
X137582669Y-100234592D01*
X137520405Y-100329130D01*
X137450206Y-100433903D01*
X137374038Y-100545856D01*
X137356569Y-100571369D01*
X137257384Y-100717477D01*
X137176760Y-100838651D01*
X137114481Y-100935232D01*
X137070330Y-101007563D01*
X137044091Y-101055987D01*
X137035546Y-101080845D01*
X137038787Y-101097384D01*
X137053158Y-101141698D01*
X137077235Y-101206266D01*
X137109067Y-101286583D01*
X137146703Y-101378146D01*
X137188195Y-101476451D01*
X137231591Y-101576996D01*
X137274942Y-101675277D01*
X137316298Y-101766790D01*
X137353709Y-101847032D01*
X137385224Y-101911499D01*
X137408894Y-101955688D01*
X137422768Y-101975095D01*
X137442574Y-101981873D01*
X137490357Y-101993782D01*
X137562008Y-102009751D01*
X137653810Y-102029003D01*
X137762050Y-102050759D01*
X137883012Y-102074243D01*
X138012982Y-102098675D01*
X138134309Y-102121321D01*
X138256511Y-102144558D01*
X138366458Y-102165904D01*
X138460393Y-102184611D01*
X138534557Y-102199930D01*
X138585193Y-102211110D01*
X138608541Y-102217403D01*
X138644038Y-102232522D01*
X138644038Y-102862002D01*
X138644038Y-103491482D01*
X138600653Y-103508457D01*
X138580427Y-103514013D01*
X138531374Y-103525034D01*
X138458479Y-103540249D01*
X138365602Y-103558884D01*
X138256605Y-103580167D01*
X138135349Y-103603324D01*
X138005694Y-103627583D01*
X137966520Y-103634856D01*
X137816949Y-103663065D01*
X137695707Y-103686794D01*
X137600518Y-103706558D01*
X137529105Y-103722868D01*
X137479193Y-103736237D01*
X137448505Y-103747179D01*
X137434765Y-103756205D01*
X137423216Y-103777729D01*
X137401895Y-103824782D01*
X137373145Y-103892125D01*
X137338737Y-103975262D01*
X137300440Y-104069695D01*
X137260022Y-104170930D01*
X137219255Y-104274471D01*
X137179905Y-104375820D01*
X137143744Y-104470482D01*
X137112541Y-104553962D01*
X137088064Y-104621762D01*
X137072083Y-104669387D01*
X137066368Y-104692340D01*
X137067975Y-104699052D01*
X137084309Y-104732384D01*
X137117242Y-104788544D01*
X137165518Y-104865550D01*
X137227878Y-104961420D01*
X137303062Y-105074172D01*
X137389814Y-105201824D01*
X137461727Y-105307451D01*
X137530208Y-105409400D01*
X137590741Y-105500912D01*
X137641318Y-105578891D01*
X137679930Y-105640238D01*
X137704571Y-105681858D01*
X137713230Y-105700653D01*
X137712512Y-105702909D01*
X137696364Y-105724886D01*
X137660776Y-105765819D01*
X137608159Y-105823153D01*
X137540918Y-105894331D01*
X137461463Y-105976796D01*
X137372201Y-106067992D01*
X137275541Y-106165362D01*
X137249566Y-106191318D01*
X137154078Y-106286206D01*
X137065828Y-106373082D01*
X136987313Y-106449545D01*
X136921027Y-106513195D01*
X136869464Y-106561631D01*
X136835118Y-106592453D01*
X136820485Y-106603260D01*
X136804693Y-106595078D01*
X136765798Y-106570887D01*
X136706930Y-106532685D01*
X136631112Y-106482476D01*
X136541371Y-106422264D01*
X136440732Y-106354052D01*
X136332220Y-106279844D01*
X136227577Y-106208477D01*
X136125465Y-106139861D01*
X136033647Y-106079201D01*
X135955240Y-106028511D01*
X135893366Y-105989809D01*
X135851143Y-105965109D01*
X135831692Y-105956428D01*
X135824593Y-105957775D01*
X135790740Y-105970689D01*
X135737467Y-105995100D01*
X135670502Y-106028313D01*
X135595568Y-106067631D01*
X135562958Y-106084932D01*
X135490636Y-106121404D01*
X135428592Y-106150144D01*
X135382568Y-106168576D01*
X135358306Y-106174121D01*
X135356892Y-106173720D01*
X135347928Y-106165667D01*
X135335020Y-106146201D01*
X135317378Y-106113537D01*
X135294214Y-106065893D01*
X135264740Y-106001484D01*
X135228165Y-105918526D01*
X135183703Y-105815237D01*
X135130563Y-105689832D01*
X135067957Y-105540528D01*
X134995096Y-105365542D01*
X134911192Y-105163088D01*
X134867030Y-105056183D01*
X134799370Y-104891732D01*
X134736000Y-104736909D01*
X134677900Y-104594150D01*
X134626050Y-104465893D01*
X134581430Y-104354576D01*
X134545019Y-104262637D01*
X134517798Y-104192513D01*
X134500747Y-104146642D01*
X134494845Y-104127461D01*
X134500081Y-104114676D01*
X134530728Y-104081821D01*
X134588499Y-104034239D01*
X134673065Y-103972216D01*
X134700222Y-103952711D01*
X134863690Y-103818826D01*
X134998263Y-103676138D01*
X135105774Y-103522084D01*
X135188059Y-103354096D01*
X135246952Y-103169609D01*
X135262034Y-103085622D01*
X135271724Y-102979500D01*
X135275151Y-102864593D01*
X135272302Y-102750826D01*
X135263164Y-102648124D01*
X135247725Y-102566411D01*
X135195099Y-102403701D01*
X135126638Y-102253845D01*
X135040257Y-102117735D01*
X134931328Y-101986894D01*
X134826959Y-101886128D01*
X134670018Y-101769703D01*
X134501140Y-101679894D01*
X134323375Y-101616796D01*
X134139774Y-101580501D01*
X133953386Y-101571101D01*
X133767261Y-101588690D01*
X133584448Y-101633360D01*
X133407997Y-101705204D01*
X133240958Y-101804314D01*
X133086382Y-101930783D01*
X132999338Y-102021115D01*
X132889170Y-102166836D01*
X132801587Y-102328714D01*
X132733206Y-102512323D01*
X132715012Y-102576081D01*
X132702569Y-102633475D01*
X132695159Y-102692728D01*
X132691554Y-102763729D01*
X132690529Y-102856366D01*
X132691707Y-102941922D01*
X132700225Y-103064840D01*
X132718670Y-103173632D01*
X132749046Y-103278708D01*
X132793359Y-103390479D01*
X132833184Y-103474199D01*
X132916158Y-103612212D01*
X133017179Y-103737751D01*
X133140696Y-103856019D01*
X133291159Y-103972216D01*
X133346410Y-104012120D01*
X133414507Y-104065280D01*
X133455606Y-104103823D01*
X133469379Y-104127461D01*
X133467036Y-104136232D01*
X133454031Y-104172429D01*
X133430490Y-104233788D01*
X133397394Y-104317872D01*
X133355723Y-104422243D01*
X133306456Y-104544463D01*
X133250573Y-104682096D01*
X133189055Y-104832703D01*
X133122882Y-104993846D01*
X133053033Y-105163088D01*
X133035001Y-105206659D01*
X132953411Y-105403370D01*
X132882704Y-105572979D01*
X132822091Y-105717268D01*
X132770783Y-105838021D01*
X132727992Y-105937023D01*
X132692928Y-106016055D01*
X132664804Y-106076904D01*
X132642829Y-106121351D01*
X132626216Y-106151180D01*
X132614175Y-106168176D01*
X132605919Y-106174121D01*
X132598585Y-106173494D01*
X132564325Y-106162129D01*
X132510755Y-106138978D01*
X132443618Y-106106620D01*
X132368656Y-106067631D01*
X132336251Y-106050373D01*
X132263999Y-106013317D01*
X132202145Y-105983509D01*
X132156415Y-105963648D01*
X132132532Y-105956428D01*
X132114364Y-105964416D01*
X132073025Y-105988490D01*
X132011905Y-106026651D01*
X131934123Y-106076883D01*
X131842799Y-106137170D01*
X131741053Y-106205495D01*
X131632004Y-106279844D01*
X131526399Y-106352076D01*
X131425521Y-106420478D01*
X131335466Y-106480937D01*
X131259258Y-106531448D01*
X131199920Y-106570008D01*
X131160475Y-106594613D01*
X131143949Y-106603260D01*
X131142756Y-106602968D01*
X131123427Y-106588671D01*
X131085684Y-106555008D01*
X131032453Y-106504937D01*
X130966660Y-106441415D01*
X130891234Y-106367400D01*
X130809101Y-106285851D01*
X130723186Y-106199724D01*
X130636419Y-106111978D01*
X130551724Y-106025570D01*
X130472030Y-105943458D01*
X130400262Y-105868600D01*
X130339347Y-105803954D01*
X130292214Y-105752477D01*
X130261787Y-105717127D01*
X130250994Y-105700862D01*
X130259103Y-105683020D01*
X130283250Y-105642057D01*
X130321437Y-105581267D01*
X130371654Y-105503750D01*
X130431895Y-105412604D01*
X130500150Y-105310929D01*
X130574410Y-105201824D01*
X130612145Y-105146566D01*
X130694195Y-105024926D01*
X130764151Y-104919017D01*
X130820753Y-104830822D01*
X130862744Y-104762323D01*
X130888864Y-104715502D01*
X130897857Y-104692340D01*
X130892992Y-104672137D01*
X130877755Y-104626273D01*
X130853878Y-104559878D01*
X130823130Y-104477450D01*
X130787282Y-104383483D01*
X130748102Y-104282474D01*
X130707362Y-104178920D01*
X130666830Y-104077316D01*
X130628277Y-103982158D01*
X130593472Y-103897943D01*
X130564185Y-103829166D01*
X130542186Y-103780324D01*
X130529245Y-103755912D01*
X130525696Y-103752523D01*
X130505945Y-103742863D01*
X130468827Y-103731094D01*
X130412052Y-103716695D01*
X130333327Y-103699145D01*
X130230360Y-103677922D01*
X130100862Y-103652504D01*
X129942540Y-103622371D01*
X129813531Y-103597909D01*
X129691909Y-103574512D01*
X129583006Y-103553224D01*
X129490482Y-103534775D01*
X129417999Y-103519895D01*
X129369216Y-103509315D01*
X129347795Y-103503764D01*
X129346875Y-103503349D01*
X129340111Y-103498136D01*
X129334591Y-103487609D01*
X129330190Y-103468852D01*
X129326783Y-103438949D01*
X129324245Y-103394987D01*
X129322449Y-103334048D01*
X129321271Y-103253218D01*
X129320585Y-103149582D01*
X129320265Y-103020224D01*
X129320187Y-102862228D01*
X129320187Y-102232522D01*
X129355684Y-102217403D01*
X129376459Y-102211720D01*
X129425302Y-102200858D01*
X129497938Y-102185806D01*
X129590608Y-102167312D01*
X129699554Y-102146126D01*
X129821018Y-102122998D01*
X129951243Y-102098675D01*
X130073106Y-102075790D01*
X130194758Y-102052222D01*
X130303925Y-102030331D01*
X130396893Y-102010896D01*
X130469948Y-101994692D01*
X130519374Y-101982500D01*
X130541457Y-101975095D01*
X130550030Y-101964350D01*
X130570953Y-101927154D01*
X130600310Y-101868324D01*
X130636149Y-101792361D01*
X130676522Y-101703770D01*
X130719477Y-101607055D01*
X130763065Y-101506718D01*
X130805336Y-101407264D01*
X130844339Y-101313195D01*
X130878125Y-101229015D01*
X130904744Y-101159228D01*
X130922245Y-101108337D01*
X130928678Y-101080845D01*
X130928495Y-101078458D01*
X130917155Y-101049882D01*
X130888086Y-100997685D01*
X130841072Y-100921527D01*
X130775895Y-100821064D01*
X130692338Y-100695954D01*
X130590187Y-100545856D01*
X130580034Y-100531029D01*
X130504530Y-100419835D01*
X130435249Y-100316218D01*
X130374158Y-100223233D01*
X130323222Y-100143933D01*
X130284406Y-100081374D01*
X130259675Y-100038610D01*
X130250994Y-100018695D01*
X130257462Y-100006953D01*
X130283625Y-99974463D01*
X130327124Y-99925281D01*
X130384991Y-99862426D01*
X130454263Y-99788919D01*
X130531972Y-99707778D01*
X130615154Y-99622022D01*
X130700843Y-99534671D01*
X130786073Y-99448744D01*
X130867879Y-99367260D01*
X130943295Y-99293239D01*
X131009356Y-99229700D01*
X131063096Y-99179662D01*
X131101549Y-99146145D01*
X131121750Y-99132167D01*
X131123620Y-99131573D01*
X131133052Y-99129140D01*
X131143506Y-99129034D01*
X131157480Y-99132810D01*
X131177474Y-99142021D01*
X131205984Y-99158223D01*
X131245511Y-99182969D01*
X131298551Y-99217812D01*
X131367604Y-99264308D01*
X131455168Y-99324009D01*
X131563742Y-99398471D01*
X131695822Y-99489246D01*
X131738175Y-99518309D01*
X131876519Y-99612331D01*
X131990499Y-99688171D01*
X132080880Y-99746315D01*
X132148430Y-99787246D01*
X132193915Y-99811449D01*
X132218101Y-99819409D01*
X132227375Y-99818044D01*
X132265971Y-99806977D01*
X132326576Y-99786234D01*
X132404406Y-99757554D01*
X132494675Y-99722676D01*
X132592598Y-99683338D01*
X132645470Y-99661704D01*
X132768064Y-99611482D01*
X132865605Y-99571185D01*
X132941093Y-99539285D01*
X132997525Y-99514254D01*
X133037901Y-99494562D01*
X133065217Y-99478682D01*
X133082474Y-99465085D01*
X133092668Y-99452242D01*
X133098800Y-99438625D01*
X133103866Y-99422705D01*
X133110106Y-99397113D01*
X133121442Y-99343648D01*
X133136942Y-99266717D01*
X133155849Y-99170195D01*
X133177403Y-99057956D01*
X133200845Y-98933877D01*
X133225418Y-98801832D01*
X133249822Y-98671510D01*
X133273099Y-98550631D01*
X133294504Y-98442816D01*
X133313294Y-98351663D01*
X133328728Y-98280771D01*
X133340064Y-98233737D01*
X133346561Y-98214161D01*
X133356589Y-98209315D01*
X133381994Y-98204929D01*
X133424782Y-98201419D01*
X133487315Y-98198711D01*
X133571953Y-98196733D01*
X133681058Y-98195411D01*
X133816991Y-98194671D01*
X133982112Y-98194441D01*
X134134664Y-98194633D01*
G37*
%TD*%
G36*
X174943039Y-54019685D02*
G01*
X174988794Y-54072489D01*
X175000000Y-54124000D01*
X175000000Y-61876000D01*
X174980315Y-61943039D01*
X174927511Y-61988794D01*
X174876000Y-62000000D01*
X167124000Y-62000000D01*
X167056961Y-61980315D01*
X167011206Y-61927511D01*
X167000000Y-61876000D01*
X167000000Y-54124000D01*
X167019685Y-54056961D01*
X167072489Y-54011206D01*
X167124000Y-54000000D01*
X174876000Y-54000000D01*
X174943039Y-54019685D01*
G37*
M02*
