%TF.GenerationSoftware,KiCad,Pcbnew,8.0.8*%
%TF.CreationDate,2025-02-03T17:34:08+01:00*%
%TF.ProjectId,WLEDController,574c4544-436f-46e7-9472-6f6c6c65722e,V1.0*%
%TF.SameCoordinates,Original*%
%TF.FileFunction,Copper,L2,Bot*%
%TF.FilePolarity,Positive*%
%FSLAX46Y46*%
G04 Gerber Fmt 4.6, Leading zero omitted, Abs format (unit mm)*
G04 Created by KiCad (PCBNEW 8.0.8) date 2025-02-03 17:34:08*
%MOMM*%
%LPD*%
G01*
G04 APERTURE LIST*
G04 Aperture macros list*
%AMRoundRect*
0 Rectangle with rounded corners*
0 $1 Rounding radius*
0 $2 $3 $4 $5 $6 $7 $8 $9 X,Y pos of 4 corners*
0 Add a 4 corners polygon primitive as box body*
4,1,4,$2,$3,$4,$5,$6,$7,$8,$9,$2,$3,0*
0 Add four circle primitives for the rounded corners*
1,1,$1+$1,$2,$3*
1,1,$1+$1,$4,$5*
1,1,$1+$1,$6,$7*
1,1,$1+$1,$8,$9*
0 Add four rect primitives between the rounded corners*
20,1,$1+$1,$2,$3,$4,$5,0*
20,1,$1+$1,$4,$5,$6,$7,0*
20,1,$1+$1,$6,$7,$8,$9,0*
20,1,$1+$1,$8,$9,$2,$3,0*%
G04 Aperture macros list end*
%TA.AperFunction,ComponentPad*%
%ADD10RoundRect,0.250000X0.600000X0.600000X-0.600000X0.600000X-0.600000X-0.600000X0.600000X-0.600000X0*%
%TD*%
%TA.AperFunction,ComponentPad*%
%ADD11C,1.700000*%
%TD*%
%TA.AperFunction,ComponentPad*%
%ADD12C,2.700000*%
%TD*%
%TA.AperFunction,ComponentPad*%
%ADD13C,3.000000*%
%TD*%
%TA.AperFunction,ComponentPad*%
%ADD14C,2.500000*%
%TD*%
%TA.AperFunction,ComponentPad*%
%ADD15R,2.000000X2.000000*%
%TD*%
%TA.AperFunction,ComponentPad*%
%ADD16C,2.000000*%
%TD*%
%TA.AperFunction,ComponentPad*%
%ADD17C,1.600000*%
%TD*%
%TA.AperFunction,ComponentPad*%
%ADD18O,1.600000X1.600000*%
%TD*%
%TA.AperFunction,ComponentPad*%
%ADD19R,1.800000X1.400000*%
%TD*%
%TA.AperFunction,ComponentPad*%
%ADD20O,1.800000X1.400000*%
%TD*%
%TA.AperFunction,ComponentPad*%
%ADD21C,1.900000*%
%TD*%
%TA.AperFunction,ViaPad*%
%ADD22C,0.600000*%
%TD*%
%TA.AperFunction,Conductor*%
%ADD23C,0.317500*%
%TD*%
%TA.AperFunction,Conductor*%
%ADD24C,0.158750*%
%TD*%
%TA.AperFunction,Conductor*%
%ADD25C,1.270000*%
%TD*%
%TA.AperFunction,Conductor*%
%ADD26C,0.635000*%
%TD*%
G04 APERTURE END LIST*
D10*
%TO.P,J2,1,Pin_1*%
%TO.N,+3.3V_D*%
X107397500Y-136980000D03*
D11*
%TO.P,J2,2,Pin_2*%
%TO.N,+5V_D*%
X104857500Y-136980000D03*
%TO.P,J2,3,Pin_3*%
%TO.N,GND*%
X107397500Y-134440000D03*
%TO.P,J2,4,Pin_4*%
X104857500Y-134440000D03*
%TO.P,J2,5,Pin_5*%
%TO.N,DOUT*%
X107397500Y-131900000D03*
%TO.P,J2,6,Pin_6*%
%TO.N,GND*%
X104857500Y-131900000D03*
%TO.P,J2,7,Pin_7*%
%TO.N,BCK*%
X107397500Y-129360000D03*
%TO.P,J2,8,Pin_8*%
%TO.N,LRCK*%
X104857500Y-129360000D03*
%TO.P,J2,9,Pin_9*%
%TO.N,GND*%
X107397500Y-126820000D03*
%TO.P,J2,10,Pin_10*%
%TO.N,MCK*%
X104857500Y-126820000D03*
%TD*%
D12*
%TO.P,J1,1,Pin_1*%
%TO.N,GND*%
X101550000Y-68410000D03*
%TO.P,J1,2,Pin_2*%
%TO.N,unconnected-(J1-Pin_2-Pad2)*%
X101550000Y-64600000D03*
%TO.P,J1,3,Pin_3*%
%TO.N,Net-(J1-Pin_3)*%
X101550000Y-60790000D03*
%TD*%
D13*
%TO.P,K1,1*%
%TO.N,+5V*%
X127580000Y-60990000D03*
D14*
%TO.P,K1,2*%
%TO.N,Net-(D2-A)*%
X129530000Y-67040000D03*
D13*
%TO.P,K1,3*%
%TO.N,+5V_LED*%
X141730000Y-67040000D03*
%TO.P,K1,4*%
%TO.N,unconnected-(K1-Pad4)*%
X141780000Y-54990000D03*
D14*
%TO.P,K1,5*%
%TO.N,+5V*%
X129530000Y-55040000D03*
%TD*%
D15*
%TO.P,C18,1*%
%TO.N,+5V_LED*%
X152175000Y-101297323D03*
D16*
%TO.P,C18,2*%
%TO.N,GND*%
X152175000Y-106297323D03*
%TD*%
D15*
%TO.P,C16,1*%
%TO.N,+5V_LED*%
X152175000Y-63402323D03*
D16*
%TO.P,C16,2*%
%TO.N,GND*%
X152175000Y-68402323D03*
%TD*%
D17*
%TO.P,R7,1*%
%TO.N,Net-(R7-Pad1)*%
X148780000Y-74660000D03*
D18*
%TO.P,R7,2*%
%TO.N,LED_DATA1*%
X158940000Y-74660000D03*
%TD*%
D17*
%TO.P,R10,1*%
%TO.N,Net-(R10-Pad1)*%
X148780000Y-131810000D03*
D18*
%TO.P,R10,2*%
%TO.N,LED_DATA4*%
X158940000Y-131810000D03*
%TD*%
D15*
%TO.P,C17,1*%
%TO.N,+5V_LED*%
X152175000Y-82247323D03*
D16*
%TO.P,C17,2*%
%TO.N,GND*%
X152175000Y-87247323D03*
%TD*%
D12*
%TO.P,J6,1,Pin_1*%
%TO.N,Net-(J6-Pin_1)*%
X186650000Y-120380000D03*
%TO.P,J6,2,Pin_2*%
%TO.N,LED_DATA4*%
X186650000Y-124190000D03*
%TO.P,J6,3,Pin_3*%
%TO.N,GND*%
X186650000Y-128000000D03*
%TD*%
%TO.P,J3,1,Pin_1*%
%TO.N,Net-(J3-Pin_1)*%
X186650000Y-63230000D03*
%TO.P,J3,2,Pin_2*%
%TO.N,LED_DATA1*%
X186650000Y-67040000D03*
%TO.P,J3,3,Pin_3*%
%TO.N,GND*%
X186650000Y-70850000D03*
%TD*%
D19*
%TO.P,D1,1,KA*%
%TO.N,Net-(D1-KA)*%
X97980000Y-79740000D03*
D20*
%TO.P,D1,2,AK*%
%TO.N,Net-(D1-AK)*%
X97980000Y-77200000D03*
%TD*%
D17*
%TO.P,R9,1*%
%TO.N,Net-(R9-Pad1)*%
X148780000Y-112760000D03*
D18*
%TO.P,R9,2*%
%TO.N,LED_DATA3*%
X158940000Y-112760000D03*
%TD*%
%TO.P,U2,1,SD*%
%TO.N,MIC_SD*%
X134425000Y-128765000D03*
%TO.P,U2,2,VDD*%
%TO.N,+3.3V_D*%
X134425000Y-131305000D03*
%TO.P,U2,3,GND*%
%TO.N,GND*%
X134425000Y-133845000D03*
%TO.P,U2,4,L/R*%
X142045000Y-133845000D03*
%TO.P,U2,5,WS*%
%TO.N,MIC_WS*%
X142045000Y-131305000D03*
%TO.P,U2,6,SCK*%
%TO.N,MIC_SCK*%
X142045000Y-128765000D03*
%TD*%
D21*
%TO.P,U3,1,GND*%
%TO.N,GND*%
X125920000Y-90535000D03*
%TO.P,U3,2,RST*%
%TO.N,unconnected-(U3-RST-Pad2)*%
X125920000Y-93075000D03*
%TO.P,U3,3,NC*%
%TO.N,unconnected-(U3-NC-Pad3)*%
X123380000Y-90535000D03*
%TO.P,U3,4,IO_36/SVP/A0*%
%TO.N,unconnected-(U3-IO_36{slash}SVP{slash}A0-Pad4)*%
X123380000Y-93075000D03*
%TO.P,U3,5,IO_39/SVN*%
%TO.N,unconnected-(U3-IO_39{slash}SVN-Pad5)*%
X120840000Y-90535000D03*
%TO.P,U3,6,IO_26/D0*%
%TO.N,RELAY_CTRL*%
X120840000Y-93075000D03*
%TO.P,U3,7,IO_35*%
%TO.N,unconnected-(U3-IO_35-Pad7)*%
X118300000Y-90535000D03*
%TO.P,U3,8,IO_18/D5*%
%TO.N,DATA1*%
X118300000Y-93075000D03*
%TO.P,U3,9,IO_33*%
%TO.N,DATA2*%
X115760000Y-90535000D03*
%TO.P,U3,10,IO_19/D6*%
%TO.N,DATA3*%
X115760000Y-93075000D03*
%TO.P,U3,11,IO_34*%
%TO.N,unconnected-(U3-IO_34-Pad11)*%
X113220000Y-90535000D03*
%TO.P,U3,12,IO_23/D7*%
%TO.N,DATA4*%
X113220000Y-93075000D03*
%TO.P,U3,13,IO_14/TMS*%
%TO.N,TOUCH*%
X110680000Y-90535000D03*
%TO.P,U3,14,IO_05/D8*%
%TO.N,unconnected-(U3-IO_05{slash}D8-Pad14)*%
X110680000Y-93075000D03*
%TO.P,U3,15,NC*%
%TO.N,unconnected-(U3-NC-Pad15)*%
X108140000Y-90535000D03*
%TO.P,U3,16,3V3*%
%TO.N,+3.3V_ESP*%
X108140000Y-93075000D03*
%TO.P,U3,17,IO_09/SD2*%
%TO.N,unconnected-(U3-IO_09{slash}SD2-Pad17)*%
X105600000Y-90535000D03*
%TO.P,U3,18,IO_13/TCK*%
%TO.N,Net-(D1-AK)*%
X105600000Y-93075000D03*
%TO.P,U3,19,CMD*%
%TO.N,unconnected-(U3-CMD-Pad19)*%
X103060000Y-90535000D03*
%TO.P,U3,20,IO_10/SD3*%
%TO.N,unconnected-(U3-IO_10{slash}SD3-Pad20)*%
X103060000Y-93075000D03*
%TO.P,U3,21,TXD*%
%TO.N,unconnected-(U3-TXD-Pad21)*%
X125920000Y-115935000D03*
%TO.P,U3,22,GND*%
%TO.N,GND*%
X125920000Y-118475000D03*
%TO.P,U3,23,RXD*%
%TO.N,unconnected-(U3-RXD-Pad23)*%
X123380000Y-115935000D03*
%TO.P,U3,24,IO_27*%
%TO.N,MIC_SCK*%
X123380000Y-118475000D03*
%TO.P,U3,25,IO_22/D1/SCL*%
%TO.N,SCL*%
X120840000Y-115935000D03*
%TO.P,U3,26,IO_25*%
%TO.N,MIC_WS*%
X120840000Y-118475000D03*
%TO.P,U3,27,IO_21/D2/SDA*%
%TO.N,SDA*%
X118300000Y-115935000D03*
%TO.P,U3,28,IO_32*%
%TO.N,MIC_SD*%
X118300000Y-118475000D03*
%TO.P,U3,29,IO_17/D3*%
%TO.N,DOUT*%
X115760000Y-115935000D03*
%TO.P,U3,30,IO_12/TDI*%
%TO.N,Net-(U3-IO_12{slash}TDI)*%
X115760000Y-118475000D03*
%TO.P,U3,31,IO_16/D4*%
%TO.N,LRCK*%
X113220000Y-115935000D03*
%TO.P,U3,32,IO_04*%
%TO.N,BCK*%
X113220000Y-118475000D03*
%TO.P,U3,33,GND*%
%TO.N,GND*%
X110680000Y-115935000D03*
%TO.P,U3,34,IO_00*%
%TO.N,MCK*%
X110680000Y-118475000D03*
%TO.P,U3,35,VCC_(USB)*%
%TO.N,+5V_D*%
X108140000Y-115935000D03*
%TO.P,U3,36,IO_02*%
%TO.N,unconnected-(U3-IO_02-Pad36)*%
X108140000Y-118475000D03*
%TO.P,U3,37,TD0*%
%TO.N,unconnected-(U3-TD0-Pad37)*%
X105600000Y-115935000D03*
%TO.P,U3,38,SD1*%
%TO.N,unconnected-(U3-SD1-Pad38)*%
X105600000Y-118475000D03*
%TO.P,U3,39,SD0*%
%TO.N,unconnected-(U3-SD0-Pad39)*%
X103060000Y-115935000D03*
%TO.P,U3,40,CLK*%
%TO.N,unconnected-(U3-CLK-Pad40)*%
X103060000Y-118475000D03*
%TD*%
D17*
%TO.P,R8,1*%
%TO.N,Net-(R8-Pad1)*%
X148780000Y-93710000D03*
D18*
%TO.P,R8,2*%
%TO.N,LED_DATA2*%
X158940000Y-93710000D03*
%TD*%
D15*
%TO.P,C6,1*%
%TO.N,+5V*%
X120332000Y-66232677D03*
D16*
%TO.P,C6,2*%
%TO.N,GND*%
X120332000Y-61232677D03*
%TD*%
D12*
%TO.P,J5,1,Pin_1*%
%TO.N,Net-(J5-Pin_1)*%
X186650000Y-101125000D03*
%TO.P,J5,2,Pin_2*%
%TO.N,LED_DATA3*%
X186650000Y-104935000D03*
%TO.P,J5,3,Pin_3*%
%TO.N,GND*%
X186650000Y-108745000D03*
%TD*%
%TO.P,J4,1,Pin_1*%
%TO.N,Net-(J4-Pin_1)*%
X186650000Y-82095000D03*
%TO.P,J4,2,Pin_2*%
%TO.N,LED_DATA2*%
X186650000Y-85905000D03*
%TO.P,J4,3,Pin_3*%
%TO.N,GND*%
X186650000Y-89715000D03*
%TD*%
D15*
%TO.P,C19,1*%
%TO.N,+5V_LED*%
X152175000Y-120552323D03*
D16*
%TO.P,C19,2*%
%TO.N,GND*%
X152175000Y-125552323D03*
%TD*%
D22*
%TO.N,TOUCH*%
X107950000Y-83185000D03*
%TO.N,Net-(D1-AK)*%
X106045000Y-81280000D03*
%TO.N,Net-(U3-IO_12{slash}TDI)*%
X102235000Y-109220000D03*
X97790000Y-109220000D03*
%TO.N,GND*%
X163385000Y-90535000D03*
X145986000Y-94218000D03*
X114700000Y-123400000D03*
X180276000Y-124698000D03*
X117788000Y-139814000D03*
X179895000Y-105775000D03*
X128016000Y-124460000D03*
X163385000Y-128635000D03*
X143192000Y-83042000D03*
X171640000Y-75168000D03*
X163385000Y-109585000D03*
X177990000Y-67675000D03*
X171640000Y-113268000D03*
X124396000Y-53578000D03*
X128202000Y-141846000D03*
X171640000Y-94472000D03*
X171640000Y-132318000D03*
X118804000Y-130670000D03*
X163385000Y-71485000D03*
X121094000Y-77962000D03*
X136588000Y-90916000D03*
X136838000Y-141846000D03*
X112966000Y-81772000D03*
X136588000Y-92694000D03*
X180276000Y-86598000D03*
X136588000Y-94726000D03*
X141922000Y-79994000D03*
X145986000Y-91424000D03*
%TO.N,+5V_D*%
X136715000Y-87995000D03*
X132270000Y-86090000D03*
%TO.N,SCL*%
X178752000Y-76565000D03*
X168084000Y-114538000D03*
X178752000Y-133588000D03*
X144335000Y-116570000D03*
X178752000Y-114538000D03*
X178752000Y-95488000D03*
%TO.N,SDA*%
X177482000Y-114538000D03*
X177482000Y-95488000D03*
X167576000Y-113522000D03*
X144335000Y-115300000D03*
X177482000Y-133588000D03*
X177482000Y-76565000D03*
%TO.N,+3.3V_ESP*%
X169608000Y-71104000D03*
X171132000Y-107172000D03*
X171132000Y-126222000D03*
X139890000Y-112760000D03*
X171132000Y-88122000D03*
X143065000Y-122920000D03*
%TD*%
D23*
%TO.N,Net-(U3-IO_12{slash}TDI)*%
X97790000Y-109220000D02*
X102235000Y-109220000D01*
%TO.N,TOUCH*%
X108585000Y-88265000D02*
X108585000Y-83820000D01*
X108585000Y-83820000D02*
X107950000Y-83185000D01*
X110680000Y-90535000D02*
X108585000Y-88440000D01*
X108585000Y-88440000D02*
X108585000Y-88265000D01*
D24*
%TO.N,Net-(D1-AK)*%
X106045000Y-81280000D02*
X106857800Y-82092800D01*
X106857800Y-82092800D02*
X106857800Y-91817200D01*
X106857800Y-91817200D02*
X105600000Y-93075000D01*
D25*
%TO.N,GND*%
X110680000Y-115935000D02*
X110680000Y-114030000D01*
D23*
%TO.N,+5V_D*%
X136715000Y-87995000D02*
X134810000Y-86090000D01*
X134810000Y-86090000D02*
X132270000Y-86090000D01*
%TO.N,SCL*%
X168084000Y-114538000D02*
X166052000Y-116570000D01*
X178752000Y-95488000D02*
X178752000Y-114538000D01*
X166052000Y-116570000D02*
X144335000Y-116570000D01*
X178752000Y-114538000D02*
X178752000Y-133588000D01*
X178752000Y-76565000D02*
X178752000Y-95488000D01*
%TO.N,SDA*%
X167576000Y-113522000D02*
X165798000Y-115300000D01*
X177482000Y-95488000D02*
X177482000Y-76565000D01*
X177482000Y-133588000D02*
X177482000Y-114538000D01*
X165798000Y-115300000D02*
X144335000Y-115300000D01*
X177482000Y-114538000D02*
X177482000Y-95488000D01*
D26*
%TO.N,+3.3V_ESP*%
X169608000Y-88122000D02*
X169608000Y-88884000D01*
X143700000Y-117840000D02*
X169608000Y-117840000D01*
D23*
X143065000Y-122920000D02*
X143700000Y-122285000D01*
D26*
X143065000Y-117840000D02*
X142430000Y-117205000D01*
X169608000Y-73644000D02*
X169608000Y-86852000D01*
X169608000Y-88884000D02*
X169608000Y-93202000D01*
X169608000Y-71104000D02*
X169608000Y-73644000D01*
X171132000Y-126222000D02*
X169608000Y-124698000D01*
X142430000Y-117205000D02*
X142430000Y-115300000D01*
X169608000Y-86852000D02*
X169608000Y-88122000D01*
X169608000Y-93202000D02*
X169608000Y-107172000D01*
X143700000Y-117840000D02*
X143065000Y-117840000D01*
X142430000Y-115300000D02*
X139890000Y-112760000D01*
X169608000Y-107172000D02*
X169608000Y-117840000D01*
D23*
X143700000Y-122285000D02*
X143700000Y-117840000D01*
X171132000Y-107172000D02*
X169608000Y-107172000D01*
X169608000Y-88122000D02*
X171132000Y-88122000D01*
D26*
X169608000Y-117840000D02*
X169608000Y-124698000D01*
%TD*%
%TA.AperFunction,Conductor*%
%TO.N,GND*%
G36*
X187017232Y-51818867D02*
G01*
X187029063Y-51828923D01*
X187223961Y-52022883D01*
X187662220Y-52459031D01*
X187690129Y-52513480D01*
X187680704Y-52573935D01*
X187660469Y-52601076D01*
X187563979Y-52692478D01*
X187328778Y-52969379D01*
X187328771Y-52969389D01*
X187124886Y-53270094D01*
X186954700Y-53591097D01*
X186820224Y-53928611D01*
X186820220Y-53928622D01*
X186723027Y-54278678D01*
X186664248Y-54637214D01*
X186644579Y-55000000D01*
X186664248Y-55362785D01*
X186723027Y-55721321D01*
X186820220Y-56071377D01*
X186820224Y-56071388D01*
X186820225Y-56071391D01*
X186838662Y-56117665D01*
X186954700Y-56408902D01*
X187032550Y-56555742D01*
X187124883Y-56729900D01*
X187328773Y-57030614D01*
X187328777Y-57030619D01*
X187328778Y-57030620D01*
X187563974Y-57307516D01*
X187563984Y-57307526D01*
X187827742Y-57557372D01*
X187827746Y-57557375D01*
X188116981Y-57777245D01*
X188428292Y-57964555D01*
X188758031Y-58117108D01*
X189102330Y-58233116D01*
X189102335Y-58233117D01*
X189102338Y-58233118D01*
X189457148Y-58311217D01*
X189457149Y-58311217D01*
X189457153Y-58311218D01*
X189818341Y-58350500D01*
X190181659Y-58350500D01*
X190542847Y-58311218D01*
X190897661Y-58233118D01*
X190897662Y-58233118D01*
X190897664Y-58233117D01*
X190897670Y-58233116D01*
X191241969Y-58117108D01*
X191571708Y-57964555D01*
X191883019Y-57777245D01*
X192172254Y-57557375D01*
X192416523Y-57325991D01*
X192471771Y-57299699D01*
X192531922Y-57310904D01*
X192554438Y-57327691D01*
X193200171Y-57970315D01*
X193200834Y-57970974D01*
X193228743Y-58025423D01*
X193230000Y-58041146D01*
X193230000Y-142962324D01*
X193211093Y-143020515D01*
X193204953Y-143028142D01*
X192098258Y-144271618D01*
X192045447Y-144302516D01*
X191984561Y-144296472D01*
X191964393Y-144284614D01*
X191883015Y-144222752D01*
X191750933Y-144143281D01*
X191571708Y-144035445D01*
X191404447Y-143958062D01*
X191241974Y-143882894D01*
X191241971Y-143882893D01*
X191241969Y-143882892D01*
X190897670Y-143766884D01*
X190897669Y-143766883D01*
X190897661Y-143766881D01*
X190542851Y-143688782D01*
X190542852Y-143688782D01*
X190181659Y-143649500D01*
X189818341Y-143649500D01*
X189457147Y-143688782D01*
X189102339Y-143766881D01*
X189102337Y-143766881D01*
X188758025Y-143882894D01*
X188428300Y-144035441D01*
X188428294Y-144035444D01*
X188116981Y-144222755D01*
X188116976Y-144222758D01*
X187827742Y-144442627D01*
X187563984Y-144692473D01*
X187563974Y-144692483D01*
X187328778Y-144969379D01*
X187328771Y-144969389D01*
X187124886Y-145270094D01*
X186954700Y-145591097D01*
X186820224Y-145928611D01*
X186820220Y-145928622D01*
X186723027Y-146278678D01*
X186664248Y-146637214D01*
X186644579Y-147000000D01*
X186664248Y-147362785D01*
X186723027Y-147721321D01*
X186820220Y-148071377D01*
X186820224Y-148071388D01*
X186820225Y-148071391D01*
X186839167Y-148118933D01*
X186954700Y-148408902D01*
X186954702Y-148408905D01*
X187124883Y-148729900D01*
X187328773Y-149030614D01*
X187328777Y-149030619D01*
X187328778Y-149030620D01*
X187533803Y-149271996D01*
X187557065Y-149328587D01*
X187542620Y-149388043D01*
X187532302Y-149401905D01*
X187029532Y-149966818D01*
X186976721Y-149997716D01*
X186955579Y-150000000D01*
X101040083Y-150000000D01*
X100981892Y-149981093D01*
X100971208Y-149972114D01*
X100839837Y-149844878D01*
X100433923Y-149451741D01*
X100405278Y-149397677D01*
X100413882Y-149337100D01*
X100434184Y-149309486D01*
X100434171Y-149309474D01*
X100434272Y-149309367D01*
X100434731Y-149308742D01*
X100436021Y-149307521D01*
X100671227Y-149030614D01*
X100875117Y-148729900D01*
X101045298Y-148408905D01*
X101179775Y-148071391D01*
X101179779Y-148071377D01*
X101276972Y-147721321D01*
X101300821Y-147575852D01*
X101335751Y-147362785D01*
X101355421Y-147000000D01*
X101335751Y-146637215D01*
X101276973Y-146278684D01*
X101276972Y-146278683D01*
X101276972Y-146278678D01*
X101179779Y-145928622D01*
X101179777Y-145928617D01*
X101179775Y-145928609D01*
X101072615Y-145659657D01*
X101045299Y-145591097D01*
X101025126Y-145553047D01*
X100875117Y-145270100D01*
X100671227Y-144969386D01*
X100501290Y-144769320D01*
X100436025Y-144692483D01*
X100436015Y-144692473D01*
X100172257Y-144442627D01*
X99883023Y-144222758D01*
X99883022Y-144222757D01*
X99883019Y-144222755D01*
X99571708Y-144035445D01*
X99404447Y-143958062D01*
X99241974Y-143882894D01*
X99241971Y-143882893D01*
X99241969Y-143882892D01*
X98897670Y-143766884D01*
X98897669Y-143766883D01*
X98897661Y-143766881D01*
X98542851Y-143688782D01*
X98542852Y-143688782D01*
X98181659Y-143649500D01*
X97818341Y-143649500D01*
X97457147Y-143688782D01*
X97102339Y-143766881D01*
X97102337Y-143766881D01*
X96758025Y-143882894D01*
X96428300Y-144035441D01*
X96428294Y-144035444D01*
X96116981Y-144222755D01*
X96116976Y-144222758D01*
X95827747Y-144442623D01*
X95610579Y-144648336D01*
X95555330Y-144674627D01*
X95495180Y-144663422D01*
X95473622Y-144647576D01*
X94835125Y-144029176D01*
X94806479Y-143975110D01*
X94805000Y-143958062D01*
X94805000Y-136980000D01*
X103252051Y-136980000D01*
X103271816Y-137231146D01*
X103330627Y-137476113D01*
X103427032Y-137708856D01*
X103427035Y-137708862D01*
X103558662Y-137923656D01*
X103558668Y-137923664D01*
X103583763Y-137953047D01*
X103722276Y-138115224D01*
X103722282Y-138115229D01*
X103722285Y-138115232D01*
X103751601Y-138140270D01*
X103913841Y-138278836D01*
X103933862Y-138291105D01*
X104128637Y-138410464D01*
X104128643Y-138410467D01*
X104361387Y-138506872D01*
X104361389Y-138506873D01*
X104606352Y-138565683D01*
X104857500Y-138585449D01*
X105108648Y-138565683D01*
X105353611Y-138506873D01*
X105586359Y-138410466D01*
X105801159Y-138278836D01*
X105886382Y-138206048D01*
X105942907Y-138182633D01*
X106002402Y-138196916D01*
X106027402Y-138218766D01*
X106086382Y-138291099D01*
X106086386Y-138291103D01*
X106086391Y-138291109D01*
X106244093Y-138419698D01*
X106424451Y-138513909D01*
X106620082Y-138569886D01*
X106739463Y-138580500D01*
X108055536Y-138580499D01*
X108174918Y-138569886D01*
X108370549Y-138513909D01*
X108550907Y-138419698D01*
X108708609Y-138291109D01*
X108837198Y-138133407D01*
X108931409Y-137953049D01*
X108987386Y-137757418D01*
X108998000Y-137638037D01*
X108997999Y-136321964D01*
X108987386Y-136202582D01*
X108931409Y-136006951D01*
X108837198Y-135826593D01*
X108708609Y-135668891D01*
X108550907Y-135540302D01*
X108550905Y-135540301D01*
X108550904Y-135540300D01*
X108370547Y-135446090D01*
X108174920Y-135390114D01*
X108135124Y-135386576D01*
X108055537Y-135379500D01*
X108055533Y-135379500D01*
X107458769Y-135379500D01*
X107400578Y-135360593D01*
X107398991Y-135359238D01*
X107389093Y-135359237D01*
X107351716Y-135378282D01*
X107336231Y-135379500D01*
X106739467Y-135379500D01*
X106632991Y-135388966D01*
X106620082Y-135390114D01*
X106620081Y-135390114D01*
X106620076Y-135390115D01*
X106424453Y-135446090D01*
X106244095Y-135540300D01*
X106086391Y-135668890D01*
X106086384Y-135668897D01*
X106027402Y-135741233D01*
X105975975Y-135774383D01*
X105914885Y-135770974D01*
X105886381Y-135753950D01*
X105801164Y-135681168D01*
X105801156Y-135681162D01*
X105586362Y-135549535D01*
X105586356Y-135549532D01*
X105353612Y-135453127D01*
X105353613Y-135453127D01*
X105108647Y-135394316D01*
X104910531Y-135378724D01*
X104863488Y-135359238D01*
X104848638Y-135359237D01*
X104812185Y-135377811D01*
X104804468Y-135378724D01*
X104606352Y-135394316D01*
X104361386Y-135453127D01*
X104128643Y-135549532D01*
X104128637Y-135549535D01*
X103913843Y-135681162D01*
X103913835Y-135681168D01*
X103722285Y-135844767D01*
X103722267Y-135844785D01*
X103558668Y-136036335D01*
X103558662Y-136036343D01*
X103427035Y-136251137D01*
X103427032Y-136251143D01*
X103330627Y-136483886D01*
X103271816Y-136728853D01*
X103252051Y-136980000D01*
X94805000Y-136980000D01*
X94805000Y-134439996D01*
X103502343Y-134439996D01*
X103502343Y-134440003D01*
X103522929Y-134675313D01*
X103560971Y-134817288D01*
X103938260Y-134440000D01*
X103872434Y-134374174D01*
X104357500Y-134374174D01*
X104357500Y-134505826D01*
X104391575Y-134632993D01*
X104457401Y-134747007D01*
X104550493Y-134840099D01*
X104664507Y-134905925D01*
X104791674Y-134940000D01*
X104923326Y-134940000D01*
X105050493Y-134905925D01*
X105164507Y-134840099D01*
X105257599Y-134747007D01*
X105323425Y-134632993D01*
X105357500Y-134505826D01*
X105357500Y-134440000D01*
X105776738Y-134440000D01*
X106127499Y-134790760D01*
X106478261Y-134439999D01*
X106412436Y-134374174D01*
X106897500Y-134374174D01*
X106897500Y-134505826D01*
X106931575Y-134632993D01*
X106997401Y-134747007D01*
X107090493Y-134840099D01*
X107204507Y-134905925D01*
X107331674Y-134940000D01*
X107463326Y-134940000D01*
X107590493Y-134905925D01*
X107704507Y-134840099D01*
X107797599Y-134747007D01*
X107863425Y-134632993D01*
X107897500Y-134505826D01*
X107897500Y-134440000D01*
X108316738Y-134440000D01*
X108694027Y-134817288D01*
X108732070Y-134675312D01*
X108747845Y-134495000D01*
X133293708Y-134495000D01*
X133294867Y-134497485D01*
X133425334Y-134683811D01*
X133586188Y-134844665D01*
X133772516Y-134975133D01*
X133775000Y-134976290D01*
X133775000Y-134495001D01*
X135075000Y-134495001D01*
X135075000Y-134976290D01*
X135077483Y-134975133D01*
X135263811Y-134844665D01*
X135424665Y-134683811D01*
X135555132Y-134497485D01*
X135556292Y-134495000D01*
X140913708Y-134495000D01*
X140914867Y-134497485D01*
X141045334Y-134683811D01*
X141206188Y-134844665D01*
X141392516Y-134975133D01*
X141395000Y-134976290D01*
X141395000Y-134495001D01*
X142695000Y-134495001D01*
X142695000Y-134976290D01*
X142697483Y-134975133D01*
X142883811Y-134844665D01*
X143044665Y-134683811D01*
X143175132Y-134497485D01*
X143176292Y-134495000D01*
X142695001Y-134495000D01*
X142695000Y-134495001D01*
X141395000Y-134495001D01*
X141394999Y-134495000D01*
X140913708Y-134495000D01*
X135556292Y-134495000D01*
X135075001Y-134495000D01*
X135075000Y-134495001D01*
X133775000Y-134495001D01*
X133774999Y-134495000D01*
X133293708Y-134495000D01*
X108747845Y-134495000D01*
X108752657Y-134440003D01*
X108752657Y-134439996D01*
X108732070Y-134204687D01*
X108694027Y-134062711D01*
X108316738Y-134440000D01*
X107897500Y-134440000D01*
X107897500Y-134374174D01*
X107863425Y-134247007D01*
X107797599Y-134132993D01*
X107704507Y-134039901D01*
X107590493Y-133974075D01*
X107463326Y-133940000D01*
X107331674Y-133940000D01*
X107204507Y-133974075D01*
X107090493Y-134039901D01*
X106997401Y-134132993D01*
X106931575Y-134247007D01*
X106897500Y-134374174D01*
X106412436Y-134374174D01*
X106127500Y-134089238D01*
X105776738Y-134440000D01*
X105357500Y-134440000D01*
X105357500Y-134374174D01*
X105323425Y-134247007D01*
X105257599Y-134132993D01*
X105164507Y-134039901D01*
X105050493Y-133974075D01*
X104923326Y-133940000D01*
X104791674Y-133940000D01*
X104664507Y-133974075D01*
X104550493Y-134039901D01*
X104457401Y-134132993D01*
X104391575Y-134247007D01*
X104357500Y-134374174D01*
X103872434Y-134374174D01*
X103560971Y-134062711D01*
X103522929Y-134204686D01*
X103502343Y-134439996D01*
X94805000Y-134439996D01*
X94805000Y-133792339D01*
X134025000Y-133792339D01*
X134025000Y-133897661D01*
X134052259Y-133999394D01*
X134104920Y-134090606D01*
X134179394Y-134165080D01*
X134270606Y-134217741D01*
X134372339Y-134245000D01*
X134477661Y-134245000D01*
X134579394Y-134217741D01*
X134670606Y-134165080D01*
X134745080Y-134090606D01*
X134797741Y-133999394D01*
X134825000Y-133897661D01*
X134825000Y-133792339D01*
X141645000Y-133792339D01*
X141645000Y-133897661D01*
X141672259Y-133999394D01*
X141724920Y-134090606D01*
X141799394Y-134165080D01*
X141890606Y-134217741D01*
X141992339Y-134245000D01*
X142097661Y-134245000D01*
X142199394Y-134217741D01*
X142290606Y-134165080D01*
X142365080Y-134090606D01*
X142417741Y-133999394D01*
X142445000Y-133897661D01*
X142445000Y-133792339D01*
X142417741Y-133690606D01*
X142365080Y-133599394D01*
X142290606Y-133524920D01*
X142199394Y-133472259D01*
X142097661Y-133445000D01*
X141992339Y-133445000D01*
X141890606Y-133472259D01*
X141799394Y-133524920D01*
X141724920Y-133599394D01*
X141672259Y-133690606D01*
X141645000Y-133792339D01*
X134825000Y-133792339D01*
X134797741Y-133690606D01*
X134745080Y-133599394D01*
X134670606Y-133524920D01*
X134579394Y-133472259D01*
X134477661Y-133445000D01*
X134372339Y-133445000D01*
X134270606Y-133472259D01*
X134179394Y-133524920D01*
X134104920Y-133599394D01*
X134052259Y-133690606D01*
X134025000Y-133792339D01*
X94805000Y-133792339D01*
X94805000Y-133170000D01*
X104506738Y-133170000D01*
X104857499Y-133520760D01*
X105208261Y-133169999D01*
X104857500Y-132819238D01*
X104506738Y-133170000D01*
X94805000Y-133170000D01*
X94805000Y-131899996D01*
X103502343Y-131899996D01*
X103502343Y-131900003D01*
X103522929Y-132135313D01*
X103560971Y-132277288D01*
X103938260Y-131900000D01*
X103872434Y-131834174D01*
X104357500Y-131834174D01*
X104357500Y-131965826D01*
X104391575Y-132092993D01*
X104457401Y-132207007D01*
X104550493Y-132300099D01*
X104664507Y-132365925D01*
X104791674Y-132400000D01*
X104923326Y-132400000D01*
X105050493Y-132365925D01*
X105164507Y-132300099D01*
X105257599Y-132207007D01*
X105323425Y-132092993D01*
X105357500Y-131965826D01*
X105357500Y-131834174D01*
X105323425Y-131707007D01*
X105257599Y-131592993D01*
X105164507Y-131499901D01*
X105050493Y-131434075D01*
X104923326Y-131400000D01*
X104791674Y-131400000D01*
X104664507Y-131434075D01*
X104550493Y-131499901D01*
X104457401Y-131592993D01*
X104391575Y-131707007D01*
X104357500Y-131834174D01*
X103872434Y-131834174D01*
X103560971Y-131522711D01*
X103522929Y-131664686D01*
X103502343Y-131899996D01*
X94805000Y-131899996D01*
X94805000Y-126820000D01*
X103252051Y-126820000D01*
X103271816Y-127071146D01*
X103330627Y-127316113D01*
X103427032Y-127548856D01*
X103427035Y-127548862D01*
X103558662Y-127763656D01*
X103558668Y-127763664D01*
X103701634Y-127931056D01*
X103722276Y-127955224D01*
X103774701Y-127999999D01*
X103791937Y-128014720D01*
X103823906Y-128066889D01*
X103819105Y-128127886D01*
X103791937Y-128165280D01*
X103722279Y-128224773D01*
X103722267Y-128224785D01*
X103558668Y-128416335D01*
X103558662Y-128416343D01*
X103427035Y-128631137D01*
X103427032Y-128631143D01*
X103330627Y-128863886D01*
X103271816Y-129108853D01*
X103252051Y-129360000D01*
X103271816Y-129611146D01*
X103330627Y-129856113D01*
X103427032Y-130088856D01*
X103427035Y-130088862D01*
X103558662Y-130303656D01*
X103558668Y-130303664D01*
X103662779Y-130425563D01*
X103722276Y-130495224D01*
X103722282Y-130495229D01*
X103722285Y-130495232D01*
X103791937Y-130554720D01*
X103913841Y-130658836D01*
X103985441Y-130702712D01*
X104128637Y-130790464D01*
X104128643Y-130790467D01*
X104361387Y-130886872D01*
X104361389Y-130886873D01*
X104606352Y-130945683D01*
X104804470Y-130961275D01*
X104851514Y-130980761D01*
X104866362Y-130980760D01*
X104902807Y-130962189D01*
X104910500Y-130961277D01*
X105108648Y-130945683D01*
X105353611Y-130886873D01*
X105586359Y-130790466D01*
X105801159Y-130658836D01*
X105992724Y-130495224D01*
X106052220Y-130425563D01*
X106104389Y-130393593D01*
X106165385Y-130398394D01*
X106202780Y-130425563D01*
X106262276Y-130495224D01*
X106331937Y-130554720D01*
X106363906Y-130606889D01*
X106359105Y-130667886D01*
X106331937Y-130705280D01*
X106262279Y-130764773D01*
X106262267Y-130764785D01*
X106098668Y-130956335D01*
X106098662Y-130956343D01*
X105967035Y-131171137D01*
X105967032Y-131171143D01*
X105870627Y-131403886D01*
X105811816Y-131648852D01*
X105796224Y-131846968D01*
X105776737Y-131894011D01*
X105776738Y-131908863D01*
X105795310Y-131945310D01*
X105796224Y-131953031D01*
X105811816Y-132151147D01*
X105870627Y-132396113D01*
X105967032Y-132628856D01*
X105967035Y-132628862D01*
X106098662Y-132843656D01*
X106098668Y-132843664D01*
X106237476Y-133006188D01*
X106262276Y-133035224D01*
X106262282Y-133035229D01*
X106262285Y-133035232D01*
X106450257Y-133195775D01*
X106453841Y-133198836D01*
X106453843Y-133198837D01*
X106668637Y-133330464D01*
X106668643Y-133330467D01*
X106785015Y-133378669D01*
X106793212Y-133382065D01*
X106901387Y-133426872D01*
X106901389Y-133426873D01*
X107146352Y-133485683D01*
X107344470Y-133501275D01*
X107391514Y-133520761D01*
X107406362Y-133520760D01*
X107442807Y-133502189D01*
X107450500Y-133501277D01*
X107648648Y-133485683D01*
X107893611Y-133426873D01*
X108126359Y-133330466D01*
X108341159Y-133198836D01*
X108532724Y-133035224D01*
X108696336Y-132843659D01*
X108827966Y-132628859D01*
X108924373Y-132396111D01*
X108983183Y-132151148D01*
X109002949Y-131900000D01*
X108983183Y-131648852D01*
X108924373Y-131403889D01*
X108827966Y-131171141D01*
X108786767Y-131103911D01*
X108740212Y-131027941D01*
X108696336Y-130956341D01*
X108637004Y-130886872D01*
X108532732Y-130764785D01*
X108532729Y-130764782D01*
X108532724Y-130764776D01*
X108532717Y-130764770D01*
X108532714Y-130764767D01*
X108463063Y-130705280D01*
X108431093Y-130653111D01*
X108435894Y-130592115D01*
X108463063Y-130554720D01*
X108474263Y-130545153D01*
X108532724Y-130495224D01*
X108696336Y-130303659D01*
X108827966Y-130088859D01*
X108924373Y-129856111D01*
X108983183Y-129611148D01*
X109002949Y-129360000D01*
X108983183Y-129108852D01*
X108924373Y-128863889D01*
X108883412Y-128765000D01*
X132869706Y-128765000D01*
X132888853Y-129008300D01*
X132945828Y-129245613D01*
X132945829Y-129245616D01*
X133039219Y-129471081D01*
X133039224Y-129471092D01*
X133166739Y-129679176D01*
X133166745Y-129679184D01*
X133317856Y-129856113D01*
X133325241Y-129864759D01*
X133405681Y-129933461D01*
X133436426Y-129959720D01*
X133468395Y-130011889D01*
X133463594Y-130072886D01*
X133436426Y-130110280D01*
X133325244Y-130205238D01*
X133325232Y-130205250D01*
X133166745Y-130390815D01*
X133166739Y-130390823D01*
X133039224Y-130598907D01*
X133039219Y-130598918D01*
X132945829Y-130824383D01*
X132945828Y-130824386D01*
X132888853Y-131061699D01*
X132869706Y-131305000D01*
X132888853Y-131548300D01*
X132945828Y-131785613D01*
X132945829Y-131785616D01*
X133039219Y-132011081D01*
X133039224Y-132011092D01*
X133166739Y-132219176D01*
X133166745Y-132219184D01*
X133317856Y-132396113D01*
X133325241Y-132404759D01*
X133325247Y-132404764D01*
X133325250Y-132404767D01*
X133455592Y-132516089D01*
X133510821Y-132563259D01*
X133555774Y-132590806D01*
X133637096Y-132640641D01*
X133676832Y-132687167D01*
X133681633Y-132748163D01*
X133649663Y-132800332D01*
X133642152Y-132806148D01*
X133586188Y-132845334D01*
X133425334Y-133006188D01*
X133294867Y-133192514D01*
X133293708Y-133195000D01*
X135556291Y-133195000D01*
X135555132Y-133192514D01*
X135424665Y-133006188D01*
X135263811Y-132845334D01*
X135207847Y-132806148D01*
X135171025Y-132757284D01*
X135169957Y-132696108D01*
X135205051Y-132645987D01*
X135212904Y-132640641D01*
X135339171Y-132563264D01*
X135339171Y-132563263D01*
X135339179Y-132563259D01*
X135524759Y-132404759D01*
X135683259Y-132219179D01*
X135810777Y-132011089D01*
X135904172Y-131785612D01*
X135961146Y-131548302D01*
X135980294Y-131305000D01*
X135961146Y-131061698D01*
X135904172Y-130824388D01*
X135810777Y-130598911D01*
X135806612Y-130592115D01*
X135687900Y-130398394D01*
X135683259Y-130390821D01*
X135524759Y-130205241D01*
X135524752Y-130205235D01*
X135524749Y-130205232D01*
X135413574Y-130110280D01*
X135381604Y-130058111D01*
X135386405Y-129997114D01*
X135413574Y-129959720D01*
X135445188Y-129932718D01*
X135524759Y-129864759D01*
X135683259Y-129679179D01*
X135810777Y-129471089D01*
X135904172Y-129245612D01*
X135961146Y-129008302D01*
X135980294Y-128765000D01*
X140489706Y-128765000D01*
X140508853Y-129008300D01*
X140565828Y-129245613D01*
X140565829Y-129245616D01*
X140659219Y-129471081D01*
X140659224Y-129471092D01*
X140786739Y-129679176D01*
X140786745Y-129679184D01*
X140937856Y-129856113D01*
X140945241Y-129864759D01*
X141025681Y-129933461D01*
X141056426Y-129959720D01*
X141088395Y-130011889D01*
X141083594Y-130072886D01*
X141056426Y-130110280D01*
X140945244Y-130205238D01*
X140945232Y-130205250D01*
X140786745Y-130390815D01*
X140786739Y-130390823D01*
X140659224Y-130598907D01*
X140659219Y-130598918D01*
X140565829Y-130824383D01*
X140565828Y-130824386D01*
X140508853Y-131061699D01*
X140489706Y-131305000D01*
X140508853Y-131548300D01*
X140565828Y-131785613D01*
X140565829Y-131785616D01*
X140659219Y-132011081D01*
X140659224Y-132011092D01*
X140786739Y-132219176D01*
X140786745Y-132219184D01*
X140937856Y-132396113D01*
X140945241Y-132404759D01*
X140945247Y-132404764D01*
X140945250Y-132404767D01*
X141075592Y-132516089D01*
X141130821Y-132563259D01*
X141175774Y-132590806D01*
X141257096Y-132640641D01*
X141296832Y-132687167D01*
X141301633Y-132748163D01*
X141269663Y-132800332D01*
X141262152Y-132806148D01*
X141206188Y-132845334D01*
X141045334Y-133006188D01*
X140914867Y-133192514D01*
X140913708Y-133195000D01*
X143176291Y-133195000D01*
X143175132Y-133192514D01*
X143044665Y-133006188D01*
X142883811Y-132845334D01*
X142827847Y-132806148D01*
X142791025Y-132757284D01*
X142789957Y-132696108D01*
X142825051Y-132645987D01*
X142832904Y-132640641D01*
X142959171Y-132563264D01*
X142959171Y-132563263D01*
X142959179Y-132563259D01*
X143144759Y-132404759D01*
X143303259Y-132219179D01*
X143430777Y-132011089D01*
X143514070Y-131810000D01*
X147224706Y-131810000D01*
X147243853Y-132053300D01*
X147300828Y-132290613D01*
X147300829Y-132290616D01*
X147394219Y-132516081D01*
X147394224Y-132516092D01*
X147521739Y-132724176D01*
X147521745Y-132724184D01*
X147661847Y-132888223D01*
X147680241Y-132909759D01*
X147865821Y-133068259D01*
X147865823Y-133068260D01*
X148073907Y-133195775D01*
X148073918Y-133195780D01*
X148287771Y-133284360D01*
X148299388Y-133289172D01*
X148536698Y-133346146D01*
X148780000Y-133365294D01*
X149023302Y-133346146D01*
X149260612Y-133289172D01*
X149486089Y-133195777D01*
X149694179Y-133068259D01*
X149879759Y-132909759D01*
X150038259Y-132724179D01*
X150165777Y-132516089D01*
X150259172Y-132290612D01*
X150316146Y-132053302D01*
X150335294Y-131810000D01*
X157384706Y-131810000D01*
X157403853Y-132053300D01*
X157460828Y-132290613D01*
X157460829Y-132290616D01*
X157554219Y-132516081D01*
X157554224Y-132516092D01*
X157681739Y-132724176D01*
X157681745Y-132724184D01*
X157821847Y-132888223D01*
X157840241Y-132909759D01*
X158025821Y-133068259D01*
X158025823Y-133068260D01*
X158233907Y-133195775D01*
X158233918Y-133195780D01*
X158447771Y-133284360D01*
X158459388Y-133289172D01*
X158696698Y-133346146D01*
X158940000Y-133365294D01*
X159183302Y-133346146D01*
X159420612Y-133289172D01*
X159646089Y-133195777D01*
X159854179Y-133068259D01*
X160039759Y-132909759D01*
X160198259Y-132724179D01*
X160325777Y-132516089D01*
X160419172Y-132290612D01*
X160476146Y-132053302D01*
X160495294Y-131810000D01*
X160476146Y-131566698D01*
X160419172Y-131329388D01*
X160325777Y-131103911D01*
X160299909Y-131061699D01*
X160235342Y-130956335D01*
X160198259Y-130895821D01*
X160137245Y-130824383D01*
X160039767Y-130710250D01*
X160039764Y-130710247D01*
X160039759Y-130710241D01*
X160039752Y-130710235D01*
X160039749Y-130710232D01*
X159854184Y-130551745D01*
X159854176Y-130551739D01*
X159646092Y-130424224D01*
X159646081Y-130424219D01*
X159420616Y-130330829D01*
X159420613Y-130330828D01*
X159183300Y-130273853D01*
X158940000Y-130254706D01*
X158696699Y-130273853D01*
X158459386Y-130330828D01*
X158459383Y-130330829D01*
X158233918Y-130424219D01*
X158233907Y-130424224D01*
X158025823Y-130551739D01*
X158025815Y-130551745D01*
X157840250Y-130710232D01*
X157840232Y-130710250D01*
X157681745Y-130895815D01*
X157681739Y-130895823D01*
X157554224Y-131103907D01*
X157554219Y-131103918D01*
X157460829Y-131329383D01*
X157460828Y-131329386D01*
X157403853Y-131566699D01*
X157384706Y-131810000D01*
X150335294Y-131810000D01*
X150316146Y-131566698D01*
X150259172Y-131329388D01*
X150165777Y-131103911D01*
X150139909Y-131061699D01*
X150075342Y-130956335D01*
X150038259Y-130895821D01*
X149977245Y-130824383D01*
X149879767Y-130710250D01*
X149879764Y-130710247D01*
X149879759Y-130710241D01*
X149879752Y-130710235D01*
X149879749Y-130710232D01*
X149694184Y-130551745D01*
X149694176Y-130551739D01*
X149486092Y-130424224D01*
X149486081Y-130424219D01*
X149260616Y-130330829D01*
X149260613Y-130330828D01*
X149023300Y-130273853D01*
X148780000Y-130254706D01*
X148536699Y-130273853D01*
X148299386Y-130330828D01*
X148299383Y-130330829D01*
X148073918Y-130424219D01*
X148073907Y-130424224D01*
X147865823Y-130551739D01*
X147865815Y-130551745D01*
X147680250Y-130710232D01*
X147680232Y-130710250D01*
X147521745Y-130895815D01*
X147521739Y-130895823D01*
X147394224Y-131103907D01*
X147394219Y-131103918D01*
X147300829Y-131329383D01*
X147300828Y-131329386D01*
X147243853Y-131566699D01*
X147224706Y-131810000D01*
X143514070Y-131810000D01*
X143524172Y-131785612D01*
X143581146Y-131548302D01*
X143600294Y-131305000D01*
X143581146Y-131061698D01*
X143524172Y-130824388D01*
X143430777Y-130598911D01*
X143426612Y-130592115D01*
X143307900Y-130398394D01*
X143303259Y-130390821D01*
X143144759Y-130205241D01*
X143144752Y-130205235D01*
X143144749Y-130205232D01*
X143033574Y-130110280D01*
X143001604Y-130058111D01*
X143006405Y-129997114D01*
X143033574Y-129959720D01*
X143065188Y-129932718D01*
X143144759Y-129864759D01*
X143303259Y-129679179D01*
X143430777Y-129471089D01*
X143524172Y-129245612D01*
X143581146Y-129008302D01*
X143600294Y-128765000D01*
X143581146Y-128521698D01*
X143524172Y-128284388D01*
X143430777Y-128058911D01*
X143426612Y-128052115D01*
X143303260Y-127850823D01*
X143303259Y-127850821D01*
X143221037Y-127754551D01*
X143144767Y-127665250D01*
X143144764Y-127665247D01*
X143144759Y-127665241D01*
X143144752Y-127665235D01*
X143144749Y-127665232D01*
X142959184Y-127506745D01*
X142959176Y-127506739D01*
X142751092Y-127379224D01*
X142751081Y-127379219D01*
X142525616Y-127285829D01*
X142525613Y-127285828D01*
X142288300Y-127228853D01*
X142045000Y-127209706D01*
X141801699Y-127228853D01*
X141564386Y-127285828D01*
X141564383Y-127285829D01*
X141338918Y-127379219D01*
X141338907Y-127379224D01*
X141130823Y-127506739D01*
X141130815Y-127506745D01*
X140945250Y-127665232D01*
X140945232Y-127665250D01*
X140786745Y-127850815D01*
X140786739Y-127850823D01*
X140659224Y-128058907D01*
X140659219Y-128058918D01*
X140565829Y-128284383D01*
X140565828Y-128284386D01*
X140508853Y-128521699D01*
X140489706Y-128765000D01*
X135980294Y-128765000D01*
X135961146Y-128521698D01*
X135904172Y-128284388D01*
X135810777Y-128058911D01*
X135806612Y-128052115D01*
X135683260Y-127850823D01*
X135683259Y-127850821D01*
X135601037Y-127754551D01*
X135524767Y-127665250D01*
X135524764Y-127665247D01*
X135524759Y-127665241D01*
X135524752Y-127665235D01*
X135524749Y-127665232D01*
X135339184Y-127506745D01*
X135339176Y-127506739D01*
X135131092Y-127379224D01*
X135131081Y-127379219D01*
X134905616Y-127285829D01*
X134905613Y-127285828D01*
X134668300Y-127228853D01*
X134425000Y-127209706D01*
X134181699Y-127228853D01*
X133944386Y-127285828D01*
X133944383Y-127285829D01*
X133718918Y-127379219D01*
X133718907Y-127379224D01*
X133510823Y-127506739D01*
X133510815Y-127506745D01*
X133325250Y-127665232D01*
X133325232Y-127665250D01*
X133166745Y-127850815D01*
X133166739Y-127850823D01*
X133039224Y-128058907D01*
X133039219Y-128058918D01*
X132945829Y-128284383D01*
X132945828Y-128284386D01*
X132888853Y-128521699D01*
X132869706Y-128765000D01*
X108883412Y-128765000D01*
X108827966Y-128631141D01*
X108821342Y-128620332D01*
X108696337Y-128416343D01*
X108696336Y-128416341D01*
X108592220Y-128294437D01*
X108532732Y-128224785D01*
X108532729Y-128224782D01*
X108532724Y-128224776D01*
X108532717Y-128224770D01*
X108532714Y-128224767D01*
X108341164Y-128061168D01*
X108341156Y-128061162D01*
X108126362Y-127929535D01*
X108126356Y-127929532D01*
X107893612Y-127833127D01*
X107893613Y-127833127D01*
X107648647Y-127774316D01*
X107450531Y-127758724D01*
X107403488Y-127739238D01*
X107388638Y-127739237D01*
X107352185Y-127757811D01*
X107344468Y-127758724D01*
X107146352Y-127774316D01*
X106901386Y-127833127D01*
X106668643Y-127929532D01*
X106668637Y-127929535D01*
X106453843Y-128061162D01*
X106453835Y-128061168D01*
X106262285Y-128224767D01*
X106262276Y-128224776D01*
X106211363Y-128284388D01*
X106202780Y-128294437D01*
X106150611Y-128326406D01*
X106089614Y-128321605D01*
X106052220Y-128294437D01*
X105992724Y-128224776D01*
X105992717Y-128224770D01*
X105992714Y-128224767D01*
X105923063Y-128165280D01*
X105891093Y-128113111D01*
X105895894Y-128052115D01*
X105923063Y-128014720D01*
X105940299Y-127999999D01*
X105992724Y-127955224D01*
X106156336Y-127763659D01*
X106287966Y-127548859D01*
X106384373Y-127316111D01*
X106443183Y-127071148D01*
X106458775Y-126873028D01*
X106478260Y-126825985D01*
X106478261Y-126811140D01*
X106459688Y-126774687D01*
X106458777Y-126766996D01*
X106457768Y-126754174D01*
X106897500Y-126754174D01*
X106897500Y-126885826D01*
X106931575Y-127012993D01*
X106997401Y-127127007D01*
X107090493Y-127220099D01*
X107204507Y-127285925D01*
X107331674Y-127320000D01*
X107463326Y-127320000D01*
X107590493Y-127285925D01*
X107704507Y-127220099D01*
X107797599Y-127127007D01*
X107863425Y-127012993D01*
X107897500Y-126885826D01*
X107897500Y-126820000D01*
X108316738Y-126820000D01*
X108694027Y-127197288D01*
X108732070Y-127055312D01*
X108739720Y-126967870D01*
X151678691Y-126967870D01*
X151805513Y-127011407D01*
X152050706Y-127052323D01*
X152299294Y-127052323D01*
X152544488Y-127011407D01*
X152671307Y-126967870D01*
X152174999Y-126471562D01*
X151678691Y-126967870D01*
X108739720Y-126967870D01*
X108752657Y-126820003D01*
X108752657Y-126819996D01*
X108732070Y-126584687D01*
X108694027Y-126442711D01*
X108316738Y-126820000D01*
X107897500Y-126820000D01*
X107897500Y-126754174D01*
X107863425Y-126627007D01*
X107797599Y-126512993D01*
X107704507Y-126419901D01*
X107590493Y-126354075D01*
X107463326Y-126320000D01*
X107331674Y-126320000D01*
X107204507Y-126354075D01*
X107090493Y-126419901D01*
X106997401Y-126512993D01*
X106931575Y-126627007D01*
X106897500Y-126754174D01*
X106457768Y-126754174D01*
X106443183Y-126568852D01*
X106384373Y-126323889D01*
X106375781Y-126303147D01*
X106287967Y-126091143D01*
X106287964Y-126091137D01*
X106156337Y-125876343D01*
X106156336Y-125876341D01*
X106030248Y-125728711D01*
X105992732Y-125684785D01*
X105992729Y-125684782D01*
X105992724Y-125684776D01*
X105992717Y-125684770D01*
X105992714Y-125684767D01*
X105803860Y-125523471D01*
X107020211Y-125523471D01*
X107397500Y-125900760D01*
X107745936Y-125552323D01*
X150669859Y-125552323D01*
X150690386Y-125800059D01*
X150751412Y-126041040D01*
X150756176Y-126051905D01*
X151255759Y-125552322D01*
X151189934Y-125486497D01*
X151675000Y-125486497D01*
X151675000Y-125618149D01*
X151709075Y-125745316D01*
X151774901Y-125859330D01*
X151867993Y-125952422D01*
X151982007Y-126018248D01*
X152109174Y-126052323D01*
X152240826Y-126052323D01*
X152367993Y-126018248D01*
X152482007Y-125952422D01*
X152575099Y-125859330D01*
X152640925Y-125745316D01*
X152675000Y-125618149D01*
X152675000Y-125552322D01*
X153094239Y-125552322D01*
X153593822Y-126051905D01*
X153598585Y-126041046D01*
X153598586Y-126041042D01*
X153659613Y-125800059D01*
X153680140Y-125552323D01*
X153659613Y-125304586D01*
X153598588Y-125063604D01*
X153593822Y-125052739D01*
X153094239Y-125552322D01*
X152675000Y-125552322D01*
X152675000Y-125486497D01*
X152640925Y-125359330D01*
X152575099Y-125245316D01*
X152482007Y-125152224D01*
X152367993Y-125086398D01*
X152240826Y-125052323D01*
X152109174Y-125052323D01*
X151982007Y-125086398D01*
X151867993Y-125152224D01*
X151774901Y-125245316D01*
X151709075Y-125359330D01*
X151675000Y-125486497D01*
X151189934Y-125486497D01*
X150756177Y-125052740D01*
X150751412Y-125063605D01*
X150690386Y-125304586D01*
X150669859Y-125552323D01*
X107745936Y-125552323D01*
X107774788Y-125523471D01*
X107632813Y-125485429D01*
X107397503Y-125464843D01*
X107397497Y-125464843D01*
X107162186Y-125485429D01*
X107020211Y-125523471D01*
X105803860Y-125523471D01*
X105801164Y-125521168D01*
X105801156Y-125521162D01*
X105586362Y-125389535D01*
X105586356Y-125389532D01*
X105353612Y-125293127D01*
X105353613Y-125293127D01*
X105108646Y-125234316D01*
X104857500Y-125214551D01*
X104606353Y-125234316D01*
X104361386Y-125293127D01*
X104128643Y-125389532D01*
X104128637Y-125389535D01*
X103913843Y-125521162D01*
X103913835Y-125521168D01*
X103722285Y-125684767D01*
X103722267Y-125684785D01*
X103558668Y-125876335D01*
X103558662Y-125876343D01*
X103427035Y-126091137D01*
X103427032Y-126091143D01*
X103330627Y-126323886D01*
X103271816Y-126568853D01*
X103252051Y-126820000D01*
X94805000Y-126820000D01*
X94805000Y-124136774D01*
X151678691Y-124136774D01*
X152174999Y-124633082D01*
X152671307Y-124136774D01*
X152544492Y-124093239D01*
X152299294Y-124052323D01*
X152050706Y-124052323D01*
X151805507Y-124093239D01*
X151678691Y-124136774D01*
X94805000Y-124136774D01*
X94805000Y-115934997D01*
X101354732Y-115934997D01*
X101354732Y-115935000D01*
X101373777Y-116189152D01*
X101373779Y-116189161D01*
X101430492Y-116437639D01*
X101495391Y-116602996D01*
X101523607Y-116674888D01*
X101651041Y-116895612D01*
X101651045Y-116895618D01*
X101651047Y-116895620D01*
X101809945Y-117094873D01*
X101809951Y-117094879D01*
X101850419Y-117132428D01*
X101880216Y-117185868D01*
X101872910Y-117246616D01*
X101850419Y-117277572D01*
X101809951Y-117315120D01*
X101809945Y-117315126D01*
X101651047Y-117514379D01*
X101651043Y-117514384D01*
X101651041Y-117514388D01*
X101603049Y-117597513D01*
X101523608Y-117735109D01*
X101523604Y-117735118D01*
X101430492Y-117972360D01*
X101373779Y-118220838D01*
X101373777Y-118220847D01*
X101354732Y-118474997D01*
X101354732Y-118475000D01*
X101373777Y-118729152D01*
X101373779Y-118729161D01*
X101430492Y-118977639D01*
X101523604Y-119214881D01*
X101523608Y-119214890D01*
X101537464Y-119238890D01*
X101651041Y-119435612D01*
X101651045Y-119435618D01*
X101651047Y-119435620D01*
X101809940Y-119634866D01*
X101809951Y-119634878D01*
X101996776Y-119808226D01*
X101996778Y-119808227D01*
X101996783Y-119808232D01*
X102207366Y-119951805D01*
X102436996Y-120062389D01*
X102680542Y-120137513D01*
X102932565Y-120175500D01*
X102932570Y-120175500D01*
X103187430Y-120175500D01*
X103187435Y-120175500D01*
X103439458Y-120137513D01*
X103683004Y-120062389D01*
X103912634Y-119951805D01*
X104123217Y-119808232D01*
X104190479Y-119745821D01*
X104262663Y-119678846D01*
X104318180Y-119653126D01*
X104378212Y-119664951D01*
X104397337Y-119678846D01*
X104536776Y-119808226D01*
X104536778Y-119808227D01*
X104536783Y-119808232D01*
X104747366Y-119951805D01*
X104976996Y-120062389D01*
X105220542Y-120137513D01*
X105472565Y-120175500D01*
X105472570Y-120175500D01*
X105727430Y-120175500D01*
X105727435Y-120175500D01*
X105979458Y-120137513D01*
X106223004Y-120062389D01*
X106452634Y-119951805D01*
X106663217Y-119808232D01*
X106730479Y-119745821D01*
X106802663Y-119678846D01*
X106858180Y-119653126D01*
X106918212Y-119664951D01*
X106937337Y-119678846D01*
X107076776Y-119808226D01*
X107076778Y-119808227D01*
X107076783Y-119808232D01*
X107287366Y-119951805D01*
X107516996Y-120062389D01*
X107760542Y-120137513D01*
X108012565Y-120175500D01*
X108012570Y-120175500D01*
X108267430Y-120175500D01*
X108267435Y-120175500D01*
X108519458Y-120137513D01*
X108763004Y-120062389D01*
X108992634Y-119951805D01*
X109203217Y-119808232D01*
X109270479Y-119745821D01*
X109342663Y-119678846D01*
X109398180Y-119653126D01*
X109458212Y-119664951D01*
X109477337Y-119678846D01*
X109616776Y-119808226D01*
X109616778Y-119808227D01*
X109616783Y-119808232D01*
X109827366Y-119951805D01*
X110056996Y-120062389D01*
X110300542Y-120137513D01*
X110552565Y-120175500D01*
X110552570Y-120175500D01*
X110807430Y-120175500D01*
X110807435Y-120175500D01*
X111059458Y-120137513D01*
X111303004Y-120062389D01*
X111532634Y-119951805D01*
X111743217Y-119808232D01*
X111810479Y-119745821D01*
X111882663Y-119678846D01*
X111938180Y-119653126D01*
X111998212Y-119664951D01*
X112017337Y-119678846D01*
X112156776Y-119808226D01*
X112156778Y-119808227D01*
X112156783Y-119808232D01*
X112367366Y-119951805D01*
X112596996Y-120062389D01*
X112840542Y-120137513D01*
X113092565Y-120175500D01*
X113092570Y-120175500D01*
X113347430Y-120175500D01*
X113347435Y-120175500D01*
X113599458Y-120137513D01*
X113843004Y-120062389D01*
X114072634Y-119951805D01*
X114283217Y-119808232D01*
X114350479Y-119745821D01*
X114422663Y-119678846D01*
X114478180Y-119653126D01*
X114538212Y-119664951D01*
X114557337Y-119678846D01*
X114696776Y-119808226D01*
X114696778Y-119808227D01*
X114696783Y-119808232D01*
X114907366Y-119951805D01*
X115136996Y-120062389D01*
X115380542Y-120137513D01*
X115632565Y-120175500D01*
X115632570Y-120175500D01*
X115887430Y-120175500D01*
X115887435Y-120175500D01*
X116139458Y-120137513D01*
X116383004Y-120062389D01*
X116612634Y-119951805D01*
X116823217Y-119808232D01*
X116890479Y-119745821D01*
X116962663Y-119678846D01*
X117018180Y-119653126D01*
X117078212Y-119664951D01*
X117097337Y-119678846D01*
X117236776Y-119808226D01*
X117236778Y-119808227D01*
X117236783Y-119808232D01*
X117447366Y-119951805D01*
X117676996Y-120062389D01*
X117920542Y-120137513D01*
X118172565Y-120175500D01*
X118172570Y-120175500D01*
X118427430Y-120175500D01*
X118427435Y-120175500D01*
X118679458Y-120137513D01*
X118923004Y-120062389D01*
X119152634Y-119951805D01*
X119363217Y-119808232D01*
X119430479Y-119745821D01*
X119502663Y-119678846D01*
X119558180Y-119653126D01*
X119618212Y-119664951D01*
X119637337Y-119678846D01*
X119776776Y-119808226D01*
X119776778Y-119808227D01*
X119776783Y-119808232D01*
X119987366Y-119951805D01*
X120216996Y-120062389D01*
X120460542Y-120137513D01*
X120712565Y-120175500D01*
X120712570Y-120175500D01*
X120967430Y-120175500D01*
X120967435Y-120175500D01*
X121219458Y-120137513D01*
X121463004Y-120062389D01*
X121692634Y-119951805D01*
X121903217Y-119808232D01*
X121970479Y-119745821D01*
X122042663Y-119678846D01*
X122098180Y-119653126D01*
X122158212Y-119664951D01*
X122177337Y-119678846D01*
X122316776Y-119808226D01*
X122316778Y-119808227D01*
X122316783Y-119808232D01*
X122527366Y-119951805D01*
X122756996Y-120062389D01*
X123000542Y-120137513D01*
X123252565Y-120175500D01*
X123252570Y-120175500D01*
X123507430Y-120175500D01*
X123507435Y-120175500D01*
X123759458Y-120137513D01*
X124003004Y-120062389D01*
X124232634Y-119951805D01*
X124443217Y-119808232D01*
X124630050Y-119634877D01*
X124737603Y-119500009D01*
X124788665Y-119466304D01*
X124849789Y-119469049D01*
X124887840Y-119494685D01*
X124934579Y-119545457D01*
X125124203Y-119693048D01*
X125124206Y-119693050D01*
X125270000Y-119771950D01*
X125270000Y-119125001D01*
X126570000Y-119125001D01*
X126570000Y-119771949D01*
X126715793Y-119693050D01*
X126715796Y-119693048D01*
X126905420Y-119545457D01*
X127068178Y-119368655D01*
X127199604Y-119167493D01*
X127218244Y-119125000D01*
X126570001Y-119125000D01*
X126570000Y-119125001D01*
X125270000Y-119125001D01*
X125270000Y-118574000D01*
X125288907Y-118515809D01*
X125338407Y-118479845D01*
X125369000Y-118475000D01*
X125420000Y-118475000D01*
X125420000Y-118540826D01*
X125454075Y-118667993D01*
X125519901Y-118782007D01*
X125612993Y-118875099D01*
X125727007Y-118940925D01*
X125854174Y-118975000D01*
X125985826Y-118975000D01*
X126112993Y-118940925D01*
X126227007Y-118875099D01*
X126320099Y-118782007D01*
X126385925Y-118667993D01*
X126420000Y-118540826D01*
X126420000Y-118409174D01*
X126385925Y-118282007D01*
X126320099Y-118167993D01*
X126227007Y-118074901D01*
X126112993Y-118009075D01*
X125985826Y-117975000D01*
X125920000Y-117975000D01*
X125920000Y-117924000D01*
X125938907Y-117865809D01*
X125988407Y-117829845D01*
X126019000Y-117825000D01*
X127218244Y-117825000D01*
X127199604Y-117782506D01*
X127068178Y-117581344D01*
X126935929Y-117437683D01*
X126910428Y-117382065D01*
X126922489Y-117322080D01*
X126952995Y-117288836D01*
X126983217Y-117268232D01*
X127170050Y-117094877D01*
X127190001Y-117069860D01*
X127212738Y-117041347D01*
X127328959Y-116895612D01*
X127456393Y-116674888D01*
X127549508Y-116437637D01*
X127606222Y-116189157D01*
X127625268Y-115935000D01*
X127606222Y-115680843D01*
X127549508Y-115432363D01*
X127456393Y-115195112D01*
X127328959Y-114974388D01*
X127305778Y-114945320D01*
X127170059Y-114775133D01*
X127170048Y-114775121D01*
X126983223Y-114601773D01*
X126983220Y-114601771D01*
X126983217Y-114601768D01*
X126772634Y-114458195D01*
X126698128Y-114422315D01*
X126543004Y-114347611D01*
X126299462Y-114272488D01*
X126299459Y-114272487D01*
X126299458Y-114272487D01*
X126299453Y-114272486D01*
X126299452Y-114272486D01*
X126047438Y-114234500D01*
X126047435Y-114234500D01*
X125792565Y-114234500D01*
X125792561Y-114234500D01*
X125540547Y-114272486D01*
X125540537Y-114272488D01*
X125296995Y-114347611D01*
X125067373Y-114458191D01*
X125067369Y-114458193D01*
X125067366Y-114458195D01*
X124927440Y-114553595D01*
X124856776Y-114601773D01*
X124717337Y-114731154D01*
X124661820Y-114756874D01*
X124601788Y-114745049D01*
X124582663Y-114731154D01*
X124443223Y-114601773D01*
X124443220Y-114601771D01*
X124443217Y-114601768D01*
X124232634Y-114458195D01*
X124158128Y-114422315D01*
X124003004Y-114347611D01*
X123759462Y-114272488D01*
X123759459Y-114272487D01*
X123759458Y-114272487D01*
X123759453Y-114272486D01*
X123759452Y-114272486D01*
X123507438Y-114234500D01*
X123507435Y-114234500D01*
X123252565Y-114234500D01*
X123252561Y-114234500D01*
X123000547Y-114272486D01*
X123000537Y-114272488D01*
X122756995Y-114347611D01*
X122527373Y-114458191D01*
X122527369Y-114458193D01*
X122527366Y-114458195D01*
X122387440Y-114553595D01*
X122316776Y-114601773D01*
X122177337Y-114731154D01*
X122121820Y-114756874D01*
X122061788Y-114745049D01*
X122042663Y-114731154D01*
X121903223Y-114601773D01*
X121903220Y-114601771D01*
X121903217Y-114601768D01*
X121692634Y-114458195D01*
X121618128Y-114422315D01*
X121463004Y-114347611D01*
X121219462Y-114272488D01*
X121219459Y-114272487D01*
X121219458Y-114272487D01*
X121219453Y-114272486D01*
X121219452Y-114272486D01*
X120967438Y-114234500D01*
X120967435Y-114234500D01*
X120712565Y-114234500D01*
X120712561Y-114234500D01*
X120460547Y-114272486D01*
X120460537Y-114272488D01*
X120216995Y-114347611D01*
X119987373Y-114458191D01*
X119987369Y-114458193D01*
X119987366Y-114458195D01*
X119847440Y-114553595D01*
X119776776Y-114601773D01*
X119637337Y-114731154D01*
X119581820Y-114756874D01*
X119521788Y-114745049D01*
X119502663Y-114731154D01*
X119363223Y-114601773D01*
X119363220Y-114601771D01*
X119363217Y-114601768D01*
X119152634Y-114458195D01*
X119078128Y-114422315D01*
X118923004Y-114347611D01*
X118679462Y-114272488D01*
X118679459Y-114272487D01*
X118679458Y-114272487D01*
X118679453Y-114272486D01*
X118679452Y-114272486D01*
X118427438Y-114234500D01*
X118427435Y-114234500D01*
X118172565Y-114234500D01*
X118172561Y-114234500D01*
X117920547Y-114272486D01*
X117920537Y-114272488D01*
X117676995Y-114347611D01*
X117447373Y-114458191D01*
X117447369Y-114458193D01*
X117447366Y-114458195D01*
X117307440Y-114553595D01*
X117236776Y-114601773D01*
X117097337Y-114731154D01*
X117041820Y-114756874D01*
X116981788Y-114745049D01*
X116962663Y-114731154D01*
X116823223Y-114601773D01*
X116823220Y-114601771D01*
X116823217Y-114601768D01*
X116612634Y-114458195D01*
X116538128Y-114422315D01*
X116383004Y-114347611D01*
X116139462Y-114272488D01*
X116139459Y-114272487D01*
X116139458Y-114272487D01*
X116139453Y-114272486D01*
X116139452Y-114272486D01*
X115887438Y-114234500D01*
X115887435Y-114234500D01*
X115632565Y-114234500D01*
X115632561Y-114234500D01*
X115380547Y-114272486D01*
X115380537Y-114272488D01*
X115136995Y-114347611D01*
X114907373Y-114458191D01*
X114907369Y-114458193D01*
X114907366Y-114458195D01*
X114767440Y-114553595D01*
X114696776Y-114601773D01*
X114557337Y-114731154D01*
X114501820Y-114756874D01*
X114441788Y-114745049D01*
X114422663Y-114731154D01*
X114283223Y-114601773D01*
X114283220Y-114601771D01*
X114283217Y-114601768D01*
X114072634Y-114458195D01*
X113998128Y-114422315D01*
X113843004Y-114347611D01*
X113599462Y-114272488D01*
X113599459Y-114272487D01*
X113599458Y-114272487D01*
X113599453Y-114272486D01*
X113599452Y-114272486D01*
X113347438Y-114234500D01*
X113347435Y-114234500D01*
X113092565Y-114234500D01*
X113092561Y-114234500D01*
X112840547Y-114272486D01*
X112840537Y-114272488D01*
X112596995Y-114347611D01*
X112367373Y-114458191D01*
X112367369Y-114458193D01*
X112367366Y-114458195D01*
X112227440Y-114553595D01*
X112156776Y-114601773D01*
X111969951Y-114775121D01*
X111969945Y-114775127D01*
X111862397Y-114909988D01*
X111811333Y-114943694D01*
X111750209Y-114940949D01*
X111712160Y-114915314D01*
X111665420Y-114864542D01*
X111475796Y-114716951D01*
X111475793Y-114716949D01*
X111330000Y-114638049D01*
X111330000Y-115836000D01*
X111311093Y-115894191D01*
X111261593Y-115930155D01*
X111231000Y-115935000D01*
X111180000Y-115935000D01*
X111180000Y-115869174D01*
X111145925Y-115742007D01*
X111080099Y-115627993D01*
X110987007Y-115534901D01*
X110872993Y-115469075D01*
X110745826Y-115435000D01*
X110614174Y-115435000D01*
X110487007Y-115469075D01*
X110372993Y-115534901D01*
X110279901Y-115627993D01*
X110214075Y-115742007D01*
X110180000Y-115869174D01*
X110180000Y-115935000D01*
X110129000Y-115935000D01*
X110070809Y-115916093D01*
X110034845Y-115866593D01*
X110030000Y-115836000D01*
X110030000Y-114638049D01*
X109884206Y-114716949D01*
X109884203Y-114716951D01*
X109694576Y-114864545D01*
X109647839Y-114915314D01*
X109594517Y-114945320D01*
X109533741Y-114938253D01*
X109497602Y-114909988D01*
X109390054Y-114775127D01*
X109390048Y-114775121D01*
X109203223Y-114601773D01*
X109203220Y-114601771D01*
X109203217Y-114601768D01*
X108992634Y-114458195D01*
X108918128Y-114422315D01*
X108763004Y-114347611D01*
X108519462Y-114272488D01*
X108519459Y-114272487D01*
X108519458Y-114272487D01*
X108519453Y-114272486D01*
X108519452Y-114272486D01*
X108267438Y-114234500D01*
X108267435Y-114234500D01*
X108012565Y-114234500D01*
X108012561Y-114234500D01*
X107760547Y-114272486D01*
X107760537Y-114272488D01*
X107516995Y-114347611D01*
X107287373Y-114458191D01*
X107287369Y-114458193D01*
X107287366Y-114458195D01*
X107147440Y-114553595D01*
X107076776Y-114601773D01*
X106937337Y-114731154D01*
X106881820Y-114756874D01*
X106821788Y-114745049D01*
X106802663Y-114731154D01*
X106663223Y-114601773D01*
X106663220Y-114601771D01*
X106663217Y-114601768D01*
X106452634Y-114458195D01*
X106378128Y-114422315D01*
X106223004Y-114347611D01*
X105979462Y-114272488D01*
X105979459Y-114272487D01*
X105979458Y-114272487D01*
X105979453Y-114272486D01*
X105979452Y-114272486D01*
X105727438Y-114234500D01*
X105727435Y-114234500D01*
X105472565Y-114234500D01*
X105472561Y-114234500D01*
X105220547Y-114272486D01*
X105220537Y-114272488D01*
X104976995Y-114347611D01*
X104747373Y-114458191D01*
X104747369Y-114458193D01*
X104747366Y-114458195D01*
X104607440Y-114553595D01*
X104536776Y-114601773D01*
X104397337Y-114731154D01*
X104341820Y-114756874D01*
X104281788Y-114745049D01*
X104262663Y-114731154D01*
X104123223Y-114601773D01*
X104123220Y-114601771D01*
X104123217Y-114601768D01*
X103912634Y-114458195D01*
X103838128Y-114422315D01*
X103683004Y-114347611D01*
X103439462Y-114272488D01*
X103439459Y-114272487D01*
X103439458Y-114272487D01*
X103439453Y-114272486D01*
X103439452Y-114272486D01*
X103187438Y-114234500D01*
X103187435Y-114234500D01*
X102932565Y-114234500D01*
X102932561Y-114234500D01*
X102680547Y-114272486D01*
X102680537Y-114272488D01*
X102436995Y-114347611D01*
X102207373Y-114458191D01*
X102207369Y-114458193D01*
X102207366Y-114458195D01*
X102067440Y-114553595D01*
X101996776Y-114601773D01*
X101809951Y-114775121D01*
X101809940Y-114775133D01*
X101651047Y-114974379D01*
X101651043Y-114974384D01*
X101651041Y-114974388D01*
X101589181Y-115081533D01*
X101523608Y-115195109D01*
X101523604Y-115195118D01*
X101430492Y-115432360D01*
X101373779Y-115680838D01*
X101373777Y-115680847D01*
X101354732Y-115934997D01*
X94805000Y-115934997D01*
X94805000Y-112654809D01*
X138821999Y-112654809D01*
X138821999Y-112865190D01*
X138863042Y-113071523D01*
X138863042Y-113071525D01*
X138943548Y-113265885D01*
X138943548Y-113265886D01*
X139060429Y-113440809D01*
X141333004Y-115713384D01*
X141360781Y-115767901D01*
X141362000Y-115783388D01*
X141362000Y-117095709D01*
X141361999Y-117095735D01*
X141361999Y-117310190D01*
X141391578Y-117458891D01*
X141403042Y-117516525D01*
X141483547Y-117710883D01*
X141483553Y-117710895D01*
X141559797Y-117825000D01*
X141600430Y-117885811D01*
X141600433Y-117885814D01*
X141600437Y-117885819D01*
X141749191Y-118034572D01*
X141749192Y-118034572D01*
X142235427Y-118520807D01*
X142235427Y-118520808D01*
X142384180Y-118669562D01*
X142384184Y-118669565D01*
X142384189Y-118669570D01*
X142531239Y-118767826D01*
X142559112Y-118786450D01*
X142729636Y-118857083D01*
X142776161Y-118896818D01*
X142790750Y-118948546D01*
X142790750Y-121799991D01*
X142771843Y-121858182D01*
X142743160Y-121884596D01*
X142566415Y-121991994D01*
X142544699Y-122006439D01*
X142536542Y-122011316D01*
X142478553Y-122042313D01*
X142478552Y-122042313D01*
X142318595Y-122173585D01*
X142318585Y-122173595D01*
X142187316Y-122333547D01*
X142089768Y-122516045D01*
X142029699Y-122714065D01*
X142029698Y-122714070D01*
X142009417Y-122919996D01*
X142009417Y-122920003D01*
X142029698Y-123125929D01*
X142029699Y-123125934D01*
X142089768Y-123323954D01*
X142187316Y-123506452D01*
X142282121Y-123621972D01*
X142318590Y-123666410D01*
X142318595Y-123666414D01*
X142478547Y-123797683D01*
X142478548Y-123797683D01*
X142478550Y-123797685D01*
X142661046Y-123895232D01*
X142798997Y-123937078D01*
X142859065Y-123955300D01*
X142859070Y-123955301D01*
X143064997Y-123975583D01*
X143065000Y-123975583D01*
X143065003Y-123975583D01*
X143270929Y-123955301D01*
X143270934Y-123955300D01*
X143468954Y-123895232D01*
X143651450Y-123797685D01*
X143811410Y-123666410D01*
X143942685Y-123506450D01*
X143978343Y-123439737D01*
X143987574Y-123425544D01*
X143993004Y-123418584D01*
X144204751Y-123070111D01*
X144219346Y-123051526D01*
X144406261Y-122864613D01*
X144505767Y-122715691D01*
X144524255Y-122671053D01*
X144540037Y-122632955D01*
X144540037Y-122632954D01*
X144574308Y-122550218D01*
X144609250Y-122374553D01*
X144609250Y-119007000D01*
X144628157Y-118948809D01*
X144677657Y-118912845D01*
X144708250Y-118908000D01*
X150518948Y-118908000D01*
X150577139Y-118926907D01*
X150613103Y-118976407D01*
X150613103Y-119037593D01*
X150588953Y-119077001D01*
X150582288Y-119083667D01*
X150582285Y-119083670D01*
X150490187Y-119232986D01*
X150435000Y-119399528D01*
X150424500Y-119502306D01*
X150424500Y-121602339D01*
X150434999Y-121705111D01*
X150435002Y-121705123D01*
X150490187Y-121871659D01*
X150582285Y-122020975D01*
X150582286Y-122020976D01*
X150582288Y-122020979D01*
X150706344Y-122145035D01*
X150855666Y-122237137D01*
X151022203Y-122292322D01*
X151124991Y-122302823D01*
X153225008Y-122302822D01*
X153225016Y-122302822D01*
X153327788Y-122292323D01*
X153327788Y-122292322D01*
X153327797Y-122292322D01*
X153494334Y-122237137D01*
X153643656Y-122145035D01*
X153767712Y-122020979D01*
X153859814Y-121871657D01*
X153914999Y-121705120D01*
X153925500Y-121602332D01*
X153925499Y-119502315D01*
X153925499Y-119502314D01*
X153925499Y-119502306D01*
X153915000Y-119399534D01*
X153914999Y-119399532D01*
X153914999Y-119399526D01*
X153859814Y-119232989D01*
X153767712Y-119083667D01*
X153761046Y-119077001D01*
X153733271Y-119022487D01*
X153742842Y-118962055D01*
X153786107Y-118918790D01*
X153831052Y-118908000D01*
X168441000Y-118908000D01*
X168499191Y-118926907D01*
X168535155Y-118976407D01*
X168540000Y-119007000D01*
X168540000Y-124588709D01*
X168539999Y-124588735D01*
X168539999Y-124803190D01*
X168569247Y-124950227D01*
X168581042Y-125009525D01*
X168661547Y-125203883D01*
X168661553Y-125203895D01*
X168728834Y-125304586D01*
X168778430Y-125378811D01*
X168778433Y-125378814D01*
X168778437Y-125378819D01*
X168927190Y-125527571D01*
X168927191Y-125527571D01*
X170451189Y-127051570D01*
X170525765Y-127101400D01*
X170626103Y-127168445D01*
X170626109Y-127168447D01*
X170626111Y-127168449D01*
X170820475Y-127248958D01*
X171026811Y-127290000D01*
X171026812Y-127290000D01*
X171237187Y-127290000D01*
X171237188Y-127290000D01*
X171443524Y-127248958D01*
X171637888Y-127168449D01*
X171637891Y-127168446D01*
X171637895Y-127168445D01*
X171699910Y-127127007D01*
X171812810Y-127051570D01*
X171961570Y-126902810D01*
X172052337Y-126766967D01*
X172078445Y-126727895D01*
X172078446Y-126727891D01*
X172078449Y-126727888D01*
X172158958Y-126533524D01*
X172200000Y-126327188D01*
X172200000Y-126116811D01*
X172158958Y-125910475D01*
X172078449Y-125716111D01*
X172078447Y-125716109D01*
X172078445Y-125716103D01*
X171969009Y-125552323D01*
X171961570Y-125541189D01*
X170704996Y-124284615D01*
X170677219Y-124230098D01*
X170676000Y-124214611D01*
X170676000Y-108269634D01*
X170694907Y-108211443D01*
X170744407Y-108175479D01*
X170798471Y-108173457D01*
X170828354Y-108180750D01*
X170850108Y-108185125D01*
X170853928Y-108185894D01*
X170863144Y-108188213D01*
X170926065Y-108207300D01*
X170926070Y-108207301D01*
X171131997Y-108227583D01*
X171132000Y-108227583D01*
X171132003Y-108227583D01*
X171337929Y-108207301D01*
X171337934Y-108207300D01*
X171357799Y-108201274D01*
X171535954Y-108147232D01*
X171718450Y-108049685D01*
X171878410Y-107918410D01*
X172009685Y-107758450D01*
X172107232Y-107575954D01*
X172167300Y-107377934D01*
X172167301Y-107377929D01*
X172187583Y-107172003D01*
X172187583Y-107171996D01*
X172167301Y-106966070D01*
X172167300Y-106966065D01*
X172149078Y-106905997D01*
X172107232Y-106768046D01*
X172009685Y-106585550D01*
X171917902Y-106473712D01*
X171878414Y-106425595D01*
X171878410Y-106425590D01*
X171802325Y-106363149D01*
X171718452Y-106294316D01*
X171535954Y-106196768D01*
X171337934Y-106136699D01*
X171337929Y-106136698D01*
X171132003Y-106116417D01*
X171131997Y-106116417D01*
X170926075Y-106136698D01*
X170926063Y-106136700D01*
X170853692Y-106158652D01*
X170837113Y-106162165D01*
X170828351Y-106163248D01*
X170798472Y-106170541D01*
X170737458Y-106165969D01*
X170690783Y-106126407D01*
X170676000Y-106074364D01*
X170676000Y-89219634D01*
X170694907Y-89161443D01*
X170744407Y-89125479D01*
X170798471Y-89123457D01*
X170828354Y-89130750D01*
X170850108Y-89135125D01*
X170853928Y-89135894D01*
X170863144Y-89138213D01*
X170926065Y-89157300D01*
X170926070Y-89157301D01*
X171131997Y-89177583D01*
X171132000Y-89177583D01*
X171132003Y-89177583D01*
X171337929Y-89157301D01*
X171337934Y-89157300D01*
X171535954Y-89097232D01*
X171718450Y-88999685D01*
X171878410Y-88868410D01*
X172009685Y-88708450D01*
X172107232Y-88525954D01*
X172167300Y-88327934D01*
X172167301Y-88327929D01*
X172187583Y-88122003D01*
X172187583Y-88121996D01*
X172167301Y-87916070D01*
X172167300Y-87916065D01*
X172148088Y-87852733D01*
X172107232Y-87718046D01*
X172009685Y-87535550D01*
X171878410Y-87375590D01*
X171802325Y-87313149D01*
X171718452Y-87244316D01*
X171535954Y-87146768D01*
X171337934Y-87086699D01*
X171337929Y-87086698D01*
X171132003Y-87066417D01*
X171131997Y-87066417D01*
X170926075Y-87086698D01*
X170926063Y-87086700D01*
X170853692Y-87108652D01*
X170837113Y-87112165D01*
X170828351Y-87113248D01*
X170798472Y-87120541D01*
X170737458Y-87115969D01*
X170690783Y-87076407D01*
X170676000Y-87024364D01*
X170676000Y-76564996D01*
X176426417Y-76564996D01*
X176426417Y-76565003D01*
X176446698Y-76770929D01*
X176446699Y-76770934D01*
X176468651Y-76843298D01*
X176472165Y-76859883D01*
X176473248Y-76868639D01*
X176473249Y-76868646D01*
X176569926Y-77264774D01*
X176569927Y-77264776D01*
X176572750Y-77288249D01*
X176572750Y-94764748D01*
X176569927Y-94788221D01*
X176473248Y-95184355D01*
X176468102Y-95209940D01*
X176465783Y-95219156D01*
X176446699Y-95282065D01*
X176446698Y-95282070D01*
X176426417Y-95487996D01*
X176426417Y-95488003D01*
X176446698Y-95693929D01*
X176446699Y-95693934D01*
X176468651Y-95766298D01*
X176472165Y-95782883D01*
X176473248Y-95791639D01*
X176473249Y-95791646D01*
X176569926Y-96187774D01*
X176569927Y-96187776D01*
X176572750Y-96211249D01*
X176572750Y-113814748D01*
X176569927Y-113838221D01*
X176473248Y-114234355D01*
X176468102Y-114259940D01*
X176465783Y-114269156D01*
X176446699Y-114332065D01*
X176446698Y-114332070D01*
X176426417Y-114537996D01*
X176426417Y-114538003D01*
X176446698Y-114743929D01*
X176446699Y-114743934D01*
X176468651Y-114816298D01*
X176472165Y-114832883D01*
X176472298Y-114833958D01*
X176473249Y-114841646D01*
X176569926Y-115237774D01*
X176569927Y-115237776D01*
X176572750Y-115261249D01*
X176572750Y-132864748D01*
X176569927Y-132888221D01*
X176473248Y-133284355D01*
X176468102Y-133309940D01*
X176465783Y-133319156D01*
X176446699Y-133382065D01*
X176446698Y-133382070D01*
X176426417Y-133587996D01*
X176426417Y-133588003D01*
X176446698Y-133793929D01*
X176446699Y-133793934D01*
X176506768Y-133991954D01*
X176604316Y-134174452D01*
X176735585Y-134334404D01*
X176735590Y-134334410D01*
X176735595Y-134334414D01*
X176895547Y-134465683D01*
X176895548Y-134465683D01*
X176895550Y-134465685D01*
X177078046Y-134563232D01*
X177215997Y-134605078D01*
X177276065Y-134623300D01*
X177276070Y-134623301D01*
X177481997Y-134643583D01*
X177482000Y-134643583D01*
X177482003Y-134643583D01*
X177687929Y-134623301D01*
X177687934Y-134623300D01*
X177885954Y-134563232D01*
X178068450Y-134465685D01*
X178068452Y-134465683D01*
X178070331Y-134464679D01*
X178130564Y-134453923D01*
X178163669Y-134464679D01*
X178165547Y-134465683D01*
X178165550Y-134465685D01*
X178348046Y-134563232D01*
X178485997Y-134605078D01*
X178546065Y-134623300D01*
X178546070Y-134623301D01*
X178751997Y-134643583D01*
X178752000Y-134643583D01*
X178752003Y-134643583D01*
X178957929Y-134623301D01*
X178957934Y-134623300D01*
X179155954Y-134563232D01*
X179338450Y-134465685D01*
X179498410Y-134334410D01*
X179629685Y-134174450D01*
X179727232Y-133991954D01*
X179787300Y-133793934D01*
X179787301Y-133793929D01*
X179807583Y-133588003D01*
X179807583Y-133587996D01*
X179787301Y-133382070D01*
X179787300Y-133382065D01*
X179765346Y-133309693D01*
X179761832Y-133293108D01*
X179760750Y-133284354D01*
X179664073Y-132888223D01*
X179661250Y-132864751D01*
X179661250Y-129687823D01*
X185881415Y-129687823D01*
X186127460Y-129779596D01*
X186386050Y-129835848D01*
X186650000Y-129854725D01*
X186913949Y-129835848D01*
X187172541Y-129779595D01*
X187418584Y-129687823D01*
X186649999Y-128919239D01*
X185881415Y-129687823D01*
X179661250Y-129687823D01*
X179661250Y-128000000D01*
X184795274Y-128000000D01*
X184814151Y-128263949D01*
X184870404Y-128522541D01*
X184962174Y-128768583D01*
X185730759Y-127999999D01*
X185661816Y-127931056D01*
X185950000Y-127931056D01*
X185950000Y-128068944D01*
X185976901Y-128204182D01*
X186029668Y-128331574D01*
X186106274Y-128446224D01*
X186203776Y-128543726D01*
X186318426Y-128620332D01*
X186445818Y-128673099D01*
X186581056Y-128700000D01*
X186718944Y-128700000D01*
X186854182Y-128673099D01*
X186981574Y-128620332D01*
X187096224Y-128543726D01*
X187193726Y-128446224D01*
X187270332Y-128331574D01*
X187323099Y-128204182D01*
X187350000Y-128068944D01*
X187350000Y-127999999D01*
X187569239Y-127999999D01*
X188337823Y-128768583D01*
X188429595Y-128522541D01*
X188485848Y-128263949D01*
X188504725Y-128000000D01*
X188485848Y-127736050D01*
X188429596Y-127477460D01*
X188337823Y-127231415D01*
X187569239Y-127999999D01*
X187350000Y-127999999D01*
X187350000Y-127931056D01*
X187323099Y-127795818D01*
X187270332Y-127668426D01*
X187193726Y-127553776D01*
X187096224Y-127456274D01*
X186981574Y-127379668D01*
X186854182Y-127326901D01*
X186718944Y-127300000D01*
X186581056Y-127300000D01*
X186445818Y-127326901D01*
X186318426Y-127379668D01*
X186203776Y-127456274D01*
X186106274Y-127553776D01*
X186029668Y-127668426D01*
X185976901Y-127795818D01*
X185950000Y-127931056D01*
X185661816Y-127931056D01*
X184962174Y-127231414D01*
X184870404Y-127477458D01*
X184814151Y-127736050D01*
X184795274Y-128000000D01*
X179661250Y-128000000D01*
X179661250Y-120379996D01*
X184544592Y-120379996D01*
X184544592Y-120380003D01*
X184564201Y-120666682D01*
X184564202Y-120666686D01*
X184622666Y-120948032D01*
X184692793Y-121145351D01*
X184718895Y-121218795D01*
X184851098Y-121473934D01*
X185014287Y-121705123D01*
X185016811Y-121708698D01*
X185212947Y-121918708D01*
X185435853Y-122100055D01*
X185435859Y-122100059D01*
X185435861Y-122100060D01*
X185600883Y-122200413D01*
X185640778Y-122246802D01*
X185645787Y-122307782D01*
X185613996Y-122360060D01*
X185600883Y-122369587D01*
X185435861Y-122469939D01*
X185435847Y-122469949D01*
X185212952Y-122651287D01*
X185212951Y-122651288D01*
X185212948Y-122651291D01*
X185212947Y-122651292D01*
X185152800Y-122715694D01*
X185016810Y-122861303D01*
X185016805Y-122861309D01*
X184851098Y-123096065D01*
X184718895Y-123351204D01*
X184622665Y-123621972D01*
X184564203Y-123903308D01*
X184564201Y-123903317D01*
X184544592Y-124189996D01*
X184544592Y-124190003D01*
X184564201Y-124476682D01*
X184564202Y-124476686D01*
X184622666Y-124758032D01*
X184718896Y-125028797D01*
X184851099Y-125283936D01*
X185016811Y-125518698D01*
X185212947Y-125728708D01*
X185435853Y-125910055D01*
X185435859Y-125910059D01*
X185435861Y-125910060D01*
X185681370Y-126059358D01*
X185681382Y-126059365D01*
X185861806Y-126137733D01*
X185907647Y-126178258D01*
X185920913Y-126237988D01*
X185896537Y-126294108D01*
X185883378Y-126303147D01*
X185881414Y-126312174D01*
X186649999Y-127080759D01*
X187418584Y-126312174D01*
X187415876Y-126299725D01*
X187395121Y-126283242D01*
X187378725Y-126224295D01*
X187400108Y-126166968D01*
X187438191Y-126137734D01*
X187523355Y-126100742D01*
X187618617Y-126059365D01*
X187618620Y-126059362D01*
X187618625Y-126059361D01*
X187864147Y-125910055D01*
X188087053Y-125728708D01*
X188283189Y-125518698D01*
X188448901Y-125283936D01*
X188581104Y-125028797D01*
X188677334Y-124758032D01*
X188735798Y-124476686D01*
X188755408Y-124190000D01*
X188735798Y-123903314D01*
X188677334Y-123621968D01*
X188581104Y-123351203D01*
X188448901Y-123096064D01*
X188283189Y-122861302D01*
X188087053Y-122651292D01*
X187864152Y-122469949D01*
X187864149Y-122469946D01*
X187836787Y-122453307D01*
X187699114Y-122369585D01*
X187659221Y-122323198D01*
X187654212Y-122262218D01*
X187686003Y-122209940D01*
X187699106Y-122200418D01*
X187864147Y-122100055D01*
X188087053Y-121918708D01*
X188283189Y-121708698D01*
X188448901Y-121473936D01*
X188581104Y-121218797D01*
X188677334Y-120948032D01*
X188735798Y-120666686D01*
X188755408Y-120380000D01*
X188735798Y-120093314D01*
X188677334Y-119811968D01*
X188581104Y-119541203D01*
X188448901Y-119286064D01*
X188283189Y-119051302D01*
X188087053Y-118841292D01*
X187864147Y-118659945D01*
X187864142Y-118659942D01*
X187864138Y-118659939D01*
X187618629Y-118510641D01*
X187618617Y-118510634D01*
X187355063Y-118396158D01*
X187355061Y-118396157D01*
X187355058Y-118396156D01*
X187078358Y-118318629D01*
X186793678Y-118279500D01*
X186506322Y-118279500D01*
X186221642Y-118318629D01*
X185944942Y-118396156D01*
X185944939Y-118396156D01*
X185944936Y-118396158D01*
X185681382Y-118510634D01*
X185681370Y-118510641D01*
X185435861Y-118659939D01*
X185435847Y-118659949D01*
X185212952Y-118841287D01*
X185212951Y-118841288D01*
X185212948Y-118841291D01*
X185212947Y-118841292D01*
X185161089Y-118896818D01*
X185016810Y-119051303D01*
X185016805Y-119051309D01*
X184851098Y-119286065D01*
X184718895Y-119541204D01*
X184660716Y-119704903D01*
X184636889Y-119771950D01*
X184622665Y-119811972D01*
X184564203Y-120093308D01*
X184564201Y-120093317D01*
X184544592Y-120379996D01*
X179661250Y-120379996D01*
X179661250Y-115261246D01*
X179664073Y-115237774D01*
X179760750Y-114841645D01*
X179765894Y-114816070D01*
X179768213Y-114806853D01*
X179772078Y-114794112D01*
X179787300Y-114743934D01*
X179797729Y-114638049D01*
X179807583Y-114538003D01*
X179807583Y-114537996D01*
X179787301Y-114332070D01*
X179787300Y-114332065D01*
X179765346Y-114259693D01*
X179761832Y-114243108D01*
X179760750Y-114234354D01*
X179664073Y-113838223D01*
X179661250Y-113814751D01*
X179661250Y-110432823D01*
X185881415Y-110432823D01*
X186127460Y-110524596D01*
X186386050Y-110580848D01*
X186650000Y-110599725D01*
X186913949Y-110580848D01*
X187172541Y-110524595D01*
X187418584Y-110432823D01*
X186649999Y-109664239D01*
X185881415Y-110432823D01*
X179661250Y-110432823D01*
X179661250Y-108745000D01*
X184795274Y-108745000D01*
X184814151Y-109008949D01*
X184870404Y-109267541D01*
X184962174Y-109513583D01*
X185730759Y-108744999D01*
X185661816Y-108676056D01*
X185950000Y-108676056D01*
X185950000Y-108813944D01*
X185976901Y-108949182D01*
X186029668Y-109076574D01*
X186106274Y-109191224D01*
X186203776Y-109288726D01*
X186318426Y-109365332D01*
X186445818Y-109418099D01*
X186581056Y-109445000D01*
X186718944Y-109445000D01*
X186854182Y-109418099D01*
X186981574Y-109365332D01*
X187096224Y-109288726D01*
X187193726Y-109191224D01*
X187270332Y-109076574D01*
X187323099Y-108949182D01*
X187350000Y-108813944D01*
X187350000Y-108744999D01*
X187569239Y-108744999D01*
X188337823Y-109513583D01*
X188429595Y-109267541D01*
X188485848Y-109008949D01*
X188504725Y-108745000D01*
X188485848Y-108481050D01*
X188429596Y-108222460D01*
X188337823Y-107976415D01*
X187569239Y-108744999D01*
X187350000Y-108744999D01*
X187350000Y-108676056D01*
X187323099Y-108540818D01*
X187270332Y-108413426D01*
X187193726Y-108298776D01*
X187096224Y-108201274D01*
X186981574Y-108124668D01*
X186854182Y-108071901D01*
X186718944Y-108045000D01*
X186581056Y-108045000D01*
X186445818Y-108071901D01*
X186318426Y-108124668D01*
X186203776Y-108201274D01*
X186106274Y-108298776D01*
X186029668Y-108413426D01*
X185976901Y-108540818D01*
X185950000Y-108676056D01*
X185661816Y-108676056D01*
X184962174Y-107976414D01*
X184870404Y-108222458D01*
X184814151Y-108481050D01*
X184795274Y-108745000D01*
X179661250Y-108745000D01*
X179661250Y-101124996D01*
X184544592Y-101124996D01*
X184544592Y-101125003D01*
X184564201Y-101411682D01*
X184564202Y-101411686D01*
X184622666Y-101693032D01*
X184692793Y-101890351D01*
X184718895Y-101963795D01*
X184851098Y-102218934D01*
X185014287Y-102450123D01*
X185016811Y-102453698D01*
X185212947Y-102663708D01*
X185435853Y-102845055D01*
X185435859Y-102845059D01*
X185435861Y-102845060D01*
X185600883Y-102945413D01*
X185640778Y-102991802D01*
X185645787Y-103052782D01*
X185613996Y-103105060D01*
X185600883Y-103114587D01*
X185435861Y-103214939D01*
X185435847Y-103214949D01*
X185212952Y-103396287D01*
X185212951Y-103396288D01*
X185016810Y-103606303D01*
X185016805Y-103606309D01*
X184851098Y-103841065D01*
X184718895Y-104096204D01*
X184622665Y-104366972D01*
X184564203Y-104648308D01*
X184564201Y-104648317D01*
X184544592Y-104934996D01*
X184544592Y-104935003D01*
X184564201Y-105221682D01*
X184564202Y-105221686D01*
X184622666Y-105503032D01*
X184718896Y-105773797D01*
X184851099Y-106028936D01*
X184919901Y-106126407D01*
X184972152Y-106200431D01*
X185016811Y-106263698D01*
X185212947Y-106473708D01*
X185435853Y-106655055D01*
X185435859Y-106655059D01*
X185435861Y-106655060D01*
X185681370Y-106804358D01*
X185681382Y-106804365D01*
X185861806Y-106882733D01*
X185907647Y-106923258D01*
X185920913Y-106982988D01*
X185896537Y-107039108D01*
X185883378Y-107048147D01*
X185881414Y-107057174D01*
X186649999Y-107825759D01*
X187418584Y-107057174D01*
X187415876Y-107044725D01*
X187395121Y-107028242D01*
X187378725Y-106969295D01*
X187400108Y-106911968D01*
X187438191Y-106882734D01*
X187523355Y-106845742D01*
X187618617Y-106804365D01*
X187618620Y-106804362D01*
X187618625Y-106804361D01*
X187864147Y-106655055D01*
X188087053Y-106473708D01*
X188283189Y-106263698D01*
X188448901Y-106028936D01*
X188581104Y-105773797D01*
X188677334Y-105503032D01*
X188735798Y-105221686D01*
X188755408Y-104935000D01*
X188735798Y-104648314D01*
X188677334Y-104366968D01*
X188581104Y-104096203D01*
X188448901Y-103841064D01*
X188283189Y-103606302D01*
X188087053Y-103396292D01*
X187864152Y-103214949D01*
X187864149Y-103214946D01*
X187836787Y-103198307D01*
X187699114Y-103114585D01*
X187659221Y-103068198D01*
X187654212Y-103007218D01*
X187686003Y-102954940D01*
X187699106Y-102945418D01*
X187864147Y-102845055D01*
X188087053Y-102663708D01*
X188283189Y-102453698D01*
X188448901Y-102218936D01*
X188581104Y-101963797D01*
X188677334Y-101693032D01*
X188735798Y-101411686D01*
X188755408Y-101125000D01*
X188735798Y-100838314D01*
X188677334Y-100556968D01*
X188581104Y-100286203D01*
X188448901Y-100031064D01*
X188283189Y-99796302D01*
X188087053Y-99586292D01*
X188051446Y-99557324D01*
X187864152Y-99404949D01*
X187864151Y-99404948D01*
X187864147Y-99404945D01*
X187864142Y-99404942D01*
X187864138Y-99404939D01*
X187618629Y-99255641D01*
X187618617Y-99255634D01*
X187355063Y-99141158D01*
X187355061Y-99141157D01*
X187355058Y-99141156D01*
X187078358Y-99063629D01*
X186793678Y-99024500D01*
X186506322Y-99024500D01*
X186221642Y-99063629D01*
X185944942Y-99141156D01*
X185944939Y-99141156D01*
X185944936Y-99141158D01*
X185681382Y-99255634D01*
X185681370Y-99255641D01*
X185435861Y-99404939D01*
X185435847Y-99404949D01*
X185212952Y-99586287D01*
X185212951Y-99586288D01*
X185016810Y-99796303D01*
X185016805Y-99796309D01*
X184851098Y-100031065D01*
X184718895Y-100286204D01*
X184622665Y-100556972D01*
X184564203Y-100838308D01*
X184564201Y-100838317D01*
X184544592Y-101124996D01*
X179661250Y-101124996D01*
X179661250Y-96211246D01*
X179664073Y-96187774D01*
X179760750Y-95791645D01*
X179765894Y-95766070D01*
X179768213Y-95756853D01*
X179787300Y-95693934D01*
X179807583Y-95488000D01*
X179807583Y-95487996D01*
X179787301Y-95282070D01*
X179787300Y-95282065D01*
X179765346Y-95209693D01*
X179761832Y-95193108D01*
X179760750Y-95184354D01*
X179664073Y-94788223D01*
X179661250Y-94764751D01*
X179661250Y-91402823D01*
X185881415Y-91402823D01*
X186127460Y-91494596D01*
X186386050Y-91550848D01*
X186650000Y-91569725D01*
X186913949Y-91550848D01*
X187172541Y-91494595D01*
X187418584Y-91402823D01*
X186649999Y-90634239D01*
X185881415Y-91402823D01*
X179661250Y-91402823D01*
X179661250Y-89715000D01*
X184795274Y-89715000D01*
X184814151Y-89978949D01*
X184870404Y-90237541D01*
X184962174Y-90483583D01*
X185730759Y-89714999D01*
X185661816Y-89646056D01*
X185950000Y-89646056D01*
X185950000Y-89783944D01*
X185976901Y-89919182D01*
X186029668Y-90046574D01*
X186106274Y-90161224D01*
X186203776Y-90258726D01*
X186318426Y-90335332D01*
X186445818Y-90388099D01*
X186581056Y-90415000D01*
X186718944Y-90415000D01*
X186854182Y-90388099D01*
X186981574Y-90335332D01*
X187096224Y-90258726D01*
X187193726Y-90161224D01*
X187270332Y-90046574D01*
X187323099Y-89919182D01*
X187350000Y-89783944D01*
X187350000Y-89714999D01*
X187569239Y-89714999D01*
X188337823Y-90483583D01*
X188429595Y-90237541D01*
X188485848Y-89978949D01*
X188504725Y-89715000D01*
X188485848Y-89451050D01*
X188429596Y-89192460D01*
X188337823Y-88946415D01*
X187569239Y-89714999D01*
X187350000Y-89714999D01*
X187350000Y-89646056D01*
X187323099Y-89510818D01*
X187270332Y-89383426D01*
X187193726Y-89268776D01*
X187096224Y-89171274D01*
X186981574Y-89094668D01*
X186854182Y-89041901D01*
X186718944Y-89015000D01*
X186581056Y-89015000D01*
X186445818Y-89041901D01*
X186318426Y-89094668D01*
X186203776Y-89171274D01*
X186106274Y-89268776D01*
X186029668Y-89383426D01*
X185976901Y-89510818D01*
X185950000Y-89646056D01*
X185661816Y-89646056D01*
X184962174Y-88946414D01*
X184870404Y-89192458D01*
X184814151Y-89451050D01*
X184795274Y-89715000D01*
X179661250Y-89715000D01*
X179661250Y-82094996D01*
X184544592Y-82094996D01*
X184544592Y-82095003D01*
X184564201Y-82381682D01*
X184564202Y-82381686D01*
X184622666Y-82663032D01*
X184630978Y-82686419D01*
X184718895Y-82933795D01*
X184851098Y-83188934D01*
X185000161Y-83400111D01*
X185016811Y-83423698D01*
X185212947Y-83633708D01*
X185435853Y-83815055D01*
X185435859Y-83815059D01*
X185435861Y-83815060D01*
X185600883Y-83915413D01*
X185640778Y-83961802D01*
X185645787Y-84022782D01*
X185613996Y-84075060D01*
X185600883Y-84084587D01*
X185435861Y-84184939D01*
X185435847Y-84184949D01*
X185212952Y-84366287D01*
X185212951Y-84366288D01*
X185016810Y-84576303D01*
X185016805Y-84576309D01*
X184851098Y-84811065D01*
X184718895Y-85066204D01*
X184622665Y-85336972D01*
X184564203Y-85618308D01*
X184564201Y-85618317D01*
X184544592Y-85904996D01*
X184544592Y-85905003D01*
X184564201Y-86191682D01*
X184564202Y-86191686D01*
X184622666Y-86473032D01*
X184718896Y-86743797D01*
X184851099Y-86998936D01*
X184930287Y-87111121D01*
X184955449Y-87146768D01*
X185016811Y-87233698D01*
X185212947Y-87443708D01*
X185435853Y-87625055D01*
X185435859Y-87625059D01*
X185435861Y-87625060D01*
X185681370Y-87774358D01*
X185681382Y-87774365D01*
X185861806Y-87852733D01*
X185907647Y-87893258D01*
X185920913Y-87952988D01*
X185896537Y-88009108D01*
X185883378Y-88018147D01*
X185881414Y-88027174D01*
X186649999Y-88795759D01*
X187418584Y-88027174D01*
X187415876Y-88014725D01*
X187395121Y-87998242D01*
X187378725Y-87939295D01*
X187400108Y-87881968D01*
X187438191Y-87852734D01*
X187523355Y-87815742D01*
X187618617Y-87774365D01*
X187618620Y-87774362D01*
X187618625Y-87774361D01*
X187864147Y-87625055D01*
X188087053Y-87443708D01*
X188283189Y-87233698D01*
X188448901Y-86998936D01*
X188581104Y-86743797D01*
X188677334Y-86473032D01*
X188735798Y-86191686D01*
X188755408Y-85905000D01*
X188753976Y-85884070D01*
X188735798Y-85618317D01*
X188735798Y-85618314D01*
X188677334Y-85336968D01*
X188581104Y-85066203D01*
X188448901Y-84811064D01*
X188283189Y-84576302D01*
X188087053Y-84366292D01*
X187864152Y-84184949D01*
X187864149Y-84184946D01*
X187836787Y-84168307D01*
X187699114Y-84084585D01*
X187659221Y-84038198D01*
X187654212Y-83977218D01*
X187686003Y-83924940D01*
X187699106Y-83915418D01*
X187864147Y-83815055D01*
X188087053Y-83633708D01*
X188283189Y-83423698D01*
X188448901Y-83188936D01*
X188581104Y-82933797D01*
X188677334Y-82663032D01*
X188735798Y-82381686D01*
X188751120Y-82157683D01*
X188755408Y-82095003D01*
X188755408Y-82094996D01*
X188738700Y-81850735D01*
X188735798Y-81808314D01*
X188677334Y-81526968D01*
X188581104Y-81256203D01*
X188448901Y-81001064D01*
X188283189Y-80766302D01*
X188087053Y-80556292D01*
X188059148Y-80533590D01*
X187864152Y-80374949D01*
X187864151Y-80374948D01*
X187864147Y-80374945D01*
X187864142Y-80374942D01*
X187864138Y-80374939D01*
X187618629Y-80225641D01*
X187618617Y-80225634D01*
X187355063Y-80111158D01*
X187355061Y-80111157D01*
X187355058Y-80111156D01*
X187078358Y-80033629D01*
X186793678Y-79994500D01*
X186506322Y-79994500D01*
X186221642Y-80033629D01*
X185944942Y-80111156D01*
X185944939Y-80111156D01*
X185944936Y-80111158D01*
X185681382Y-80225634D01*
X185681370Y-80225641D01*
X185435861Y-80374939D01*
X185435847Y-80374949D01*
X185212952Y-80556287D01*
X185212951Y-80556288D01*
X185212948Y-80556291D01*
X185212947Y-80556292D01*
X185178854Y-80592797D01*
X185016810Y-80766303D01*
X185016805Y-80766309D01*
X184851098Y-81001065D01*
X184718895Y-81256204D01*
X184710437Y-81280003D01*
X184637252Y-81485929D01*
X184622665Y-81526972D01*
X184564203Y-81808308D01*
X184564201Y-81808317D01*
X184544592Y-82094996D01*
X179661250Y-82094996D01*
X179661250Y-77288246D01*
X179664073Y-77264774D01*
X179707743Y-77085839D01*
X179760750Y-76868645D01*
X179765894Y-76843070D01*
X179768213Y-76833853D01*
X179787300Y-76770934D01*
X179807583Y-76565000D01*
X179795249Y-76439772D01*
X179787301Y-76359070D01*
X179787300Y-76359065D01*
X179755751Y-76255063D01*
X179727232Y-76161046D01*
X179629685Y-75978550D01*
X179613986Y-75959421D01*
X179498414Y-75818595D01*
X179498410Y-75818590D01*
X179498404Y-75818585D01*
X179338452Y-75687316D01*
X179155954Y-75589768D01*
X178957934Y-75529699D01*
X178957929Y-75529698D01*
X178752003Y-75509417D01*
X178751997Y-75509417D01*
X178546070Y-75529698D01*
X178546065Y-75529699D01*
X178348045Y-75589768D01*
X178348040Y-75589770D01*
X178163668Y-75688319D01*
X178103436Y-75699075D01*
X178070332Y-75688319D01*
X177885959Y-75589770D01*
X177885954Y-75589768D01*
X177687934Y-75529699D01*
X177687929Y-75529698D01*
X177482003Y-75509417D01*
X177481997Y-75509417D01*
X177276070Y-75529698D01*
X177276065Y-75529699D01*
X177078045Y-75589768D01*
X176895547Y-75687316D01*
X176735595Y-75818585D01*
X176735585Y-75818595D01*
X176604316Y-75978547D01*
X176506768Y-76161045D01*
X176446699Y-76359065D01*
X176446698Y-76359070D01*
X176426417Y-76564996D01*
X170676000Y-76564996D01*
X170676000Y-72537823D01*
X185881415Y-72537823D01*
X186127460Y-72629596D01*
X186386050Y-72685848D01*
X186650000Y-72704725D01*
X186913949Y-72685848D01*
X187172541Y-72629595D01*
X187418584Y-72537823D01*
X186649999Y-71769239D01*
X185881415Y-72537823D01*
X170676000Y-72537823D01*
X170676000Y-70998811D01*
X170675999Y-70998808D01*
X170646400Y-70850000D01*
X184795274Y-70850000D01*
X184814151Y-71113949D01*
X184870404Y-71372541D01*
X184962174Y-71618583D01*
X185730759Y-70849999D01*
X185661816Y-70781056D01*
X185950000Y-70781056D01*
X185950000Y-70918944D01*
X185976901Y-71054182D01*
X186029668Y-71181574D01*
X186106274Y-71296224D01*
X186203776Y-71393726D01*
X186318426Y-71470332D01*
X186445818Y-71523099D01*
X186581056Y-71550000D01*
X186718944Y-71550000D01*
X186854182Y-71523099D01*
X186981574Y-71470332D01*
X187096224Y-71393726D01*
X187193726Y-71296224D01*
X187270332Y-71181574D01*
X187323099Y-71054182D01*
X187350000Y-70918944D01*
X187350000Y-70849999D01*
X187569239Y-70849999D01*
X188337823Y-71618583D01*
X188429595Y-71372541D01*
X188485848Y-71113949D01*
X188504725Y-70850000D01*
X188485848Y-70586050D01*
X188429596Y-70327460D01*
X188337823Y-70081415D01*
X187569239Y-70849999D01*
X187350000Y-70849999D01*
X187350000Y-70781056D01*
X187323099Y-70645818D01*
X187270332Y-70518426D01*
X187193726Y-70403776D01*
X187096224Y-70306274D01*
X186981574Y-70229668D01*
X186854182Y-70176901D01*
X186718944Y-70150000D01*
X186581056Y-70150000D01*
X186445818Y-70176901D01*
X186318426Y-70229668D01*
X186203776Y-70306274D01*
X186106274Y-70403776D01*
X186029668Y-70518426D01*
X185976901Y-70645818D01*
X185950000Y-70781056D01*
X185661816Y-70781056D01*
X184962174Y-70081414D01*
X184870404Y-70327458D01*
X184814151Y-70586050D01*
X184795274Y-70850000D01*
X170646400Y-70850000D01*
X170634958Y-70792476D01*
X170608122Y-70727688D01*
X170554452Y-70598116D01*
X170554446Y-70598104D01*
X170487400Y-70497765D01*
X170437570Y-70423189D01*
X170288811Y-70274430D01*
X170221820Y-70229668D01*
X170113895Y-70157553D01*
X170113883Y-70157547D01*
X169919524Y-70077042D01*
X169713191Y-70036000D01*
X169713189Y-70036000D01*
X169502811Y-70036000D01*
X169502808Y-70036000D01*
X169296476Y-70077042D01*
X169296474Y-70077042D01*
X169102116Y-70157547D01*
X169102104Y-70157553D01*
X168927189Y-70274430D01*
X168927185Y-70274433D01*
X168778433Y-70423185D01*
X168778430Y-70423189D01*
X168661553Y-70598104D01*
X168661547Y-70598116D01*
X168581042Y-70792474D01*
X168581042Y-70792476D01*
X168540000Y-70998808D01*
X168540000Y-112764038D01*
X168521093Y-112822229D01*
X168471593Y-112858193D01*
X168410407Y-112858193D01*
X168364472Y-112826843D01*
X168322414Y-112775595D01*
X168322410Y-112775590D01*
X168308334Y-112764038D01*
X168162452Y-112644316D01*
X167979954Y-112546768D01*
X167781934Y-112486699D01*
X167781929Y-112486698D01*
X167576003Y-112466417D01*
X167575997Y-112466417D01*
X167370070Y-112486698D01*
X167370065Y-112486699D01*
X167172045Y-112546768D01*
X166989547Y-112644316D01*
X166829595Y-112775585D01*
X166829585Y-112775595D01*
X166698314Y-112935551D01*
X166662663Y-113002246D01*
X166653423Y-113016453D01*
X166648000Y-113023407D01*
X166436249Y-113371882D01*
X166421648Y-113390475D01*
X165450373Y-114361753D01*
X165395856Y-114389531D01*
X165380369Y-114390750D01*
X159552378Y-114390750D01*
X159494187Y-114371843D01*
X159458223Y-114322343D01*
X159458223Y-114261157D01*
X159494187Y-114211657D01*
X159514493Y-114200286D01*
X159596602Y-114166275D01*
X159646089Y-114145777D01*
X159854179Y-114018259D01*
X160039759Y-113859759D01*
X160198259Y-113674179D01*
X160325777Y-113466089D01*
X160419172Y-113240612D01*
X160476146Y-113003302D01*
X160495294Y-112760000D01*
X160476146Y-112516698D01*
X160419172Y-112279388D01*
X160325777Y-112053911D01*
X160198259Y-111845821D01*
X160039759Y-111660241D01*
X160039752Y-111660235D01*
X160039749Y-111660232D01*
X159854184Y-111501745D01*
X159854176Y-111501739D01*
X159646092Y-111374224D01*
X159646081Y-111374219D01*
X159420616Y-111280829D01*
X159420613Y-111280828D01*
X159183300Y-111223853D01*
X158940000Y-111204706D01*
X158696699Y-111223853D01*
X158459386Y-111280828D01*
X158459383Y-111280829D01*
X158233918Y-111374219D01*
X158233907Y-111374224D01*
X158025823Y-111501739D01*
X158025815Y-111501745D01*
X157840250Y-111660232D01*
X157840232Y-111660250D01*
X157681745Y-111845815D01*
X157681739Y-111845823D01*
X157554224Y-112053907D01*
X157554219Y-112053918D01*
X157460829Y-112279383D01*
X157460828Y-112279386D01*
X157403853Y-112516699D01*
X157384706Y-112760000D01*
X157403853Y-113003300D01*
X157460828Y-113240613D01*
X157460829Y-113240616D01*
X157554219Y-113466081D01*
X157554224Y-113466092D01*
X157681739Y-113674176D01*
X157681745Y-113674184D01*
X157821847Y-113838223D01*
X157840241Y-113859759D01*
X158025821Y-114018259D01*
X158025823Y-114018260D01*
X158233907Y-114145775D01*
X158233918Y-114145780D01*
X158365507Y-114200286D01*
X158412033Y-114240022D01*
X158426317Y-114299517D01*
X158402902Y-114356045D01*
X158350733Y-114388015D01*
X158327622Y-114390750D01*
X149392378Y-114390750D01*
X149334187Y-114371843D01*
X149298223Y-114322343D01*
X149298223Y-114261157D01*
X149334187Y-114211657D01*
X149354493Y-114200286D01*
X149436602Y-114166275D01*
X149486089Y-114145777D01*
X149694179Y-114018259D01*
X149879759Y-113859759D01*
X150038259Y-113674179D01*
X150165777Y-113466089D01*
X150259172Y-113240612D01*
X150316146Y-113003302D01*
X150335294Y-112760000D01*
X150316146Y-112516698D01*
X150259172Y-112279388D01*
X150165777Y-112053911D01*
X150038259Y-111845821D01*
X149879759Y-111660241D01*
X149879752Y-111660235D01*
X149879749Y-111660232D01*
X149694184Y-111501745D01*
X149694176Y-111501739D01*
X149486092Y-111374224D01*
X149486081Y-111374219D01*
X149260616Y-111280829D01*
X149260613Y-111280828D01*
X149023300Y-111223853D01*
X148780000Y-111204706D01*
X148536699Y-111223853D01*
X148299386Y-111280828D01*
X148299383Y-111280829D01*
X148073918Y-111374219D01*
X148073907Y-111374224D01*
X147865823Y-111501739D01*
X147865815Y-111501745D01*
X147680250Y-111660232D01*
X147680232Y-111660250D01*
X147521745Y-111845815D01*
X147521739Y-111845823D01*
X147394224Y-112053907D01*
X147394219Y-112053918D01*
X147300829Y-112279383D01*
X147300828Y-112279386D01*
X147243853Y-112516699D01*
X147224706Y-112760000D01*
X147243853Y-113003300D01*
X147300828Y-113240613D01*
X147300829Y-113240616D01*
X147394219Y-113466081D01*
X147394224Y-113466092D01*
X147521739Y-113674176D01*
X147521745Y-113674184D01*
X147661847Y-113838223D01*
X147680241Y-113859759D01*
X147865821Y-114018259D01*
X147865823Y-114018260D01*
X148073907Y-114145775D01*
X148073918Y-114145780D01*
X148205507Y-114200286D01*
X148252033Y-114240022D01*
X148266317Y-114299517D01*
X148242902Y-114356045D01*
X148190733Y-114388015D01*
X148167622Y-114390750D01*
X145058252Y-114390750D01*
X145034780Y-114387927D01*
X144638641Y-114291247D01*
X144613053Y-114286100D01*
X144603841Y-114283782D01*
X144540934Y-114264699D01*
X144540929Y-114264698D01*
X144335003Y-114244417D01*
X144334997Y-114244417D01*
X144129070Y-114264698D01*
X144129065Y-114264699D01*
X143931045Y-114324768D01*
X143748547Y-114422316D01*
X143588595Y-114553585D01*
X143588585Y-114553595D01*
X143467751Y-114700833D01*
X143416220Y-114733820D01*
X143355140Y-114730218D01*
X143308910Y-114693031D01*
X143259570Y-114619189D01*
X143110811Y-114470430D01*
X143110810Y-114470429D01*
X140570810Y-111930430D01*
X140395888Y-111813550D01*
X140395887Y-111813549D01*
X140395885Y-111813548D01*
X140201524Y-111733042D01*
X139995190Y-111691999D01*
X139995188Y-111691999D01*
X139784812Y-111691999D01*
X139784809Y-111691999D01*
X139578476Y-111733042D01*
X139578474Y-111733042D01*
X139384114Y-111813548D01*
X139384113Y-111813548D01*
X139209190Y-111930429D01*
X139060429Y-112079190D01*
X138943548Y-112254113D01*
X138943548Y-112254114D01*
X138863042Y-112448474D01*
X138863042Y-112448476D01*
X138821999Y-112654809D01*
X94805000Y-112654809D01*
X94805000Y-109219996D01*
X96734417Y-109219996D01*
X96734417Y-109220003D01*
X96754698Y-109425929D01*
X96754699Y-109425934D01*
X96814768Y-109623954D01*
X96912316Y-109806452D01*
X97043585Y-109966404D01*
X97043590Y-109966410D01*
X97043595Y-109966414D01*
X97203547Y-110097683D01*
X97203548Y-110097683D01*
X97203550Y-110097685D01*
X97386046Y-110195232D01*
X97500105Y-110229831D01*
X97584065Y-110255300D01*
X97584070Y-110255301D01*
X97789997Y-110275583D01*
X97790000Y-110275583D01*
X97790003Y-110275583D01*
X97995929Y-110255301D01*
X97995929Y-110255300D01*
X97995934Y-110255300D01*
X98068312Y-110233344D01*
X98084890Y-110229832D01*
X98093645Y-110228750D01*
X98489776Y-110132073D01*
X98513248Y-110129250D01*
X101511752Y-110129250D01*
X101535224Y-110132073D01*
X101931354Y-110228750D01*
X101941924Y-110230876D01*
X101956928Y-110233894D01*
X101966144Y-110236213D01*
X102029065Y-110255300D01*
X102029070Y-110255301D01*
X102234997Y-110275583D01*
X102235000Y-110275583D01*
X102235003Y-110275583D01*
X102440929Y-110255301D01*
X102440934Y-110255300D01*
X102638954Y-110195232D01*
X102821450Y-110097685D01*
X102981410Y-109966410D01*
X103112685Y-109806450D01*
X103210232Y-109623954D01*
X103270300Y-109425934D01*
X103270301Y-109425929D01*
X103290583Y-109220003D01*
X103290583Y-109219996D01*
X103270301Y-109014070D01*
X103270300Y-109014065D01*
X103250618Y-108949182D01*
X103210232Y-108816046D01*
X103112685Y-108633550D01*
X102981410Y-108473590D01*
X102908100Y-108413426D01*
X102821452Y-108342316D01*
X102638954Y-108244768D01*
X102440934Y-108184699D01*
X102440929Y-108184698D01*
X102235003Y-108164417D01*
X102234997Y-108164417D01*
X102029075Y-108184698D01*
X102029063Y-108184700D01*
X101956692Y-108206652D01*
X101940113Y-108210165D01*
X101931353Y-108211248D01*
X101535221Y-108307927D01*
X101511748Y-108310750D01*
X98513252Y-108310750D01*
X98489780Y-108307927D01*
X98093641Y-108211247D01*
X98068053Y-108206100D01*
X98058841Y-108203782D01*
X97995934Y-108184699D01*
X97995929Y-108184698D01*
X97790003Y-108164417D01*
X97789997Y-108164417D01*
X97584070Y-108184698D01*
X97584065Y-108184699D01*
X97386045Y-108244768D01*
X97203547Y-108342316D01*
X97043595Y-108473585D01*
X97043585Y-108473595D01*
X96912316Y-108633547D01*
X96814768Y-108816045D01*
X96754699Y-109014065D01*
X96754698Y-109014070D01*
X96734417Y-109219996D01*
X94805000Y-109219996D01*
X94805000Y-107712870D01*
X151678691Y-107712870D01*
X151805513Y-107756407D01*
X152050706Y-107797323D01*
X152299294Y-107797323D01*
X152544488Y-107756407D01*
X152671307Y-107712870D01*
X152174999Y-107216562D01*
X151678691Y-107712870D01*
X94805000Y-107712870D01*
X94805000Y-106297323D01*
X150669859Y-106297323D01*
X150690386Y-106545059D01*
X150751412Y-106786040D01*
X150756176Y-106796905D01*
X151255759Y-106297322D01*
X151189934Y-106231497D01*
X151675000Y-106231497D01*
X151675000Y-106363149D01*
X151709075Y-106490316D01*
X151774901Y-106604330D01*
X151867993Y-106697422D01*
X151982007Y-106763248D01*
X152109174Y-106797323D01*
X152240826Y-106797323D01*
X152367993Y-106763248D01*
X152482007Y-106697422D01*
X152575099Y-106604330D01*
X152640925Y-106490316D01*
X152675000Y-106363149D01*
X152675000Y-106297322D01*
X153094239Y-106297322D01*
X153593822Y-106796905D01*
X153598585Y-106786046D01*
X153598586Y-106786042D01*
X153659613Y-106545059D01*
X153680140Y-106297323D01*
X153659613Y-106049586D01*
X153598588Y-105808604D01*
X153593822Y-105797739D01*
X153094239Y-106297322D01*
X152675000Y-106297322D01*
X152675000Y-106231497D01*
X152640925Y-106104330D01*
X152575099Y-105990316D01*
X152482007Y-105897224D01*
X152367993Y-105831398D01*
X152240826Y-105797323D01*
X152109174Y-105797323D01*
X151982007Y-105831398D01*
X151867993Y-105897224D01*
X151774901Y-105990316D01*
X151709075Y-106104330D01*
X151675000Y-106231497D01*
X151189934Y-106231497D01*
X150756177Y-105797740D01*
X150751412Y-105808605D01*
X150690386Y-106049586D01*
X150669859Y-106297323D01*
X94805000Y-106297323D01*
X94805000Y-104881774D01*
X151678691Y-104881774D01*
X152174999Y-105378082D01*
X152671307Y-104881774D01*
X152544492Y-104838239D01*
X152299294Y-104797323D01*
X152050706Y-104797323D01*
X151805507Y-104838239D01*
X151678691Y-104881774D01*
X94805000Y-104881774D01*
X94805000Y-100247306D01*
X150424500Y-100247306D01*
X150424500Y-102347339D01*
X150434999Y-102450111D01*
X150435002Y-102450123D01*
X150490187Y-102616659D01*
X150582285Y-102765975D01*
X150582286Y-102765976D01*
X150582288Y-102765979D01*
X150706344Y-102890035D01*
X150855666Y-102982137D01*
X151022203Y-103037322D01*
X151124991Y-103047823D01*
X153225008Y-103047822D01*
X153225016Y-103047822D01*
X153327788Y-103037323D01*
X153327788Y-103037322D01*
X153327797Y-103037322D01*
X153494334Y-102982137D01*
X153643656Y-102890035D01*
X153767712Y-102765979D01*
X153859814Y-102616657D01*
X153914999Y-102450120D01*
X153925500Y-102347332D01*
X153925499Y-100247315D01*
X153925499Y-100247314D01*
X153925499Y-100247306D01*
X153915000Y-100144534D01*
X153914999Y-100144532D01*
X153914999Y-100144526D01*
X153859814Y-99977989D01*
X153767712Y-99828667D01*
X153643656Y-99704611D01*
X153643653Y-99704609D01*
X153643652Y-99704608D01*
X153494336Y-99612510D01*
X153494335Y-99612509D01*
X153494334Y-99612509D01*
X153327797Y-99557324D01*
X153327794Y-99557323D01*
X153225016Y-99546823D01*
X151124983Y-99546823D01*
X151022211Y-99557322D01*
X151022199Y-99557325D01*
X150855663Y-99612510D01*
X150706347Y-99704608D01*
X150582285Y-99828670D01*
X150490187Y-99977986D01*
X150435000Y-100144528D01*
X150424500Y-100247306D01*
X94805000Y-100247306D01*
X94805000Y-90534997D01*
X101354732Y-90534997D01*
X101354732Y-90535002D01*
X101373777Y-90789152D01*
X101373779Y-90789161D01*
X101430492Y-91037639D01*
X101523604Y-91274881D01*
X101523607Y-91274888D01*
X101651041Y-91495612D01*
X101651045Y-91495618D01*
X101651047Y-91495620D01*
X101809945Y-91694873D01*
X101809951Y-91694879D01*
X101850419Y-91732428D01*
X101880216Y-91785868D01*
X101872910Y-91846616D01*
X101850419Y-91877572D01*
X101809951Y-91915120D01*
X101809945Y-91915126D01*
X101651047Y-92114379D01*
X101651043Y-92114384D01*
X101651041Y-92114388D01*
X101627764Y-92154706D01*
X101523608Y-92335109D01*
X101523604Y-92335118D01*
X101430492Y-92572360D01*
X101373779Y-92820838D01*
X101373777Y-92820847D01*
X101354732Y-93074997D01*
X101354732Y-93075002D01*
X101373777Y-93329152D01*
X101373779Y-93329161D01*
X101430492Y-93577639D01*
X101482441Y-93710000D01*
X101523607Y-93814888D01*
X101651041Y-94035612D01*
X101651045Y-94035618D01*
X101651047Y-94035620D01*
X101809940Y-94234866D01*
X101809951Y-94234878D01*
X101996776Y-94408226D01*
X101996778Y-94408227D01*
X101996783Y-94408232D01*
X102207366Y-94551805D01*
X102436996Y-94662389D01*
X102680542Y-94737513D01*
X102932565Y-94775500D01*
X102932570Y-94775500D01*
X103187430Y-94775500D01*
X103187435Y-94775500D01*
X103439458Y-94737513D01*
X103683004Y-94662389D01*
X103912634Y-94551805D01*
X104123217Y-94408232D01*
X104190479Y-94345821D01*
X104262663Y-94278846D01*
X104318180Y-94253126D01*
X104378212Y-94264951D01*
X104397337Y-94278846D01*
X104536776Y-94408226D01*
X104536778Y-94408227D01*
X104536783Y-94408232D01*
X104747366Y-94551805D01*
X104976996Y-94662389D01*
X105220542Y-94737513D01*
X105472565Y-94775500D01*
X105472570Y-94775500D01*
X105727430Y-94775500D01*
X105727435Y-94775500D01*
X105979458Y-94737513D01*
X106223004Y-94662389D01*
X106452634Y-94551805D01*
X106663217Y-94408232D01*
X106730479Y-94345821D01*
X106802663Y-94278846D01*
X106858180Y-94253126D01*
X106918212Y-94264951D01*
X106937337Y-94278846D01*
X107076776Y-94408226D01*
X107076778Y-94408227D01*
X107076783Y-94408232D01*
X107287366Y-94551805D01*
X107516996Y-94662389D01*
X107760542Y-94737513D01*
X108012565Y-94775500D01*
X108012570Y-94775500D01*
X108267430Y-94775500D01*
X108267435Y-94775500D01*
X108519458Y-94737513D01*
X108763004Y-94662389D01*
X108992634Y-94551805D01*
X109203217Y-94408232D01*
X109270479Y-94345821D01*
X109342663Y-94278846D01*
X109398180Y-94253126D01*
X109458212Y-94264951D01*
X109477337Y-94278846D01*
X109616776Y-94408226D01*
X109616778Y-94408227D01*
X109616783Y-94408232D01*
X109827366Y-94551805D01*
X110056996Y-94662389D01*
X110300542Y-94737513D01*
X110552565Y-94775500D01*
X110552570Y-94775500D01*
X110807430Y-94775500D01*
X110807435Y-94775500D01*
X111059458Y-94737513D01*
X111303004Y-94662389D01*
X111532634Y-94551805D01*
X111743217Y-94408232D01*
X111810479Y-94345821D01*
X111882663Y-94278846D01*
X111938180Y-94253126D01*
X111998212Y-94264951D01*
X112017337Y-94278846D01*
X112156776Y-94408226D01*
X112156778Y-94408227D01*
X112156783Y-94408232D01*
X112367366Y-94551805D01*
X112596996Y-94662389D01*
X112840542Y-94737513D01*
X113092565Y-94775500D01*
X113092570Y-94775500D01*
X113347430Y-94775500D01*
X113347435Y-94775500D01*
X113599458Y-94737513D01*
X113843004Y-94662389D01*
X114072634Y-94551805D01*
X114283217Y-94408232D01*
X114350479Y-94345821D01*
X114422663Y-94278846D01*
X114478180Y-94253126D01*
X114538212Y-94264951D01*
X114557337Y-94278846D01*
X114696776Y-94408226D01*
X114696778Y-94408227D01*
X114696783Y-94408232D01*
X114907366Y-94551805D01*
X115136996Y-94662389D01*
X115380542Y-94737513D01*
X115632565Y-94775500D01*
X115632570Y-94775500D01*
X115887430Y-94775500D01*
X115887435Y-94775500D01*
X116139458Y-94737513D01*
X116383004Y-94662389D01*
X116612634Y-94551805D01*
X116823217Y-94408232D01*
X116890479Y-94345821D01*
X116962663Y-94278846D01*
X117018180Y-94253126D01*
X117078212Y-94264951D01*
X117097337Y-94278846D01*
X117236776Y-94408226D01*
X117236778Y-94408227D01*
X117236783Y-94408232D01*
X117447366Y-94551805D01*
X117676996Y-94662389D01*
X117920542Y-94737513D01*
X118172565Y-94775500D01*
X118172570Y-94775500D01*
X118427430Y-94775500D01*
X118427435Y-94775500D01*
X118679458Y-94737513D01*
X118923004Y-94662389D01*
X119152634Y-94551805D01*
X119363217Y-94408232D01*
X119430479Y-94345821D01*
X119502663Y-94278846D01*
X119558180Y-94253126D01*
X119618212Y-94264951D01*
X119637337Y-94278846D01*
X119776776Y-94408226D01*
X119776778Y-94408227D01*
X119776783Y-94408232D01*
X119987366Y-94551805D01*
X120216996Y-94662389D01*
X120460542Y-94737513D01*
X120712565Y-94775500D01*
X120712570Y-94775500D01*
X120967430Y-94775500D01*
X120967435Y-94775500D01*
X121219458Y-94737513D01*
X121463004Y-94662389D01*
X121692634Y-94551805D01*
X121903217Y-94408232D01*
X121970479Y-94345821D01*
X122042663Y-94278846D01*
X122098180Y-94253126D01*
X122158212Y-94264951D01*
X122177337Y-94278846D01*
X122316776Y-94408226D01*
X122316778Y-94408227D01*
X122316783Y-94408232D01*
X122527366Y-94551805D01*
X122756996Y-94662389D01*
X123000542Y-94737513D01*
X123252565Y-94775500D01*
X123252570Y-94775500D01*
X123507430Y-94775500D01*
X123507435Y-94775500D01*
X123759458Y-94737513D01*
X124003004Y-94662389D01*
X124232634Y-94551805D01*
X124443217Y-94408232D01*
X124510479Y-94345821D01*
X124582663Y-94278846D01*
X124638180Y-94253126D01*
X124698212Y-94264951D01*
X124717337Y-94278846D01*
X124856776Y-94408226D01*
X124856778Y-94408227D01*
X124856783Y-94408232D01*
X125067366Y-94551805D01*
X125296996Y-94662389D01*
X125540542Y-94737513D01*
X125792565Y-94775500D01*
X125792570Y-94775500D01*
X126047430Y-94775500D01*
X126047435Y-94775500D01*
X126299458Y-94737513D01*
X126543004Y-94662389D01*
X126772634Y-94551805D01*
X126983217Y-94408232D01*
X127170050Y-94234877D01*
X127190001Y-94209860D01*
X127212738Y-94181347D01*
X127328959Y-94035612D01*
X127456393Y-93814888D01*
X127497559Y-93710000D01*
X147224706Y-93710000D01*
X147243853Y-93953300D01*
X147300828Y-94190613D01*
X147300829Y-94190616D01*
X147394219Y-94416081D01*
X147394224Y-94416092D01*
X147521739Y-94624176D01*
X147521745Y-94624184D01*
X147661847Y-94788223D01*
X147680241Y-94809759D01*
X147865821Y-94968259D01*
X147865823Y-94968260D01*
X148073907Y-95095775D01*
X148073918Y-95095780D01*
X148287771Y-95184360D01*
X148299388Y-95189172D01*
X148536698Y-95246146D01*
X148780000Y-95265294D01*
X149023302Y-95246146D01*
X149260612Y-95189172D01*
X149486089Y-95095777D01*
X149694179Y-94968259D01*
X149879759Y-94809759D01*
X150038259Y-94624179D01*
X150165777Y-94416089D01*
X150259172Y-94190612D01*
X150316146Y-93953302D01*
X150335294Y-93710000D01*
X157384706Y-93710000D01*
X157403853Y-93953300D01*
X157460828Y-94190613D01*
X157460829Y-94190616D01*
X157554219Y-94416081D01*
X157554224Y-94416092D01*
X157681739Y-94624176D01*
X157681745Y-94624184D01*
X157821847Y-94788223D01*
X157840241Y-94809759D01*
X158025821Y-94968259D01*
X158025823Y-94968260D01*
X158233907Y-95095775D01*
X158233918Y-95095780D01*
X158447771Y-95184360D01*
X158459388Y-95189172D01*
X158696698Y-95246146D01*
X158940000Y-95265294D01*
X159183302Y-95246146D01*
X159420612Y-95189172D01*
X159646089Y-95095777D01*
X159854179Y-94968259D01*
X160039759Y-94809759D01*
X160198259Y-94624179D01*
X160325777Y-94416089D01*
X160419172Y-94190612D01*
X160476146Y-93953302D01*
X160495294Y-93710000D01*
X160476146Y-93466698D01*
X160419172Y-93229388D01*
X160325777Y-93003911D01*
X160198259Y-92795821D01*
X160039759Y-92610241D01*
X160039752Y-92610235D01*
X160039749Y-92610232D01*
X159854184Y-92451745D01*
X159854176Y-92451739D01*
X159646092Y-92324224D01*
X159646081Y-92324219D01*
X159420616Y-92230829D01*
X159420613Y-92230828D01*
X159183300Y-92173853D01*
X158940000Y-92154706D01*
X158696699Y-92173853D01*
X158459386Y-92230828D01*
X158459383Y-92230829D01*
X158233918Y-92324219D01*
X158233907Y-92324224D01*
X158025823Y-92451739D01*
X158025815Y-92451745D01*
X157840250Y-92610232D01*
X157840232Y-92610250D01*
X157681745Y-92795815D01*
X157681739Y-92795823D01*
X157554224Y-93003907D01*
X157554219Y-93003918D01*
X157460829Y-93229383D01*
X157460828Y-93229386D01*
X157403853Y-93466699D01*
X157384706Y-93710000D01*
X150335294Y-93710000D01*
X150316146Y-93466698D01*
X150259172Y-93229388D01*
X150165777Y-93003911D01*
X150038259Y-92795821D01*
X149879759Y-92610241D01*
X149879752Y-92610235D01*
X149879749Y-92610232D01*
X149694184Y-92451745D01*
X149694176Y-92451739D01*
X149486092Y-92324224D01*
X149486081Y-92324219D01*
X149260616Y-92230829D01*
X149260613Y-92230828D01*
X149023300Y-92173853D01*
X148780000Y-92154706D01*
X148536699Y-92173853D01*
X148299386Y-92230828D01*
X148299383Y-92230829D01*
X148073918Y-92324219D01*
X148073907Y-92324224D01*
X147865823Y-92451739D01*
X147865815Y-92451745D01*
X147680250Y-92610232D01*
X147680232Y-92610250D01*
X147521745Y-92795815D01*
X147521739Y-92795823D01*
X147394224Y-93003907D01*
X147394219Y-93003918D01*
X147300829Y-93229383D01*
X147300828Y-93229386D01*
X147243853Y-93466699D01*
X147224706Y-93710000D01*
X127497559Y-93710000D01*
X127549508Y-93577637D01*
X127606222Y-93329157D01*
X127625268Y-93075000D01*
X127619940Y-93003907D01*
X127606222Y-92820847D01*
X127606222Y-92820843D01*
X127549508Y-92572363D01*
X127456393Y-92335112D01*
X127328959Y-92114388D01*
X127328952Y-92114379D01*
X127170059Y-91915133D01*
X127170048Y-91915121D01*
X126983223Y-91741773D01*
X126983220Y-91741771D01*
X126983217Y-91741768D01*
X126772634Y-91598195D01*
X126713515Y-91569725D01*
X126543004Y-91487611D01*
X126299462Y-91412488D01*
X126299459Y-91412487D01*
X126299458Y-91412487D01*
X126299453Y-91412486D01*
X126299452Y-91412486D01*
X126047438Y-91374500D01*
X126047435Y-91374500D01*
X125792565Y-91374500D01*
X125792561Y-91374500D01*
X125540547Y-91412486D01*
X125540537Y-91412488D01*
X125296995Y-91487611D01*
X125067373Y-91598191D01*
X125067369Y-91598193D01*
X125067366Y-91598195D01*
X124856783Y-91741768D01*
X124856776Y-91741773D01*
X124809525Y-91785615D01*
X124754008Y-91811334D01*
X124693976Y-91799509D01*
X124652360Y-91754656D01*
X124645056Y-91693908D01*
X124664786Y-91651318D01*
X124788959Y-91495612D01*
X124916393Y-91274888D01*
X125009508Y-91037637D01*
X125066222Y-90789157D01*
X125085268Y-90535000D01*
X125080335Y-90469174D01*
X125420000Y-90469174D01*
X125420000Y-90600826D01*
X125454075Y-90727993D01*
X125519901Y-90842007D01*
X125612993Y-90935099D01*
X125727007Y-91000925D01*
X125854174Y-91035000D01*
X125985826Y-91035000D01*
X126112993Y-91000925D01*
X126227007Y-90935099D01*
X126320099Y-90842007D01*
X126385925Y-90727993D01*
X126420000Y-90600826D01*
X126420000Y-90534999D01*
X126839238Y-90534999D01*
X127299272Y-90995033D01*
X127355125Y-90774478D01*
X127374968Y-90535000D01*
X127355125Y-90295521D01*
X127355125Y-90295520D01*
X127299273Y-90074964D01*
X126839238Y-90534999D01*
X126420000Y-90534999D01*
X126420000Y-90469174D01*
X126385925Y-90342007D01*
X126320099Y-90227993D01*
X126227007Y-90134901D01*
X126112993Y-90069075D01*
X125985826Y-90035000D01*
X125854174Y-90035000D01*
X125727007Y-90069075D01*
X125612993Y-90134901D01*
X125519901Y-90227993D01*
X125454075Y-90342007D01*
X125420000Y-90469174D01*
X125080335Y-90469174D01*
X125066222Y-90280843D01*
X125009508Y-90032363D01*
X124916393Y-89795112D01*
X124788959Y-89574388D01*
X124788952Y-89574379D01*
X124630059Y-89375133D01*
X124630048Y-89375121D01*
X124443223Y-89201773D01*
X124443220Y-89201771D01*
X124443217Y-89201768D01*
X124380203Y-89158806D01*
X125463045Y-89158806D01*
X125919999Y-89615760D01*
X126376953Y-89158806D01*
X126277176Y-89124553D01*
X126040150Y-89085000D01*
X125799850Y-89085000D01*
X125562823Y-89124553D01*
X125463045Y-89158806D01*
X124380203Y-89158806D01*
X124232634Y-89058195D01*
X124174709Y-89030300D01*
X124003004Y-88947611D01*
X123759462Y-88872488D01*
X123759459Y-88872487D01*
X123759458Y-88872487D01*
X123759453Y-88872486D01*
X123759452Y-88872486D01*
X123507438Y-88834500D01*
X123507435Y-88834500D01*
X123252565Y-88834500D01*
X123252561Y-88834500D01*
X123000547Y-88872486D01*
X123000537Y-88872488D01*
X122756995Y-88947611D01*
X122527373Y-89058191D01*
X122527369Y-89058193D01*
X122527366Y-89058195D01*
X122316783Y-89201768D01*
X122316776Y-89201773D01*
X122177337Y-89331154D01*
X122121820Y-89356874D01*
X122061788Y-89345049D01*
X122042663Y-89331154D01*
X121903223Y-89201773D01*
X121903220Y-89201771D01*
X121903217Y-89201768D01*
X121692634Y-89058195D01*
X121634709Y-89030300D01*
X121463004Y-88947611D01*
X121219462Y-88872488D01*
X121219459Y-88872487D01*
X121219458Y-88872487D01*
X121219453Y-88872486D01*
X121219452Y-88872486D01*
X120967438Y-88834500D01*
X120967435Y-88834500D01*
X120712565Y-88834500D01*
X120712561Y-88834500D01*
X120460547Y-88872486D01*
X120460537Y-88872488D01*
X120216995Y-88947611D01*
X119987373Y-89058191D01*
X119987369Y-89058193D01*
X119987366Y-89058195D01*
X119776783Y-89201768D01*
X119776776Y-89201773D01*
X119637337Y-89331154D01*
X119581820Y-89356874D01*
X119521788Y-89345049D01*
X119502663Y-89331154D01*
X119363223Y-89201773D01*
X119363220Y-89201771D01*
X119363217Y-89201768D01*
X119152634Y-89058195D01*
X119094709Y-89030300D01*
X118923004Y-88947611D01*
X118679462Y-88872488D01*
X118679459Y-88872487D01*
X118679458Y-88872487D01*
X118679453Y-88872486D01*
X118679452Y-88872486D01*
X118427438Y-88834500D01*
X118427435Y-88834500D01*
X118172565Y-88834500D01*
X118172561Y-88834500D01*
X117920547Y-88872486D01*
X117920537Y-88872488D01*
X117676995Y-88947611D01*
X117447373Y-89058191D01*
X117447369Y-89058193D01*
X117447366Y-89058195D01*
X117236783Y-89201768D01*
X117236776Y-89201773D01*
X117097337Y-89331154D01*
X117041820Y-89356874D01*
X116981788Y-89345049D01*
X116962663Y-89331154D01*
X116823223Y-89201773D01*
X116823220Y-89201771D01*
X116823217Y-89201768D01*
X116612634Y-89058195D01*
X116554709Y-89030300D01*
X116383004Y-88947611D01*
X116139462Y-88872488D01*
X116139459Y-88872487D01*
X116139458Y-88872487D01*
X116139453Y-88872486D01*
X116139452Y-88872486D01*
X115887438Y-88834500D01*
X115887435Y-88834500D01*
X115632565Y-88834500D01*
X115632561Y-88834500D01*
X115380547Y-88872486D01*
X115380537Y-88872488D01*
X115136995Y-88947611D01*
X114907373Y-89058191D01*
X114907369Y-89058193D01*
X114907366Y-89058195D01*
X114696783Y-89201768D01*
X114696776Y-89201773D01*
X114557337Y-89331154D01*
X114501820Y-89356874D01*
X114441788Y-89345049D01*
X114422663Y-89331154D01*
X114283223Y-89201773D01*
X114283220Y-89201771D01*
X114283217Y-89201768D01*
X114072634Y-89058195D01*
X114014709Y-89030300D01*
X113843004Y-88947611D01*
X113599462Y-88872488D01*
X113599459Y-88872487D01*
X113599458Y-88872487D01*
X113599453Y-88872486D01*
X113599452Y-88872486D01*
X113347438Y-88834500D01*
X113347435Y-88834500D01*
X113092565Y-88834500D01*
X113092561Y-88834500D01*
X112840547Y-88872486D01*
X112840537Y-88872488D01*
X112596995Y-88947611D01*
X112367373Y-89058191D01*
X112367369Y-89058193D01*
X112367366Y-89058195D01*
X112156783Y-89201768D01*
X112156776Y-89201773D01*
X112017337Y-89331154D01*
X111961820Y-89356874D01*
X111901788Y-89345049D01*
X111882663Y-89331154D01*
X111743223Y-89201773D01*
X111743220Y-89201771D01*
X111743217Y-89201768D01*
X111532634Y-89058195D01*
X111474709Y-89030300D01*
X111303004Y-88947611D01*
X111059462Y-88872488D01*
X111059459Y-88872487D01*
X111059458Y-88872487D01*
X111059453Y-88872486D01*
X111059452Y-88872486D01*
X110807438Y-88834500D01*
X110807435Y-88834500D01*
X110552565Y-88834500D01*
X110552561Y-88834500D01*
X110352411Y-88864668D01*
X110292052Y-88854645D01*
X110267652Y-88836778D01*
X109523246Y-88092372D01*
X109495469Y-88037855D01*
X109494250Y-88022368D01*
X109494250Y-86089996D01*
X131214417Y-86089996D01*
X131214417Y-86090003D01*
X131234698Y-86295929D01*
X131234699Y-86295934D01*
X131294768Y-86493954D01*
X131392316Y-86676452D01*
X131459737Y-86758605D01*
X131523590Y-86836410D01*
X131523595Y-86836414D01*
X131683547Y-86967683D01*
X131683548Y-86967683D01*
X131683550Y-86967685D01*
X131866046Y-87065232D01*
X131980105Y-87099831D01*
X132064065Y-87125300D01*
X132064070Y-87125301D01*
X132269997Y-87145583D01*
X132270000Y-87145583D01*
X132270003Y-87145583D01*
X132475929Y-87125301D01*
X132475929Y-87125300D01*
X132475934Y-87125300D01*
X132548312Y-87103344D01*
X132564890Y-87099832D01*
X132573645Y-87098750D01*
X132969776Y-87002073D01*
X132993248Y-86999250D01*
X134392369Y-86999250D01*
X134450560Y-87018157D01*
X134462373Y-87028246D01*
X135560648Y-88126521D01*
X135575249Y-88145115D01*
X135786995Y-88493585D01*
X135801445Y-88515311D01*
X135806322Y-88523467D01*
X135837316Y-88581451D01*
X135837316Y-88581452D01*
X135941542Y-88708452D01*
X135968590Y-88741410D01*
X135968595Y-88741414D01*
X136128547Y-88872683D01*
X136128548Y-88872683D01*
X136128550Y-88872685D01*
X136311046Y-88970232D01*
X136408141Y-88999685D01*
X136509065Y-89030300D01*
X136509070Y-89030301D01*
X136714997Y-89050583D01*
X136715000Y-89050583D01*
X136715003Y-89050583D01*
X136920929Y-89030301D01*
X136920934Y-89030300D01*
X137118954Y-88970232D01*
X137301450Y-88872685D01*
X137461410Y-88741410D01*
X137525866Y-88662870D01*
X151678691Y-88662870D01*
X151805513Y-88706407D01*
X152050706Y-88747323D01*
X152299294Y-88747323D01*
X152544488Y-88706407D01*
X152671307Y-88662870D01*
X152174999Y-88166562D01*
X151678691Y-88662870D01*
X137525866Y-88662870D01*
X137592685Y-88581450D01*
X137690232Y-88398954D01*
X137750300Y-88200934D01*
X137750301Y-88200929D01*
X137770583Y-87995003D01*
X137770583Y-87994996D01*
X137750301Y-87789070D01*
X137750300Y-87789065D01*
X137707333Y-87647422D01*
X137690232Y-87591046D01*
X137592685Y-87408550D01*
X137565631Y-87375585D01*
X137461414Y-87248595D01*
X137461410Y-87248590D01*
X137459866Y-87247323D01*
X150669859Y-87247323D01*
X150690386Y-87495059D01*
X150751412Y-87736040D01*
X150756176Y-87746905D01*
X151255759Y-87247322D01*
X151189934Y-87181497D01*
X151675000Y-87181497D01*
X151675000Y-87313149D01*
X151709075Y-87440316D01*
X151774901Y-87554330D01*
X151867993Y-87647422D01*
X151982007Y-87713248D01*
X152109174Y-87747323D01*
X152240826Y-87747323D01*
X152367993Y-87713248D01*
X152482007Y-87647422D01*
X152575099Y-87554330D01*
X152640925Y-87440316D01*
X152675000Y-87313149D01*
X152675000Y-87247322D01*
X153094239Y-87247322D01*
X153593822Y-87746905D01*
X153598585Y-87736046D01*
X153598586Y-87736042D01*
X153659613Y-87495059D01*
X153680140Y-87247323D01*
X153659613Y-86999586D01*
X153598588Y-86758604D01*
X153593822Y-86747739D01*
X153094239Y-87247322D01*
X152675000Y-87247322D01*
X152675000Y-87181497D01*
X152640925Y-87054330D01*
X152575099Y-86940316D01*
X152482007Y-86847224D01*
X152367993Y-86781398D01*
X152240826Y-86747323D01*
X152109174Y-86747323D01*
X151982007Y-86781398D01*
X151867993Y-86847224D01*
X151774901Y-86940316D01*
X151709075Y-87054330D01*
X151675000Y-87181497D01*
X151189934Y-87181497D01*
X150756177Y-86747740D01*
X150751412Y-86758605D01*
X150690386Y-86999586D01*
X150669859Y-87247323D01*
X137459866Y-87247323D01*
X137443254Y-87233690D01*
X137301452Y-87117316D01*
X137234756Y-87081666D01*
X137220541Y-87072421D01*
X137213584Y-87066995D01*
X136865115Y-86855249D01*
X136846521Y-86840648D01*
X135837647Y-85831774D01*
X151678691Y-85831774D01*
X152174999Y-86328082D01*
X152671307Y-85831774D01*
X152544492Y-85788239D01*
X152299294Y-85747323D01*
X152050706Y-85747323D01*
X151805507Y-85788239D01*
X151678691Y-85831774D01*
X135837647Y-85831774D01*
X135389612Y-85383739D01*
X135240693Y-85284234D01*
X135240694Y-85284234D01*
X135240692Y-85284233D01*
X135143759Y-85244083D01*
X135109488Y-85229887D01*
X135075221Y-85215693D01*
X135075215Y-85215691D01*
X134899555Y-85180750D01*
X134899553Y-85180750D01*
X132993252Y-85180750D01*
X132969780Y-85177927D01*
X132573641Y-85081247D01*
X132548053Y-85076100D01*
X132538841Y-85073782D01*
X132475934Y-85054699D01*
X132475929Y-85054698D01*
X132270003Y-85034417D01*
X132269997Y-85034417D01*
X132064070Y-85054698D01*
X132064065Y-85054699D01*
X131866045Y-85114768D01*
X131683547Y-85212316D01*
X131523595Y-85343585D01*
X131523585Y-85343595D01*
X131392316Y-85503547D01*
X131294768Y-85686045D01*
X131234699Y-85884065D01*
X131234698Y-85884070D01*
X131214417Y-86089996D01*
X109494250Y-86089996D01*
X109494250Y-83730448D01*
X109494249Y-83730444D01*
X109459308Y-83554783D01*
X109405011Y-83423698D01*
X109395246Y-83400123D01*
X109390767Y-83389309D01*
X109291261Y-83240387D01*
X109239808Y-83188934D01*
X109104349Y-83053474D01*
X109089748Y-83034881D01*
X108878006Y-82686419D01*
X108878004Y-82686415D01*
X108863547Y-82664677D01*
X108858680Y-82656537D01*
X108827685Y-82598550D01*
X108696410Y-82438590D01*
X108627067Y-82381682D01*
X108536452Y-82307316D01*
X108353954Y-82209768D01*
X108155934Y-82149699D01*
X108155929Y-82149698D01*
X107950003Y-82129417D01*
X107949996Y-82129417D01*
X107796378Y-82144546D01*
X107736614Y-82131433D01*
X107695972Y-82085697D01*
X107687675Y-82046023D01*
X107687675Y-82011065D01*
X107687674Y-82011061D01*
X107655783Y-81850735D01*
X107593225Y-81699707D01*
X107502406Y-81563786D01*
X107465588Y-81526968D01*
X107386814Y-81448193D01*
X107386814Y-81448194D01*
X107183169Y-81244549D01*
X107161923Y-81212944D01*
X107155342Y-81197306D01*
X150424500Y-81197306D01*
X150424500Y-83297339D01*
X150434999Y-83400111D01*
X150435000Y-83400118D01*
X150435001Y-83400120D01*
X150486251Y-83554783D01*
X150490187Y-83566659D01*
X150582285Y-83715975D01*
X150582286Y-83715976D01*
X150582288Y-83715979D01*
X150706344Y-83840035D01*
X150855666Y-83932137D01*
X151022203Y-83987322D01*
X151124991Y-83997823D01*
X153225008Y-83997822D01*
X153225016Y-83997822D01*
X153327788Y-83987323D01*
X153327788Y-83987322D01*
X153327797Y-83987322D01*
X153494334Y-83932137D01*
X153643656Y-83840035D01*
X153767712Y-83715979D01*
X153859814Y-83566657D01*
X153914999Y-83400120D01*
X153925500Y-83297332D01*
X153925499Y-81197315D01*
X153925499Y-81197314D01*
X153925499Y-81197306D01*
X153915000Y-81094534D01*
X153914999Y-81094532D01*
X153914999Y-81094526D01*
X153859814Y-80927989D01*
X153767712Y-80778667D01*
X153643656Y-80654611D01*
X153643653Y-80654609D01*
X153643652Y-80654608D01*
X153494336Y-80562510D01*
X153494335Y-80562509D01*
X153494334Y-80562509D01*
X153327797Y-80507324D01*
X153327794Y-80507323D01*
X153225016Y-80496823D01*
X151124983Y-80496823D01*
X151022211Y-80507322D01*
X151022199Y-80507325D01*
X150855663Y-80562510D01*
X150706347Y-80654608D01*
X150582285Y-80778670D01*
X150490187Y-80927986D01*
X150435000Y-81094528D01*
X150424500Y-81197306D01*
X107155342Y-81197306D01*
X107023018Y-80882852D01*
X107023012Y-80882840D01*
X107022432Y-80881462D01*
X107022102Y-80880545D01*
X107022096Y-80880548D01*
X107020235Y-80876056D01*
X107020232Y-80876046D01*
X107000018Y-80838230D01*
X106999410Y-80837071D01*
X106969205Y-80778496D01*
X106969203Y-80778494D01*
X106966597Y-80774456D01*
X106966822Y-80774310D01*
X106961585Y-80766326D01*
X106957848Y-80759334D01*
X106922685Y-80693550D01*
X106791410Y-80533590D01*
X106759405Y-80507324D01*
X106631452Y-80402316D01*
X106448954Y-80304768D01*
X106250934Y-80244699D01*
X106250929Y-80244698D01*
X106045003Y-80224417D01*
X106044997Y-80224417D01*
X105839070Y-80244698D01*
X105839065Y-80244699D01*
X105641045Y-80304768D01*
X105458547Y-80402316D01*
X105298595Y-80533585D01*
X105298585Y-80533595D01*
X105167316Y-80693547D01*
X105069768Y-80876045D01*
X105009699Y-81074065D01*
X105009698Y-81074070D01*
X104989417Y-81279996D01*
X104989417Y-81280003D01*
X105009698Y-81485929D01*
X105009699Y-81485934D01*
X105069768Y-81683954D01*
X105167316Y-81866452D01*
X105285993Y-82011061D01*
X105298590Y-82026410D01*
X105298595Y-82026414D01*
X105458547Y-82157683D01*
X105458548Y-82157683D01*
X105458550Y-82157685D01*
X105555990Y-82209768D01*
X105641050Y-82255234D01*
X105645544Y-82257095D01*
X105645541Y-82257100D01*
X105646456Y-82257430D01*
X105647848Y-82258015D01*
X105647852Y-82258018D01*
X105967324Y-82392454D01*
X106013626Y-82432452D01*
X106027925Y-82483704D01*
X106027925Y-88764752D01*
X106009018Y-88822943D01*
X105959518Y-88858907D01*
X105914170Y-88862646D01*
X105727438Y-88834500D01*
X105727435Y-88834500D01*
X105472565Y-88834500D01*
X105472561Y-88834500D01*
X105220547Y-88872486D01*
X105220537Y-88872488D01*
X104976995Y-88947611D01*
X104747373Y-89058191D01*
X104747369Y-89058193D01*
X104747366Y-89058195D01*
X104536783Y-89201768D01*
X104536776Y-89201773D01*
X104397337Y-89331154D01*
X104341820Y-89356874D01*
X104281788Y-89345049D01*
X104262663Y-89331154D01*
X104123223Y-89201773D01*
X104123220Y-89201771D01*
X104123217Y-89201768D01*
X103912634Y-89058195D01*
X103854709Y-89030300D01*
X103683004Y-88947611D01*
X103439462Y-88872488D01*
X103439459Y-88872487D01*
X103439458Y-88872487D01*
X103439453Y-88872486D01*
X103439452Y-88872486D01*
X103187438Y-88834500D01*
X103187435Y-88834500D01*
X102932565Y-88834500D01*
X102932561Y-88834500D01*
X102680547Y-88872486D01*
X102680537Y-88872488D01*
X102436995Y-88947611D01*
X102207373Y-89058191D01*
X102207369Y-89058193D01*
X102207366Y-89058195D01*
X101996783Y-89201768D01*
X101996776Y-89201773D01*
X101809951Y-89375121D01*
X101809940Y-89375133D01*
X101651047Y-89574379D01*
X101651043Y-89574384D01*
X101651041Y-89574388D01*
X101627155Y-89615760D01*
X101523608Y-89795109D01*
X101523604Y-89795118D01*
X101430492Y-90032360D01*
X101373779Y-90280838D01*
X101373777Y-90280847D01*
X101354732Y-90534997D01*
X94805000Y-90534997D01*
X94805000Y-77085839D01*
X96329500Y-77085839D01*
X96329500Y-77314160D01*
X96365214Y-77539655D01*
X96435769Y-77756799D01*
X96539420Y-77960227D01*
X96539424Y-77960233D01*
X96673616Y-78144931D01*
X96673618Y-78144933D01*
X96673621Y-78144937D01*
X96748335Y-78219651D01*
X96776111Y-78274166D01*
X96766540Y-78334598D01*
X96730302Y-78373914D01*
X96611347Y-78447285D01*
X96487285Y-78571347D01*
X96395187Y-78720663D01*
X96340000Y-78887205D01*
X96329500Y-78989983D01*
X96329500Y-80490016D01*
X96339999Y-80592788D01*
X96340000Y-80592795D01*
X96340001Y-80592797D01*
X96373387Y-80693550D01*
X96395187Y-80759336D01*
X96487285Y-80908652D01*
X96487286Y-80908653D01*
X96487288Y-80908656D01*
X96611344Y-81032712D01*
X96760666Y-81124814D01*
X96927203Y-81179999D01*
X97029991Y-81190500D01*
X98930008Y-81190499D01*
X98930016Y-81190499D01*
X99032788Y-81180000D01*
X99032788Y-81179999D01*
X99032797Y-81179999D01*
X99199334Y-81124814D01*
X99348656Y-81032712D01*
X99472712Y-80908656D01*
X99564814Y-80759334D01*
X99619999Y-80592797D01*
X99630500Y-80490009D01*
X99630499Y-78989992D01*
X99630499Y-78989991D01*
X99630499Y-78989983D01*
X99620000Y-78887211D01*
X99619999Y-78887209D01*
X99619999Y-78887203D01*
X99564814Y-78720666D01*
X99472712Y-78571344D01*
X99348656Y-78447288D01*
X99348653Y-78447286D01*
X99348652Y-78447285D01*
X99229697Y-78373914D01*
X99190095Y-78327273D01*
X99185472Y-78266263D01*
X99211664Y-78219651D01*
X99286379Y-78144937D01*
X99420579Y-77960228D01*
X99524231Y-77756799D01*
X99594784Y-77539660D01*
X99630500Y-77314157D01*
X99630500Y-77085843D01*
X99630500Y-77085839D01*
X99594785Y-76860344D01*
X99594784Y-76860340D01*
X99524231Y-76643201D01*
X99420579Y-76439772D01*
X99361945Y-76359070D01*
X99286383Y-76255068D01*
X99286381Y-76255066D01*
X99286379Y-76255063D01*
X99124937Y-76093621D01*
X99124933Y-76093618D01*
X99124931Y-76093616D01*
X98940233Y-75959424D01*
X98940227Y-75959420D01*
X98736799Y-75855769D01*
X98519655Y-75785214D01*
X98294160Y-75749500D01*
X98294157Y-75749500D01*
X97665843Y-75749500D01*
X97665840Y-75749500D01*
X97440344Y-75785214D01*
X97223200Y-75855769D01*
X97019772Y-75959420D01*
X97019766Y-75959424D01*
X96835068Y-76093616D01*
X96673616Y-76255068D01*
X96539424Y-76439766D01*
X96539420Y-76439772D01*
X96435769Y-76643200D01*
X96365214Y-76860344D01*
X96329500Y-77085839D01*
X94805000Y-77085839D01*
X94805000Y-74660000D01*
X147224706Y-74660000D01*
X147243853Y-74903300D01*
X147300828Y-75140613D01*
X147300829Y-75140616D01*
X147394219Y-75366081D01*
X147394224Y-75366092D01*
X147521739Y-75574176D01*
X147521745Y-75574184D01*
X147619225Y-75688319D01*
X147680241Y-75759759D01*
X147680247Y-75759764D01*
X147680250Y-75759767D01*
X147749123Y-75818590D01*
X147865821Y-75918259D01*
X147932991Y-75959421D01*
X148073907Y-76045775D01*
X148073909Y-76045776D01*
X148073911Y-76045777D01*
X148299388Y-76139172D01*
X148536698Y-76196146D01*
X148780000Y-76215294D01*
X149023302Y-76196146D01*
X149260612Y-76139172D01*
X149486089Y-76045777D01*
X149694179Y-75918259D01*
X149879759Y-75759759D01*
X150038259Y-75574179D01*
X150165777Y-75366089D01*
X150259172Y-75140612D01*
X150316146Y-74903302D01*
X150335294Y-74660000D01*
X157384706Y-74660000D01*
X157403853Y-74903300D01*
X157460828Y-75140613D01*
X157460829Y-75140616D01*
X157554219Y-75366081D01*
X157554224Y-75366092D01*
X157681739Y-75574176D01*
X157681745Y-75574184D01*
X157779225Y-75688319D01*
X157840241Y-75759759D01*
X157840247Y-75759764D01*
X157840250Y-75759767D01*
X157909123Y-75818590D01*
X158025821Y-75918259D01*
X158092991Y-75959421D01*
X158233907Y-76045775D01*
X158233909Y-76045776D01*
X158233911Y-76045777D01*
X158459388Y-76139172D01*
X158696698Y-76196146D01*
X158940000Y-76215294D01*
X159183302Y-76196146D01*
X159420612Y-76139172D01*
X159646089Y-76045777D01*
X159854179Y-75918259D01*
X160039759Y-75759759D01*
X160198259Y-75574179D01*
X160325777Y-75366089D01*
X160419172Y-75140612D01*
X160476146Y-74903302D01*
X160495294Y-74660000D01*
X160476146Y-74416698D01*
X160419172Y-74179388D01*
X160325777Y-73953911D01*
X160198259Y-73745821D01*
X160039759Y-73560241D01*
X160039752Y-73560235D01*
X160039749Y-73560232D01*
X159854184Y-73401745D01*
X159854176Y-73401739D01*
X159646092Y-73274224D01*
X159646081Y-73274219D01*
X159420616Y-73180829D01*
X159420613Y-73180828D01*
X159183300Y-73123853D01*
X158940000Y-73104706D01*
X158696699Y-73123853D01*
X158459386Y-73180828D01*
X158459383Y-73180829D01*
X158233918Y-73274219D01*
X158233907Y-73274224D01*
X158025823Y-73401739D01*
X158025815Y-73401745D01*
X157840250Y-73560232D01*
X157840232Y-73560250D01*
X157681745Y-73745815D01*
X157681739Y-73745823D01*
X157554224Y-73953907D01*
X157554219Y-73953918D01*
X157460829Y-74179383D01*
X157460828Y-74179386D01*
X157403853Y-74416699D01*
X157384706Y-74660000D01*
X150335294Y-74660000D01*
X150316146Y-74416698D01*
X150259172Y-74179388D01*
X150165777Y-73953911D01*
X150038259Y-73745821D01*
X149879759Y-73560241D01*
X149879752Y-73560235D01*
X149879749Y-73560232D01*
X149694184Y-73401745D01*
X149694176Y-73401739D01*
X149486092Y-73274224D01*
X149486081Y-73274219D01*
X149260616Y-73180829D01*
X149260613Y-73180828D01*
X149023300Y-73123853D01*
X148780000Y-73104706D01*
X148536699Y-73123853D01*
X148299386Y-73180828D01*
X148299383Y-73180829D01*
X148073918Y-73274219D01*
X148073907Y-73274224D01*
X147865823Y-73401739D01*
X147865815Y-73401745D01*
X147680250Y-73560232D01*
X147680232Y-73560250D01*
X147521745Y-73745815D01*
X147521739Y-73745823D01*
X147394224Y-73953907D01*
X147394219Y-73953918D01*
X147300829Y-74179383D01*
X147300828Y-74179386D01*
X147243853Y-74416699D01*
X147224706Y-74660000D01*
X94805000Y-74660000D01*
X94805000Y-60789996D01*
X99444592Y-60789996D01*
X99444592Y-60790003D01*
X99464201Y-61076682D01*
X99464202Y-61076686D01*
X99522666Y-61358032D01*
X99618896Y-61628797D01*
X99751099Y-61883936D01*
X99763358Y-61901303D01*
X99916081Y-62117665D01*
X99916811Y-62118698D01*
X100112947Y-62328708D01*
X100335853Y-62510055D01*
X100335859Y-62510059D01*
X100335861Y-62510060D01*
X100500883Y-62610413D01*
X100540778Y-62656802D01*
X100545787Y-62717782D01*
X100513996Y-62770060D01*
X100500883Y-62779587D01*
X100335861Y-62879939D01*
X100335847Y-62879949D01*
X100112952Y-63061287D01*
X100112951Y-63061288D01*
X99916810Y-63271303D01*
X99916805Y-63271309D01*
X99751098Y-63506065D01*
X99618895Y-63761204D01*
X99522665Y-64031972D01*
X99464203Y-64313308D01*
X99464201Y-64313317D01*
X99444592Y-64599996D01*
X99444592Y-64600003D01*
X99464201Y-64886682D01*
X99464202Y-64886686D01*
X99522666Y-65168032D01*
X99618896Y-65438797D01*
X99751099Y-65693936D01*
X99763358Y-65711303D01*
X99905261Y-65912336D01*
X99916811Y-65928698D01*
X100112947Y-66138708D01*
X100335853Y-66320055D01*
X100335859Y-66320059D01*
X100335861Y-66320060D01*
X100581370Y-66469358D01*
X100581382Y-66469365D01*
X100761806Y-66547733D01*
X100762108Y-66548000D01*
X99568000Y-66548000D01*
X99568000Y-70358000D01*
X103632000Y-70358000D01*
X103632000Y-69817870D01*
X151678691Y-69817870D01*
X151805513Y-69861407D01*
X152050706Y-69902323D01*
X152299294Y-69902323D01*
X152544488Y-69861407D01*
X152671307Y-69817870D01*
X152174999Y-69321562D01*
X151678691Y-69817870D01*
X103632000Y-69817870D01*
X103632000Y-66548000D01*
X102337844Y-66548000D01*
X102338191Y-66547734D01*
X102423355Y-66510742D01*
X102518617Y-66469365D01*
X102518620Y-66469362D01*
X102518625Y-66469361D01*
X102764147Y-66320055D01*
X102987053Y-66138708D01*
X103183189Y-65928698D01*
X103348901Y-65693936D01*
X103481104Y-65438797D01*
X103572135Y-65182660D01*
X118581500Y-65182660D01*
X118581500Y-67282693D01*
X118591999Y-67385465D01*
X118592002Y-67385477D01*
X118647187Y-67552013D01*
X118739285Y-67701329D01*
X118739286Y-67701330D01*
X118739288Y-67701333D01*
X118863344Y-67825389D01*
X119012666Y-67917491D01*
X119179203Y-67972676D01*
X119281991Y-67983177D01*
X121382008Y-67983176D01*
X121382016Y-67983176D01*
X121484788Y-67972677D01*
X121484788Y-67972676D01*
X121484797Y-67972676D01*
X121651334Y-67917491D01*
X121800656Y-67825389D01*
X121924712Y-67701333D01*
X122016814Y-67552011D01*
X122071999Y-67385474D01*
X122082500Y-67282686D01*
X122082500Y-67040000D01*
X127524390Y-67040000D01*
X127544803Y-67325422D01*
X127544803Y-67325425D01*
X127544804Y-67325428D01*
X127605631Y-67605046D01*
X127605632Y-67605050D01*
X127705633Y-67873162D01*
X127705634Y-67873164D01*
X127826939Y-68095316D01*
X127842774Y-68124315D01*
X128014261Y-68353395D01*
X128216605Y-68555739D01*
X128445685Y-68727226D01*
X128696839Y-68864367D01*
X128964954Y-68964369D01*
X129244572Y-69025196D01*
X129530000Y-69045610D01*
X129815428Y-69025196D01*
X130095046Y-68964369D01*
X130363161Y-68864367D01*
X130614315Y-68727226D01*
X130843395Y-68555739D01*
X131045739Y-68353395D01*
X131217226Y-68124315D01*
X131354367Y-67873161D01*
X131454369Y-67605046D01*
X131515196Y-67325428D01*
X131535610Y-67040000D01*
X131535610Y-67039999D01*
X139474671Y-67039999D01*
X139474671Y-67040000D01*
X139493965Y-67334377D01*
X139516925Y-67449805D01*
X139551519Y-67623722D01*
X139551520Y-67623726D01*
X139551521Y-67623729D01*
X139646347Y-67903075D01*
X139646352Y-67903086D01*
X139776828Y-68167665D01*
X139940724Y-68412953D01*
X139940734Y-68412965D01*
X140065946Y-68555742D01*
X140135242Y-68634758D01*
X140357043Y-68829273D01*
X140602335Y-68993172D01*
X140866923Y-69123652D01*
X141146278Y-69218481D01*
X141435620Y-69276034D01*
X141730000Y-69295329D01*
X142024380Y-69276034D01*
X142313722Y-69218481D01*
X142593077Y-69123652D01*
X142857665Y-68993172D01*
X143102957Y-68829273D01*
X143324758Y-68634758D01*
X143519273Y-68412957D01*
X143526378Y-68402323D01*
X150669859Y-68402323D01*
X150690386Y-68650059D01*
X150751412Y-68891040D01*
X150756176Y-68901905D01*
X151255759Y-68402322D01*
X151189934Y-68336497D01*
X151675000Y-68336497D01*
X151675000Y-68468149D01*
X151709075Y-68595316D01*
X151774901Y-68709330D01*
X151867993Y-68802422D01*
X151982007Y-68868248D01*
X152109174Y-68902323D01*
X152240826Y-68902323D01*
X152367993Y-68868248D01*
X152482007Y-68802422D01*
X152575099Y-68709330D01*
X152640925Y-68595316D01*
X152675000Y-68468149D01*
X152675000Y-68402322D01*
X153094239Y-68402322D01*
X153593822Y-68901905D01*
X153598585Y-68891046D01*
X153598586Y-68891042D01*
X153659613Y-68650059D01*
X153680140Y-68402323D01*
X153659613Y-68154586D01*
X153598588Y-67913604D01*
X153593822Y-67902739D01*
X153094239Y-68402322D01*
X152675000Y-68402322D01*
X152675000Y-68336497D01*
X152640925Y-68209330D01*
X152575099Y-68095316D01*
X152482007Y-68002224D01*
X152367993Y-67936398D01*
X152240826Y-67902323D01*
X152109174Y-67902323D01*
X151982007Y-67936398D01*
X151867993Y-68002224D01*
X151774901Y-68095316D01*
X151709075Y-68209330D01*
X151675000Y-68336497D01*
X151189934Y-68336497D01*
X150756177Y-67902740D01*
X150751412Y-67913605D01*
X150690386Y-68154586D01*
X150669859Y-68402323D01*
X143526378Y-68402323D01*
X143683172Y-68167665D01*
X143813652Y-67903077D01*
X143908481Y-67623722D01*
X143966034Y-67334380D01*
X143985329Y-67040000D01*
X143981840Y-66986774D01*
X151678691Y-66986774D01*
X152174999Y-67483082D01*
X152671307Y-66986774D01*
X152544492Y-66943239D01*
X152299294Y-66902323D01*
X152050706Y-66902323D01*
X151805507Y-66943239D01*
X151678691Y-66986774D01*
X143981840Y-66986774D01*
X143966034Y-66745620D01*
X143908481Y-66456278D01*
X143813652Y-66176923D01*
X143683172Y-65912336D01*
X143519273Y-65667043D01*
X143324758Y-65445242D01*
X143219315Y-65352771D01*
X143102965Y-65250734D01*
X143102955Y-65250726D01*
X143056354Y-65219588D01*
X142857665Y-65086828D01*
X142593086Y-64956352D01*
X142593075Y-64956347D01*
X142313729Y-64861521D01*
X142313726Y-64861520D01*
X142313722Y-64861519D01*
X142139805Y-64826925D01*
X142024377Y-64803965D01*
X141730000Y-64784671D01*
X141435622Y-64803965D01*
X141263258Y-64838250D01*
X141146278Y-64861519D01*
X141146275Y-64861519D01*
X141146270Y-64861521D01*
X140866924Y-64956347D01*
X140866913Y-64956352D01*
X140602336Y-65086827D01*
X140357043Y-65250726D01*
X140357034Y-65250734D01*
X140135251Y-65445233D01*
X140135233Y-65445251D01*
X139940734Y-65667034D01*
X139940726Y-65667043D01*
X139776827Y-65912336D01*
X139646352Y-66176913D01*
X139646347Y-66176924D01*
X139551521Y-66456270D01*
X139551519Y-66456275D01*
X139551519Y-66456278D01*
X139533328Y-66547733D01*
X139493965Y-66745622D01*
X139474671Y-67039999D01*
X131535610Y-67039999D01*
X131515196Y-66754572D01*
X131454369Y-66474954D01*
X131354367Y-66206839D01*
X131351289Y-66201203D01*
X131217228Y-65955689D01*
X131217226Y-65955685D01*
X131045739Y-65726605D01*
X130843395Y-65524261D01*
X130614315Y-65352774D01*
X130554201Y-65319949D01*
X130363164Y-65215634D01*
X130363162Y-65215633D01*
X130095050Y-65115632D01*
X130095046Y-65115631D01*
X129815428Y-65054804D01*
X129815425Y-65054803D01*
X129815422Y-65054803D01*
X129530000Y-65034390D01*
X129244577Y-65054803D01*
X128964949Y-65115632D01*
X128696837Y-65215633D01*
X128696835Y-65215634D01*
X128445689Y-65352771D01*
X128216609Y-65524257D01*
X128014257Y-65726609D01*
X127842771Y-65955689D01*
X127705634Y-66206835D01*
X127705633Y-66206837D01*
X127605632Y-66474949D01*
X127605631Y-66474954D01*
X127558146Y-66693242D01*
X127544803Y-66754577D01*
X127524390Y-67040000D01*
X122082500Y-67040000D01*
X122082499Y-65182669D01*
X122082499Y-65182668D01*
X122082499Y-65182660D01*
X122072000Y-65079888D01*
X122071999Y-65079886D01*
X122071999Y-65079880D01*
X122016814Y-64913343D01*
X121937449Y-64784671D01*
X121924714Y-64764024D01*
X121924713Y-64764023D01*
X121924712Y-64764021D01*
X121800656Y-64639965D01*
X121800653Y-64639963D01*
X121800652Y-64639962D01*
X121651336Y-64547864D01*
X121651335Y-64547863D01*
X121651334Y-64547863D01*
X121484797Y-64492678D01*
X121484794Y-64492677D01*
X121382016Y-64482177D01*
X119281983Y-64482177D01*
X119179211Y-64492676D01*
X119179199Y-64492679D01*
X119012663Y-64547864D01*
X118863347Y-64639962D01*
X118739285Y-64764024D01*
X118647187Y-64913340D01*
X118592000Y-65079882D01*
X118581500Y-65182660D01*
X103572135Y-65182660D01*
X103577334Y-65168032D01*
X103635798Y-64886686D01*
X103655408Y-64600000D01*
X103652582Y-64558690D01*
X103644202Y-64436179D01*
X103635798Y-64313314D01*
X103577334Y-64031968D01*
X103481104Y-63761203D01*
X103348901Y-63506064D01*
X103183189Y-63271302D01*
X102987053Y-63061292D01*
X102841862Y-62943171D01*
X102764152Y-62879949D01*
X102764149Y-62879946D01*
X102736787Y-62863307D01*
X102599114Y-62779585D01*
X102559221Y-62733198D01*
X102554212Y-62672218D01*
X102568803Y-62648224D01*
X119835691Y-62648224D01*
X119962513Y-62691761D01*
X120207706Y-62732677D01*
X120456294Y-62732677D01*
X120701488Y-62691761D01*
X120828307Y-62648224D01*
X120331999Y-62151916D01*
X119835691Y-62648224D01*
X102568803Y-62648224D01*
X102586003Y-62619940D01*
X102599106Y-62610418D01*
X102764147Y-62510055D01*
X102987053Y-62328708D01*
X103183189Y-62118698D01*
X103348901Y-61883936D01*
X103481104Y-61628797D01*
X103577334Y-61358032D01*
X103603383Y-61232677D01*
X118826859Y-61232677D01*
X118847386Y-61480413D01*
X118908412Y-61721394D01*
X118913176Y-61732259D01*
X119412759Y-61232676D01*
X119346934Y-61166851D01*
X119832000Y-61166851D01*
X119832000Y-61298503D01*
X119866075Y-61425670D01*
X119931901Y-61539684D01*
X120024993Y-61632776D01*
X120139007Y-61698602D01*
X120266174Y-61732677D01*
X120397826Y-61732677D01*
X120524993Y-61698602D01*
X120639007Y-61632776D01*
X120732099Y-61539684D01*
X120797925Y-61425670D01*
X120832000Y-61298503D01*
X120832000Y-61232676D01*
X121251239Y-61232676D01*
X121750822Y-61732259D01*
X121755585Y-61721400D01*
X121755586Y-61721396D01*
X121816613Y-61480413D01*
X121837140Y-61232677D01*
X121817032Y-60989999D01*
X125324671Y-60989999D01*
X125324671Y-60990000D01*
X125343965Y-61284377D01*
X125343966Y-61284380D01*
X125401519Y-61573722D01*
X125401520Y-61573726D01*
X125401521Y-61573729D01*
X125496347Y-61853075D01*
X125496352Y-61853086D01*
X125626828Y-62117665D01*
X125790724Y-62362953D01*
X125790734Y-62362965D01*
X125919724Y-62510050D01*
X125985242Y-62584758D01*
X126207043Y-62779273D01*
X126452335Y-62943172D01*
X126716923Y-63073652D01*
X126996278Y-63168481D01*
X127285620Y-63226034D01*
X127580000Y-63245329D01*
X127874380Y-63226034D01*
X128163722Y-63168481D01*
X128443077Y-63073652D01*
X128707665Y-62943172D01*
X128952957Y-62779273D01*
X129174758Y-62584758D01*
X129369273Y-62362957D01*
X129376390Y-62352306D01*
X150424500Y-62352306D01*
X150424500Y-64452339D01*
X150434999Y-64555111D01*
X150435000Y-64555118D01*
X150435001Y-64555120D01*
X150449871Y-64599996D01*
X150490187Y-64721659D01*
X150582285Y-64870975D01*
X150582286Y-64870976D01*
X150582288Y-64870979D01*
X150706344Y-64995035D01*
X150855666Y-65087137D01*
X151022203Y-65142322D01*
X151124991Y-65152823D01*
X153225008Y-65152822D01*
X153225016Y-65152822D01*
X153327788Y-65142323D01*
X153327788Y-65142322D01*
X153327797Y-65142322D01*
X153494334Y-65087137D01*
X153643656Y-64995035D01*
X153767712Y-64870979D01*
X153859814Y-64721657D01*
X153914999Y-64555120D01*
X153925500Y-64452332D01*
X153925499Y-63229996D01*
X184544592Y-63229996D01*
X184544592Y-63230003D01*
X184564201Y-63516682D01*
X184564202Y-63516686D01*
X184622666Y-63798032D01*
X184692793Y-63995351D01*
X184718895Y-64068795D01*
X184851098Y-64323934D01*
X185014287Y-64555123D01*
X185016811Y-64558698D01*
X185212947Y-64768708D01*
X185435853Y-64950055D01*
X185435859Y-64950059D01*
X185435861Y-64950060D01*
X185600883Y-65050413D01*
X185640778Y-65096802D01*
X185645787Y-65157782D01*
X185613996Y-65210060D01*
X185600883Y-65219587D01*
X185435861Y-65319939D01*
X185435847Y-65319949D01*
X185212952Y-65501287D01*
X185212951Y-65501288D01*
X185212948Y-65501291D01*
X185212947Y-65501292D01*
X185058155Y-65667034D01*
X185016810Y-65711303D01*
X185016805Y-65711309D01*
X184851098Y-65946065D01*
X184718895Y-66201204D01*
X184676658Y-66320050D01*
X184623592Y-66469365D01*
X184622665Y-66471972D01*
X184564203Y-66753308D01*
X184564201Y-66753317D01*
X184544592Y-67039996D01*
X184544592Y-67040003D01*
X184564201Y-67326682D01*
X184564202Y-67326686D01*
X184622666Y-67608032D01*
X184718896Y-67878797D01*
X184851099Y-68133936D01*
X184901839Y-68205818D01*
X185006005Y-68353390D01*
X185016811Y-68368698D01*
X185212947Y-68578708D01*
X185435853Y-68760055D01*
X185435859Y-68760059D01*
X185435861Y-68760060D01*
X185681370Y-68909358D01*
X185681382Y-68909365D01*
X185861806Y-68987733D01*
X185907647Y-69028258D01*
X185920913Y-69087988D01*
X185896537Y-69144108D01*
X185883378Y-69153147D01*
X185881414Y-69162174D01*
X186649999Y-69930759D01*
X187418584Y-69162174D01*
X187415876Y-69149725D01*
X187395121Y-69133242D01*
X187378725Y-69074295D01*
X187400108Y-69016968D01*
X187438191Y-68987734D01*
X187523355Y-68950742D01*
X187618617Y-68909365D01*
X187618620Y-68909362D01*
X187618625Y-68909361D01*
X187864147Y-68760055D01*
X188087053Y-68578708D01*
X188283189Y-68368698D01*
X188448901Y-68133936D01*
X188581104Y-67878797D01*
X188677334Y-67608032D01*
X188735798Y-67326686D01*
X188755408Y-67040000D01*
X188735798Y-66753314D01*
X188677334Y-66471968D01*
X188581104Y-66201203D01*
X188448901Y-65946064D01*
X188283189Y-65711302D01*
X188087053Y-65501292D01*
X187864152Y-65319949D01*
X187864149Y-65319946D01*
X187836787Y-65303307D01*
X187699114Y-65219585D01*
X187659221Y-65173198D01*
X187654212Y-65112218D01*
X187686003Y-65059940D01*
X187699106Y-65050418D01*
X187864147Y-64950055D01*
X188087053Y-64768708D01*
X188283189Y-64558698D01*
X188448901Y-64323936D01*
X188581104Y-64068797D01*
X188677334Y-63798032D01*
X188735798Y-63516686D01*
X188747003Y-63352865D01*
X188755408Y-63230003D01*
X188755408Y-63229996D01*
X188735798Y-62943317D01*
X188735798Y-62943314D01*
X188677334Y-62661968D01*
X188581104Y-62391203D01*
X188448901Y-62136064D01*
X188283189Y-61901302D01*
X188087053Y-61691292D01*
X188051446Y-61662324D01*
X187864152Y-61509949D01*
X187864151Y-61509948D01*
X187864147Y-61509945D01*
X187864142Y-61509942D01*
X187864138Y-61509939D01*
X187618629Y-61360641D01*
X187618617Y-61360634D01*
X187355063Y-61246158D01*
X187355061Y-61246157D01*
X187355058Y-61246156D01*
X187078358Y-61168629D01*
X186793678Y-61129500D01*
X186506322Y-61129500D01*
X186221642Y-61168629D01*
X185944942Y-61246156D01*
X185944939Y-61246156D01*
X185944936Y-61246158D01*
X185681382Y-61360634D01*
X185681370Y-61360641D01*
X185435861Y-61509939D01*
X185435847Y-61509949D01*
X185212952Y-61691287D01*
X185212951Y-61691288D01*
X185212948Y-61691291D01*
X185212947Y-61691292D01*
X185174296Y-61732677D01*
X185016810Y-61901303D01*
X185016805Y-61901309D01*
X184851098Y-62136065D01*
X184718895Y-62391204D01*
X184676656Y-62510055D01*
X184650107Y-62584758D01*
X184622665Y-62661972D01*
X184564203Y-62943308D01*
X184564201Y-62943317D01*
X184544592Y-63229996D01*
X153925499Y-63229996D01*
X153925499Y-62352315D01*
X153925499Y-62352314D01*
X153925499Y-62352306D01*
X153915000Y-62249534D01*
X153914999Y-62249532D01*
X153914999Y-62249526D01*
X153859814Y-62082989D01*
X153767712Y-61933667D01*
X153643656Y-61809611D01*
X153643653Y-61809609D01*
X153643652Y-61809608D01*
X153494336Y-61717510D01*
X153494335Y-61717509D01*
X153494334Y-61717509D01*
X153327797Y-61662324D01*
X153327794Y-61662323D01*
X153225016Y-61651823D01*
X151124983Y-61651823D01*
X151022211Y-61662322D01*
X151022199Y-61662325D01*
X150855663Y-61717510D01*
X150706347Y-61809608D01*
X150582285Y-61933670D01*
X150490187Y-62082986D01*
X150435000Y-62249528D01*
X150424500Y-62352306D01*
X129376390Y-62352306D01*
X129533172Y-62117665D01*
X129663652Y-61853077D01*
X129758481Y-61573722D01*
X129816034Y-61284380D01*
X129835329Y-60990000D01*
X129816034Y-60695620D01*
X129758481Y-60406278D01*
X129663652Y-60126923D01*
X129533172Y-59862336D01*
X129369273Y-59617043D01*
X129174758Y-59395242D01*
X128952957Y-59200727D01*
X128707665Y-59036828D01*
X128707663Y-59036827D01*
X128443086Y-58906352D01*
X128443075Y-58906347D01*
X128163729Y-58811521D01*
X128163726Y-58811520D01*
X128163722Y-58811519D01*
X127989805Y-58776925D01*
X127874377Y-58753965D01*
X127580000Y-58734671D01*
X127285622Y-58753965D01*
X127113258Y-58788250D01*
X126996278Y-58811519D01*
X126996275Y-58811519D01*
X126996270Y-58811521D01*
X126716924Y-58906347D01*
X126716913Y-58906352D01*
X126452336Y-59036827D01*
X126207043Y-59200726D01*
X126207034Y-59200734D01*
X125985251Y-59395233D01*
X125985233Y-59395251D01*
X125790734Y-59617034D01*
X125790726Y-59617043D01*
X125626827Y-59862336D01*
X125496352Y-60126913D01*
X125496347Y-60126924D01*
X125401521Y-60406270D01*
X125343965Y-60695622D01*
X125324671Y-60989999D01*
X121817032Y-60989999D01*
X121816613Y-60984940D01*
X121755588Y-60743958D01*
X121750822Y-60733093D01*
X121251239Y-61232676D01*
X120832000Y-61232676D01*
X120832000Y-61166851D01*
X120797925Y-61039684D01*
X120732099Y-60925670D01*
X120639007Y-60832578D01*
X120524993Y-60766752D01*
X120397826Y-60732677D01*
X120266174Y-60732677D01*
X120139007Y-60766752D01*
X120024993Y-60832578D01*
X119931901Y-60925670D01*
X119866075Y-61039684D01*
X119832000Y-61166851D01*
X119346934Y-61166851D01*
X118913177Y-60733094D01*
X118908412Y-60743959D01*
X118847386Y-60984940D01*
X118826859Y-61232677D01*
X103603383Y-61232677D01*
X103635798Y-61076686D01*
X103655408Y-60790000D01*
X103651515Y-60733094D01*
X103635798Y-60503317D01*
X103635798Y-60503314D01*
X103577334Y-60221968D01*
X103481104Y-59951203D01*
X103411632Y-59817128D01*
X119835691Y-59817128D01*
X120331999Y-60313436D01*
X120828307Y-59817128D01*
X120701492Y-59773593D01*
X120456294Y-59732677D01*
X120207706Y-59732677D01*
X119962507Y-59773593D01*
X119835691Y-59817128D01*
X103411632Y-59817128D01*
X103348901Y-59696064D01*
X103183189Y-59461302D01*
X102987053Y-59251292D01*
X102924896Y-59200724D01*
X102764152Y-59069949D01*
X102764151Y-59069948D01*
X102764147Y-59069945D01*
X102764142Y-59069942D01*
X102764138Y-59069939D01*
X102518629Y-58920641D01*
X102518617Y-58920634D01*
X102255063Y-58806158D01*
X102255061Y-58806157D01*
X102255058Y-58806156D01*
X101978358Y-58728629D01*
X101693678Y-58689500D01*
X101406322Y-58689500D01*
X101121642Y-58728629D01*
X101121638Y-58728629D01*
X101121638Y-58728630D01*
X101045646Y-58749921D01*
X100844942Y-58806156D01*
X100844939Y-58806156D01*
X100844936Y-58806158D01*
X100581382Y-58920634D01*
X100581370Y-58920641D01*
X100335861Y-59069939D01*
X100335847Y-59069949D01*
X100112952Y-59251287D01*
X100112951Y-59251288D01*
X99916810Y-59461303D01*
X99916805Y-59461309D01*
X99751098Y-59696065D01*
X99618895Y-59951204D01*
X99522665Y-60221972D01*
X99464203Y-60503308D01*
X99464201Y-60503317D01*
X99444592Y-60789996D01*
X94805000Y-60789996D01*
X94805000Y-58046347D01*
X94823907Y-57988156D01*
X94840591Y-57970319D01*
X95992534Y-57009699D01*
X96049328Y-56986955D01*
X96108651Y-57001938D01*
X96125932Y-57015726D01*
X96172748Y-57062542D01*
X96434682Y-57267754D01*
X96434693Y-57267760D01*
X96434695Y-57267762D01*
X96500473Y-57307526D01*
X96719443Y-57439898D01*
X97022877Y-57576463D01*
X97340559Y-57675456D01*
X97558758Y-57715442D01*
X97667857Y-57735436D01*
X97667855Y-57735436D01*
X97999994Y-57755527D01*
X98000000Y-57755527D01*
X98000006Y-57755527D01*
X98332143Y-57735436D01*
X98397601Y-57723440D01*
X98659441Y-57675456D01*
X98977123Y-57576463D01*
X99280557Y-57439898D01*
X99565318Y-57267754D01*
X99827252Y-57062542D01*
X100062542Y-56827252D01*
X100267754Y-56565318D01*
X100439898Y-56280557D01*
X100576463Y-55977123D01*
X100675456Y-55659441D01*
X100726209Y-55382492D01*
X100735436Y-55332143D01*
X100753108Y-55040000D01*
X127524390Y-55040000D01*
X127544803Y-55325422D01*
X127544803Y-55325425D01*
X127544804Y-55325428D01*
X127599280Y-55575852D01*
X127605632Y-55605050D01*
X127705633Y-55873162D01*
X127705634Y-55873164D01*
X127820932Y-56084315D01*
X127842774Y-56124315D01*
X127959730Y-56280550D01*
X128008521Y-56345728D01*
X128014261Y-56353395D01*
X128216605Y-56555739D01*
X128445685Y-56727226D01*
X128696839Y-56864367D01*
X128964954Y-56964369D01*
X129244572Y-57025196D01*
X129530000Y-57045610D01*
X129815428Y-57025196D01*
X130095046Y-56964369D01*
X130363161Y-56864367D01*
X130614315Y-56727226D01*
X130843395Y-56555739D01*
X131045739Y-56353395D01*
X131217226Y-56124315D01*
X131354367Y-55873161D01*
X131454369Y-55605046D01*
X131515196Y-55325428D01*
X131535610Y-55040000D01*
X131532034Y-54989999D01*
X139524671Y-54989999D01*
X139524671Y-54990000D01*
X139543965Y-55284377D01*
X139563481Y-55382492D01*
X139601519Y-55573722D01*
X139601520Y-55573726D01*
X139601521Y-55573729D01*
X139696347Y-55853075D01*
X139696352Y-55853086D01*
X139826828Y-56117665D01*
X139990724Y-56362953D01*
X139990734Y-56362965D01*
X140168193Y-56565318D01*
X140185242Y-56584758D01*
X140407043Y-56779273D01*
X140652335Y-56943172D01*
X140916923Y-57073652D01*
X141196278Y-57168481D01*
X141485620Y-57226034D01*
X141780000Y-57245329D01*
X142074380Y-57226034D01*
X142363722Y-57168481D01*
X142643077Y-57073652D01*
X142907665Y-56943172D01*
X143152957Y-56779273D01*
X143374758Y-56584758D01*
X143569273Y-56362957D01*
X143733172Y-56117665D01*
X143863652Y-55853077D01*
X143958481Y-55573722D01*
X144016034Y-55284380D01*
X144035329Y-54990000D01*
X144016034Y-54695620D01*
X143958481Y-54406278D01*
X143863652Y-54126923D01*
X143733172Y-53862336D01*
X143569273Y-53617043D01*
X143383388Y-53405083D01*
X143374766Y-53395251D01*
X143374765Y-53395250D01*
X143374758Y-53395242D01*
X143337808Y-53362838D01*
X143152965Y-53200734D01*
X143152955Y-53200726D01*
X143115401Y-53175633D01*
X142907665Y-53036828D01*
X142643086Y-52906352D01*
X142643075Y-52906347D01*
X142363729Y-52811521D01*
X142363726Y-52811520D01*
X142363722Y-52811519D01*
X142189805Y-52776925D01*
X142074377Y-52753965D01*
X141780000Y-52734671D01*
X141485622Y-52753965D01*
X141321561Y-52786599D01*
X141196278Y-52811519D01*
X141196275Y-52811519D01*
X141196270Y-52811521D01*
X140916924Y-52906347D01*
X140916913Y-52906352D01*
X140652336Y-53036827D01*
X140407043Y-53200726D01*
X140407034Y-53200734D01*
X140185251Y-53395233D01*
X140185233Y-53395251D01*
X139990734Y-53617034D01*
X139990726Y-53617043D01*
X139826827Y-53862336D01*
X139696352Y-54126913D01*
X139696347Y-54126924D01*
X139601521Y-54406270D01*
X139543965Y-54695622D01*
X139524671Y-54989999D01*
X131532034Y-54989999D01*
X131515196Y-54754572D01*
X131454369Y-54474954D01*
X131354367Y-54206839D01*
X131320763Y-54145299D01*
X131217228Y-53955689D01*
X131217226Y-53955685D01*
X131045739Y-53726605D01*
X130843395Y-53524261D01*
X130614315Y-53352774D01*
X130614310Y-53352771D01*
X130363164Y-53215634D01*
X130363162Y-53215633D01*
X130095050Y-53115632D01*
X130095046Y-53115631D01*
X129815428Y-53054804D01*
X129815425Y-53054803D01*
X129815422Y-53054803D01*
X129530000Y-53034390D01*
X129244577Y-53054803D01*
X128964949Y-53115632D01*
X128696837Y-53215633D01*
X128696835Y-53215634D01*
X128445689Y-53352771D01*
X128216609Y-53524257D01*
X128014257Y-53726609D01*
X127842771Y-53955689D01*
X127705634Y-54206835D01*
X127705633Y-54206837D01*
X127605632Y-54474949D01*
X127605631Y-54474954D01*
X127553506Y-54714572D01*
X127544803Y-54754577D01*
X127524390Y-55040000D01*
X100753108Y-55040000D01*
X100755527Y-55000006D01*
X100755527Y-54999993D01*
X100735436Y-54667856D01*
X100694542Y-54444708D01*
X100675456Y-54340559D01*
X100576463Y-54022877D01*
X100439898Y-53719443D01*
X100315712Y-53514015D01*
X100301789Y-53454437D01*
X100325545Y-53398051D01*
X100337018Y-53386780D01*
X101972560Y-52022881D01*
X102029358Y-52000136D01*
X102035700Y-51999915D01*
X186958998Y-51800096D01*
X187017232Y-51818867D01*
G37*
%TD.AperFunction*%
%TD*%
%TA.AperFunction,Conductor*%
%TO.N,GND*%
G36*
X103632000Y-70358000D02*
G01*
X99568000Y-70358000D01*
X99568000Y-66548000D01*
X103632000Y-66548000D01*
X103632000Y-70358000D01*
G37*
%TD.AperFunction*%
%TD*%
%TA.AperFunction,Conductor*%
%TO.N,Net-(U3-IO_12{slash}TDI)*%
G36*
X102119329Y-108946574D02*
G01*
X102124049Y-108952062D01*
X102234115Y-109215489D01*
X102234142Y-109224444D01*
X102234115Y-109224511D01*
X102124049Y-109487937D01*
X102117697Y-109494249D01*
X102110479Y-109494792D01*
X101643926Y-109380928D01*
X101636701Y-109375638D01*
X101635000Y-109369562D01*
X101635000Y-109070437D01*
X101638427Y-109062164D01*
X101643924Y-109059072D01*
X102110479Y-108945207D01*
X102119329Y-108946574D01*
G37*
%TD.AperFunction*%
%TD*%
%TA.AperFunction,Conductor*%
%TO.N,Net-(U3-IO_12{slash}TDI)*%
G36*
X98381075Y-109059071D02*
G01*
X98388299Y-109064361D01*
X98390000Y-109070437D01*
X98390000Y-109369562D01*
X98386573Y-109377835D01*
X98381074Y-109380928D01*
X97914520Y-109494792D01*
X97905670Y-109493425D01*
X97900950Y-109487937D01*
X97851490Y-109369562D01*
X97790883Y-109224509D01*
X97790857Y-109215556D01*
X97790862Y-109215542D01*
X97900950Y-108952061D01*
X97907302Y-108945750D01*
X97914520Y-108945207D01*
X98381075Y-109059071D01*
G37*
%TD.AperFunction*%
%TD*%
%TA.AperFunction,Conductor*%
%TO.N,TOUCH*%
G36*
X108226868Y-83074020D02*
G01*
X108232356Y-83078740D01*
X108481745Y-83489158D01*
X108483112Y-83498008D01*
X108480019Y-83503507D01*
X108268507Y-83715019D01*
X108260234Y-83718446D01*
X108254158Y-83716745D01*
X107843740Y-83467356D01*
X107838450Y-83460131D01*
X107838992Y-83452914D01*
X107947436Y-83188814D01*
X107953746Y-83182464D01*
X108217914Y-83073993D01*
X108226868Y-83074020D01*
G37*
%TD.AperFunction*%
%TD*%
%TA.AperFunction,Conductor*%
%TO.N,Net-(D1-AK)*%
G36*
X106320389Y-81169627D02*
G01*
X106326662Y-81175885D01*
X106522339Y-81640887D01*
X106522389Y-81649842D01*
X106519828Y-81653698D01*
X106418698Y-81754828D01*
X106410425Y-81758255D01*
X106405887Y-81757339D01*
X105940885Y-81561662D01*
X105934589Y-81555295D01*
X105934599Y-81546436D01*
X106042436Y-81283814D01*
X106048746Y-81277464D01*
X106311436Y-81169600D01*
X106320389Y-81169627D01*
G37*
%TD.AperFunction*%
%TD*%
%TA.AperFunction,Conductor*%
%TO.N,+5V_D*%
G36*
X136410841Y-87463254D02*
G01*
X136821259Y-87712643D01*
X136826549Y-87719868D01*
X136826006Y-87727086D01*
X136717563Y-87991184D01*
X136711251Y-87997536D01*
X136711184Y-87997563D01*
X136447086Y-88106006D01*
X136438131Y-88105979D01*
X136432643Y-88101259D01*
X136183254Y-87690841D01*
X136181887Y-87681991D01*
X136184978Y-87676494D01*
X136396493Y-87464979D01*
X136404765Y-87461553D01*
X136410841Y-87463254D01*
G37*
%TD.AperFunction*%
%TD*%
%TA.AperFunction,Conductor*%
%TO.N,+5V_D*%
G36*
X132861075Y-85929071D02*
G01*
X132868299Y-85934361D01*
X132870000Y-85940437D01*
X132870000Y-86239562D01*
X132866573Y-86247835D01*
X132861074Y-86250928D01*
X132394520Y-86364792D01*
X132385670Y-86363425D01*
X132380950Y-86357937D01*
X132331490Y-86239562D01*
X132270883Y-86094509D01*
X132270857Y-86085556D01*
X132270862Y-86085542D01*
X132380950Y-85822061D01*
X132387302Y-85815750D01*
X132394520Y-85815207D01*
X132861075Y-85929071D01*
G37*
%TD.AperFunction*%
%TD*%
%TA.AperFunction,Conductor*%
%TO.N,SCL*%
G36*
X167816085Y-114426992D02*
G01*
X167940579Y-114478112D01*
X168080184Y-114535436D01*
X168086536Y-114541748D01*
X168086563Y-114541815D01*
X168195006Y-114805913D01*
X168194979Y-114814868D01*
X168190259Y-114820356D01*
X167779841Y-115069745D01*
X167770991Y-115071112D01*
X167765492Y-115068019D01*
X167553980Y-114856507D01*
X167550553Y-114848234D01*
X167552254Y-114842158D01*
X167574278Y-114805913D01*
X167801644Y-114431739D01*
X167808868Y-114426450D01*
X167816085Y-114426992D01*
G37*
%TD.AperFunction*%
%TD*%
%TA.AperFunction,Conductor*%
%TO.N,SCL*%
G36*
X178909835Y-113941427D02*
G01*
X178912928Y-113946926D01*
X179026792Y-114413479D01*
X179025425Y-114422329D01*
X179019937Y-114427049D01*
X178756511Y-114537115D01*
X178747556Y-114537142D01*
X178747489Y-114537115D01*
X178484062Y-114427049D01*
X178477750Y-114420697D01*
X178477207Y-114413479D01*
X178591072Y-113946926D01*
X178596362Y-113939701D01*
X178602438Y-113938000D01*
X178901562Y-113938000D01*
X178909835Y-113941427D01*
G37*
%TD.AperFunction*%
%TD*%
%TA.AperFunction,Conductor*%
%TO.N,SCL*%
G36*
X178959358Y-95573638D02*
G01*
X179019937Y-95598950D01*
X179026249Y-95605302D01*
X179026792Y-95612520D01*
X178912928Y-96079074D01*
X178907638Y-96086299D01*
X178901562Y-96088000D01*
X178602438Y-96088000D01*
X178594165Y-96084573D01*
X178591072Y-96079074D01*
X178477207Y-95612520D01*
X178478574Y-95603670D01*
X178484062Y-95598950D01*
X178747490Y-95488883D01*
X178756444Y-95488857D01*
X178959358Y-95573638D01*
G37*
%TD.AperFunction*%
%TD*%
%TA.AperFunction,Conductor*%
%TO.N,SCL*%
G36*
X144926075Y-116409071D02*
G01*
X144933299Y-116414361D01*
X144935000Y-116420437D01*
X144935000Y-116719562D01*
X144931573Y-116727835D01*
X144926074Y-116730928D01*
X144459520Y-116844792D01*
X144450670Y-116843425D01*
X144445950Y-116837937D01*
X144396490Y-116719562D01*
X144335883Y-116574509D01*
X144335857Y-116565556D01*
X144335862Y-116565542D01*
X144445950Y-116302061D01*
X144452302Y-116295750D01*
X144459520Y-116295207D01*
X144926075Y-116409071D01*
G37*
%TD.AperFunction*%
%TD*%
%TA.AperFunction,Conductor*%
%TO.N,SCL*%
G36*
X178909835Y-132991427D02*
G01*
X178912928Y-132996926D01*
X179026792Y-133463479D01*
X179025425Y-133472329D01*
X179019937Y-133477049D01*
X178756511Y-133587115D01*
X178747556Y-133587142D01*
X178747489Y-133587115D01*
X178484062Y-133477049D01*
X178477750Y-133470697D01*
X178477207Y-133463479D01*
X178591072Y-132996926D01*
X178596362Y-132989701D01*
X178602438Y-132988000D01*
X178901562Y-132988000D01*
X178909835Y-132991427D01*
G37*
%TD.AperFunction*%
%TD*%
%TA.AperFunction,Conductor*%
%TO.N,SCL*%
G36*
X178959358Y-114623638D02*
G01*
X179019937Y-114648950D01*
X179026249Y-114655302D01*
X179026792Y-114662520D01*
X178912928Y-115129074D01*
X178907638Y-115136299D01*
X178901562Y-115138000D01*
X178602438Y-115138000D01*
X178594165Y-115134573D01*
X178591072Y-115129074D01*
X178477207Y-114662520D01*
X178478574Y-114653670D01*
X178484062Y-114648950D01*
X178747490Y-114538883D01*
X178756444Y-114538857D01*
X178959358Y-114623638D01*
G37*
%TD.AperFunction*%
%TD*%
%TA.AperFunction,Conductor*%
%TO.N,SCL*%
G36*
X178959358Y-76650638D02*
G01*
X179019937Y-76675950D01*
X179026249Y-76682302D01*
X179026792Y-76689520D01*
X178912928Y-77156074D01*
X178907638Y-77163299D01*
X178901562Y-77165000D01*
X178602438Y-77165000D01*
X178594165Y-77161573D01*
X178591072Y-77156074D01*
X178477207Y-76689520D01*
X178478574Y-76680670D01*
X178484062Y-76675950D01*
X178747490Y-76565883D01*
X178756444Y-76565857D01*
X178959358Y-76650638D01*
G37*
%TD.AperFunction*%
%TD*%
%TA.AperFunction,Conductor*%
%TO.N,SCL*%
G36*
X178909835Y-94891427D02*
G01*
X178912928Y-94896926D01*
X179026792Y-95363479D01*
X179025425Y-95372329D01*
X179019937Y-95377049D01*
X178756511Y-95487115D01*
X178747556Y-95487142D01*
X178747489Y-95487115D01*
X178484062Y-95377049D01*
X178477750Y-95370697D01*
X178477207Y-95363479D01*
X178591072Y-94896926D01*
X178596362Y-94889701D01*
X178602438Y-94888000D01*
X178901562Y-94888000D01*
X178909835Y-94891427D01*
G37*
%TD.AperFunction*%
%TD*%
%TA.AperFunction,Conductor*%
%TO.N,SDA*%
G36*
X167308085Y-113410992D02*
G01*
X167432579Y-113462112D01*
X167572184Y-113519436D01*
X167578536Y-113525748D01*
X167578563Y-113525815D01*
X167687006Y-113789913D01*
X167686979Y-113798868D01*
X167682259Y-113804356D01*
X167271841Y-114053745D01*
X167262991Y-114055112D01*
X167257492Y-114052019D01*
X167045980Y-113840507D01*
X167042553Y-113832234D01*
X167044254Y-113826158D01*
X167066278Y-113789913D01*
X167293644Y-113415739D01*
X167300868Y-113410450D01*
X167308085Y-113410992D01*
G37*
%TD.AperFunction*%
%TD*%
%TA.AperFunction,Conductor*%
%TO.N,SDA*%
G36*
X177639835Y-94891427D02*
G01*
X177642928Y-94896926D01*
X177756792Y-95363479D01*
X177755425Y-95372329D01*
X177749937Y-95377049D01*
X177486511Y-95487115D01*
X177477556Y-95487142D01*
X177477489Y-95487115D01*
X177214062Y-95377049D01*
X177207750Y-95370697D01*
X177207207Y-95363479D01*
X177321072Y-94896926D01*
X177326362Y-94889701D01*
X177332438Y-94888000D01*
X177631562Y-94888000D01*
X177639835Y-94891427D01*
G37*
%TD.AperFunction*%
%TD*%
%TA.AperFunction,Conductor*%
%TO.N,SDA*%
G36*
X177689358Y-76650638D02*
G01*
X177749937Y-76675950D01*
X177756249Y-76682302D01*
X177756792Y-76689520D01*
X177642928Y-77156074D01*
X177637638Y-77163299D01*
X177631562Y-77165000D01*
X177332438Y-77165000D01*
X177324165Y-77161573D01*
X177321072Y-77156074D01*
X177207207Y-76689520D01*
X177208574Y-76680670D01*
X177214062Y-76675950D01*
X177477490Y-76565883D01*
X177486444Y-76565857D01*
X177689358Y-76650638D01*
G37*
%TD.AperFunction*%
%TD*%
%TA.AperFunction,Conductor*%
%TO.N,SDA*%
G36*
X177689358Y-114623638D02*
G01*
X177749937Y-114648950D01*
X177756249Y-114655302D01*
X177756792Y-114662520D01*
X177642928Y-115129074D01*
X177637638Y-115136299D01*
X177631562Y-115138000D01*
X177332438Y-115138000D01*
X177324165Y-115134573D01*
X177321072Y-115129074D01*
X177207207Y-114662520D01*
X177208574Y-114653670D01*
X177214062Y-114648950D01*
X177477490Y-114538883D01*
X177486444Y-114538857D01*
X177689358Y-114623638D01*
G37*
%TD.AperFunction*%
%TD*%
%TA.AperFunction,Conductor*%
%TO.N,SDA*%
G36*
X177639835Y-132991427D02*
G01*
X177642928Y-132996926D01*
X177756792Y-133463479D01*
X177755425Y-133472329D01*
X177749937Y-133477049D01*
X177486511Y-133587115D01*
X177477556Y-133587142D01*
X177477489Y-133587115D01*
X177214062Y-133477049D01*
X177207750Y-133470697D01*
X177207207Y-133463479D01*
X177321072Y-132996926D01*
X177326362Y-132989701D01*
X177332438Y-132988000D01*
X177631562Y-132988000D01*
X177639835Y-132991427D01*
G37*
%TD.AperFunction*%
%TD*%
%TA.AperFunction,Conductor*%
%TO.N,SDA*%
G36*
X144926075Y-115139071D02*
G01*
X144933299Y-115144361D01*
X144935000Y-115150437D01*
X144935000Y-115449562D01*
X144931573Y-115457835D01*
X144926074Y-115460928D01*
X144459520Y-115574792D01*
X144450670Y-115573425D01*
X144445950Y-115567937D01*
X144396490Y-115449562D01*
X144335883Y-115304509D01*
X144335857Y-115295556D01*
X144335862Y-115295542D01*
X144445950Y-115032061D01*
X144452302Y-115025750D01*
X144459520Y-115025207D01*
X144926075Y-115139071D01*
G37*
%TD.AperFunction*%
%TD*%
%TA.AperFunction,Conductor*%
%TO.N,SDA*%
G36*
X177639835Y-113941427D02*
G01*
X177642928Y-113946926D01*
X177756792Y-114413479D01*
X177755425Y-114422329D01*
X177749937Y-114427049D01*
X177486511Y-114537115D01*
X177477556Y-114537142D01*
X177477489Y-114537115D01*
X177214062Y-114427049D01*
X177207750Y-114420697D01*
X177207207Y-114413479D01*
X177321072Y-113946926D01*
X177326362Y-113939701D01*
X177332438Y-113938000D01*
X177631562Y-113938000D01*
X177639835Y-113941427D01*
G37*
%TD.AperFunction*%
%TD*%
%TA.AperFunction,Conductor*%
%TO.N,SDA*%
G36*
X177689358Y-95573638D02*
G01*
X177749937Y-95598950D01*
X177756249Y-95605302D01*
X177756792Y-95612520D01*
X177642928Y-96079074D01*
X177637638Y-96086299D01*
X177631562Y-96088000D01*
X177332438Y-96088000D01*
X177324165Y-96084573D01*
X177321072Y-96079074D01*
X177207207Y-95612520D01*
X177208574Y-95603670D01*
X177214062Y-95598950D01*
X177477490Y-95488883D01*
X177486444Y-95488857D01*
X177689358Y-95573638D01*
G37*
%TD.AperFunction*%
%TD*%
%TA.AperFunction,Conductor*%
%TO.N,+3.3V_ESP*%
G36*
X143383507Y-122389980D02*
G01*
X143595019Y-122601492D01*
X143598446Y-122609765D01*
X143596745Y-122615841D01*
X143347356Y-123026259D01*
X143340131Y-123031549D01*
X143332913Y-123031006D01*
X143068815Y-122922563D01*
X143062463Y-122916251D01*
X143062436Y-122916184D01*
X142953993Y-122652086D01*
X142954020Y-122643131D01*
X142958738Y-122637644D01*
X143369158Y-122388253D01*
X143378008Y-122386887D01*
X143383507Y-122389980D01*
G37*
%TD.AperFunction*%
%TD*%
%TA.AperFunction,Conductor*%
%TO.N,+3.3V_ESP*%
G36*
X171016329Y-106898574D02*
G01*
X171021049Y-106904062D01*
X171131115Y-107167489D01*
X171131142Y-107176444D01*
X171131115Y-107176511D01*
X171021049Y-107439937D01*
X171014697Y-107446249D01*
X171007479Y-107446792D01*
X170540926Y-107332928D01*
X170533701Y-107327638D01*
X170532000Y-107321562D01*
X170532000Y-107022437D01*
X170535427Y-107014164D01*
X170540924Y-107011072D01*
X171007479Y-106897207D01*
X171016329Y-106898574D01*
G37*
%TD.AperFunction*%
%TD*%
%TA.AperFunction,Conductor*%
%TO.N,+3.3V_ESP*%
G36*
X171016329Y-87848574D02*
G01*
X171021049Y-87854062D01*
X171131115Y-88117489D01*
X171131142Y-88126444D01*
X171131115Y-88126511D01*
X171021049Y-88389937D01*
X171014697Y-88396249D01*
X171007479Y-88396792D01*
X170540926Y-88282928D01*
X170533701Y-88277638D01*
X170532000Y-88271562D01*
X170532000Y-87972437D01*
X170535427Y-87964164D01*
X170540924Y-87961072D01*
X171007479Y-87847207D01*
X171016329Y-87848574D01*
G37*
%TD.AperFunction*%
%TD*%
M02*
